<svg xmlns="http://www.w3.org/2000/svg" width="569" height="395.924" viewBox="0 0 569 395.924">
  <g id="_3" data-name="3" transform="translate(-212 -3098)">
    <g id="Group_166341" data-name="Group 166341" transform="translate(212 3098)">
      <g id="Group_166337" data-name="Group 166337" transform="translate(0 0)">
        <path id="Path_80166" data-name="Path 80166" d="M677.293,317.449c-4.813,39.171-32.579,32.654-36.964,78.2-1.565,16.256,10.271,26.476,16.152,40.55,6.513,15.556,4.206,29.536-4.59,40.2H169.255c-10.67-4.9-20.85-10.1-29.712-16.36-12.2-8.594-21.854-19.187-26.778-33.711-4.444-13.123-7.868-25.783,3.806-35.737,6.338-5.412,12.935-9.587,18.671-14.6a45.355,45.355,0,0,0,11.014-13.626C167.3,321.236,140.307,285,130.4,243.848c-.956-4-1.832-8.037-2.529-12.089-1.818-10.321-2.664-20.792-1.585-30.991a68.284,68.284,0,0,1,8.463-27.074c7.36-12.891,26.425-31.929,46.913-28.3,15.394,2.734,25.081,17.773,38.98,23.212,17.516,6.854,36.949,1.373,50.071-8.7,25.521-19.595,41.876-56.842,85.494-53.428,14.79,1.156,24.774,13.055,37.742,18.508,17.828,7.506,35.414,7.451,52.451.149,19.593-8.4,33.037-24.014,52.276-32.949a130.2,130.2,0,0,1,20.313-7.438c15.477-4.27,32.4-5.78,48.363-2.489a94.089,94.089,0,0,1,9.633,2.489c53.364,16.739,55.875,71.568,53.364,111.576-1.152,18.33-15.553,49.943-4.914,68.883S681.948,279.571,677.293,317.449Z" transform="translate(-108.624 -80.472)" fill="rgba(252,79,25,0.99)" opacity="0.1"/>
      </g>
    </g>
    <g id="Group_166527" data-name="Group 166527" transform="translate(254.225 3178.378)">
      <g id="Group_166526" data-name="Group 166526">
        <path id="Path_81016" data-name="Path 81016" d="M0,0H247.368V165.23H0Z" transform="translate(110.661 3.61)" fill="#2b478b"/>
        <g id="Group_166475" data-name="Group 166475" transform="translate(106.129 0)">
          <path id="Path_80794" data-name="Path 80794" d="M1143.895,553.9H887.461V381.446h256.434Zm-251.9-3.61h247.368V385.056H891.994Z" transform="translate(-887.461 -381.446)" fill="#eac3a0"/>
        </g>
        <path id="Rectangle_3472" data-name="Rectangle 3472" d="M2.544,0H261.753A2.544,2.544,0,0,1,264.3,2.544v0a2.544,2.544,0,0,1-2.544,2.544H2.544A2.544,2.544,0,0,1,0,2.544v0A2.544,2.544,0,0,1,2.544,0Z" transform="translate(102.393 167.223)" fill="#d39e7a"/>
        <path id="Rectangle_3473" data-name="Rectangle 3473" d="M1.685,0H9.133a1.685,1.685,0,0,1,1.685,1.685v0A1.685,1.685,0,0,1,9.133,3.37H1.685A1.685,1.685,0,0,1,0,1.685v0A1.685,1.685,0,0,1,1.685,0Z" transform="translate(299.751 163.853)" fill="#fff"/>
        <rect id="Rectangle_3474" data-name="Rectangle 3474" width="6.266" height="3.37" rx="1.685" transform="translate(254.255 163.853)" fill="#fff"/>
        <rect id="Rectangle_3475" data-name="Rectangle 3475" width="10.911" height="3.37" rx="1.685" transform="translate(241.49 163.853)" fill="#fff"/>
        <g id="Group_166482" data-name="Group 166482" transform="translate(395.572 31.152)">
          <path id="Rectangle_3476" data-name="Rectangle 3476" d="M13.25,0H27.315A13.249,13.249,0,0,1,40.564,13.249V26.1a13.25,13.25,0,0,1-13.25,13.25H13.249A13.249,13.249,0,0,1,0,26.1V13.25A13.25,13.25,0,0,1,13.25,0Z" fill="#eac3a0"/>
          <path id="Rectangle_3477" data-name="Rectangle 3477" d="M12.1,0H24.948a12.1,12.1,0,0,1,12.1,12.1V23.842a12.1,12.1,0,0,1-12.1,12.1H12.1A12.1,12.1,0,0,1,0,23.842V12.1A12.1,12.1,0,0,1,12.1,0Z" transform="translate(1.757 1.705)" fill="#ffeede"/>
          <g id="Group_166478" data-name="Group 166478" transform="translate(4.789 4.456)">
            <g id="Group_166476" data-name="Group 166476" transform="translate(14.653)">
              <path id="Path_80795" data-name="Path 80795" d="M2298,544.894a.84.84,0,1,1,.84.84A.84.84,0,0,1,2298,544.894Z" transform="translate(-2297.998 -544.054)" fill="#eac3a0"/>
              <path id="Path_80796" data-name="Path 80796" d="M2328.582,551.773a.84.84,0,1,1,.327,1.143A.841.841,0,0,1,2328.582,551.773Z" transform="translate(-2321.802 -549.745)" fill="#eac3a0"/>
              <path id="Path_80797" data-name="Path 80797" d="M2354.114,573.91a.84.84,0,1,1-.251,1.162A.84.84,0,0,1,2354.114,573.91Z" transform="translate(-2341.525 -567.267)" fill="#eac3a0"/>
              <path id="Path_80798" data-name="Path 80798" d="M2365.629,607.007a.84.84,0,1,1-.84.841A.841.841,0,0,1,2365.629,607.007Z" transform="translate(-2350.162 -593.221)" fill="#eac3a0"/>
              <path id="Path_80799" data-name="Path 80799" d="M2356.8,643.984a.84.84,0,1,1-1.188,0A.84.84,0,0,1,2356.8,643.984Z" transform="translate(-2342.803 -621.909)" fill="#eac3a0"/>
              <path id="Path_80800" data-name="Path 80800" d="M2332.706,668.142a.84.84,0,1,1-1.188,0A.841.841,0,0,1,2332.706,668.142Z" transform="translate(-2323.986 -640.776)" fill="#eac3a0"/>
              <path id="Path_80801" data-name="Path 80801" d="M2298,678.475a.84.84,0,1,1,.84.84A.84.84,0,0,1,2298,678.475Z" transform="translate(-2297.998 -648.383)" fill="#eac3a0"/>
            </g>
            <g id="Group_166477" data-name="Group 166477" transform="translate(0 1.596)">
              <path id="Path_80802" data-name="Path 80802" d="M2268.971,551.773a.84.84,0,1,0-.326,1.143A.84.84,0,0,0,2268.971,551.773Z" transform="translate(-2259.445 -551.341)" fill="#eac3a0"/>
              <path id="Path_80803" data-name="Path 80803" d="M2243.439,573.91a.84.84,0,1,0,.25,1.162A.841.841,0,0,0,2243.439,573.91Z" transform="translate(-2239.721 -568.863)" fill="#eac3a0"/>
              <path id="Path_80804" data-name="Path 80804" d="M2231.925,607.007a.84.84,0,1,0,.84.841A.84.84,0,0,0,2231.925,607.007Z" transform="translate(-2231.085 -594.817)" fill="#eac3a0"/>
              <path id="Path_80805" data-name="Path 80805" d="M2240.754,643.984a.84.84,0,1,0,1.189,0A.84.84,0,0,0,2240.754,643.984Z" transform="translate(-2238.444 -623.504)" fill="#eac3a0"/>
              <path id="Path_80806" data-name="Path 80806" d="M2264.85,668.142a.84.84,0,1,0,1.188,0A.84.84,0,0,0,2264.85,668.142Z" transform="translate(-2257.263 -642.372)" fill="#eac3a0"/>
            </g>
          </g>
          <g id="Group_166481" data-name="Group 166481" transform="translate(20.056 8.585)">
            <path id="Path_80807" data-name="Path 80807" d="M2300.8,607.848a.84.84,0,1,1,.84.84A.841.841,0,0,1,2300.8,607.848Z" transform="translate(-2300.801 -597.35)" fill="#eac3a0"/>
            <g id="Group_166479" data-name="Group 166479" transform="translate(0.725)">
              <rect id="Rectangle_3478" data-name="Rectangle 3478" width="0.229" height="10.497" fill="#eac3a0"/>
            </g>
            <g id="Group_166480" data-name="Group 166480" transform="translate(0.522 5.843)">
              <rect id="Rectangle_3479" data-name="Rectangle 3479" width="7.075" height="0.688" transform="translate(0 4.368) rotate(-38.128)" fill="#eac3a0"/>
            </g>
          </g>
        </g>
        <path id="Path_80808" data-name="Path 80808" d="M489.28,1387.733v2.337c0,.818-.265,1.486-.588,1.486H403.408c-.323,0-.588-.668-.588-1.486v-2.337c0-.817.265-1.486.588-1.486h85.284C489.016,1386.246,489.28,1386.916,489.28,1387.733Z" transform="translate(-402.82 -1166.211)" fill="#d39e7a"/>
        <path id="Path_80809" data-name="Path 80809" d="M552.317,1387.733v2.337c0,.818-.243,1.486-.539,1.486H484.071c-.3,0-.54-.668-.54-1.486v-2.337c0-.817.243-1.486.54-1.486h67.706C552.074,1386.246,552.317,1386.916,552.317,1387.733Z" transform="translate(-465.857 -1166.211)" fill="#efcbab"/>
        <rect id="Rectangle_3480" data-name="Rectangle 3480" width="60.546" height="88.249" transform="translate(4.329 225.346)" fill="#eac3a0"/>
        <rect id="Rectangle_3481" data-name="Rectangle 3481" width="60.546" height="88.249" transform="translate(21.296 225.346)" fill="#f9ddbf"/>
        <g id="Group_166486" data-name="Group 166486" transform="translate(24.55 227.839)">
          <g id="Group_166483" data-name="Group 166483">
            <path id="Path_80810" data-name="Path 80810" d="M568.969,1502.765H514.93v-80.884h54.039Zm-53.456-.583h52.872v-79.717H515.513Z" transform="translate(-514.93 -1421.881)" fill="#eac3a0"/>
          </g>
          <g id="Group_166484" data-name="Group 166484" transform="translate(0.292 26.757)">
            <rect id="Rectangle_3482" data-name="Rectangle 3482" width="53.456" height="0.583" fill="#eac3a0"/>
          </g>
          <g id="Group_166485" data-name="Group 166485" transform="translate(0.292 54.035)">
            <rect id="Rectangle_3483" data-name="Rectangle 3483" width="53.456" height="0.584" fill="#eac3a0"/>
          </g>
          <path id="Path_80811" data-name="Path 80811" d="M624.831,1439.458h-9.92a.878.878,0,0,1-.875-.875h0a.878.878,0,0,1,.875-.875h9.92a.878.878,0,0,1,.875.875h0A.878.878,0,0,1,624.831,1439.458Z" transform="translate(-592.333 -1434.242)" fill="#eac3a0"/>
          <path id="Path_80812" data-name="Path 80812" d="M624.831,1561.273h-9.92a.878.878,0,0,1-.875-.875h0a.878.878,0,0,1,.875-.876h9.92a.878.878,0,0,1,.875.876h0A.878.878,0,0,1,624.831,1561.273Z" transform="translate(-592.333 -1529.381)" fill="#eac3a0"/>
          <path id="Path_80813" data-name="Path 80813" d="M624.831,1688.256h-9.92a.878.878,0,0,1-.875-.875h0a.878.878,0,0,1,.875-.875h9.92a.878.878,0,0,1,.875.875h0A.878.878,0,0,1,624.831,1688.256Z" transform="translate(-592.333 -1628.557)" fill="#eac3a0"/>
        </g>
        <g id="Group_166487" data-name="Group 166487" transform="translate(412.212 238.431)">
          <path id="Path_80814" data-name="Path 80814" d="M2290.59,1544.405h.1a1.1,1.1,0,0,0,1.1-1.128l-1.671-72.454-4.924-.574,4.2,73.033A1.191,1.191,0,0,0,2290.59,1544.405Z" transform="translate(-2285.201 -1470.249)" fill="#eac3a0"/>
        </g>
        <g id="Group_166488" data-name="Group 166488" transform="translate(440.906 238.431)">
          <path id="Path_80815" data-name="Path 80815" d="M2421.625,1544.405h.1a1.1,1.1,0,0,0,1.1-1.128l-1.672-72.454-4.924-.574,4.2,73.033A1.191,1.191,0,0,0,2421.625,1544.405Z" transform="translate(-2416.236 -1470.249)" fill="#eac3a0"/>
        </g>
        <g id="Group_166489" data-name="Group 166489" transform="translate(365.906 238.431)">
          <path id="Path_80816" data-name="Path 80816" d="M2074.952,1544.405h-.105a1.1,1.1,0,0,1-1.1-1.128l1.672-72.454,4.924-.574-4.2,73.033A1.192,1.192,0,0,1,2074.952,1544.405Z" transform="translate(-2073.744 -1470.249)" fill="#eac3a0"/>
        </g>
        <path id="Path_80817" data-name="Path 80817" d="M2215.334,1218.862v-49.649a15.818,15.818,0,0,0-15.819-15.818h-35.771a15.818,15.818,0,0,0-15.818,15.818v51.546Z" transform="translate(-1765.776 -984.35)" fill="#efcbab"/>
        <path id="Rectangle_3484" data-name="Rectangle 3484" d="M7.838,0H73.816a0,0,0,0,1,0,0V7.838a0,0,0,0,1,0,0H0a0,0,0,0,1,0,0v0A7.838,7.838,0,0,1,7.838,0Z" transform="translate(449.558 242.35) rotate(180)" fill="#eac3a0"/>
        <path id="Rectangle_3485" data-name="Rectangle 3485" d="M3.919,0H55.356a3.919,3.919,0,0,1,3.919,3.919v0a3.919,3.919,0,0,1-3.919,3.919H3.919A3.919,3.919,0,0,1,0,3.919v0A3.919,3.919,0,0,1,3.919,0Z" transform="translate(423.229 242.35) rotate(180)" fill="#f9ddbf"/>
        <g id="Group_166492" data-name="Group 166492" transform="translate(314.311 205.856)">
          <g id="Group_166490" data-name="Group 166490" transform="translate(162.571 4.419)">
            <path id="Path_80818" data-name="Path 80818" d="M2587.644,1445.5h.139a1.505,1.505,0,0,0,1.458-1.579l-2.211-101.445-6.512-.8,5.553,102.256A1.618,1.618,0,0,0,2587.644,1445.5Z" transform="translate(-2580.518 -1341.673)" fill="#d39e7a"/>
          </g>
          <g id="Group_166491" data-name="Group 166491" transform="translate(9.284 4.419)">
            <path id="Path_80819" data-name="Path 80819" d="M1882.126,1445.5h-.139a1.5,1.5,0,0,1-1.458-1.579l2.21-101.445,6.512-.8-5.553,102.256A1.617,1.617,0,0,1,1882.126,1445.5Z" transform="translate(-1880.529 -1341.673)" fill="#d39e7a"/>
          </g>
          <rect id="Rectangle_3486" data-name="Rectangle 3486" width="184.486" height="7.089" rx="3.544" fill="#d39e7a"/>
        </g>
        <g id="Group_166499" data-name="Group 166499" transform="translate(329.711 195.708)">
          <g id="Group_166494" data-name="Group 166494">
            <g id="Group_166493" data-name="Group 166493">
              <path id="Rectangle_3487" data-name="Rectangle 3487" d="M0,0H15.692a2.825,2.825,0,0,1,2.825,2.825v0a2.889,2.889,0,0,1-2.889,2.889H0a0,0,0,0,1,0,0V0A0,0,0,0,1,0,0Z" transform="translate(0.859 0)" fill="#fcecdb"/>
              <path id="Path_80820" data-name="Path 80820" d="M1941.644,1277.507v.859a2.5,2.5,0,0,1-2.5,2.5h-30.319a.363.363,0,0,1-.363-.363v-.129a.363.363,0,0,1,.363-.363H1927.3a2.34,2.34,0,0,0,.53-1.482v-1.093a2.275,2.275,0,0,0-.5-1.43h-18.51a.364.364,0,0,1-.363-.364v-.128a.363.363,0,0,1,.363-.363h30.472a2.35,2.35,0,0,1,2.351,2.351Z" transform="translate(-1908.458 -1275.156)" fill="#699dee"/>
              <path id="Path_80821" data-name="Path 80821" d="M1941.554,1276.859h-13.794a2.282,2.282,0,0,0-.429-.848h-18.51a.364.364,0,0,1-.363-.364v-.128a.363.363,0,0,1,.363-.363h30.472A2.351,2.351,0,0,1,1941.554,1276.859Z" transform="translate(-1908.458 -1275.156)" fill="#548ee2"/>
            </g>
            <path id="Path_80822" data-name="Path 80822" d="M1912.382,1288.2l2.245.1-2.245.058Z" transform="translate(-1911.523 -1285.347)" fill="#f4d2b8"/>
            <path id="Path_80823" data-name="Path 80823" d="M1912.382,1292.3l5.341.1-5.341.058Z" transform="translate(-1911.523 -1288.545)" fill="#f4d2b8"/>
          </g>
          <g id="Group_166498" data-name="Group 166498" transform="translate(2.425 5.703)">
            <g id="Group_166496" data-name="Group 166496">
              <g id="Group_166495" data-name="Group 166495">
                <path id="Path_80824" data-name="Path 80824" d="M1921.827,1305.642h17.224V1301.2h-17.364a2.153,2.153,0,0,0-2.153,2.153h0A2.292,2.292,0,0,0,1921.827,1305.642Z" transform="translate(-1919.534 -1301.197)" fill="#b5453c"/>
                <path id="Rectangle_3488" data-name="Rectangle 3488" d="M0,0H19.594a2.247,2.247,0,0,1,2.247,2.247v0a2.2,2.2,0,0,1-2.2,2.2H0a0,0,0,0,1,0,0V0A0,0,0,0,1,0,0Z" transform="translate(38.131 4.445) rotate(-180)" fill="#fcecdb"/>
                <path id="Path_80825" data-name="Path 80825" d="M1986.759,1319.124h23.831a.332.332,0,0,0,.332-.332h0a.332.332,0,0,0-.332-.333h-23.831a.333.333,0,0,0-.333.333h0A.332.332,0,0,0,1986.759,1319.124Z" transform="translate(-1971.778 -1314.679)" fill="#b5453c"/>
                <path id="Path_80826" data-name="Path 80826" d="M1986.759,1301.862h23.831a.332.332,0,0,0,.332-.332h0a.332.332,0,0,0-.332-.333h-23.831a.333.333,0,0,0-.333.333h0A.332.332,0,0,0,1986.759,1301.862Z" transform="translate(-1971.778 -1301.197)" fill="#b5453c"/>
              </g>
              <path id="Path_80827" data-name="Path 80827" d="M2084.215,1311.346l-2.648.075,2.648.045Z" transform="translate(-2046.085 -1309.123)" fill="#f4d2b8"/>
              <path id="Path_80828" data-name="Path 80828" d="M2071.191,1306.675l-6.3.075,6.3.045Z" transform="translate(-2033.061 -1305.475)" fill="#f4d2b8"/>
            </g>
            <g id="Group_166497" data-name="Group 166497" transform="translate(31.896 1.259)">
              <path id="Path_80829" data-name="Path 80829" d="M2065.188,1306.948a1.037,1.037,0,0,1,.359.505.707.707,0,0,1,.028.176c.015.417,0,1.361,0,1.361l.8-.472.8.472v-1.279a1.015,1.015,0,0,0-.2-.631.3.3,0,0,0-.22-.131Z" transform="translate(-2065.188 -1306.948)" fill="#699dee"/>
              <path id="Path_80830" data-name="Path 80830" d="M2065.188,1306.948a1.037,1.037,0,0,1,.359.505l1.6.018s-.062-.449-.392-.523Z" transform="translate(-2065.188 -1306.948)" fill="#568cdb"/>
            </g>
          </g>
        </g>
        <g id="Group_166503" data-name="Group 166503" transform="translate(327.027 191.438)">
          <g id="Group_166502" data-name="Group 166502">
            <g id="Group_166501" data-name="Group 166501">
              <g id="Group_166500" data-name="Group 166500">
                <path id="Rectangle_3489" data-name="Rectangle 3489" d="M0,0H8.495a2.068,2.068,0,0,1,2.068,2.068v0a2.2,2.2,0,0,1-2.2,2.2H0a0,0,0,0,1,0,0V0A0,0,0,0,1,0,0Z" transform="translate(27.9)" fill="#f99746"/>
                <path id="Rectangle_3490" data-name="Rectangle 3490" d="M0,0H28.936a2.111,2.111,0,0,1,2.111,2.111v0a2.159,2.159,0,0,1-2.159,2.159H0a0,0,0,0,1,0,0V0A0,0,0,0,1,0,0Z" transform="translate(1.44)" fill="#fcecdb"/>
                <path id="Rectangle_3491" data-name="Rectangle 3491" d="M.32,0H34.5a.319.319,0,0,1,.319.319v0A.319.319,0,0,1,34.5.639H.319A.319.319,0,0,1,0,.32v0A.32.32,0,0,1,.32,0Z" transform="translate(0 3.632)" fill="#f99746"/>
                <rect id="Rectangle_3492" data-name="Rectangle 3492" width="34.821" height="0.639" rx="0.319" fill="#f99746"/>
              </g>
            </g>
          </g>
        </g>
        <g id="Group_166508" data-name="Group 166508" transform="translate(446.188 129.995)">
          <g id="Group_166505" data-name="Group 166505" transform="translate(17.205)">
            <g id="Group_166504" data-name="Group 166504" transform="translate(3.05 1.717)">
              <path id="Path_80831" data-name="Path 80831" d="M2543.9,1054.163h-1.223v-21.055l12.51-31.919-22.336-17.308.749-.966,23.059,17.868-12.759,32.556Z" transform="translate(-2532.85 -982.915)" fill="#eac3a0"/>
            </g>
            <path id="Path_80832" data-name="Path 80832" d="M2519.447,979.963h0a1.247,1.247,0,0,1-.3-1.739l1.86-2.624a1.247,1.247,0,0,1,1.739-.3h0a1.247,1.247,0,0,1,.3,1.739l-1.86,2.624A1.248,1.248,0,0,1,2519.447,979.963Z" transform="translate(-2518.921 -975.074)" fill="#eac3a0"/>
            <circle id="Ellipse_3350" data-name="Ellipse 3350" cx="1.619" cy="1.619" r="1.619" transform="translate(24.224 18.005)" fill="#eac3a0"/>
          </g>
          <g id="Group_166506" data-name="Group 166506" transform="translate(0 0.822)">
            <path id="Path_80833" data-name="Path 80833" d="M2460.856,1001.055c-.058.065-.117.13-.177.191l-.012.014c-.057.064-.114.124-.173.184-1.671,1.449-7.208-1.149-12.565-5.939s-8.555-10-7.3-11.826c.053-.065.106-.128.164-.192l.012-.014c.053-.066.112-.132.17-.2a13.336,13.336,0,0,1,19.881,17.779Z" transform="translate(-2440.356 -978.83)" fill="#f99746"/>
            <path id="Path_80834" data-name="Path 80834" d="M2460.677,1016.237l-.012.012c-.019.024-.037.046-.055.067a1.119,1.119,0,0,1-.119.116c-1.669,1.449-7.208-1.147-12.564-5.939s-8.556-10-7.3-11.824a1.518,1.518,0,0,1,.1-.132.4.4,0,0,1,.062-.061l.012-.015c1.137-1.076,4.225-.116,7.832,2.219a39.41,39.41,0,0,1,4.778,3.68,41.71,41.71,0,0,1,3.408,3.417C2460.069,1011.468,2461.708,1014.874,2460.677,1016.237Z" transform="translate(-2440.354 -993.819)" fill="#f9ddbf"/>
            <path id="Path_80835" data-name="Path 80835" d="M2483.528,1017.262a5.5,5.5,0,0,1-8.186-7.1,39.424,39.424,0,0,1,4.778,3.68A41.687,41.687,0,0,1,2483.528,1017.262Z" transform="translate(-2467.062 -1003.302)" fill="#fff0e3"/>
          </g>
          <g id="Group_166507" data-name="Group 166507" transform="translate(24.325 53.402)">
            <path id="Rectangle_3493" data-name="Rectangle 3493" d="M3.367,0H8.8a3.5,3.5,0,0,1,3.5,3.5v0a0,0,0,0,1,0,0H0a0,0,0,0,1,0,0V3.367A3.367,3.367,0,0,1,3.367,0Z" transform="translate(0 18.957)" fill="#eac3a0"/>
            <rect id="Rectangle_3494" data-name="Rectangle 3494" width="2.584" height="19.563" transform="translate(5.069)" fill="#eac3a0"/>
          </g>
        </g>
        <g id="Group_166509" data-name="Group 166509" transform="translate(213.837 181.218)">
          <path id="Path_80836" data-name="Path 80836" d="M1379.313,1251.771l10.637-42.784,75.145,18.682Zm14.057-37.1-7.558,30.4,60.956-17.127Z" transform="translate(-1379.313 -1208.987)" fill="#f9ddbf"/>
        </g>
        <rect id="Rectangle_3495" data-name="Rectangle 3495" width="3.574" height="23.195" transform="matrix(0.97, 0.241, -0.241, 0.97, 250.136, 190.015)" fill="#eac3a0"/>
        <g id="Group_166512" data-name="Group 166512" transform="translate(130.687 40.525)">
          <path id="Path_80837" data-name="Path 80837" d="M1203.525,1104.58c-5.154,32.082-9.4,66.656-7.563,84.859,1.515,5.1,6.2,6.794,10.337,7.456l-2.844,3.1-8.011.458-10.69-4.212a43.141,43.141,0,0,0,1.109-5.795c.568-4.28-1.416-14.062-1.416-14.062s-5.214-33.786-2.247-41.373a30.986,30.986,0,0,0,1.74-7.3v0c.874-6.823.385-15.028-.191-23-.623-8.662-1.347-17.052-.528-23.109a437.737,437.737,0,0,0,3.78-51.55h20.977s5.944,16.885,3.174,31.363C1208.8,1073.721,1206.052,1088.851,1203.525,1104.58Z" transform="translate(-1141.503 -928.54)" fill="#ffb27d"/>
          <path id="Path_80838" data-name="Path 80838" d="M1192.719,1371.645c.874-6.823.385-15.028-.191-23l15.488-6.263,4.288,6.135C1211.647,1349.321,1200.123,1362.915,1192.719,1371.645Z" transform="translate(-1150.282 -1172.476)" fill="#f3a36c"/>
          <path id="Path_80839" data-name="Path 80839" d="M1468.6,914.445a39.709,39.709,0,0,1,4.077-3.754c1.7-1.243,6.475-2.485,6.96-.4.216.928-1.462,2.979-2.669,3.71s-1.4,1.661-2.68,2.969-4.424,1.373-4.424,1.373Z" transform="translate(-1365.896 -834.134)" fill="#ffb27d"/>
          <path id="Path_80840" data-name="Path 80840" d="M1102.394,626.062c-1-1.927,21.8-8.868,22.165,10.154,0,0,42.716-1.05,22.32-24.859-7.061-8.242-6.334-15.058-6.123-21.4s-4.4-24.784-20.209-22.927a11.772,11.772,0,0,0-9.308,1C1099.487,574.121,1073.162,633.077,1102.394,626.062Z" transform="translate(-1069.49 -566.506)" fill="#233862"/>
          <path id="Path_80841" data-name="Path 80841" d="M1285.141,821.289a41.7,41.7,0,0,0,4.253,6.432c3.3,4.138,8.4,8.919,14.8,9.863a15.876,15.876,0,0,0,8.789-1.427l.01,0c7.769-3.449,13.61-11.379,13.61-11.379a6.387,6.387,0,0,0-.871-6.267s-15.687,3.528-17.181,2.781-10.209-25.853-12.283-29.008-9.148-4.793-9.148-4.793Z" transform="translate(-1222.614 -739.096)" fill="#eee"/>
          <path id="Path_80842" data-name="Path 80842" d="M1302.8,941.562c3.3,4.138,8.4,8.919,14.8,9.863a15.876,15.876,0,0,0,8.79-1.427c-.3.04-8.062,1-11.155-4.534-3.155-5.645-6.566-14.608-11.252-11.62C1301.957,935.133,1302.047,938.337,1302.8,941.562Z" transform="translate(-1236.021 -852.938)" fill="#e0e0e0"/>
          <path id="Path_80843" data-name="Path 80843" d="M1017.9,1713.166h-7.228c-2.1,0-4.495-1.609-5.078-5.4s-4.9-5.863-5.837-8.966c-.641-2.132.874-3.655,2.31-4.827.657-.539,1.3-1,1.706-1.415,1.47-1.483,2.857-7.893,2.857-7.893l7.624,4.011s-3.592,6.106-1.52,12.974c.968,3.21,1.834,6.169,3.977,8.013a7.145,7.145,0,0,0,1.748,1.109C1021.794,1712.277,1017.9,1713.166,1017.9,1713.166Z" transform="translate(-999.609 -1439.804)" fill="#ffb27d"/>
          <path id="Path_80844" data-name="Path 80844" d="M1107.788,800.7a107.048,107.048,0,0,0,0,12.43c.266,4.494,4.813,10.514,5.458,12,1.618,3.735,3.443,4.342,3.443,4.342l14.12,3.461,4.965,1.215,15.657-4.676s7.131-19.9,4.268-31.109a86.127,86.127,0,0,0-7.238-18.986s-18-4.682-31.946-.609Z" transform="translate(-1083.96 -730.987)" fill="#eee"/>
          <path id="Path_80845" data-name="Path 80845" d="M1058.284,1026.76s-11.827,15.869-12.93,26.6,9.356,40.42,7.007,50.877c-1.743,7.762-11.037,13.919-13.6,33.488-.892,6.8-4.108,20.392-7.075,33.109l6.553,6.432c15.609-35.573,31.749-57.969,32.7-65.834.674-5.566,3.84-34.85,16.641-56.466,3.073-5.19-1.886-25.828-1.886-25.828Z" transform="translate(-1024.659 -925.971)" fill="#ffb27d"/>
          <path id="Path_80846" data-name="Path 80846" d="M1140.962,1065.861c-1.739,21.19-3.786,39.038-3.786,39.038a52.241,52.241,0,0,1-23.862,7.5l0,0h0a46.271,46.271,0,0,1-21.178-3.664s-2.877-51.173-1.047-59.324,9.943-19.367,9.943-19.367l36.483,1.41S1142.7,1044.669,1140.962,1065.861Z" transform="translate(-1070.577 -928.542)" fill="#f99746"/>
          <path id="Path_80847" data-name="Path 80847" d="M1181.274,1013.032s-3.113,2.462-9.3,2.587c-7.386.149-25.688-1.883-25.688-1.883a15.141,15.141,0,0,0-.78,4.671s22.353,5.638,35.3.823A8.186,8.186,0,0,0,1181.274,1013.032Z" transform="translate(-1113.559 -915.25)" fill="#ed7d2b"/>
          <g id="Group_166510" data-name="Group 166510" transform="translate(56.82 99.105)">
            <path id="Path_80848" data-name="Path 80848" d="M1259.082,1022.887a3.4,3.4,0,1,1,3.37,3.814A3.617,3.617,0,0,1,1259.082,1022.887Zm1.117,0a2.29,2.29,0,1,0,2.253-2.7A2.508,2.508,0,0,0,1260.2,1022.887Z" transform="translate(-1259.082 -1019.072)" fill="#fff"/>
          </g>
          <rect id="Rectangle_3496" data-name="Rectangle 3496" width="30.366" height="41.566" transform="matrix(-0.754, -0.657, 0.657, -0.754, 31.568, 122.09)" fill="#233862"/>
          <path id="Path_80849" data-name="Path 80849" d="M1166.987,1033.3s8.391.981,8.365,2.973-2.091,6.084-3.127,6.266-6.828-5.533-6.828-5.533Z" transform="translate(-1129.091 -931.082)" fill="#ffb27d"/>
          <path id="Path_80850" data-name="Path 80850" d="M1060.207,782.645s-11.2.785-15.5,11.224-12.442,27.966-12.442,30.915,4.551,12.038,28.994,17.264c0,0,2.528-2.659,2.375-4.762,0,0-15.258-13.105-15.217-14.637.077-2.9,2.5-6.722,15.9-20.122C1067.959,798.883,1060.207,782.645,1060.207,782.645Z" transform="translate(-1025.116 -735.314)" fill="#eee"/>
          <g id="Group_166511" data-name="Group 166511" transform="translate(97.504 10.304)">
            <path id="Path_80851" data-name="Path 80851" d="M1448.445,713.469l33.57-98.672c.155-.45.361-.879-.086-1.042l-.407-.148c-.458-.166-.592.129-.759.586l-35.785,97.254a1.882,1.882,0,0,0,1,2.363l.829.369A1.209,1.209,0,0,0,1448.445,713.469Z" transform="translate(-1444.865 -613.56)" fill="#f9ddbf"/>
          </g>
          <path id="Path_80852" data-name="Path 80852" d="M1479.976,926.065a16.03,16.03,0,0,0,3.139-.472c1.27-.332,2.9-.924,2.9-.924.959.7-2.371,2.6-3.221,3.9-.693,1.061-1.482,1.368-3.4,1.78Z" transform="translate(-1374.332 -846.237)" fill="#ffb27d"/>
          <path id="Path_80853" data-name="Path 80853" d="M1204.756,1794.363c4.667-.579,3.435.614,9.977.653s8.78-2.141,9.089-3.078c.276-.831-2.88-1.5-6.257-2.3l-.121.085a18.014,18.014,0,0,1-9.5,1.772c-4.394-.405-8.889-2.2-11.92-2.507a11.438,11.438,0,0,0-.286,3.038C1195.972,1794.943,1200.089,1794.942,1204.756,1794.363Z" transform="translate(-1152.769 -1521.285)" fill="#233862"/>
          <path id="Path_80854" data-name="Path 80854" d="M1017.9,1746.365h-7.228c-2.1,0-4.495-1.609-5.078-5.4s-4.9-5.863-5.837-8.966c-.641-2.132.874-3.655,2.31-4.827a37.563,37.563,0,0,1,4.191,9.638c1.965,6.4,6.674,6.582,10.452,6.051a7.163,7.163,0,0,0,1.748,1.109C1021.794,1745.476,1017.9,1746.365,1017.9,1746.365Z" transform="translate(-999.609 -1473.003)" fill="#233862"/>
          <path id="Path_80855" data-name="Path 80855" d="M1167.8,724.171a6.752,6.752,0,0,0,4.931-4.288,34.407,34.407,0,0,0,1.674-11.414l.709.14,11.92,2.36s-.271,3.752-.279,7.285c0,.03,0,.059,0,.088a6.857,6.857,0,0,0,4.948,6.629c1.505.435-7.179,11.869-8.173,11.644C1181.461,736.147,1167.08,724.331,1167.8,724.171Z" transform="translate(-1130.948 -677.38)" fill="#ffb27d"/>
          <path id="Path_80856" data-name="Path 80856" d="M1213.208,711.466s-.271,3.751-.28,7.285c-6.67-.188-10.2-6.273-11.64-9.645Z" transform="translate(-1157.124 -677.879)" fill="#e8945b"/>
          <path id="Path_80857" data-name="Path 80857" d="M1208.937,640.189s-15.782.26-15.792-9.57-2.055-16.417,8.021-17,12.038,3.167,12.839,6.448S1213.042,639.868,1208.937,640.189Z" transform="translate(-1150.625 -603.255)" fill="#ffb27d"/>
          <path id="Path_80858" data-name="Path 80858" d="M1190.254,605.609s-4.321,11.533-10.952,13.238-9.508-.072-9.508-.072a18.779,18.779,0,0,0,6.143-11.094S1186.995,600.12,1190.254,605.609Z" transform="translate(-1132.526 -595.485)" fill="#233862"/>
          <path id="Path_80859" data-name="Path 80859" d="M1258.335,610.3s3.2,1.2,4.523,3.534a15.888,15.888,0,0,1,2.133,9.025s3.256-7.839-.4-12.273C1260.709,605.887,1258.335,610.3,1258.335,610.3Z" transform="translate(-1201.678 -599.244)" fill="#233862"/>
          <path id="Path_80860" data-name="Path 80860" d="M1251.814,705.875s.273,1.158,3.155.98c0,0,2.42-.15,2.346-1.423A7.785,7.785,0,0,0,1251.814,705.875Z" transform="translate(-1196.585 -674.777)" fill="#fff"/>
          <path id="Path_80861" data-name="Path 80861" d="M1179.094,779.713s-10.674-11.4-11.074-16.063a15.535,15.535,0,0,0-5.923,3.871s2.565,6.427,5.628,8.546a19.462,19.462,0,0,0,3.985-1.036,33.975,33.975,0,0,1-2,2.952S1174.549,780.726,1179.094,779.713Z" transform="translate(-1126.515 -720.479)" fill="#d4d4d4"/>
          <path id="Path_80862" data-name="Path 80862" d="M1243.457,765.641s4.211,7.694-3.741,15.626c0,0,4.99-.954,7.554-4.473a7.253,7.253,0,0,0-1.471-2.326,2.544,2.544,0,0,1,2.439.278s.57-4.126,0-5.383S1244.693,765.6,1243.457,765.641Z" transform="translate(-1187.136 -722.033)" fill="#d4d4d4"/>
          <path id="Path_80863" data-name="Path 80863" d="M1236.085,834.164a.8.8,0,1,1,.8.795A.8.8,0,0,1,1236.085,834.164Z" transform="translate(-1184.301 -774.93)" fill="#233862"/>
          <path id="Path_80864" data-name="Path 80864" d="M1255.45,885.637a.8.8,0,1,1,.8.8A.8.8,0,0,1,1255.45,885.637Z" transform="translate(-1199.425 -815.131)" fill="#233862"/>
          <path id="Path_80865" data-name="Path 80865" d="M1259.082,946a.8.8,0,1,1,.795.8A.8.8,0,0,1,1259.082,946Z" transform="translate(-1202.261 -862.277)" fill="#233862"/>
          <path id="Path_80866" data-name="Path 80866" d="M1222.418,1193.58c-1.739,21.19-3.786,39.038-3.786,39.038a52.24,52.24,0,0,1-23.862,7.5,38.677,38.677,0,0,0,14.084-10.048C1214.832,1223.079,1222.418,1193.58,1222.418,1193.58Z" transform="translate(-1152.033 -1056.261)" fill="#ed7d2b"/>
        </g>
        <g id="Group_166513" data-name="Group 166513" transform="translate(277.41 20.647)" opacity="0.6">
          <path id="Path_80867" data-name="Path 80867" d="M1720.881,476.1h1.3l3.5,8.014H1724.2l-.807-1.921h-3.762l-.819,1.921h-1.432Zm2,4.854-1.375-3.183-1.364,3.183Z" transform="translate(-1706.922 -476.015)" fill="#fff"/>
          <path id="Path_80868" data-name="Path 80868" d="M1793.427,476.354H1797a2.874,2.874,0,0,1,2.081.7,1.8,1.8,0,0,1,.534,1.341,1.894,1.894,0,0,1-1.136,1.773,1.958,1.958,0,0,1,1.58,1.955c0,1.421-1.171,2.182-2.944,2.182h-3.683Zm3.285,3.353c.9,0,1.5-.352,1.5-1.1,0-.625-.5-1.012-1.4-1.012H1794.8v2.114Zm.409,3.365c.955,0,1.535-.375,1.535-1.114,0-.671-.534-1.069-1.637-1.069H1794.8v2.183Z" transform="translate(-1766.316 -476.218)" fill="#fff"/>
          <path id="Path_80869" data-name="Path 80869" d="M1861.22,479.846a4.027,4.027,0,0,1,4.1-4.115,4.147,4.147,0,0,1,3.115,1.239l-.9,1.034a3.165,3.165,0,0,0-2.228-.989,2.838,2.838,0,0,0,0,5.661,3.12,3.12,0,0,0,2.285-1.034l.9.909a4.1,4.1,0,0,1-3.228,1.41A4.008,4.008,0,0,1,1861.22,479.846Z" transform="translate(-1819.264 -475.731)" fill="#fff"/>
          <path id="Path_80870" data-name="Path 80870" d="M1687.869,557.921h2.967a3.986,3.986,0,1,1,0,7.957h-2.967Zm2.967,6.684a2.706,2.706,0,1,0,0-5.411h-1.569v5.411Z" transform="translate(-1683.874 -539.923)" fill="#fff"/>
          <path id="Path_80871" data-name="Path 80871" d="M1760.387,557.921h5.9v1.251h-4.5v2.069h3.99v1.251h-3.99v2.137h4.558v1.25h-5.957Z" transform="translate(-1740.511 -539.923)" fill="#fff"/>
          <path id="Path_80872" data-name="Path 80872" d="M1827.09,557.921h5.923v1.273h-4.524v2.171h4.013v1.273h-4.013v3.24h-1.4Z" transform="translate(-1792.608 -539.923)" fill="#fff"/>
          <path id="Path_80873" data-name="Path 80873" d="M1891.457,561.414a4.054,4.054,0,0,1,4.1-4.115,4.3,4.3,0,0,1,3.058,1.08l-.887,1.057a3.116,3.116,0,0,0-2.228-.853,2.7,2.7,0,0,0-2.581,2.83,2.658,2.658,0,0,0,2.706,2.842,3.245,3.245,0,0,0,1.921-.6v-1.489h-2.035v-1.216h3.387v3.342a5.075,5.075,0,0,1-3.319,1.239A3.954,3.954,0,0,1,1891.457,561.414Z" transform="translate(-1842.879 -539.437)" fill="#fff"/>
          <path id="Path_80874" data-name="Path 80874" d="M1669.624,639.489h1.4V642.8h3.8v-3.308h1.4v7.957h-1.4v-3.353h-3.8v3.353h-1.4Z" transform="translate(-1669.624 -603.629)" fill="#fff"/>
          <path id="Path_80875" data-name="Path 80875" d="M1741.362,639.489h1.4v7.957h-1.4Z" transform="translate(-1725.653 -603.629)" fill="#fff"/>
          <path id="Path_80876" data-name="Path 80876" d="M1785.8,646.276l.921-.944a1.979,1.979,0,0,0,1.6.932c.75,0,1.262-.5,1.262-1.557v-5.218h1.432v5.252a2.885,2.885,0,0,1-.739,2.114,2.658,2.658,0,0,1-1.933.7A3,3,0,0,1,1785.8,646.276Z" transform="translate(-1760.356 -603.629)" fill="#fff"/>
          <path id="Path_80877" data-name="Path 80877" d="M1850.319,639.489h1.4v4l3.785-4h1.717l-3.308,3.422,3.456,4.536h-1.694l-2.717-3.581-1.239,1.273v2.307h-1.4Z" transform="translate(-1810.75 -603.629)" fill="#fff"/>
          <path id="Path_80878" data-name="Path 80878" d="M1919.877,639.489h1.4v6.684h4.183v1.273h-5.581Z" transform="translate(-1865.076 -603.629)" fill="#fff"/>
          <path id="Path_80879" data-name="Path 80879" d="M1680.5,721.056h1.489l2.421,3.763,2.421-3.763h1.489v7.957h-1.4v-5.707l-2.512,3.751h-.046l-2.489-3.728v5.684H1680.5Z" transform="translate(-1678.117 -667.334)" fill="#fff"/>
          <path id="Path_80880" data-name="Path 80880" d="M1757.479,721.056h1.3l4.263,5.5v-5.5h1.376v7.957h-1.171l-4.388-5.661v5.661h-1.376Z" transform="translate(-1738.24 -667.334)" fill="#fff"/>
          <path id="Path_80881" data-name="Path 80881" d="M1828.8,724.549a4.161,4.161,0,1,1,4.149,4.115A4.077,4.077,0,0,1,1828.8,724.549Zm6.854,0a2.726,2.726,0,0,0-2.705-2.831,2.7,2.7,0,0,0-2.683,2.831,2.727,2.727,0,0,0,2.706,2.83A2.7,2.7,0,0,0,1835.657,724.549Z" transform="translate(-1793.945 -666.848)" fill="#fff"/>
          <path id="Path_80882" data-name="Path 80882" d="M1906.459,721.056h3.137c1.853,0,3.024,1.057,3.024,2.683,0,1.785-1.432,2.717-3.183,2.717h-1.58v2.558h-1.4Zm3.024,4.138c1.057,0,1.716-.591,1.716-1.444,0-.932-.67-1.421-1.716-1.421h-1.626v2.865Z" transform="translate(-1854.596 -667.334)" fill="#fff"/>
          <path id="Path_80883" data-name="Path 80883" d="M1693.635,809.481a4.111,4.111,0,0,1-2.421.75,4.122,4.122,0,1,1,3.365-1.671l.909.773-.9,1Zm-1.034-.921-1.364-1.159.9-1.023,1.375,1.25a2.87,2.87,0,0,0-2.3-4.342,2.7,2.7,0,0,0-2.683,2.83,2.726,2.726,0,0,0,2.706,2.831A2.529,2.529,0,0,0,1692.6,808.56Z" transform="translate(-1683.246 -730.553)" fill="#fff"/>
          <path id="Path_80884" data-name="Path 80884" d="M1764.721,802.623h3.547c1.864,0,2.955,1,2.955,2.535a2.388,2.388,0,0,1-1.9,2.41l2.149,3.012h-1.649l-1.978-2.774h-1.728v2.774h-1.4Zm3.444,3.945c1,0,1.637-.523,1.637-1.353,0-.852-.614-1.318-1.648-1.318h-2.035v2.671Z" transform="translate(-1743.896 -731.039)" fill="#fff"/>
          <path id="Path_80885" data-name="Path 80885" d="M1831.736,809.016l.841-1a3.665,3.665,0,0,0,2.512,1.035c.864,0,1.409-.4,1.409-1.023,0-.568-.318-.875-1.8-1.228-1.694-.4-2.649-.9-2.649-2.387a2.434,2.434,0,0,1,2.717-2.308,4.41,4.41,0,0,1,2.887,1l-.75,1.057a3.613,3.613,0,0,0-2.16-.819c-.818,0-1.3.421-1.3.966,0,.614.364.887,1.887,1.25,1.682.409,2.558,1.012,2.558,2.353,0,1.489-1.171,2.376-2.842,2.376A4.9,4.9,0,0,1,1831.736,809.016Z" transform="translate(-1796.236 -730.634)" fill="#fff"/>
          <path id="Path_80886" data-name="Path 80886" d="M1899.25,803.919h-2.524v-1.3h6.457v1.3h-2.524v6.661h-1.409Z" transform="translate(-1846.994 -731.039)" fill="#fff"/>
          <path id="Path_80887" data-name="Path 80887" d="M1710.241,888.772v-4.581h1.4v4.524c0,1.478.761,2.273,2.012,2.273s2-.75,2-2.216v-4.581h1.4V888.7c0,2.376-1.341,3.569-3.422,3.569A3.137,3.137,0,0,1,1710.241,888.772Z" transform="translate(-1701.346 -794.745)" fill="#fff"/>
          <path id="Path_80888" data-name="Path 80888" d="M1778.917,884.191h1.546l2.4,6.116,2.387-6.116h1.512l-3.308,8.014h-1.228Z" transform="translate(-1754.984 -794.745)" fill="#fff"/>
          <path id="Path_80889" data-name="Path 80889" d="M1850.086,884.11h1.511l1.9,5.9,1.955-5.922h1.182l1.955,5.922,1.9-5.9h1.466l-2.774,8.014h-1.205l-1.955-5.718-1.955,5.718h-1.205Z" transform="translate(-1810.568 -794.664)" fill="#fff"/>
          <path id="Path_80890" data-name="Path 80890" d="M1723.316,969.669l-2.785-3.911h1.649l1.978,2.853,1.989-2.853h1.6l-2.774,3.888,2.887,4.069h-1.648l-2.091-3.013-2.1,3.013h-1.6Z" transform="translate(-1709.294 -858.45)" fill="#fff"/>
          <path id="Path_80891" data-name="Path 80891" d="M1792.356,970.578l-3.16-4.82h1.648l2.228,3.524,2.251-3.524h1.6l-3.16,4.786v3.171h-1.41Z" transform="translate(-1763.012 -858.45)" fill="#fff"/>
          <path id="Path_80892" data-name="Path 80892" d="M1860.727,972.681l4.695-5.684h-4.547v-1.239h6.366v1.035l-4.695,5.684h4.695v1.239h-6.514Z" transform="translate(-1818.879 -858.45)" fill="#fff"/>
        </g>
        <g id="Group_166518" data-name="Group 166518" transform="translate(443.018 176.332)">
          <g id="Group_166514" data-name="Group 166514" transform="translate(0.337 3.428)">
            <rect id="Rectangle_3498" data-name="Rectangle 3498" width="1.431" height="16.868" transform="translate(0 3.046) rotate(-9.131)" fill="#b5453c"/>
            <path id="Path_80893" data-name="Path 80893" d="M2427.661,1202.329l-.235,3.046,1.413-.227Z" transform="translate(-2427.425 -1202.329)" fill="#f9ddbf"/>
          </g>
          <g id="Group_166515" data-name="Group 166515" transform="translate(12.572 4.864)">
            <rect id="Rectangle_3499" data-name="Rectangle 3499" width="1.431" height="16.868" transform="translate(3.08 2.789) rotate(10.523)" fill="#b5453c"/>
            <path id="Path_80894" data-name="Path 80894" d="M2498.607,1208.886l-1.246,2.789,1.407.261Z" transform="translate(-2494.281 -1208.886)" fill="#efcbab"/>
          </g>
          <g id="Group_166516" data-name="Group 166516" transform="translate(10.788)">
            <rect id="Rectangle_3500" data-name="Rectangle 3500" width="1.431" height="16.868" transform="translate(3.08 2.789) rotate(10.523)" fill="#b5453c"/>
            <path id="Path_80895" data-name="Path 80895" d="M2490.461,1186.674l-1.246,2.789,1.407.261Z" transform="translate(-2486.134 -1186.674)" fill="#efcbab"/>
          </g>
          <g id="Group_166517" data-name="Group 166517" transform="translate(0 13.278)">
            <rect id="Rectangle_3501" data-name="Rectangle 3501" width="11.272" height="16.246" transform="translate(5.636)" fill="#ed7d2b"/>
            <rect id="Rectangle_3502" data-name="Rectangle 3502" width="11.273" height="16.246" fill="#f99746"/>
          </g>
        </g>
        <g id="Group_166525" data-name="Group 166525" transform="translate(1.63 140.23)">
          <g id="Group_166520" data-name="Group 166520" transform="translate(6.647 31.719)">
            <path id="Path_80896" data-name="Path 80896" d="M471.353,1180.1s5.558-6.484.343-10.6c0,0-3.809-2.307-6.916-2.119,0,0,4.4,7.381,2.978,8.115s-4.312-8.578-4.312-8.578-8.669-.841-11.458.5c0,0,7.411,6.065,5.85,6.426s-9.566-5.592-9.566-5.592-8.068,1.373-7.638,6.3,3.21,6.442,4.432,6.311,8.37-2.859,8.525-1.858-4.147,4.273-7.16,4.426c0,0,5.688,6.273,9.469,4.463s4.1-4.68,6.46-5.757,4.369-1.074,3.4.024-5.238,2.164-6.586,4.549-2.557,3.992,1.355,3.4,10.269-3.45,10.548-6.728Z" transform="translate(-440.617 -1166.658)" fill="#82b378"/>
            <g id="Group_166519" data-name="Group 166519" transform="translate(3.981 7.984)">
              <path id="Path_80897" data-name="Path 80897" d="M458.8,1203.156s21.915-.845,26.754,5.423a15.852,15.852,0,0,0,4.364,6.124l.514,1.4s-3.8-4-5.156-4.246C485.272,1211.856,487.4,1204.092,458.8,1203.156Z" transform="translate(-458.797 -1203.118)" fill="#82b378"/>
              <path id="Path_80898" data-name="Path 80898" d="M596.487,1254.056a13.762,13.762,0,0,1,5.031,9.694l-.854.077s-1.5-6.427-4.218-8.94S596.487,1254.056,596.487,1254.056Z" transform="translate(-565.369 -1242.471)" fill="#82b378"/>
            </g>
          </g>
          <g id="Group_166522" data-name="Group 166522" transform="translate(51.003 14.113)">
            <path id="Path_80899" data-name="Path 80899" d="M648.983,1109.159s-8.841-4.951-4.715-11.671c0,0,3.3-4.126,6.837-5.187,0,0-1.886,10.02,0,10.256s1.3-11.317,1.3-11.317,9.313-4.48,12.967-4.126c0,0-5.776,9.784-3.89,9.549s8.37-10.138,8.37-10.138,9.549-1.768,11.081,3.891-.943,8.488-2.358,8.841-10.492.236-10.256,1.415,6.366,3.065,9.785,2c0,0-3.772,9.313-8.723,8.841s-6.484-3.536-9.549-3.772-5.3.589-3.772,1.415,6.72.27,9.2,2.375,4.479,3.4-.118,4.344-12.85.354-14.5-3.183Z" transform="translate(-643.17 -1086.263)" fill="#a8d29f"/>
            <g id="Group_166521" data-name="Group 166521" transform="translate(1.143 5.92)">
              <path id="Path_80900" data-name="Path 80900" d="M688.889,1113.3s-24.756,8.016-27.585,16.976a18.807,18.807,0,0,1-2.358,8.606v1.768s2.594-6.012,4.008-6.837C662.954,1133.809,657.414,1126.029,688.889,1113.3Z" transform="translate(-656.634 -1113.297)" fill="#82b378"/>
              <path id="Path_80901" data-name="Path 80901" d="M650.7,1226.19a16.327,16.327,0,0,0-1.641,12.854l.982-.264s-.953-7.773,1.044-11.682S650.7,1226.19,650.7,1226.19Z" transform="translate(-648.389 -1200.609)" fill="#82b378"/>
            </g>
          </g>
          <g id="Group_166524" data-name="Group 166524">
            <path id="Path_80902" data-name="Path 80902" d="M453.011,1051.994s11.655-6.526,6.216-15.384c0,0-4.351-5.439-9.013-6.838,0,0,2.486,13.209,0,13.52s-1.709-14.918-1.709-14.918-12.276-5.905-17.094-5.439c0,0,7.615,12.9,5.128,12.587s-11.033-13.364-11.033-13.364-12.587-2.331-14.607,5.128,1.243,11.188,3.108,11.655,13.83.311,13.519,1.865-8.391,4.04-12.9,2.642c0,0,4.972,12.277,11.5,11.655s8.547-4.662,12.587-4.973,6.993.777,4.973,1.865-8.858.356-12.121,3.131-5.905,4.484.155,5.727,16.938.466,19.114-4.2Z" transform="translate(-410.262 -1021.813)" fill="#a8d29f"/>
            <g id="Group_166523" data-name="Group 166523" transform="translate(6.387 7.804)">
              <path id="Path_80903" data-name="Path 80903" d="M439.428,1057.449s32.633,10.567,36.363,22.377a24.791,24.791,0,0,0,3.108,11.344v2.331s-3.419-7.925-5.283-9.013C473.615,1084.488,480.919,1074.232,439.428,1057.449Z" transform="translate(-439.428 -1057.449)" fill="#82b378"/>
              <path id="Path_80904" data-name="Path 80904" d="M614.111,1206.263a21.522,21.522,0,0,1,2.164,16.945l-1.295-.348s1.257-10.246-1.376-15.4S614.111,1206.263,614.111,1206.263Z" transform="translate(-574.641 -1172.542)" fill="#82b378"/>
            </g>
          </g>
          <path id="Path_80905" data-name="Path 80905" d="M503.022,1276.686a22.829,22.829,0,1,0,45.659,0Z" transform="translate(-482.709 -1220.873)" fill="#ed7d2b"/>
          <path id="Path_80906" data-name="Path 80906" d="M571.644,1276.686c0,8.554,2.049,17.265,9.011,21.175,1.158.65,5.033-.054,6.3.389a22.838,22.838,0,0,0,15.316-21.564Z" transform="translate(-536.304 -1220.873)" fill="#f99746"/>
          <path id="Path_80907" data-name="Path 80907" d="M501.581,1376.2h46.29a2.817,2.817,0,0,0-2.817-2.817H504.4A2.817,2.817,0,0,0,501.581,1376.2Z" transform="translate(-481.583 -1296.394)" fill="#ed7d2b"/>
          <path id="Path_80908" data-name="Path 80908" d="M600.623,1376.2h24.6a2.817,2.817,0,0,0-2.817-2.817H603.439A2.817,2.817,0,0,0,600.623,1376.2Z" transform="translate(-558.937 -1296.394)" fill="#f99746"/>
          <rect id="Rectangle_3503" data-name="Rectangle 3503" width="46.929" height="0.7" transform="translate(66.723 56.513) rotate(180)" fill="#b5453c"/>
        </g>
      </g>
    </g>
  </g>
</svg>
