<svg xmlns="http://www.w3.org/2000/svg" width="569" height="396" viewBox="0 0 569 396">
  <g id="_4" data-name="4" transform="translate(-813 -3818.999)">
    <g id="Group_166351" data-name="Group 166351" transform="translate(813 3818.999)">
      <g id="Group_166337" data-name="Group 166337">
        <path id="Path_80166" data-name="Path 80166" d="M677.293,317.495c-4.813,39.179-32.579,32.66-36.964,78.214-1.565,16.259,10.271,26.481,16.152,40.558,6.513,15.559,4.206,29.542-4.59,40.205H169.255c-10.67-4.9-20.85-10.106-29.712-16.363-12.2-8.6-21.854-19.19-26.778-33.717-4.444-13.126-7.868-25.788,3.806-35.744,6.338-5.413,12.935-9.589,18.671-14.607a45.362,45.362,0,0,0,11.014-13.629c21.039-41.13-5.95-77.377-15.861-118.534-.956-4-1.832-8.038-2.529-12.092-1.818-10.323-2.664-20.8-1.585-31a68.307,68.307,0,0,1,8.463-27.08c7.36-12.894,26.425-31.935,46.913-28.3,15.394,2.734,25.081,17.777,38.98,23.217,17.516,6.855,36.949,1.374,50.071-8.7,25.521-19.6,41.876-56.853,85.494-53.439,14.79,1.156,24.774,13.057,37.742,18.511,17.828,7.507,35.414,7.453,52.451.149,19.593-8.405,33.037-24.019,52.276-32.955a130.183,130.183,0,0,1,20.313-7.44c15.477-4.271,32.4-5.781,48.363-2.489a94.076,94.076,0,0,1,9.633,2.489c53.364,16.743,55.875,71.582,53.364,111.6-1.152,18.334-15.553,49.952-4.914,68.9S681.948,279.609,677.293,317.495Z" transform="translate(-108.624 -80.472)" fill="rgba(252,79,25,0.99)" opacity="0.1"/>
      </g>
    </g>
    <g id="Group_166474" data-name="Group 166474" transform="translate(921.906 3868.121)">
      <g id="Group_166473" data-name="Group 166473">
        <g id="Group_166471" data-name="Group 166471" transform="translate(22.793 14.003)">
          <path id="Path_80734" data-name="Path 80734" d="M1042.754,1069.053l4.513,1.466s7.169-2.375,13.438,6.032c0,0,1.962,3.13-.453,5.514-2.225,2.2-2.659-2.977-6.942-1.946a8.087,8.087,0,0,1-9.1-3.194l-3.154-1.885Z" transform="translate(-905.75 -917.022)" fill="#ffb27d"/>
          <g id="Group_166467" data-name="Group 166467" transform="translate(149.882 0.351)">
            <path id="Path_80735" data-name="Path 80735" d="M1382.18,415c.029-.791.641-9.316,13.625-9.761,0,0-6.385.761-7.489,3.568,0,0,4.348-3.468,7.888-2.353s5.62,7.319,5.641,9.359-1.946,8.617-4.193,9.176a6.854,6.854,0,0,1-2.721,0,30.67,30.67,0,0,1,1.744,3.113c5.181,10.636-.162,21.03-4.548,19.881-2.813-.736-3.609,4.064-3.609,4.064l-27.33-22.126S1371.227,409.153,1382.18,415Z" transform="translate(-1302.436 -405.238)" fill="#2c3a64"/>
            <path id="Path_80736" data-name="Path 80736" d="M1117.367,978.33s-5.416-1.056-6.654,0-7.111,7.024-5.854,8.982,7.287-1.622,8.541-1.96,4.758-1.707,4.758-1.707Z" transform="translate(-1104.683 -847.014)" fill="#ffb27d"/>
            <path id="Path_80737" data-name="Path 80737" d="M1411.293,1208.641l5.805,2.162s25.215-34.971,28.319-65.74a46.732,46.732,0,0,0-.829-15.73s.246-1.407.677-3.9c.2-1.162.446-2.56.725-4.162.82-4.7,1.948-11.124,3.237-18.441,2.967-16.839,6.811-38.366,9.8-54.191l-1.564-.5-16.925-5.46-3.5-11.109-12.6-3.318s-2.815,5.507-5.332,31.522c-.464,3.412-.886,7.176-1.2,11.256a222.742,222.742,0,0,0,1.2,45.57q.867,6.782,2.213,13.986a62.392,62.392,0,0,1,.484,13.811C1420.525,1169.552,1411.293,1208.641,1411.293,1208.641Z" transform="translate(-1341.064 -886.32)" fill="#2b478b"/>
            <path id="Path_80738" data-name="Path 80738" d="M1440.138,1071.032l27.365,54.4c.2-1.162.445-2.56.725-4.162.82-4.7,1.948-11.124,3.237-18.441,2.967-16.839,6.81-38.366,9.8-54.191l-1.564-.5-16.925-5.46-3.5-11.109-12.6-3.318s-2.815,5.507-5.332,31.522C1440.877,1063.189,1440.456,1066.952,1440.138,1071.032Z" transform="translate(-1363.303 -886.018)" fill="#233862"/>
            <path id="Path_80739" data-name="Path 80739" d="M1492.7,1013.936l.633-5.432c10.614,2.819,38.971-7.877,38.971-7.877s10.282,9.038,8.932,30.7c-.659,10.574-1.863,55.508-3.12,68.8-.454,4.819-.852,8.249-1.015,9.618a.025.025,0,0,0,0,.013,1.9,1.9,0,0,0,.309,1.177,62.488,62.488,0,0,1,4.64,9.758c12.338,32.878-1.9,73.369-1.9,73.369l-3.695-1.489s-8.1-45.06-14.686-64.967a39.42,39.42,0,0,0-3.171-7.615c-2.862-4.62-5.519-12.169-7.93-21.147-4.557-16.974-8.225-39.057-10.667-56.1C1499.66,1042.764,1492.7,1013.936,1492.7,1013.936Z" transform="translate(-1403.824 -865.02)" fill="#2b478b"/>
            <path id="Path_80740" data-name="Path 80740" d="M1160.058,777.555l.791,5.316s.351,0,.966-.044c1.933-.132,6.634-.4,11.949-.967,8-.791,17.485-2.2,21.263-4.525,5.755-3.514,15.2-14.278,21.351-25.041a6.983,6.983,0,0,0,.439-.791c3.207-5.711,5.448-11.379,5.623-15.9a22.716,22.716,0,0,0-.747-7.2,18.371,18.371,0,0,0-3.251-6.5,3.28,3.28,0,0,0-.615-.747,15.178,15.178,0,0,0-4.174-3.558c-1.054-.44-2.2.088-3.383,1.362v.044a20.171,20.171,0,0,0-3.031,4.481c-.044.044-.088.088-.088.132-.22.4-.44.834-.7,1.318a1.108,1.108,0,0,0-.176.308q-.725,1.515-1.45,3.163c-5.4,11.773-10.031,29.076-14.82,34.391-2.065,2.285-12.638,7.3-20.15,10.639C1164.451,775.8,1160.058,777.555,1160.058,777.555Z" transform="translate(-1147.375 -646.132)" fill="#ffb27d"/>
            <path id="Path_80741" data-name="Path 80741" d="M1201.306,926.088c6.3-2.863,13.537-.467,16.4,11.567,1.911,8.034,20.5,16.95,12.131,29.214-8.008,9.632-27.269,3.327-25.645-8.878s5.723-22.41,1.253-24.357C1199.866,931.2,1201.306,926.088,1201.306,926.088Z" transform="translate(-1179.046 -806.265)" fill="#ed7d2b"/>
            <path id="Path_80742" data-name="Path 80742" d="M1134.892,1081.148c13.216-1.891,25.889-1.435,26.6,13.11s4.142,41.905.019,47.293-25.736,4.62-25.736,4.62C1121.311,1121.515,1134.892,1081.148,1134.892,1081.148Z" transform="translate(-1123.514 -926.163)" fill="#ffb93e"/>
            <path id="Path_80743" data-name="Path 80743" d="M1404.175,638.09a33.053,33.053,0,0,0,12.223,2.863c18.247,1,22.389-15,23.143-25.612a15.3,15.3,0,0,0-6.261-.791c-1.294.071-2.645.2-3.758.341-2.232-1.166-6.242-6.83-8.559-16.3l-.787.365-13.166,6.19s1.4,4.285,2.431,8.384c.806,3.209,1.384,6.308.9,7.176-1.038.422-1.659.687-1.659.687a.039.039,0,0,1,0,.014A90.342,90.342,0,0,0,1404.175,638.09Z" transform="translate(-1335.577 -554.3)" fill="#ffb27d"/>
            <path id="Path_80744" data-name="Path 80744" d="M1416.547,606.382s1.4,4.28,2.431,8.384c7.7-2.148,10.033-10.237,10.736-14.574Z" transform="translate(-1345.115 -555.538)" fill="#ed985f"/>
            <path id="Path_80745" data-name="Path 80745" d="M1370.067,534.29s18.412-4.261,15.582-15.687-2.36-19.67-14.235-17.432-13.071,7.161-13.054,11.2S1365.205,535.1,1370.067,534.29Z" transform="translate(-1300.256 -478.914)" fill="#ffb27d"/>
            <path id="Path_80746" data-name="Path 80746" d="M1351.083,498.879c1.979-4.141,4.309-3.92,5.766-3.186a13.208,13.208,0,0,1,17.137-1.465,22.485,22.485,0,0,0,10.345,11.114s-2.829,2.9-11.027,2.833a13.5,13.5,0,0,1-7.313-2.754,44.092,44.092,0,0,0,9.6,7.16c-10.262-1.964-17.144-13.845-17.849-15.107-.869,1.284-2.532,4.017-2.672,6.324-.19,3.136.889,9.226-.907,9.457C1354.163,513.256,1348.114,505.089,1351.083,498.879Z" transform="translate(-1294.013 -471.905)" fill="#2c3a64"/>
            <path id="Path_80747" data-name="Path 80747" d="M1355.306,689.3c.663-1.99,5.1-9.723,5.1-9.723h0c.019-.018,2.818-2.583,10.6-5.639a.037.037,0,0,1,0,.014c-.123.455-3.446,12.488-2.232,15.057,1.232,2.611,24.555-5.82,25.83-7.744,1.019-1.545,1.048-9.711,1.019-12.891,0-.792-.014-1.275-.014-1.275s8.706-1.18,13.6.8a37.666,37.666,0,0,0-2.645,8.83c-.066.441-.123.882-.166,1.322a17.6,17.6,0,0,0-.071,2.777,5.308,5.308,0,0,0,1.682,3.313,25.717,25.717,0,0,0,3.507,2.91c.905.654,1.877,1.341,2.882,2.086h0c.085,5.452-.3,14.419.711,23.986a16.185,16.185,0,0,0,2.332,6.806,16.368,16.368,0,0,0,1.725,2.323c5.142,5.768,14.261,17.266,12.256,24.422-.147,6.749-57.073,15.617-55.855,8.2,0,0-8.555-41.228-13.176-51.181-.166-.365-.318-.72-.455-1.085-1.481-3.928-1.231-7.968-.731-11.583A10.661,10.661,0,0,0,1355.306,689.3Z" transform="translate(-1297.901 -607.044)" fill="#f99746"/>
            <path id="Path_80748" data-name="Path 80748" d="M1493.662,799.568c11.228-.119,20.735-11.777,26.546-21.1a16.186,16.186,0,0,1-2.332-6.806c-1.01-9.567-.626-18.534-.711-23.986h0c-1-.745-1.976-1.432-2.882-2.086a25.713,25.713,0,0,1-3.507-2.91C1501.581,758.226,1478.439,799.729,1493.662,799.568Z" transform="translate(-1400.67 -665.608)" fill="#ed7d2b"/>
            <path id="Path_80749" data-name="Path 80749" d="M1325.391,750.411l1.538,5.623s1.933-.351,5.009-.922c.922-.176,1.449-.307,1.449-.307,2.46-.483,5.4-1.142,8.611-1.845h.044c5.491-1.318,11.642-2.9,16.826-4.657a46.241,46.241,0,0,0,8.962-4,5.367,5.367,0,0,0,.615-.44c5.14-3.734,11.247-14.717,15.991-26.491.659-1.625,1.275-3.251,1.889-4.832a120.125,120.125,0,0,0,5.008-16.694,47.2,47.2,0,0,0,1.186-7.952,19.423,19.423,0,0,0,.044-2.24c-.088-12.74-6.414-14.5-6.414-14.5-.132-.044-.264-.088-.439-.131-1.1-.176-2.241.57-3.427,2.021a39.9,39.9,0,0,0-4.7,8.3c-2.5,5.667-5.14,13-7.6,20.3-1.362,4-2.68,8-4,11.685-.747,2.241-1.494,4.349-2.2,6.283a60.48,60.48,0,0,1-3.69,8.566c-.7,1.23-2.724,2.944-5.4,4.877a196.807,196.807,0,0,1-17.4,10.807c-2.46,1.406-4.788,2.68-6.721,3.735C1327.456,749.313,1325.391,750.411,1325.391,750.411Z" transform="translate(-1274.839 -610.317)" fill="#ffb27d"/>
            <path id="Path_80750" data-name="Path 80750" d="M1553.319,681.444c8.458-2.331,14.981,4.272,14.981,4.272-.106-12.72-6.437-14.461-6.437-14.461C1559.316,670.2,1556.364,674.612,1553.319,681.444Z" transform="translate(-1450.56 -610.352)" fill="#f99746"/>
            <path id="Path_80751" data-name="Path 80751" d="M1606.061,1802.882H1635.3s.7-4.456-.826-7.837c-1.463-3.244-3.755-4.718-3.207-8.643a10.529,10.529,0,0,1-9.113,3.486c-.518.84-3.343,5.333-5.073,6.576C1615.169,1797.838,1606.649,1797.348,1606.061,1802.882Z" transform="translate(-1491.221 -1470.816)" fill="#233862"/>
            <path id="Path_80752" data-name="Path 80752" d="M1331.977,1807.3h29.238s1.093-4.663-.826-7.837c-1.7-2.808-1.048-4.407.21-6.73a11.362,11.362,0,0,1-4.925.927,10.3,10.3,0,0,1-4.348-1.53c-1.258,1.435-6.647,7.542-8.331,8.751C1341.085,1802.251,1332.565,1801.761,1331.977,1807.3Z" transform="translate(-1279.916 -1475.229)" fill="#233862"/>
          </g>
          <g id="Group_166468" data-name="Group 166468" transform="translate(130.202 113.992)">
            <path id="Path_80753" data-name="Path 80753" d="M1045.882,1375.21s11.782,83.566,10.423,93.884l7.435-.9s9.305-36.479,8.187-46.687,9.219-52.279-.319-55.977S1045.882,1375.21,1045.882,1375.21Z" transform="translate(-1039.67 -1259.484)" fill="#f0995e"/>
            <path id="Path_80754" data-name="Path 80754" d="M1092.665,1371.074s16.807,83.644,16.085,94.026l7.355-1.7s7.15-37.6,5.4-47.723,5.983-52.748-3.765-55.852S1092.665,1371.074,1092.665,1371.074Z" transform="translate(-1075.738 -1255.248)" fill="#ffb27d"/>
            <path id="Path_80755" data-name="Path 80755" d="M1056.21,1809.767a8.691,8.691,0,0,1-5.133,4,8.441,8.441,0,0,0-5.054,3.145,1.978,1.978,0,0,0,1.608,3.141l17.106-.1a2.459,2.459,0,0,0,2.432-2.72c-.135-1.266-.276-2.742-.341-3.873-.141-2.47-2.817-4.689-2.817-4.689a17.546,17.546,0,0,1-3.253,1.506A12.113,12.113,0,0,1,1056.21,1809.767Z" transform="translate(-1039.486 -1601.626)" fill="#2c3a64"/>
            <path id="Path_80756" data-name="Path 80756" d="M1126.436,1809.767a8.69,8.69,0,0,1-5.133,4,8.439,8.439,0,0,0-5.054,3.145,1.978,1.978,0,0,0,1.608,3.141l17.106-.1a2.459,2.459,0,0,0,2.432-2.72c-.135-1.266-.276-2.742-.341-3.873-.141-2.47-2.816-4.689-2.816-4.689a17.55,17.55,0,0,1-3.254,1.506A12.114,12.114,0,0,1,1126.436,1809.767Z" transform="translate(-1093.627 -1601.626)" fill="#35488b"/>
            <path id="Path_80757" data-name="Path 80757" d="M1032.33,1093.908s-11.178,18.847-13.433,34.213c0,0,5.437,7.336,7.648,2.185S1044.628,1097.58,1032.33,1093.908Z" transform="translate(-1018.866 -1050.577)" fill="#ffb27d"/>
            <path id="Path_80758" data-name="Path 80758" d="M1086.835,914.606c.12-.2,5.122-8.109,14.472-9.687a13.829,13.829,0,0,1,15.83,11.666c1.171,7.63-.023,17.517-12.472,21.078Z" transform="translate(-1071.243 -904.73)" fill="#ed7d2b"/>
            <path id="Path_80759" data-name="Path 80759" d="M1096.833,1031.4l14.087,8.368,3.719-9.9a28.324,28.324,0,0,1-2.266-9.405,38.565,38.565,0,0,1,.228-8.334l-12.25,5.32a22.533,22.533,0,0,1,.3,2.746,19.77,19.77,0,0,1-.609,6.335A8.8,8.8,0,0,1,1096.833,1031.4Z" transform="translate(-1078.951 -987.528)" fill="#ffb27d"/>
            <path id="Path_80760" data-name="Path 80760" d="M1078.15,1178.182c-1.315-15.056-3.278-34.85-4.512-42.975a28.259,28.259,0,0,1-.062-8.089l2.9-21.378.911-6.708a7.924,7.924,0,0,0-4.793-8.365c-3.011-1.256-5.219-1.548-9.014-2.338-2.356,2.127-6.938,5.183-11.785,4.236-3.642-.714-4.365-2.516-4.169-4.606-.925.091-1.771.032-2.562.141a10.678,10.678,0,0,0-7.356,4.531.087.087,0,0,0,0-.011l-.059.1a10.674,10.674,0,0,0-.711,1.217l-5.355,9.156a7.089,7.089,0,0,0,3.149,4.656c-2.631,28.974-5.677,94.4-3.22,95.235,15.915,5.43,44.155-2.123,47.978-5.776C1079.68,1197.021,1079.076,1188.773,1078.15,1178.182Z" transform="translate(-1027.892 -1045.989)" fill="#2c3a64"/>
            <path id="Path_80761" data-name="Path 80761" d="M1052.128,1095.225c-8.249,6.606-11.018,23.25-9.935,34.58,2.067-5.146,1.935-12.774,3.937-20.874a37.442,37.442,0,0,1,7.383-14.014C1053.307,1094.918,1052.128,1095.225,1052.128,1095.225Z" transform="translate(-1036.654 -1051.356)" fill="#ffb93e"/>
            <path id="Path_80762" data-name="Path 80762" d="M1110.84,1053.675c6.757.249,12.332-6.067,12.332-6.067l-11.722-.268A19.773,19.773,0,0,1,1110.84,1053.675Z" transform="translate(-1089.75 -1014.675)" fill="#ed985f"/>
            <path id="Path_80763" data-name="Path 80763" d="M1083.222,965.7s13.23,4.409,18.552-6c5.744-11.229.783-19.992-3.75-20.85-9.04-1.711-14.554,1.427-16.389,5S1075.917,963.333,1083.222,965.7Z" transform="translate(-1065.164 -930.667)" fill="#ffb27d"/>
            <path id="Path_80764" data-name="Path 80764" d="M1100.02,1025.863s-.651,1.352-4.151.347c0,0-2.938-.843-2.5-2.39A9.817,9.817,0,0,1,1100.02,1025.863Z" transform="translate(-1076.246 -996.515)" fill="#fff"/>
            <path id="Path_80765" data-name="Path 80765" d="M1143.236,1221.375c-.419-.484-27.2-31.729-28.163-48.35-.969-16.753,13.435-28.994,13.435-28.994,5.739-.379,9.979,1.5,13.052,4.9l-2.9,21.378a28.263,28.263,0,0,0,.062,8.089C1139.959,1186.526,1141.922,1206.32,1143.236,1221.375Z" transform="translate(-1092.978 -1089.183)" fill="#232e4f"/>
            <path id="Path_80766" data-name="Path 80766" d="M1148.1,1091.562c-12.779,2.946-16.215,24.063-10.345,40.227,4.356,12,17.79,17.712,17.79,17.712,1.459-1.641.333-5.329.333-5.329-19.7-12.557-16.388-30.3-11.83-39.26s5.474-12.278,12.2-9.873C1155.408,1091.278,1148.1,1091.562,1148.1,1091.562Z" transform="translate(-1108.359 -1048.764)" fill="#ffb93e"/>
            <path id="Path_80767" data-name="Path 80767" d="M1093.228,927.13s-1.254,12.411,10.521,16.81c4.682,1.749,7.119-17.208-2.664-20.993s-19.43.71-20.584,7.327-.275,8-.275,8S1084.805,925.681,1093.228,927.13Z" transform="translate(-1065.901 -917.708)" fill="#ed7d2b"/>
            <path id="Path_80768" data-name="Path 80768" d="M1107.944,1108.719s-5.4,21.357-5.61,29.852c0,0-11.851,20.7-12.547,22.169s4.278,3.484,4.278,3.484,14.867-15.855,17.733-22.518,13.032-28.329,8.963-34.8S1107.944,1108.719,1107.944,1108.719Z" transform="translate(-1073.468 -1058.696)" fill="#ffb27d"/>
            <path id="Path_80769" data-name="Path 80769" d="M1018.794,1243.223s-1.061,14.548,9.292,26.01c0,0,2.826-3.4,2.47-4.458s-4.409-17.271-7.368-19.578S1018.794,1243.223,1018.794,1243.223Z" transform="translate(-1018.763 -1165.679)" fill="#ffb27d"/>
            <path id="Path_80770" data-name="Path 80770" d="M1066.322,1350.243s-6.627-.048-7,1.51,1.7,6.434,6.55,4.735,4.724-2.761,4.724-2.761Z" transform="translate(-1050.002 -1248.199)" fill="#ffb27d"/>
            <path id="Path_80771" data-name="Path 80771" d="M1061.7,1337.37s5.323,2.461,3.515,5.082-5.426,1.054-5.985-.624S1061.7,1337.37,1061.7,1337.37Z" transform="translate(-1049.911 -1238.275)" fill="#ffb27d"/>
            <path id="Path_80772" data-name="Path 80772" d="M1151.947,1118.951a24.211,24.211,0,0,0,17.664,5.463s5.28-18.714-3.187-21.011S1150.96,1112.2,1151.947,1118.951Z" transform="translate(-1121.37 -1057.66)" fill="#2c3a64"/>
          </g>
          <g id="Group_166470" data-name="Group 166470">
            <path id="Path_80773" data-name="Path 80773" d="M791.334,635.877s16.032,25.066,10.961,70.867c-1.583,14.3,48.543,36.988,48.543,36.988a7.637,7.637,0,0,0,2.151-8.224s-27.824-27.772-30.652-31.181c-2.508-3.025-9.3-35.25-12.228-45.978C805.073,639.9,791.334,635.877,791.334,635.877Z" transform="translate(-713.224 -582.88)" fill="#233862"/>
            <g id="Group_166469" data-name="Group 166469" transform="translate(0 148.109)">
              <path id="Path_80774" data-name="Path 80774" d="M454.871,1738.73s-5.488,5.008-4.417,8.568,6.023,5.931,6.693,10.281,3.346,6.722,5.756,6.722h11.487s1.774-3.061-2.51-3.983-5.9-6.034-5.631-10.779a83.646,83.646,0,0,0-.4-11.072l-9.1-2.109Z" transform="translate(-450.315 -1579.993)" fill="#233862"/>
              <path id="Path_80775" data-name="Path 80775" d="M763.5,1788.425s-.985,11.4,1.424,12.585l30.836-.063s0-3.559-4.953-4.349-13.654-3.691-15.126-10.149S763.5,1788.425,763.5,1788.425Z" transform="translate(-691.61 -1616.733)" fill="#233862"/>
              <path id="Path_80776" data-name="Path 80776" d="M724.874,1090.979s-1.626,19.98-3.537,44c-2.6,32.626-5.723,72.7-6.032,80.294-.534,13.183-2.679,34.271-2.679,34.271s-5.084,5.01-15.26,2.9c0,0-9.067-30.1-11.658-61.955-.04-.522-.08-1.048-.12-1.574-2.41-32.424-6.156-100.7-6.156-100.7Z" transform="translate(-626.952 -1080.303)" fill="#ffb93e"/>
              <path id="Path_80777" data-name="Path 80777" d="M724.874,1090.979s-1.626,19.98-3.537,44l-35.629,55.509c-.04-.522-.08-1.048-.12-1.574-2.41-32.424-6.156-100.7-6.156-100.7Z" transform="translate(-626.952 -1080.303)" fill="#e3a330"/>
              <path id="Path_80778" data-name="Path 80778" d="M556.143,1066.733s-29.315,72.361-48.591,106.367-25.3,43.5-25.3,43.5-11.043-4.35-12.047-7.315c0,0,7.371-65.65,20.28-81.654,7.294-9.043,15.862-36.181,16.264-45.671s2.61-28.273,2.61-28.273Z" transform="translate(-465.649 -1053.684)" fill="#ffb93e"/>
            </g>
            <path id="Path_80779" data-name="Path 80779" d="M677.007,542.895s19.835,9.57,31.27,6.02a26.984,26.984,0,0,0-7.741-6.193c.4-2.295.7-4.287.88-5.976a55.225,55.225,0,0,0,.484-6.107l-7.652-6.018-7.257-5.76C687.563,535.056,677.007,542.895,677.007,542.895Z" transform="translate(-625.084 -492.484)" fill="#ffb27d"/>
            <path id="Path_80780" data-name="Path 80780" d="M689.073,719.21a1.786,1.786,0,0,1-1.19.474c-4.308-.088-16.843,2.294-27.439,1.211-8.973-.866-16.889-3.463-25.378-7.184-1.144-.52-3.741-1.907-3.695-3.118.046-1.386.175-3.334.35-5.85.356-4.947.856-11.973,1.015-20.3.118-6.174.051-13.065-.4-20.363-.026-.489-.052-.984-.073-1.479-.129-2.675-.191-5.371-.191-8a138.934,138.934,0,0,1,1.8-23.816c2.16-12.561,6.163-22.46,12.142-26.836.793-.608,5.763,1.844,10.334,4.055a19.016,19.016,0,0,0,12.313,1.474l3.958,3.463c4.8,4.37,10.076,10.39,12.405,19.487,1.933,7.71,3.077,21.652,3.7,36.118.3,6.581.526,13.163.614,19.441v.217c.046.649.046,1.3.046,1.953C689.6,706.217,689.383,718.993,689.073,719.21Z" transform="translate(-589.9 -558.007)" fill="#2b478b"/>
            <path id="Path_80781" data-name="Path 80781" d="M720.019,544.441s5.014,9.137,14.558,11.692a55.216,55.216,0,0,0,.484-6.107l-7.653-6.018Z" transform="translate(-658.244 -511.872)" fill="#ed985f"/>
            <path id="Path_80782" data-name="Path 80782" d="M724.74,465.384s-18.922,3.1-20.7-8.537-5.414-19.067,6.592-21.535,15.037,1.622,16.589,5.363S729.617,464.279,724.74,465.384Z" transform="translate(-644.434 -427.493)" fill="#ffb27d"/>
            <path id="Path_80783" data-name="Path 80783" d="M675.649,410.132c-.172-.2-.568-.356-1.45-.4a3.573,3.573,0,0,1,1.648-.464c.184-1.226.836-3.4,2.947-3.924a2.646,2.646,0,0,0-1.282,1.908c2.444-2.51,7.681-4.337,22.183-3.192,19.112,1.509,12.813,13.745,10.339,15.2s-8.7-2.541-13.312-2.175-5.487,7.027-7.051,7.941-.949-.7-3.065-1.659-2.317,2.55-1.706,4.829-2.3,5.287-2.3,5.287l-2.938-3.164c-2.938-3.164-5.707-16.566-4.372-19.423C675.412,410.645,675.529,410.389,675.649,410.132Z" transform="translate(-622.919 -403.707)" fill="#ed7d2b"/>
            <path id="Path_80784" data-name="Path 80784" d="M1072.344,1078.134s2.421-1.085,3.867.473,4.826,2.632,4.536,3.447c-.6,1.687-3.718-.215-7.012.81C1072.582,1083.222,1069.009,1081.015,1072.344,1078.134Z" transform="translate(-928.799 -923.735)" fill="#ffb27d"/>
            <path id="Path_80785" data-name="Path 80785" d="M635.756,824.714c.118-6.174.052-13.065-.4-20.363-.026-.489-.051-.984-.072-1.479,1.8-8.911,4.52-16.817,8.525-17.075C643.812,785.8,655.743,804.547,635.756,824.714Z" transform="translate(-592.919 -698.508)" fill="#233862"/>
            <path id="Path_80786" data-name="Path 80786" d="M568.432,1090.194s.995,9.669,2.086,11.5,5.737,7.674,7.716,8.82-1.209-7.7-.805-9.422,1.629,3.141,2.5,3.256.648-4.263.679-5.856-4.244-5.525-5.751-8.917S568.432,1090.194,568.432,1090.194Z" transform="translate(-541.377 -931.814)" fill="#ffb27d"/>
            <path id="Path_80787" data-name="Path 80787" d="M570.559,604.152s-11.972,5.669-17.712,14.385c-8.9,13.519-19.225,62.79-19.416,67.353s7.533,36.774,7.533,36.774,7.834-.516,9.854-4.47c0,0-1.565-33.1-.573-35.224s32.658-44.4,29.1-53.415S570.559,604.152,570.559,604.152Z" transform="translate(-514.39 -558.24)" fill="#2b478b"/>
          </g>
          <path id="Path_80788" data-name="Path 80788" d="M1238.838,1013.384c2.811,1.186,6.766,5.315,13.092,2.812a98.156,98.156,0,0,1,11.642-3.559c.922-.176,1.449-.307,1.449-.307l-2.5-7.293a1.366,1.366,0,0,1-.307.088c-1.626.351-9.885,2.109-13.751,1.23-4.349-1.01-11.642,4.217-11.642,4.217S1236.026,1012.242,1238.838,1013.384Z" transform="translate(-1056.591 -867.632)" fill="#ffb27d"/>
        </g>
        <g id="Group_166472" data-name="Group 166472" transform="translate(139.423)">
          <path id="Path_80789" data-name="Path 80789" d="M1007.313,342.572H968.725a9.245,9.245,0,0,0-9.218,9.218v14.6a9.174,9.174,0,0,0,2.293,6.063l-2.293,10.479,13.22-7.325h34.585a9.245,9.245,0,0,0,9.218-9.218v-14.6A9.245,9.245,0,0,0,1007.313,342.572Z" transform="translate(-959.507 -342.572)" fill="#ffc9b0"/>
          <path id="Path_80790" data-name="Path 80790" d="M1031.7,381.054h-40a1.5,1.5,0,0,1-1.5-1.5h0a1.5,1.5,0,0,1,1.5-1.5h40a1.5,1.5,0,0,1,1.5,1.5h0A1.5,1.5,0,0,1,1031.7,381.054Z" transform="translate(-983.171 -369.932)" fill="#fee8de"/>
          <path id="Path_80791" data-name="Path 80791" d="M1031.7,409.66h-40a1.5,1.5,0,0,1-1.5-1.5h0a1.5,1.5,0,0,1,1.5-1.5h40a1.5,1.5,0,0,1,1.5,1.5h0A1.5,1.5,0,0,1,1031.7,409.66Z" transform="translate(-983.171 -391.985)" fill="#fee8de"/>
          <path id="Path_80792" data-name="Path 80792" d="M1031.7,437.193h-40a1.5,1.5,0,0,1-1.5-1.5h0a1.5,1.5,0,0,1,1.5-1.5h40a1.5,1.5,0,0,1,1.5,1.5h0A1.5,1.5,0,0,1,1031.7,437.193Z" transform="translate(-983.171 -413.212)" fill="#fee8de"/>
        </g>
      </g>
    </g>
  </g>
</svg>
