<svg xmlns="http://www.w3.org/2000/svg" width="569" height="395.929" viewBox="0 0 569 395.929">
  <g id="_5" data-name="5" transform="translate(-813 -2378)">
    <g id="Group_166340" data-name="Group 166340" transform="translate(813 2378)">
      <g id="Group_166337" data-name="Group 166337" transform="translate(0 0)">
        <path id="Path_80166" data-name="Path 80166" d="M677.293,317.452c-4.813,39.172-32.579,32.654-36.964,78.2-1.565,16.256,10.271,26.476,16.152,40.551,6.513,15.557,4.206,29.536-4.59,40.2H169.255c-10.67-4.9-20.85-10.1-29.712-16.36-12.2-8.594-21.854-19.187-26.778-33.711-4.444-13.123-7.868-25.783,3.806-35.737,6.338-5.412,12.935-9.588,18.671-14.6a45.355,45.355,0,0,0,11.014-13.626C167.3,321.239,140.307,285,130.4,243.85c-.956-4-1.832-8.037-2.529-12.089-1.818-10.321-2.664-20.792-1.585-30.991a68.286,68.286,0,0,1,8.463-27.075c7.36-12.892,26.425-31.929,46.913-28.3,15.394,2.734,25.081,17.773,38.98,23.213,17.516,6.854,36.949,1.373,50.071-8.7,25.521-19.6,41.876-56.843,85.494-53.429,14.79,1.156,24.774,13.055,37.742,18.508,17.828,7.506,35.414,7.451,52.451.149,19.593-8.4,33.037-24.015,52.276-32.949a130.2,130.2,0,0,1,20.313-7.438c15.477-4.27,32.4-5.78,48.363-2.489a94.089,94.089,0,0,1,9.633,2.489c53.364,16.74,55.875,71.569,53.364,111.577-1.152,18.331-15.553,49.943-4.914,68.883S681.948,279.573,677.293,317.452Z" transform="translate(-108.624 -80.472)" fill="rgba(252,79,25,0.99)" opacity="0.1"/>
      </g>
    </g>
    <g id="Group_166465" data-name="Group 166465" transform="translate(856.44 2464.932)">
      <g id="Group_166464" data-name="Group 166464">
        <g id="Group_166456" data-name="Group 166456" transform="translate(55.685 0)">
          <g id="Group_166440" data-name="Group 166440" transform="translate(292.98 34.294)">
            <rect id="Rectangle_3445" data-name="Rectangle 3445" width="131.312" height="215.654" transform="translate(135.428 215.654) rotate(180)" fill="#aed3ff"/>
            <path id="Path_81017" data-name="Path 81017" d="M0,0H131.312V215.654H0Z" fill="#3a518b"/>
            <rect id="Rectangle_3447" data-name="Rectangle 3447" width="113.739" height="76.847" transform="translate(8.943 12.325)" fill="#f3f9ff"/>
            <rect id="Rectangle_3448" data-name="Rectangle 3448" width="61.043" height="41.031" transform="translate(59.677 156.315)" fill="#f3f9ff"/>
            <path id="Path_80616" data-name="Path 80616" d="M3484.835,1045.23s19.42-2.42,31.287,8.513,33.973.969,42.874,0c15.476-1.684,27.608,3.379,31.206,8.944v16.7H3484.835Z" transform="translate(-3471.202 -995.052)" fill="#ffc9b0"/>
            <rect id="Rectangle_3449" data-name="Rectangle 3449" width="0.813" height="26.072" transform="translate(28.685 24.677)" fill="#ffc9b0"/>
            <rect id="Rectangle_3450" data-name="Rectangle 3450" width="0.814" height="26.072" transform="translate(60.62 34.948)" fill="#ffc9b0"/>
            <rect id="Rectangle_3451" data-name="Rectangle 3451" width="0.814" height="26.072" transform="translate(93.573 29.966)" fill="#ffc9b0"/>
            <path id="Path_80617" data-name="Path 80617" d="M3568.627,944.069h-6.238a.68.68,0,0,1-.678-.678h0a.68.68,0,0,1,.678-.678h6.238a.68.68,0,0,1,.678.678h0A.68.68,0,0,1,3568.627,944.069Z" transform="translate(-3530.043 -915.392)" fill="#ffc9b0"/>
            <path id="Path_80618" data-name="Path 80618" d="M3568.627,954.473h-6.238a.68.68,0,0,1-.678-.678h0a.68.68,0,0,1,.678-.678h6.238a.68.68,0,0,1,.678.678h0A.68.68,0,0,1,3568.627,954.473Z" transform="translate(-3530.043 -923.355)" fill="#ffc9b0"/>
            <path id="Path_80619" data-name="Path 80619" d="M3702.726,1000.714h-6.238a.68.68,0,0,1-.678-.678h0a.68.68,0,0,1,.678-.678h6.238a.68.68,0,0,1,.679.678h0A.68.68,0,0,1,3702.726,1000.714Z" transform="translate(-3632.681 -958.747)" fill="#ffc9b0"/>
            <path id="Path_80620" data-name="Path 80620" d="M3702.726,1010.9h-6.238a.68.68,0,0,1-.678-.678h0a.68.68,0,0,1,.678-.678h6.238a.68.68,0,0,1,.679.678h0A.68.68,0,0,1,3702.726,1010.9Z" transform="translate(-3632.681 -967.521)" fill="#ffc9b0"/>
            <path id="Path_80621" data-name="Path 80621" d="M3845.494,958.808h-6.238a.68.68,0,0,1-.678-.678h0a.68.68,0,0,1,.678-.678h6.238a.68.68,0,0,1,.678.678h0A.68.68,0,0,1,3845.494,958.808Z" transform="translate(-3741.954 -926.673)" fill="#ffc9b0"/>
            <path id="Path_80622" data-name="Path 80622" d="M3845.494,969h-6.238a.68.68,0,0,1-.678-.678h0a.68.68,0,0,1,.678-.678h6.238a.68.68,0,0,1,.678.678h0A.68.68,0,0,1,3845.494,969Z" transform="translate(-3741.954 -934.473)" fill="#ffc9b0"/>
            <g id="Group_166434" data-name="Group 166434" transform="translate(98.567 93.497)">
              <circle id="Ellipse_3346" data-name="Ellipse 3346" cx="11.23" cy="11.23" r="11.23" transform="matrix(0.16, -0.987, 0.987, 0.16, 0, 22.171)" fill="#f3f9ff"/>
              <path id="Path_80623" data-name="Path 80623" d="M3889.389,1256.6a10.278,10.278,0,0,1-17.226,7.574l6.948-7.574v-10.278A10.278,10.278,0,0,1,3889.389,1256.6Z" transform="translate(-3866.227 -1243.716)" fill="#ff8526"/>
              <path id="Path_80624" data-name="Path 80624" d="M3872.042,1280.4h-3.691a.31.31,0,0,1-.31-.309h0a.31.31,0,0,1,.31-.309h3.691a.311.311,0,0,1,.309.309h0A.311.311,0,0,1,3872.042,1280.4Z" transform="translate(-3863.071 -1269.323)" fill="#a6c7f9"/>
            </g>
            <g id="Group_166435" data-name="Group 166435" transform="translate(72.338 95.151)">
              <path id="Path_80625" data-name="Path 80625" d="M3735.062,1253.5a11.23,11.23,0,1,1,11.23,11.23A11.23,11.23,0,0,1,3735.062,1253.5Z" transform="translate(-3735.062 -1242.265)" fill="#f3f9ff"/>
              <path id="Path_80626" data-name="Path 80626" d="M3749.4,1256.6l6.315,8.109a10.278,10.278,0,1,1,3.92-9.048Z" transform="translate(-3738.164 -1245.37)" fill="#ff8526"/>
              <path id="Path_80627" data-name="Path 80627" d="M3807.278,1298.947h-2.569a.31.31,0,0,1-.31-.309h0a.31.31,0,0,1,.31-.309h2.569a.31.31,0,0,1,.308.309h0A.31.31,0,0,1,3807.278,1298.947Z" transform="translate(-3788.133 -1285.176)" fill="#a6c7f9"/>
            </g>
            <g id="Group_166436" data-name="Group 166436" transform="translate(100.221 125.306)">
              <path id="Path_80628" data-name="Path 80628" d="M3853.909,1385.336a11.23,11.23,0,1,1,11.23,11.23A11.23,11.23,0,0,1,3853.909,1385.336Z" transform="translate(-3853.909 -1374.106)" fill="#f3f9ff"/>
              <path id="Path_80629" data-name="Path 80629" d="M3889.389,1388.441a10.278,10.278,0,0,1-17.226,7.574l6.948-7.574v-10.278A10.278,10.278,0,0,1,3889.389,1388.441Z" transform="translate(-3867.881 -1377.211)" fill="#ff8526"/>
              <path id="Path_80630" data-name="Path 80630" d="M3872.042,1412.238h-3.691a.31.31,0,0,1-.31-.309h0a.31.31,0,0,1,.31-.31h3.691a.311.311,0,0,1,.309.31h0A.311.311,0,0,1,3872.042,1412.238Z" transform="translate(-3864.726 -1402.818)" fill="#a6c7f9"/>
            </g>
            <g id="Group_166437" data-name="Group 166437" transform="translate(72.338 125.306)">
              <path id="Path_80631" data-name="Path 80631" d="M3735.062,1385.336a11.23,11.23,0,1,1,11.23,11.23A11.23,11.23,0,0,1,3735.062,1385.336Z" transform="translate(-3735.062 -1374.106)" fill="#f3f9ff"/>
              <path id="Path_80632" data-name="Path 80632" d="M3759.631,1387.5a10.278,10.278,0,1,0-3.92,9.048l-6.315-8.109Z" transform="translate(-3738.164 -1377.211)" fill="#ff8526"/>
              <path id="Path_80633" data-name="Path 80633" d="M3807.278,1430.789h-2.569a.31.31,0,0,1-.31-.309h0a.31.31,0,0,1,.31-.309h2.569a.31.31,0,0,1,.308.309h0A.31.31,0,0,1,3807.278,1430.789Z" transform="translate(-3788.133 -1417.017)" fill="#a6c7f9"/>
            </g>
            <g id="Group_166438" data-name="Group 166438" transform="translate(62.058 161.372)">
              <path id="Path_80634" data-name="Path 80634" d="M3747.277,1568.387h-56.031V1535.28h.7v32.41h55.334Z" transform="translate(-3691.246 -1535.28)" fill="#ffc9b0"/>
            </g>
            <g id="Group_166439" data-name="Group 166439" transform="translate(65.421 162.722)">
              <path id="Path_80635" data-name="Path 80635" d="M3719.732,1577.1c-6.859-5.46-14.153,0-14.153,0v9.334h51.277v-24.128C3742.921,1562.658,3726.591,1582.56,3719.732,1577.1Z" transform="translate(-3705.579 -1557.316)" fill="#ffc9b0"/>
              <path id="Path_80636" data-name="Path 80636" d="M3706.166,1542.21h23.894a.587.587,0,0,0,0-1.174h-23.894a.587.587,0,0,0,0,1.174Z" transform="translate(-3705.579 -1541.036)" fill="#ffc9b0"/>
              <path id="Path_80637" data-name="Path 80637" d="M3706.166,1554.438h23.894a.587.587,0,0,0,0-1.174h-23.894a.587.587,0,0,0,0,1.174Z" transform="translate(-3705.579 -1550.395)" fill="#ffc9b0"/>
              <path id="Rectangle_3452" data-name="Rectangle 3452" d="M.587,0H16.195a.587.587,0,0,1,.587.587v0a.587.587,0,0,1-.587.587H.587A.587.587,0,0,1,0,.587v0A.587.587,0,0,1,.587,0Z" transform="translate(0 5.577)" fill="#ffc9b0"/>
            </g>
          </g>
          <g id="Group_166445" data-name="Group 166445" transform="translate(127.325)">
            <rect id="Rectangle_3453" data-name="Rectangle 3453" width="179.669" height="265.99" fill="#3a518b"/>
            <rect id="Rectangle_3454" data-name="Rectangle 3454" width="144.654" height="161.234" transform="translate(17.36 15.156)" fill="#f3f9ff"/>
            <path id="Path_80638" data-name="Path 80638" d="M2655.4,1566.632a26.015,26.015,0,1,1,26.015,26.015A26.016,26.016,0,0,1,2655.4,1566.632Z" transform="translate(-2634.967 -1343.699)" fill="#f3f9ff"/>
            <path id="Path_80639" data-name="Path 80639" d="M2716.538,1579.761a21.99,21.99,0,1,0-8.652,17.485l-13.337-17.485,20.55,7.843A21.96,21.96,0,0,0,2716.538,1579.761Z" transform="translate(-2648.098 -1356.828)" fill="#ff8526"/>
            <path id="Path_80640" data-name="Path 80640" d="M3033.214,1566.632a26.015,26.015,0,1,1,26.016,26.015A26.015,26.015,0,0,1,3033.214,1566.632Z" transform="translate(-2924.141 -1343.699)" fill="#f3f9ff"/>
            <path id="Path_80641" data-name="Path 80641" d="M3072.357,1557.769a21.991,21.991,0,0,0-15.673,37.417l15.673-15.426,20.55,7.843a22.006,22.006,0,0,0-20.55-29.835Z" transform="translate(-2937.268 -1356.828)" fill="#ff8526"/>
            <g id="Group_166441" data-name="Group 166441" transform="translate(121.845 212.68)">
              <path id="Path_80642" data-name="Path 80642" d="M3097.682,1603.919h-9.36a.671.671,0,0,0-.669.669h0a.671.671,0,0,0,.669.668h9.36a.67.67,0,0,0,.669-.668h0A.671.671,0,0,0,3097.682,1603.919Z" transform="translate(-3087.653 -1603.919)" fill="#fff"/>
              <path id="Path_80643" data-name="Path 80643" d="M3097.682,1612.944h-9.36a.669.669,0,1,0,0,1.337h9.36a.669.669,0,1,0,0-1.337Z" transform="translate(-3087.653 -1610.827)" fill="#fff"/>
              <path id="Path_80644" data-name="Path 80644" d="M3092.188,1621.97h-3.865a.669.669,0,1,0,0,1.338h3.865a.669.669,0,0,0,0-1.338Z" transform="translate(-3087.653 -1617.735)" fill="#fff"/>
            </g>
            <g id="Group_166442" data-name="Group 166442" transform="translate(33.027 212.68)">
              <path id="Path_80645" data-name="Path 80645" d="M2719.1,1603.919h-9.361a.671.671,0,0,0-.668.669h0a.671.671,0,0,0,.668.668h9.361a.671.671,0,0,0,.669-.668h0A.671.671,0,0,0,2719.1,1603.919Z" transform="translate(-2709.075 -1603.919)" fill="#fff"/>
              <path id="Path_80646" data-name="Path 80646" d="M2719.1,1612.944h-9.361a.669.669,0,0,0,0,1.337h9.361a.669.669,0,1,0,0-1.337Z" transform="translate(-2709.075 -1610.827)" fill="#fff"/>
              <path id="Path_80647" data-name="Path 80647" d="M2713.609,1621.97h-3.866a.669.669,0,0,0,0,1.338h3.866a.669.669,0,0,0,0-1.338Z" transform="translate(-2709.075 -1617.735)" fill="#fff"/>
            </g>
            <g id="Group_166443" data-name="Group 166443" transform="translate(30.241 44.733)">
              <rect id="Rectangle_3455" data-name="Rectangle 3455" width="15.265" height="95.088" transform="translate(0 26.505)" fill="#ff8526"/>
              <rect id="Rectangle_3456" data-name="Rectangle 3456" width="15.265" height="121.593" transform="translate(25.007)" fill="#ff8526"/>
              <rect id="Rectangle_3457" data-name="Rectangle 3457" width="15.265" height="72.093" transform="translate(52.295 49.5)" fill="#ff8526"/>
              <rect id="Rectangle_3458" data-name="Rectangle 3458" width="15.265" height="105.36" transform="translate(78.847 16.234)" fill="#ff8526"/>
              <rect id="Rectangle_3459" data-name="Rectangle 3459" width="15.265" height="57.982" transform="translate(105.537 63.611)" fill="#ff8526"/>
            </g>
            <g id="Group_166444" data-name="Group 166444" transform="translate(56.095 28.09)">
              <path id="Path_80648" data-name="Path 80648" d="M3048.717,888.089h-12.928a1.337,1.337,0,0,0,0,2.674h12.928a1.337,1.337,0,1,0,0-2.674Z" transform="translate(-2981.184 -867.38)" fill="#ffc9b0"/>
              <path id="Path_80649" data-name="Path 80649" d="M3038.734,908.831h-2.945a1.337,1.337,0,0,0,0,2.675h2.945a1.337,1.337,0,1,0,0-2.675Z" transform="translate(-2981.184 -883.255)" fill="#ffc9b0"/>
              <path id="Path_80650" data-name="Path 80650" d="M2821.665,799.817h-12.926a1.337,1.337,0,1,0,0,2.675h12.926a1.337,1.337,0,1,0,0-2.675Z" transform="translate(-2807.401 -799.817)" fill="#ffc9b0"/>
              <path id="Path_80651" data-name="Path 80651" d="M2811.682,820.559h-2.944a1.341,1.341,0,0,0-1.338,1.337h0a1.341,1.341,0,0,0,1.338,1.337h2.944a1.341,1.341,0,0,0,1.337-1.337h0A1.341,1.341,0,0,0,2811.682,820.559Z" transform="translate(-2807.401 -815.693)" fill="#ffc9b0"/>
              <path id="Path_80652" data-name="Path 80652" d="M2933.647,1027.819h-12.927a1.337,1.337,0,1,0,0,2.674h12.927a1.337,1.337,0,1,0,0-2.674Z" transform="translate(-2893.11 -974.328)" fill="#ffc9b0"/>
              <path id="Path_80653" data-name="Path 80653" d="M2923.664,1048.561h-2.944a1.341,1.341,0,0,0-1.337,1.337h0a1.341,1.341,0,0,0,1.337,1.337h2.944A1.341,1.341,0,0,0,2925,1049.9h0A1.341,1.341,0,0,0,2923.664,1048.561Z" transform="translate(-2893.11 -990.203)" fill="#ffc9b0"/>
              <path id="Path_80654" data-name="Path 80654" d="M3160.586,1088.312h-12.927a1.337,1.337,0,0,0,0,2.675h12.927a1.337,1.337,0,1,0,0-2.675Z" transform="translate(-3066.808 -1020.628)" fill="#ffc9b0"/>
              <path id="Path_80655" data-name="Path 80655" d="M3150.6,1109.054h-2.945a1.337,1.337,0,0,0,0,2.674h2.945a1.337,1.337,0,0,0,0-2.674Z" transform="translate(-3066.808 -1036.504)" fill="#ffc9b0"/>
            </g>
          </g>
          <g id="Group_166449" data-name="Group 166449" transform="translate(9.249 100.118)">
            <rect id="Rectangle_3460" data-name="Rectangle 3460" width="131.312" height="73.925" fill="#839dc2"/>
            <rect id="Rectangle_3461" data-name="Rectangle 3461" width="131.312" height="73.925" transform="translate(4.27)" fill="#3a518b"/>
            <circle id="Ellipse_3347" data-name="Ellipse 3347" cx="23.743" cy="23.743" r="23.743" transform="translate(6.605 35.292) rotate(-45)" fill="#f3f9ff"/>
            <g id="Group_166446" data-name="Group 166446" transform="translate(78.897 22.029)">
              <path id="Path_80656" data-name="Path 80656" d="M2283.466,1211.772h-39.333a2.6,2.6,0,0,0-2.591,2.592h0a2.6,2.6,0,0,0,2.591,2.592h39.333a2.6,2.6,0,0,0,2.591-2.592h0A2.6,2.6,0,0,0,2283.466,1211.772Z" transform="translate(-2241.542 -1211.772)" fill="#f3f9ff"/>
              <path id="Path_80657" data-name="Path 80657" d="M2283.466,1257.259h-39.333a2.6,2.6,0,0,0-2.591,2.592h0a2.6,2.6,0,0,0,2.591,2.592h39.333a2.6,2.6,0,0,0,2.591-2.592h0A2.6,2.6,0,0,0,2283.466,1257.259Z" transform="translate(-2241.542 -1246.587)" fill="#f3f9ff"/>
              <path id="Path_80658" data-name="Path 80658" d="M2283.466,1302.745h-39.333a2.592,2.592,0,0,0,0,5.183h39.333a2.592,2.592,0,0,0,0-5.183Z" transform="translate(-2241.542 -1281.402)" fill="#f3f9ff"/>
            </g>
            <path id="Path_80659" data-name="Path 80659" d="M1983.87,1195.915h21.739v-21.738A21.739,21.739,0,0,0,1983.87,1195.915Z" transform="translate(-1965.426 -1160.968)" fill="#ff8526"/>
            <path id="Path_80660" data-name="Path 80660" d="M2027.347,1269.817H1983.87a21.74,21.74,0,0,0,21.739,21.739h0A21.739,21.739,0,0,0,2027.347,1269.817Z" transform="translate(-1965.426 -1234.17)" fill="#ff8526"/>
            <g id="Group_166447" data-name="Group 166447" transform="translate(23.41 23.771)">
              <path id="Path_80661" data-name="Path 80661" d="M2018.053,1219.2h-11.8a1.221,1.221,0,0,0,0,2.441h11.8a1.221,1.221,0,1,0,0-2.441Z" transform="translate(-2005.035 -1219.198)" fill="#fff"/>
              <path id="Path_80662" data-name="Path 80662" d="M2008.943,1238.128h-2.687a1.22,1.22,0,0,0,0,2.441h2.687a1.22,1.22,0,1,0,0-2.441Z" transform="translate(-2005.035 -1233.687)" fill="#fff"/>
            </g>
            <g id="Group_166448" data-name="Group 166448" transform="translate(40.925 40.961)">
              <path id="Path_80663" data-name="Path 80663" d="M2092.71,1292.469h-11.8a1.22,1.22,0,0,0,0,2.441h11.8a1.22,1.22,0,0,0,0-2.441Z" transform="translate(-2079.692 -1292.469)" fill="#fff"/>
              <path id="Path_80664" data-name="Path 80664" d="M2083.6,1311.4h-2.687a1.224,1.224,0,0,0-1.22,1.221h0a1.224,1.224,0,0,0,1.22,1.221h2.687a1.224,1.224,0,0,0,1.22-1.221h0A1.224,1.224,0,0,0,2083.6,1311.4Z" transform="translate(-2079.692 -1306.957)" fill="#fff"/>
            </g>
          </g>
          <g id="Group_166452" data-name="Group 166452" transform="translate(0 184.901)">
            <path id="Path_80665" data-name="Path 80665" d="M1865.832,1489.4V1565h131.312v-75.6Z" transform="translate(-1865.832 -1489.399)" fill="#839dc2"/>
            <path id="Path_80666" data-name="Path 80666" d="M1884.031,1489.4V1565h131.312v-75.6Z" transform="translate(-1879.762 -1489.399)" fill="#3a518b"/>
            <circle id="Ellipse_3348" data-name="Ellipse 3348" cx="23.743" cy="23.743" r="23.743" transform="matrix(0.443, -0.896, 0.896, 0.443, 8.373, 46.223)" fill="#f3f9ff"/>
            <g id="Group_166450" data-name="Group 166450" transform="translate(78.895 22.203)">
              <path id="Path_80667" data-name="Path 80667" d="M2204.707,1589.223h39.332a2.592,2.592,0,0,0,0-5.184h-39.332a2.592,2.592,0,0,0,0,5.184Z" transform="translate(-2202.115 -1584.039)" fill="#f3f9ff"/>
              <path id="Path_80668" data-name="Path 80668" d="M2244.039,1629.526h-39.332a2.592,2.592,0,1,0,0,5.183h39.332a2.592,2.592,0,0,0,0-5.183Z" transform="translate(-2202.115 -1618.854)" fill="#f3f9ff"/>
              <path id="Path_80669" data-name="Path 80669" d="M2244.039,1675.013h-39.332a2.6,2.6,0,0,0-2.592,2.592h0a2.6,2.6,0,0,0,2.592,2.592h39.332a2.6,2.6,0,0,0,2.591-2.592h0A2.6,2.6,0,0,0,2244.039,1675.013Z" transform="translate(-2202.115 -1653.67)" fill="#f3f9ff"/>
            </g>
            <path id="Path_80670" data-name="Path 80670" d="M1966.182,1641.315l-21.736-.277c0,.092,0,.185,0,.277a21.739,21.739,0,0,0,33.4,18.345Z" transform="translate(-1926 -1605.462)" fill="#ff8526"/>
            <g id="Group_166451" data-name="Group 166451" transform="translate(27.964 42.697)">
              <path id="Rectangle_3462" data-name="Rectangle 3462" d="M1.22,0h11.8a1.22,1.22,0,0,1,1.22,1.22v0a1.221,1.221,0,0,1-1.221,1.221H1.221A1.221,1.221,0,0,1,0,1.22v0A1.22,1.22,0,0,1,1.22,0Z" fill="#fff"/>
              <path id="Path_80671" data-name="Path 80671" d="M1988.932,1690.322h-2.687a1.221,1.221,0,0,0,0,2.441h2.687a1.221,1.221,0,0,0,0-2.441Z" transform="translate(-1985.024 -1685.881)" fill="#fff"/>
            </g>
          </g>
          <g id="Group_166455" data-name="Group 166455" transform="translate(0 22.086)">
            <rect id="Rectangle_3463" data-name="Rectangle 3463" width="131.314" height="68.509" fill="#839dc2"/>
            <rect id="Rectangle_3464" data-name="Rectangle 3464" width="131.312" height="68.509" transform="translate(4.27)" fill="#3a518b"/>
            <circle id="Ellipse_3349" data-name="Ellipse 3349" cx="23.743" cy="23.743" r="23.743" transform="translate(10.326 19.897) rotate(-17.769)" fill="#f3f9ff"/>
            <path id="Path_80672" data-name="Path 80672" d="M1966.183,831.874a21.739,21.739,0,0,0-10.433,40.81c3.483-6.45,10.433-19.074,10.433-19.074l10.293,19.149a21.739,21.739,0,0,0-10.293-40.886Z" transform="translate(-1926.001 -818.349)" fill="#ff8526"/>
            <g id="Group_166453" data-name="Group 166453" transform="translate(78.895 21.998)">
              <rect id="Rectangle_3465" data-name="Rectangle 3465" width="44.516" height="5.183" rx="2.592" transform="translate(0)" fill="#f3f9ff"/>
              <path id="Path_80673" data-name="Path 80673" d="M2244.04,913.476h-39.332a2.592,2.592,0,1,0,0,5.183h39.332a2.592,2.592,0,1,0,0-5.183Z" transform="translate(-2202.116 -902.805)" fill="#f3f9ff"/>
              <path id="Path_80674" data-name="Path 80674" d="M2244.04,958.962h-39.332a2.592,2.592,0,1,0,0,5.183h39.332a2.592,2.592,0,1,0,0-5.183Z" transform="translate(-2202.116 -937.619)" fill="#f3f9ff"/>
            </g>
            <g id="Group_166454" data-name="Group 166454" transform="translate(27.964 24.879)">
              <path id="Path_80675" data-name="Path 80675" d="M1998.043,880.271h-11.8a1.22,1.22,0,0,0,0,2.441h11.8a1.22,1.22,0,1,0,0-2.441Z" transform="translate(-1985.025 -880.271)" fill="#fff"/>
              <path id="Path_80676" data-name="Path 80676" d="M1988.933,899.2h-2.687a1.224,1.224,0,0,0-1.22,1.22h0a1.224,1.224,0,0,0,1.22,1.22h2.687a1.224,1.224,0,0,0,1.22-1.22h0A1.224,1.224,0,0,0,1988.933,899.2Z" transform="translate(-1985.025 -894.76)" fill="#fff"/>
            </g>
          </g>
        </g>
        <g id="Group_166457" data-name="Group 166457" transform="translate(160.326 108.904)">
          <path id="Path_80677" data-name="Path 80677" d="M2573.56,1278.528s15.317,15.812,16.052,21.775-7.288,15.29-7.288,15.29Z" transform="translate(-2538.548 -1252.003)" fill="#fc5019"/>
          <path id="Path_80678" data-name="Path 80678" d="M2478.279,1968.888s-.521,8.406-2.148,8.527c-.216.016-8.249.016-8.249.016l-10.254-.059a3.327,3.327,0,0,1,3.065-2.993c3-.522,8.013-2.629,9.829-6.59C2472.433,1963.621,2478.279,1968.888,2478.279,1968.888Z" transform="translate(-2449.815 -1778.328)" fill="#163560"/>
          <path id="Path_80679" data-name="Path 80679" d="M2575.523,1968.888s-.521,8.406-2.148,8.527c-.216.016-8.248.016-8.248.016l-10.284-.036a3.391,3.391,0,0,1,3.095-3.016c3-.522,8.014-2.629,9.829-6.59C2569.677,1963.621,2575.523,1968.888,2575.523,1968.888Z" transform="translate(-2524.222 -1778.328)" fill="#163560"/>
          <path id="Path_80680" data-name="Path 80680" d="M2497.243,1551.55s2.682,17.152,12.686,47.6,11.368,43.631,11.368,43.631a44.02,44.02,0,0,0,5.563.393,35.241,35.241,0,0,0,5.168-.693s.091-33.274-4.519-48.585-1-55.2-1-55.2Z" transform="translate(-2480.135 -1451.134)" fill="#163560"/>
          <path id="Path_80681" data-name="Path 80681" d="M2474.957,1542.7a416.265,416.265,0,0,0,4.092,57.581c4.472,31.735,2.956,45.205,2.956,45.205s3.682.66,4.975.7c1.384.046,5.736-.346,5.736-.346s6.4-31.747,4.565-47.631,8.765-54.5,8.765-54.5Z" transform="translate(-2463.071 -1454.199)" fill="#1c468a"/>
          <path id="Path_80682" data-name="Path 80682" d="M2523.06,1243.21l-5.052,3.741-7.3-1.537c.1-.666.583-3.425,1.022-5.924.026-.148.053-.295.078-.439.376-2.127.7-3.954.7-3.954l6.819-3.4,2.542-1.267c-.006.045-.2,2.36-.223,2.7A21.836,21.836,0,0,0,2523.06,1243.21Z" transform="translate(-2490.441 -1215.191)" fill="#fc5019"/>
          <path id="Path_80683" data-name="Path 80683" d="M2502.12,1268.27c.161-.067,9.931-2.951,10.993-2.6s1.69,2.4,1.69,2.4l-15.982,3.613A7.938,7.938,0,0,1,2502.12,1268.27Z" transform="translate(-2481.343 -1242.139)" fill="#f2564b"/>
          <path id="Path_80684" data-name="Path 80684" d="M2504.182,1341.5c-1.656,7.555-29.221,8.452-36.326,1.593-.809-.781-.848-4.419-.543-9.323.6-9.581,2.511-23.994,2.585-31.358a58.376,58.376,0,0,1,1.176-10.5,85.276,85.276,0,0,1,3.5-12.562s13.464-4.353,15.984-3.612C2502.69,1279.3,2505.838,1333.942,2504.182,1341.5Z" transform="translate(-2457.093 -1249.804)" fill="#f99746"/>
          <path id="Path_80685" data-name="Path 80685" d="M2467.885,1382.15c.6-9.581,2.511-23.994,2.585-31.358a58.309,58.309,0,0,1,1.176-10.5l8.1-1.429S2487.664,1371.21,2467.885,1382.15Z" transform="translate(-2457.665 -1298.186)" fill="#fc5019"/>
          <path id="Path_80686" data-name="Path 80686" d="M2479.054,1462.323a1.9,1.9,0,0,1-.607,2.206c-1.159.886-1.911,2.322-1.645,3.37s2.809,2.76,3.689,2.484,2.676-1.658,2.483-2.211,1.207-4.855-.942-6.512S2479.054,1462.323,2479.054,1462.323Z" transform="translate(-2464.448 -1391.715)" fill="#fc9490"/>
          <path id="Path_80687" data-name="Path 80687" d="M2447.985,1283.149s-7.9,1.478-14.193,10.753-10.434,16.171-9.275,19.513,11.728,14.936,13.55,14.936,4.762-1.325,4.927-4.306c0,0-7.44-11.152-5.975-12.822.626-.714,9.659-8.047,10.949-4.735C2450.1,1311.971,2447.985,1283.149,2447.985,1283.149Z" transform="translate(-2424.323 -1255.54)" fill="#f99746"/>
          <path id="Path_80688" data-name="Path 80688" d="M2524.468,1237.366c-1.5,2.865-7.077,5.343-9.4,6.254.027-.147.053-.295.078-.439.376-2.127.7-3.954.7-3.954l6.819-3.4C2524.168,1235.806,2525.086,1236.187,2524.468,1237.366Z" transform="translate(-2493.775 -1219.321)" fill="#fca56b"/>
          <path id="Path_80689" data-name="Path 80689" d="M2504.9,1196.781s10.094,3.149,11.958-3.167,4.423-10.164-1.943-12.441-8.335-.239-9.47,1.718S2502.323,1195.8,2504.9,1196.781Z" transform="translate(-2485.031 -1176.719)" fill="#fc9490"/>
          <path id="Path_80690" data-name="Path 80690" d="M2509.932,1171.032s.644,7.35,2.163,7.031,2.9-.556,2.676,1.66-2.33,4.774,2.354,5.166,11.418-11.689,10.131-13.976C2523.545,1164.313,2504.565,1162.981,2509.932,1171.032Z" transform="translate(-2489.121 -1165.469)" fill="#163560"/>
        </g>
        <g id="Group_166459" data-name="Group 166459" transform="translate(0 113.745)">
          <path id="Path_80691" data-name="Path 80691" d="M1738.4,1917.188l3.073,12.943,4.6-.026.169-12.917Z" transform="translate(-1712.613 -1745.668)" fill="#fc9490"/>
          <path id="Path_80692" data-name="Path 80692" d="M1903.436,1913.981l8.744,12.391,3.408-4.376-5.263-9.719Z" transform="translate(-1838.929 -1741.91)" fill="#fc9490"/>
          <path id="Path_80693" data-name="Path 80693" d="M1670.254,1187.544a8.917,8.917,0,0,0-4.825-.923,2.259,2.259,0,0,1,1.017-.483,7.481,7.481,0,0,0-2.669.7c-11.489-4.427-13.295,12.49-13.053,16.42s-3.861,5.214-9.838,8.31c-11.4,5.908-12.407,13.82-12.407,13.82.089.052.182.112.28.18.566-.959,1.731-2.759,2.713-3.03a40.692,40.692,0,0,0-1.58,3.849c3.365,2.559,9.659,8.231,14.046,12.251a6.436,6.436,0,0,1,.3-2.49l.542,3.264c2.347,2.158,3.966,3.676,3.966,3.676-.29-3.176,14.364-19.936,22.009-24.956,1.861-2.739,2.523-7.58,2.572-7.961a20.9,20.9,0,0,1-1.564,7.2C1678.235,1211.41,1674.466,1189.938,1670.254,1187.544Z" transform="translate(-1628.479 -1186.102)" fill="#163560"/>
          <path id="Path_80694" data-name="Path 80694" d="M1771.429,1286.743c.038.017-3.692,1.954-6.5,1.186-2.639-.72-4.363-4.141-4.327-4.149,1.118-.222,1.44-1.758,1.416-8.357l.505.1,8.495,1.682s-.193,2.673-.2,5.192C1770.817,1284.512,1770.945,1286.517,1771.429,1286.743Z" transform="translate(-1729.607 -1254.468)" fill="#fc9490"/>
          <path id="Path_80695" data-name="Path 80695" d="M1765.8,1197.362a6.79,6.79,0,0,1,9.452-.228S1772.185,1196.6,1765.8,1197.362Z" transform="translate(-1733.58 -1193.15)" fill="#e37970"/>
          <path id="Path_80696" data-name="Path 80696" d="M1777.291,1277.53s-.193,2.673-.2,5.192c-4.753-.134-7.266-4.47-8.3-6.874Z" transform="translate(-1735.877 -1254.793)" fill="#ff8585"/>
          <path id="Path_80697" data-name="Path 80697" d="M1754.742,1214.964a24.974,24.974,0,0,1-3.089-7.3c-.427-2.4.8-11.31,9.747-10.027a12.163,12.163,0,0,1,5.043,1.906c1.943,1.313,4.748,4.146,1.612,11.918l-.814,2.625Z" transform="translate(-1722.7 -1194.834)" fill="#163560"/>
          <path id="Path_80698" data-name="Path 80698" d="M1792.012,1621.37l-4.5.137-4.874.149a96.2,96.2,0,0,1-17.573-32.627q-.221-.7-.467-1.418c-3.456-10.077-10.62-22.726-14.4-34.175-.6-1.824-1.14-3.54-1.625-5.165-.155-.52-.307-1.031-.45-1.535a121.374,121.374,0,0,1-4.33-22.8l27.263.218A508.212,508.212,0,0,0,1792.012,1621.37Z" transform="translate(-1716.741 -1444.68)" fill="#f99746"/>
          <path id="Path_80699" data-name="Path 80699" d="M1729.121,1342.792c-.069,12.974,1.9,18.54,1.9,18.54a36.634,36.634,0,0,1-25.547,1.565c-.163-.051-11.487-2.636-11.487-2.636.232-.525,2.3-9.268,2.523-9.75,2.929-6.29,5.153-9.048,5.5-10.982a41.147,41.147,0,0,0,.337-10.869,87.232,87.232,0,0,0-3.364-17.069,89.467,89.467,0,0,0,11.353-3.807c.905,1.127,3.574,2.266,5.974,2.212,2.764-.061,3.627-1.229,3.525-2.546,2.945,1.639,5.286,3.2,5.286,3.2,2.5,4.347,7.579,8.569,7.947,15.239C1733.162,1327.525,1729.123,1342.428,1729.121,1342.792Z" transform="translate(-1678.62 -1278.98)" fill="#e7f1fd"/>
          <path id="Path_80700" data-name="Path 80700" d="M1713.906,1390.7c-1.192,1.687-3.476,11.939-9.161,13.228,2.929-7.307,5.153-10.511,5.5-12.757a55.435,55.435,0,0,0,.337-12.626c1.9-3.335,3.323-5.622,3.323-5.622.15-.539,3.024-9.428,3.945-1.483S1715.237,1388.817,1713.906,1390.7Z" transform="translate(-1686.852 -1325.446)" fill="#f2564b"/>
          <path id="Path_80701" data-name="Path 80701" d="M1774.643,1231.27s-11.247.186-11.255-6.82-1.464-11.7,5.716-12.114,8.578,2.257,9.15,4.595S1777.568,1231.041,1774.643,1231.27Z" transform="translate(-1731.64 -1206.148)" fill="#fc9490"/>
          <path id="Path_80702" data-name="Path 80702" d="M1766.122,1207.973c-1.736-2.1-3.048-1.647-3.785-1.014-2.43-3.632-10.112,1.62-10.112,1.62a13.384,13.384,0,0,1-4.377,7.906s2.05,1.267,6.776.051c3.719-.956,6.418-6.25,7.4-8.462a8.924,8.924,0,0,1,2.5,3.314c.561,1.784.813,5.457,1.883,5.331C1766.409,1216.719,1768.729,1211.133,1766.122,1207.973Z" transform="translate(-1719.843 -1201.086)" fill="#163560"/>
          <path id="Path_80703" data-name="Path 80703" d="M1748.7,1969.272a12.473,12.473,0,0,1-.586,5.306s-.753,3.433,2.627,3.5,4.21-.255,3.827-2.36-1.111-5.745-1.111-5.745Z" transform="translate(-1719.989 -1785.533)" fill="#fc9490"/>
          <path id="Path_80704" data-name="Path 80704" d="M1753.919,1996.781l-.011.008h-6.995l-.011-.008a18.048,18.048,0,0,1,.243-5.177c3.828,3.66,6.224-.092,6.224-.092C1753.991,1993.077,1753.919,1996.781,1753.919,1996.781Z" transform="translate(-1719.024 -1802.555)" fill="#c45446"/>
          <path id="Path_80705" data-name="Path 80705" d="M1948.257,1964.3s-6.233-7.079-8.147-10.6l-4.635,2.375,10.36,9.73,2.424-.319Z" transform="translate(-1863.452 -1773.617)" fill="#fc9490"/>
          <path id="Path_80706" data-name="Path 80706" d="M1948.09,1975.5h-8.648a14.115,14.115,0,0,1-2.378-3.882,4.184,4.184,0,0,0-2.822-1.925v5.807h-1.789l-1.656-6.174c-1.1-2.069-.275-3.966.5-5.6.9,0,3.522.65,8.126,5.941a5.99,5.99,0,0,0,4.844,2.306.484.484,0,0,0,.068.036C1946.957,1973.215,1947.812,1974.693,1948.09,1975.5Z" transform="translate(-1859.461 -1781.29)" fill="#c45446"/>
          <path id="Path_80707" data-name="Path 80707" d="M1851.13,1315.729s-7.383,4.128-10.02,5.318c-.938.423-2.637,1.213-4.373,2.024-1.048.49-2.109.987-3.027,1.42a3.8,3.8,0,0,1-4.509-.973c-4-4.667-14.343-14.784-25.027-16.052l-.037-.016.005.012h-.014l.059.115c.6,1.494,6.458,16.127,6.639,19.213.191,3.253.765,53.2.765,53.2s-.383,2.3,4.019,1.339,5.549-1.913,5.549-1.913-4.21-30.81-3.062-41.526a23.82,23.82,0,0,0-.448-6.906,54.893,54.893,0,0,0,14.178,5.694,64.539,64.539,0,0,0,7.307-4,45.865,45.865,0,0,0,6.162-4.958,90.492,90.492,0,0,0,7-8.061Z" transform="translate(-1762.921 -1278.98)" fill="#2b478b"/>
          <path id="Path_80708" data-name="Path 80708" d="M1801.636,1685.941l-4.874.149a96.2,96.2,0,0,1-17.573-32.627q-.221-.7-.467-1.418c-3.456-10.077-10.62-22.726-14.4-34.175-.6-1.824-1.141-3.54-1.625-5.165-.155-.52-.306-1.031-.45-1.535l4.015-3.047s12.054,19.519,15.785,37.888C1785.294,1661.967,1798.276,1681.166,1801.636,1685.941Z" transform="translate(-1730.867 -1509.113)" fill="rgba(252,79,25,0.99)"/>
          <path id="Path_80709" data-name="Path 80709" d="M1713.032,1630.823c.069,8.933-.383,29.47-1.546,37.972h-4.317c-2.386,0-3.577-.034-3.577-.034-2.918-14.783-4.995-27.015-6.506-37.555-1.24-8.649-2.342-16.065-3.19-22.449-.853-6.424-1.447-11.8-1.659-16.348-.033-.716-.057-1.412-.071-2.088s-.017-1.339-.011-1.981l23.557-2.3C1715.414,1601.7,1712.994,1625.631,1713.032,1630.823Z" transform="translate(-1677.213 -1492.214)" fill="#f99746"/>
          <path id="Path_80710" data-name="Path 80710" d="M1707.446,1689.559c-2.386,0-3.577-.034-3.577-.034-2.918-14.783-4.995-27.015-6.506-37.555-1.24-8.649-2.342-16.065-3.19-22.449-.853-6.424-1.447-11.8-1.659-16.348l8.644,5.085s-5.517,1.946-3.412,16.681S1704.516,1687.473,1707.446,1689.559Z" transform="translate(-1677.491 -1512.978)" fill="rgba(252,79,25,0.99)"/>
          <path id="Path_80711" data-name="Path 80711" d="M1691.4,1380.12s-1.659,5.995-7.4,5.23-13.9-4.21-13.9-4.21,2.453-7.752,5.5-17.937c3.693-12.329,8.265-28.224,10.419-38.249a62.037,62.037,0,0,0,1.171-6.835l4.862-9.245s7,15.943,7.385,19.961S1691.4,1380.12,1691.4,1380.12Z" transform="translate(-1660.33 -1280.07)" fill="#2b478b"/>
          <path id="Path_80712" data-name="Path 80712" d="M1780.974,1412.262c-2.763.363-3.822,1.832-4.163,3.813a8.409,8.409,0,0,1-1.2,2.872c-2.752.147-9.307.5-14.814.853l-.455,7.223a82.467,82.467,0,0,0,16.481-3.9,4.3,4.3,0,0,0,1.875-1.019c3.965-3.247,6.215-8.685,6.222-9.463S1783.738,1411.9,1780.974,1412.262Z" transform="translate(-1729.404 -1359.012)" fill="#fc9490"/>
          <path id="Path_80713" data-name="Path 80713" d="M1709.1,1389.716c-.256,6.506-1.787,19.136-15.437,25.9-.037.017-.073.036-.109.051,3.693-12.329,8.265-28.224,10.42-38.249C1706.478,1381.162,1709.238,1386.133,1709.1,1389.716Z" transform="translate(-1678.285 -1332.531)" fill="#3a518b"/>
          <path id="Path_80714" data-name="Path 80714" d="M1708.369,1308.873s-11.676.828-14.482,7.079-3.7,27.046-.128,33.17c0,0,4.918,1.4,13.616-.226l.322-.061s2.775-6.794.287-8.133c0,0-7.335.383-6.57-2.041S1708.369,1308.873,1708.369,1308.873Z" transform="translate(-1676.65 -1280.07)" fill="#2b478b"/>
          <g id="Group_166458" data-name="Group 166458" transform="translate(73.817 31.764)">
            <path id="Path_80715" data-name="Path 80715" d="M2012.535,1321.572a7.02,7.02,0,0,0-7.868,4.907l1.173,3.925c1.936.267,3.631-.237,5.192-2.471s1.991-1.376,2.984-3.039C2015.363,1322.638,2013.256,1321.8,2012.535,1321.572Z" transform="translate(-1990.227 -1321.494)" fill="#fc9490"/>
            <path id="Path_80716" data-name="Path 80716" d="M1947.49,1348.057c-.937.423-2.637,1.213-4.373,2.024.928,1.649,2.091,4.647,2.4,9.6a40.09,40.09,0,0,0,6.345-5.112,84.107,84.107,0,0,0,6.82-7.907l-1.173-3.924S1950.127,1346.867,1947.49,1348.057Z" transform="translate(-1943.118 -1337.755)" fill="#fc9490"/>
          </g>
        </g>
        <g id="Group_166463" data-name="Group 166463" transform="translate(321.965 126.668)">
          <g id="Group_166460" data-name="Group 166460" transform="translate(14.407 30.877)">
            <path id="Path_80717" data-name="Path 80717" d="M3329.13,1559.414s-4.468,1.147-7.306.291-7.727.55-8.514,1.585-.5,1.447.906,1.8,6.38,2.479,9.65,1.251a26.052,26.052,0,0,1,7.535-1.273Z" transform="translate(-3312.88 -1515.632)" fill="#fc9490"/>
            <path id="Path_80718" data-name="Path 80718" d="M3409.84,1377.776s-5.018,35.664-13.327,38.859c-4.1,1.576-22.22,5.149-27.579,5.508,0,0-1.313-1.065-.994-5.4,0,0,18.984-6.969,21.681-10.76,4.014-5.641-2.492-23.045,2.544-28.343S3405.684,1370.065,3409.84,1377.776Z" transform="translate(-3354.984 -1372.797)" fill="#1c468a"/>
          </g>
          <path id="Path_80719" data-name="Path 80719" d="M3462.781,1794.626v-7.776h12.242a.6.6,0,0,0,.6-.6V1785a.6.6,0,0,0-.6-.6h-12.242v-44.265a2.265,2.265,0,0,0-2.258-2.258H3458.1a2.265,2.265,0,0,0-2.258,2.258V1784.4H3443.6a.6.6,0,0,0-.6.6v1.246a.6.6,0,0,0,.6.6h12.242v7.776c-8.858.669-15.955,3.858-17.945,7.978h42.83C3478.735,1798.485,3471.638,1795.3,3462.781,1794.626Z" transform="translate(-3394.16 -1621.351)" fill="#3a4ace"/>
          <path id="Path_80720" data-name="Path 80720" d="M3374.807,1645.973a62.408,62.408,0,0,1-4.9,7.014c-5.393,6.808-11.264,12.423-12.287,17.729a24.028,24.028,0,0,1-.948,3.4c-.427,1.215-.955,2.493-1.564,3.815a117.471,117.471,0,0,1-9.128,15.605c-5.907,8.753-11.462,16.057-11.462,16.057l-10.187-.434c.408-1.021,4.851-13.107,10.795-27.877l7.456-18.524.987-2.45c.757-1.883,1.5-3.735,2.23-5.54,5.58-13.869,10.026-24.912,10.026-24.912s22.306-8.45,24.622-2.974C3382.354,1631.392,3380.8,1635.815,3374.807,1645.973Z" transform="translate(-3307.236 -1534.978)" fill="#163560"/>
          <path id="Path_80721" data-name="Path 80721" d="M3299.025,1968.73s-.521,8.406-2.147,8.526c-.217.016-8.248.016-8.248.016l-10.254-.06a3.327,3.327,0,0,1,3.064-2.993c3-.522,8.014-2.629,9.829-6.59C3293.179,1963.463,3299.025,1968.73,3299.025,1968.73Z" transform="translate(-3272.064 -1795.972)" fill="#163560"/>
          <path id="Path_80722" data-name="Path 80722" d="M3449.536,1875.192s7.085,4.553,6.4,6.031c-.091.2-4.007,7.21-4.007,7.21l-5.051,8.924a3.327,3.327,0,0,1-1.12-4.135c1.005-2.871,1.612-8.279-.962-11.795C3442.087,1877.728,3449.536,1875.192,3449.536,1875.192Z" transform="translate(-3398.986 -1726.448)" fill="#163560"/>
          <path id="Path_80723" data-name="Path 80723" d="M3323.972,1628.483s-28,17.44-31.123,29.16,37.244,36.723,37.244,36.723,4.428-3.907,5.209-6.772c0,0-18.248-21.862-22.206-26.762-2.43-3.01,35.944-10.419,40.632-17.711s3.01-13.428,3.01-13.428Z" transform="translate(-3283.01 -1537.619)" fill="#1c468a"/>
          <path id="Rectangle_3466" data-name="Rectangle 3466" d="M7.813,0H53.656a7.813,7.813,0,0,1,7.813,7.813v0a7.814,7.814,0,0,1-7.814,7.814H7.813A7.813,7.813,0,0,1,0,7.814v0A7.813,7.813,0,0,1,7.813,0Z" transform="translate(34.417 113.259)" fill="#fb7369"/>
          <path id="Path_80724" data-name="Path 80724" d="M3467.343,1321.082a15.8,15.8,0,0,0-4.266,3.865c6.707,1.735,17.827-4.48,17.827-4.48a16.454,16.454,0,0,1-5.917-9.275q-.122-.483-.22-.989a20.21,20.21,0,0,1-.363-3.49l-3.081,2.76-5.124,4.59a43.973,43.973,0,0,0,.757,5.181Q3467.124,1320.1,3467.343,1321.082Z" transform="translate(-3413.433 -1291.339)" fill="#fc9490"/>
          <path id="Path_80725" data-name="Path 80725" d="M3456.665,1388.852c-.96,12.922.655,32.568-.434,35.971-.941,2.937-12.011,1.2-16.289.218-1.584-.363-3.5-.881-5.482-1.493-5.526-1.711-11.546-4.154-12.192-5.968a1.517,1.517,0,0,1-.06-.208,1.664,1.664,0,0,1,.011-.76c.216-.924,1.045-1.924,1.143-4.214.11-2.555.093-5.565.189-8.8,0-.364.009-.762.049-1.125l0-.133c0-.07,0-.138,0-.207.093-3.609.282-7.4.5-11.166.139-2.363.3-4.7.485-6.947a92.954,92.954,0,0,1,1.991-14.191,22.788,22.788,0,0,1,7.321-11.3l2.039-1.749a11.792,11.792,0,0,0,7.4-.985c2.634-1.251,3.543-2.147,4-1.809C3453.426,1358.677,3457.8,1373.054,3456.665,1388.852Z" transform="translate(-3382.123 -1327.466)" fill="#3a4ace"/>
          <path id="Path_80726" data-name="Path 80726" d="M3434.721,1550.087c-5.526-1.711-11.546-4.154-12.192-5.968a1.512,1.512,0,0,1-.06-.209c0-.253.006-.507.011-.76.215-.924,1.045-1.925,1.143-4.214.109-2.555.093-5.565.189-8.8.005-.364.01-.762.05-1.125l0-.133c0-.069,0-.137,0-.207l20.87-9.465S3445.942,1536.027,3434.721,1550.087Z" transform="translate(-3382.353 -1453.98)" fill="#1c468a"/>
          <path id="Path_80727" data-name="Path 80727" d="M3476.386,1323.068a44.059,44.059,0,0,0,.757,5.181c5-1.616,7.272-6.135,8.031-8.052.215-.542.309-.876.309-.876l-.529-.112-3.444-.73Z" transform="translate(-3423.619 -1300.344)" fill="#ff8585"/>
          <path id="Path_80728" data-name="Path 80728" d="M3459.279,1278.208s10.992,1.24,11.658-5.617,2.535-11.315-4.456-12.4-8.609,1.4-9.389,3.637S3456.437,1277.709,3459.279,1278.208Z" transform="translate(-3408.538 -1255.535)" fill="#fc9490"/>
          <path id="Path_80729" data-name="Path 80729" d="M3469.208,1258.714a11.293,11.293,0,0,0-10.7-10.044c-6.854-.646-3.032-6.544-2.3-7.485,0,0,5.25.72,10.633,1.609C3478.132,1244.661,3470.316,1257.3,3469.208,1258.714Z" transform="translate(-3406.855 -1241.185)" fill="#3a4ace"/>
          <g id="Group_166461" data-name="Group 166461" transform="translate(0 58.403)">
            <rect id="Rectangle_3467" data-name="Rectangle 3467" width="1.012" height="26.49" transform="translate(0 0.312) rotate(-17.995)" fill="#4a75cb"/>
            <rect id="Rectangle_3468" data-name="Rectangle 3468" width="27.798" height="1.663" transform="translate(8.149 23.844) rotate(-1.224)" fill="#4a75cb"/>
          </g>
          <g id="Group_166462" data-name="Group 166462" transform="translate(17.108 33.167)">
            <path id="Path_80730" data-name="Path 80730" d="M3340.241,1582.785s-4.313,1.633-7.23,1.1-7.619,1.4-8.287,2.514-.335,1.493,1.1,1.693,6.615,1.761,9.729.18a26.061,26.061,0,0,1,7.349-2.1Z" transform="translate(-3324.393 -1535.809)" fill="#fc9490"/>
            <path id="Path_80731" data-name="Path 80731" d="M3415.413,1386.709s-1.055,36-8.962,40.092c-3.9,2.019-21.516,7.567-26.8,8.515,0,0-1.423-.914-1.583-5.259,0,0,18.1-9.02,20.363-13.084,3.367-6.049-5.017-22.63-.6-28.451S3410.433,1379.5,3415.413,1386.709Z" transform="translate(-3365.473 -1382.557)" fill="#3a4ace"/>
          </g>
        </g>
      </g>
    </g>
  </g>
</svg>
