<svg xmlns="http://www.w3.org/2000/svg" width="569" height="395.674" viewBox="0 0 569 395.674">
  <g id="_2" data-name="2" transform="translate(-212 -4538)">
    <g id="Group_166354" data-name="Group 166354" transform="translate(212 4538)">
      <g id="Group_166337" data-name="Group 166337" transform="translate(0 0)">
        <path id="Path_80166" data-name="Path 80166" d="M677.293,317.3c-4.813,39.147-32.579,32.633-36.964,78.15-1.565,16.246,10.271,26.459,16.152,40.525,6.513,15.547,4.206,29.517-4.59,40.172H169.255c-10.67-4.893-20.85-10.1-29.712-16.349-12.2-8.588-21.854-19.175-26.778-33.689-4.444-13.115-7.868-25.766,3.806-35.714,6.338-5.408,12.935-9.581,18.671-14.595a45.332,45.332,0,0,0,11.014-13.617c21.039-41.1-5.95-77.313-15.861-118.436-.956-4-1.832-8.032-2.529-12.082-1.818-10.314-2.664-20.779-1.585-30.971a68.21,68.21,0,0,1,8.463-27.057c7.36-12.883,26.425-31.909,46.913-28.281,15.394,2.732,25.081,17.762,38.98,23.2,17.516,6.849,36.949,1.372,50.071-8.7,25.521-19.583,41.876-56.806,85.494-53.395,14.79,1.155,24.774,13.046,37.742,18.5,17.828,7.5,35.414,7.447,52.451.149,19.593-8.4,33.037-24,52.276-32.928a130.253,130.253,0,0,1,20.313-7.433c15.477-4.268,32.4-5.776,48.363-2.487a94.138,94.138,0,0,1,9.633,2.487c53.364,16.729,55.875,71.523,53.364,111.5-1.152,18.319-15.553,49.911-4.914,68.839S681.948,279.445,677.293,317.3Z" transform="translate(-108.624 -80.472)" fill="rgba(252,79,25,0.99)" opacity="0.1"/>
      </g>
    </g>
    <g id="Group_166560" data-name="Group 166560" transform="translate(263.916 4659.814)">
      <path id="Path_80910" data-name="Path 80910" d="M1905.958,1070.454s4.859-9.346-14.959-8.518c-30.156,1.259-14.963,19.994-26.175,20.944-20.177,1.71-12.058,24.628-5.841,27.194,13.3,5.491,6.081,19.993,24.861,20.063C1935.629,1130.331,1905.958,1070.454,1905.958,1070.454Z" transform="translate(-1677.344 -919.745)" fill="#9bcc8f"/>
      <path id="Path_80911" data-name="Path 80911" d="M1815.708,1480.562s1.195-12.476,15.53-15.074,15.639-21.989,34.246-19.262,13.238,34.336,13.238,34.336Z" transform="translate(-1649.96 -1208.075)" fill="#9bcc8f"/>
      <path id="Path_80913" data-name="Path 80913" d="M1148.7,520.337s9.173-16.824,31.107-14.955c0,0,31.845-28.041,65.8-3.738,0,0,36.1-6.022,62.831,5.214,17.824,7.491,23.711,15.349,23.711,15.349Z" transform="translate(-1146.276 -491.733)" fill="#ffc9b0"/>
      <path id="Path_80914" data-name="Path 80914" d="M2378.775,601.647s6.027-11.049,20.44-9.821c0,0,20.925-18.415,43.239-2.455,0,0,23.719-3.955,41.285,3.424,11.712,4.919,15.58,10.08,15.58,10.08Z" transform="translate(-2077.055 -560.144)" fill="#ffc9b0"/>
      <path id="Path_80915" data-name="Path 80915" d="M2034.386,837.927s4.605-11.049,15.618-9.821c0,0,15.989-18.415,33.04-2.455,0,0,18.124-3.955,31.546,3.424,8.949,4.919,11.9,10.08,11.9,10.08Z" transform="translate(-1815.363 -737.52)" fill="#ffc9b0"/>
      <path id="Path_80916" data-name="Path 80916" d="M2273.978,553.619a6.907,6.907,0,1,1,6.907,6.907A6.907,6.907,0,0,1,2273.978,553.619Z" transform="translate(-1995.461 -533.006)" fill="#ffc9b0"/>
      <path id="Path_80917" data-name="Path 80917" d="M1784.3,675.918s3.87-6.775,13.123-6.022c0,0,13.435-11.292,27.762-1.505,0,0,15.229-2.425,26.508,2.1,7.519,3.017,10,6.181,10,6.181Z" transform="translate(-1626.342 -621.354)" fill="#ffc9b0"/>
      <g id="Group_166531" data-name="Group 166531" transform="translate(86.397 64.256)">
        <path id="Path_80918" data-name="Path 80918" d="M1516.3,925.964s-9.666-3.425-17.381.172-14.624,35.489,9.008,39.544h0S1530.108,987.105,1516.3,925.964Z" transform="translate(-1491.658 -880.86)" fill="#233862"/>
        <path id="Path_80919" data-name="Path 80919" d="M1590.041,1207.23a40.486,40.486,0,0,0,.413,8.455c1.736,13.91,7.4,36.124,7.4,36.124l7.1.861c-.519-3.928.96-18.971,2.921-35.641,2.961-25.15,7.03-54,7.03-54s-15.457-12.774-24.564-9.245S1591.11,1197.483,1590.041,1207.23Z" transform="translate(-1562.819 -1052.524)" fill="#ed975d"/>
        <path id="Path_80920" data-name="Path 80920" d="M1602.506,1403.954c1.736,13.91,7.4,36.124,7.4,36.124l7.1.861c-.519-3.927.96-18.971,2.922-35.641-2.527.445-9.383,1.327-15.117-.833A7.2,7.2,0,0,0,1602.506,1403.954Z" transform="translate(-1574.872 -1240.793)" fill="#dfebfd"/>
        <path id="Path_80921" data-name="Path 80921" d="M1627.127,776.184a10.323,10.323,0,0,1,7.943,0c4.2,1.8,7.259,9.445,5.377,16.59s4.47,7.265,1.529,12.994c-1.043,2.032-14.849,3.761-15.321-4.152-.292-4.9,4.146-5.145,2.853-10.473S1627.127,776.184,1627.127,776.184Z" transform="translate(-1592.99 -768.926)" fill="#2c3a64"/>
        <path id="Path_80922" data-name="Path 80922" d="M1545.425,1202.093a50.6,50.6,0,0,0,.1,11.126c1.207,14.178,5.06,34.445,5.06,34.445l7.022,1.623c-.268-3.878,2.026-18.47,4.919-34.794,4.5-25.393,10.445-54.986,10.445-54.986s-14.641-13.706-23.95-10.742S1547.091,1192.431,1545.425,1202.093Z" transform="translate(-1531.112 -1048.908)" fill="#ffb27d"/>
        <path id="Path_80923" data-name="Path 80923" d="M1628.787,1543.544a8.3,8.3,0,0,0,4.9,3.817,8.055,8.055,0,0,1,4.826,3,1.889,1.889,0,0,1-1.535,3l-16.334-.093a2.348,2.348,0,0,1-2.323-2.6c.129-1.209.264-2.618.325-3.7.134-2.358,2.689-4.477,2.689-4.477a16.758,16.758,0,0,0,3.107,1.438A11.576,11.576,0,0,0,1628.787,1543.544Z" transform="translate(-1586.735 -1344.798)" fill="#212d4c"/>
        <path id="Path_80924" data-name="Path 80924" d="M1521.119,1102.8a125.626,125.626,0,0,0-12.65,45.865s28.519,11.3,53.8,1.738l-4.373-46.623S1539.852,1110.233,1521.119,1102.8Z" transform="translate(-1504.278 -1014.714)" fill="#2b478b"/>
        <path id="Path_80925" data-name="Path 80925" d="M1659.529,915.441s10.674,18,12.826,32.669c0,0-5.191,7-7.3,2.086S1647.786,918.947,1659.529,915.441Z" transform="translate(-1614.363 -874.066)" fill="#ffb27d"/>
        <path id="Path_80926" data-name="Path 80926" d="M1576.54,758.907c-.115-.19-4.891-7.743-13.819-9.249a13.2,13.2,0,0,0-15.115,11.139c-1.118,7.285.022,16.726,11.909,20.126Z" transform="translate(-1533.407 -749.477)" fill="#2c3a64"/>
        <path id="Path_80927" data-name="Path 80927" d="M1605.179,862.1l-13.451,7.989-3.4-9.469a29.625,29.625,0,0,0,2.013-8.969,36.783,36.783,0,0,0-.217-7.958l11.7,5.08a21.594,21.594,0,0,0-.286,2.622,18.9,18.9,0,0,0,.581,6.049A8.408,8.408,0,0,0,1605.179,862.1Z" transform="translate(-1564.229 -820.206)" fill="#ffb27d"/>
        <path id="Path_80928" data-name="Path 80928" d="M1608.158,880.636c-6.452.238-11.775-5.793-11.775-5.793l11.193-.256A18.893,18.893,0,0,0,1608.158,880.636Z" transform="translate(-1570.275 -843.397)" fill="#ed975d"/>
        <path id="Path_80929" data-name="Path 80929" d="M1594.438,805.085s-12.632,4.21-17.715-5.725c-5.485-10.722-.749-19.089,3.581-19.909,8.632-1.634,13.9,1.362,15.649,4.772S1601.413,802.825,1594.438,805.085Z" transform="translate(-1553.66 -771.633)" fill="#ffb27d"/>
        <path id="Path_80930" data-name="Path 80930" d="M1633.333,855.907s.622,1.291,3.964.332c0,0,2.806-.805,2.388-2.283A9.374,9.374,0,0,0,1633.333,855.907Z" transform="translate(-1598.014 -827.884)" fill="#fff"/>
        <path id="Path_80931" data-name="Path 80931" d="M1690.367,1046.434s1.014,13.892-8.873,24.836c0,0-2.7-3.248-2.358-4.257s4.21-16.491,7.036-18.694S1690.367,1046.434,1690.367,1046.434Z" transform="translate(-1632.375 -972.391)" fill="#ed975d"/>
        <path id="Path_80932" data-name="Path 80932" d="M1577.475,958.742a53.67,53.67,0,0,1-8.893,2.352,50.672,50.672,0,0,1-8.8.756,49.555,49.555,0,0,1-6.868-.5,45.261,45.261,0,0,1-8.835-2.161,26.69,26.69,0,0,1-3.378-1.431,4.433,4.433,0,0,0,0-.828c-.058-.962-.263-2.549-.562-4.51-.021-.13-.041-.264-.061-.4-.1-.658-.212-1.353-.331-2.08-1.512-9.247-4.261-23.215-4.261-23.215l-.869-6.4a7.569,7.569,0,0,1,3.67-7.535,7.392,7.392,0,0,1,.907-.455,23.834,23.834,0,0,1,3.244-1.089c1.57-.411,3.2-.692,5.362-1.141.035.032.069.063.107.1a19.465,19.465,0,0,0,2.465,1.86c2.347,1.489,5.452,2.72,8.682,2.089,3.476-.681,4.16-2.555,3.971-4.554q1.326.134,2.454.29a10.22,10.22,0,0,1,8.713,8.516c.527,3.3,1.127,9.4,1.726,17.027C1576.458,942.273,1576.992,950.347,1577.475,958.742Z" transform="translate(-1523.857 -869.68)" fill="#f99746"/>
        <path id="Path_80933" data-name="Path 80933" d="M1668.041,1129.029s-5.084,2.349-3.356,4.853,5.181,1.006,5.714-.6S1668.041,1129.029,1668.041,1129.029Z" transform="translate(-1621.281 -1034.407)" fill="#ed975d"/>
        <path id="Path_80934" data-name="Path 80934" d="M1577.71,769.56s1.2,11.851-10.045,16.051c-4.47,1.67-6.8-16.431,2.543-20.045s18.553.678,19.655,7,.262,7.636.262,7.636S1585.753,768.177,1577.71,769.56Z" transform="translate(-1545.783 -760.564)" fill="#2c3a64"/>
        <path id="Path_80935" data-name="Path 80935" d="M1649.59,1140.325s6.328-.045,6.681,1.442-1.627,6.143-6.254,4.521-4.511-2.636-4.511-2.636Z" transform="translate(-1607.151 -1042.886)" fill="#ffb27d"/>
        <path id="Path_80936" data-name="Path 80936" d="M1516.661,776.284a9.276,9.276,0,0,0-7.943,0c-4.2,2.023-7.26,10.636-5.377,18.68s-4.47,8.18-1.529,14.632c1.043,2.288,14.85,4.235,15.321-4.676.292-5.52-4.146-5.793-2.852-11.792S1516.661,776.284,1516.661,776.284Z" transform="translate(-1498.687 -768.926)" fill="#2c3a64"/>
        <path id="Path_80937" data-name="Path 80937" d="M1549.468,1408.568c1.207,14.179,5.06,34.445,5.06,34.445l7.022,1.623c-.268-3.878,2.026-18.47,4.919-34.794C1562.722,1410.234,1555.824,1410.534,1549.468,1408.568Z" transform="translate(-1535.056 -1244.257)" fill="#fff"/>
        <path id="Path_80938" data-name="Path 80938" d="M1567.178,1543.544a8.3,8.3,0,0,0,4.9,3.817,8.054,8.054,0,0,1,4.825,3,1.889,1.889,0,0,1-1.535,3l-16.334-.093a2.348,2.348,0,0,1-2.323-2.6c.129-1.209.264-2.618.325-3.7.134-2.358,2.689-4.477,2.689-4.477a16.77,16.77,0,0,0,3.107,1.438A11.576,11.576,0,0,0,1567.178,1543.544Z" transform="translate(-1540.485 -1344.798)" fill="#2c3a64"/>
        <path id="Path_80939" data-name="Path 80939" d="M1566.67,1036.587a22.415,22.415,0,0,1-2.037,2.628,45.268,45.268,0,0,1-8.835-2.161c-3.717-9.012-5.633-23.739-5.633-23.739Z" transform="translate(-1535.579 -947.54)" fill="#ed7d2b"/>
        <path id="Path_80940" data-name="Path 80940" d="M1683.03,929.777s11.025,25.966,10.591,32.932-4.914,17.1-6.518,17.638l-1.6.534s-4-.982-4.093-3.378c0,0,3.235-14.925,2.462-17.146S1683.03,929.777,1683.03,929.777Z" transform="translate(-1634.102 -884.828)" fill="#f99746"/>
        <g id="Group_166528" data-name="Group 166528" transform="translate(25.077 55.854)">
          <path id="Path_80941" data-name="Path 80941" d="M1689.241,991.694c-2.489-4.546-4.154-18.173-4.154-18.173l2.752,27.255S1690.477,993.952,1689.241,991.694Z" transform="translate(-1661.942 -973.521)" fill="#ed7d2b"/>
          <path id="Path_80942" data-name="Path 80942" d="M1609.672,1055.772c-4.282-.97-10.754-15.617-10.754-15.617l-6.671,7.607,10.845,12.1a50.653,50.653,0,0,0,8.8-.756l3.062-.556,3.187-7.749-.612-6.058C1618.578,1055.36,1613.293,1056.591,1609.672,1055.772Z" transform="translate(-1592.247 -1023.543)" fill="#ed7d2b"/>
        </g>
        <g id="Group_166529" data-name="Group 166529" transform="translate(21.889 37.527)">
          <path id="Path_80943" data-name="Path 80943" d="M1592.571,906.97s-7.323-3.353-9.931-6.965c0,0-2.921,1.677-3.174,3.6S1588.679,908.75,1592.571,906.97Z" transform="translate(-1579.46 -900.005)" fill="#fff"/>
          <path id="Path_80944" data-name="Path 80944" d="M1635.254,902.631s-.4,5-3.2,6.309c0,0,5.288-.316,7.1-4.207C1639.151,904.734,1637.128,902.58,1635.254,902.631Z" transform="translate(-1618.939 -901.976)" fill="#fff"/>
          <path id="Path_80945" data-name="Path 80945" d="M1630.864,926.454a.473.473,0,1,1,.473.473A.473.473,0,0,1,1630.864,926.454Z" transform="translate(-1618.049 -919.505)" fill="#2c3a64"/>
        </g>
        <g id="Group_166530" data-name="Group 166530" transform="translate(14.431 41.569)">
          <path id="Path_80946" data-name="Path 80946" d="M1564.451,941.6c-2.436,7.114-7.387,12.885-13.117,15.4-.1-.658-.212-1.353-.33-2.08,5.017-2.393,9.342-7.592,11.529-13.977,2.173-6.347,1.738-12.56-1.193-17.05a13.948,13.948,0,0,0-11.8-6.127,7.376,7.376,0,0,1,.907-.455,23.873,23.873,0,0,1,3.244-1.089,15.119,15.119,0,0,1,9.342,6.561C1566.313,927.8,1566.829,934.659,1564.451,941.6Z" transform="translate(-1549.544 -916.221)" fill="#2b478b"/>
        </g>
        <path id="Path_80947" data-name="Path 80947" d="M1555.771,934.794s4.883,19.628,5.084,27.741c0,0,11.316,19.763,11.98,21.168s-4.084,3.327-4.084,3.327-14.2-15.139-16.932-21.5-9.825-25.9-8.359-30.734C1545.577,927.813,1555.771,934.794,1555.771,934.794Z" transform="translate(-1530.397 -886.265)" fill="#ffb27d"/>
        <path id="Path_80948" data-name="Path 80948" d="M1539.31,931.9c-.923,5.229,4.594,28.485,7.49,34.568s8.052,13.427,14.165,13.521c0,0,4.691-1.134,5.208-4.576,0,0-2.669-9.166-5.083-13.062s-6.223-28.571-8.637-30.116S1540.233,926.673,1539.31,931.9Z" transform="translate(-1527.353 -884.472)" fill="#f99746"/>
      </g>
      <g id="Group_166533" data-name="Group 166533" transform="translate(0 54.564)">
        <path id="Path_80949" data-name="Path 80949" d="M1174.957,890.36s-14.116-5.647-25.382.283-21.356,58.508,13.155,65.193h0S1195.116,991.159,1174.957,890.36Z" transform="translate(-1138.967 -843.723)" fill="#233862"/>
        <path id="Path_80950" data-name="Path 80950" d="M1422.986,1219.6l-.863-3.118s-4.138-.415-4.189-.334l.368,9.41a6.867,6.867,0,0,0,2.916-1.37l1.516-2.526A4.636,4.636,0,0,0,1422.986,1219.6Z" transform="translate(-1348.388 -1090.111)" fill="#ffb27d"/>
        <path id="Path_80951" data-name="Path 80951" d="M1395.125,906.818s5.058-.261,7.89,6.406c5.87,13.817,3.32,43.64,2.965,47.909,0,0,2.016,8.479-.98,23.143l-3.739-.208s-6.177-55.421-5.443-61.146S1395.125,906.818,1395.125,906.818Z" transform="translate(-1331.265 -857.9)" fill="#fff"/>
        <path id="Path_80952" data-name="Path 80952" d="M1225.909,1560.188l1.914,6.907h16.168S1248.8,1558.264,1225.909,1560.188Z" transform="translate(-1204.234 -1348.18)" fill="#233862"/>
        <path id="Path_80953" data-name="Path 80953" d="M1364.978,1560.188l1.913,6.907h16.168S1387.873,1558.264,1364.978,1560.188Z" transform="translate(-1308.634 -1348.18)" fill="#233862"/>
        <path id="Path_80954" data-name="Path 80954" d="M1316.117,841.6l-15.167,7.746-2-10.032a43.46,43.46,0,0,0,1.975-9.91,53.234,53.234,0,0,0,.1-8.835l12.359,6.325a22.816,22.816,0,0,0-.48,2.726,22.543,22.543,0,0,0-.095,4.8C1313.066,837.066,1313.925,839.825,1316.117,841.6Z" transform="translate(-1259.07 -793.157)" fill="#ffb27d"/>
        <path id="Path_80955" data-name="Path 80955" d="M1324.6,1153.112l-30.671,2.42s-3.789,53.726,16.365,101.325l18.094-1.213Z" transform="translate(-1255.085 -1042.794)" fill="#233862"/>
        <path id="Path_80956" data-name="Path 80956" d="M1216.936,1164.945s-6.029,30.829-1.8,99.953h18.958l11.865-84c.381-2.456,5.218-5.875,5.218-5.875l.189-9.475Z" transform="translate(-1195.017 -1051.677)" fill="#2b478b"/>
        <path id="Path_80957" data-name="Path 80957" d="M1217.967,922.4l1.763,12.511-4.862,25.007a3.759,3.759,0,0,0,3.435,4.468c9.234.63,31.551,1.555,46.7-2.733a4.393,4.393,0,0,0,3.194-4.572l-2.664-33.452-.937-11.769-.963-12.092a35.4,35.4,0,0,0-12.643-3.991c.121,1.861-.5,3.567-4.334,3.981-4.5.517-7.883-1.52-10.374-3.433a4.133,4.133,0,0,0-.506-.547c-2.735.258-5.889.737-8.592,1.277-.426.085-10.069,19.247-10.069,19.247Z" transform="translate(-1195.893 -849.613)" fill="#f99746"/>
        <path id="Path_80958" data-name="Path 80958" d="M1215.079,961.34s42.922-21.967,21.841-57.835c-1.01-1.719-2.7-4.861-4.826-5.834a20.865,20.865,0,0,0-3.972.663c2.188.608,5.347,5.743,7.02,10.4,3.128,8.714,10.871,25.206-19.5,46.932Z" transform="translate(-1196.104 -851.034)" fill="#2b478b"/>
        <path id="Path_80959" data-name="Path 80959" d="M1270.478,1026.2c.476-.035,4.463.115,4.463.115s1.983-7.468,7.486-7.468c0,0,2.573-.252,1.783,1.831-.334.882-.878.566-1.715,3.6s-1.746,3.819-4.562,5.415l-2.378.643S1269.228,1026.289,1270.478,1026.2Z" transform="translate(-1237.57 -941.993)" fill="#ffb27d"/>
        <path id="Path_80960" data-name="Path 80960" d="M1318.859,862.157c-4.641.588-11.8-6.011-11.981-6.146,0,0,8.584.068,11.981.216A35.307,35.307,0,0,0,1318.859,862.157Z" transform="translate(-1265.018 -819.76)" fill="#ed975d"/>
        <path id="Path_80961" data-name="Path 80961" d="M1311.661,769.174s-18.842,2.3-19.244-10.978,7.451-21.873,12.693-21.775c10.453.2,12.177,4.42,13.389,8.818S1320.335,768.239,1311.661,769.174Z" transform="translate(-1254.151 -729.984)" fill="#ffb27d"/>
        <path id="Path_80962" data-name="Path 80962" d="M1354.654,835.766s.344,1.388,3.8,1.132c0,0,2.9-.214,2.8-1.742A9.352,9.352,0,0,0,1354.654,835.766Z" transform="translate(-1300.883 -803.857)" fill="#fff"/>
        <g id="Group_166532" data-name="Group 166532" transform="translate(28.319 0)">
          <path id="Path_80963" data-name="Path 80963" d="M1266.6,746.872s-1.605-4.727-1.4-7.38c0,0-3.768-4.8-1.573-5.993s3.38,1.653,3.883,1.1,1.288-10,3.954-9.7,14.734,3.734,19.057.005-8.372-18.676-26.147-13.049S1250.14,737,1266.6,746.872Z" transform="translate(-1252.559 -710.601)" fill="#2c3a64"/>
          <path id="Path_80964" data-name="Path 80964" d="M1263.753,734.317a6.252,6.252,0,0,1,.06-4.117s.042,2.363.97,3.414S1263.753,734.317,1263.753,734.317Z" transform="translate(-1260.706 -725.314)" fill="#2c3a64"/>
          <path id="Path_80965" data-name="Path 80965" d="M1256.517,739.939a3.545,3.545,0,0,0-3.237,1.442,2.827,2.827,0,0,1,3.115.063Z" transform="translate(-1253.1 -732.615)" fill="#2c3a64"/>
        </g>
        <path id="Path_80966" data-name="Path 80966" d="M1195.836,900.9s-3.611-.2-10.069,10.573c-3.451,5.759-18.168,33.106-10.59,36.076s22.831-.021,26.738-4.157l-2.211-6.363s-10.573.48-10.509-.088a45.44,45.44,0,0,1,5.388-10.229C1204.907,912.155,1195.836,900.9,1195.836,900.9Z" transform="translate(-1164.543 -853.457)" fill="#fff"/>
        <path id="Path_80967" data-name="Path 80967" d="M1303.5,890.794s-7.428-3.346-10.036-6.957c0,0-2.692,1.56-2.945,3.479S1299.606,892.574,1303.5,890.794Z" transform="translate(-1252.732 -840.649)" fill="#fff"/>
        <path id="Path_80968" data-name="Path 80968" d="M1346.081,886.958s-.518,5.213-3.48,6.179c0,0,5.412.387,7.227-3.5C1349.828,889.633,1347.955,886.906,1346.081,886.958Z" transform="translate(-1291.835 -842.992)" fill="#fff"/>
        <path id="Path_80969" data-name="Path 80969" d="M1353.087,989.93a.936.936,0,1,1-.918-1.116A1.032,1.032,0,0,1,1353.087,989.93Z" transform="translate(-1298.328 -919.456)" fill="#ed7d2b"/>
        <path id="Path_80970" data-name="Path 80970" d="M1353.087,1049.946a.936.936,0,1,1-.918-1.117A1.032,1.032,0,0,1,1353.087,1049.946Z" transform="translate(-1298.328 -964.509)" fill="#ed7d2b"/>
        <path id="Path_80971" data-name="Path 80971" d="M1353.087,1114.693a.936.936,0,1,1-.918-1.117A1.032,1.032,0,0,1,1353.087,1114.693Z" transform="translate(-1298.328 -1013.115)" fill="#ed7d2b"/>
        <path id="Path_80972" data-name="Path 80972" d="M1423.212,1208.147l.989-2.828-4.816-.286.088,2.906Z" transform="translate(-1349.476 -1081.771)" fill="#fff"/>
        <path id="Path_80973" data-name="Path 80973" d="M1288.291,1028.7a23.473,23.473,0,0,0,.6-4.439c-.168-.842,1.474-.2,1.47,1.538a1.934,1.934,0,0,1-.463,1.073l-.859,3.449Z" transform="translate(-1251.064 -945.786)" fill="#ffb27d"/>
        <path id="Path_80974" data-name="Path 80974" d="M1275.311,1043.172l-4.311.94.786,5.232h3.2l-1.83,2.6.819.346,4.473-4.333A15.836,15.836,0,0,1,1275.311,1043.172Z" transform="translate(-1238.084 -960.262)" fill="#d7e9ff"/>
      </g>
      <g id="Group_166559" data-name="Group 166559" transform="translate(195.972 110.076)">
        <g id="Group_166557" data-name="Group 166557">
          <rect id="Rectangle_3509" data-name="Rectangle 3509" width="220.241" height="118.89" transform="translate(8.966 43.521)" fill="#f99746"/>
          <path id="Path_80984" data-name="Path 80984" d="M1990.591,982.911h219.146a2.456,2.456,0,0,0,.771-4.788l-111.2-36.7-109.631,35.714A2.961,2.961,0,0,0,1990.591,982.911Z" transform="translate(-1979.392 -939.39)" fill="#f99746"/>
          <path id="Path_80985" data-name="Path 80985" d="M2923.472,1222.365c-3.571,34.529-15.763,79.317-38.181,90.341H2874v-90.341Z" transform="translate(-2644.79 -1150.295)" fill="#faac6b"/>
          <path id="Path_80986" data-name="Path 80986" d="M2924.5,1163.83c-.154,4.541-.5,9.453-1.026,14.593H2874V1163.83Z" transform="translate(-2644.79 -1106.352)" fill="#d17530"/>
          <g id="Group_166540" data-name="Group 166540">
            <path id="Path_80987" data-name="Path 80987" d="M2186.735,972.634l-12.719-4.487-.043-.016-98.8-34.857-1.424,0-101.613,35.381-.032.011-8.171,2.846-9.335,3.25.708,4.184H2192.06l.714-4.179Zm-112.287-35.051,105.044,37.06H1968.025Z" transform="translate(-1954.594 -933.273)" fill="#ffe5d2"/>
          </g>
          <rect id="Rectangle_3510" data-name="Rectangle 3510" width="237.29" height="11.025" transform="translate(0.707 92.759)" fill="#ffe5d2"/>
          <path id="Path_80988" data-name="Path 80988" d="M1981.485,1353.843v-3.358a.911.911,0,0,0-.911-.911h-7.2a.911.911,0,0,0-.911.911v3.358a.911.911,0,0,0,.911.911h0a.911.911,0,0,1,.911.911v46.445a.911.911,0,0,1-.911.911h0a.911.911,0,0,0-.911.911v3.357a.911.911,0,0,0,.911.911h7.2a.911.911,0,0,0,.911-.911v-3.357a.911.911,0,0,0-.911-.911h0a.911.911,0,0,1-.911-.911v-46.445a.911.911,0,0,1,.911-.911h0A.911.911,0,0,0,1981.485,1353.843Z" transform="translate(-1968.008 -1245.79)" fill="#ffe5d2"/>
          <g id="Group_166541" data-name="Group 166541" transform="translate(49.039 103.784)">
            <path id="Path_80989" data-name="Path 80989" d="M2152.215,1354.754h0a.911.911,0,0,1,.911.911v46.445a.911.911,0,0,1-.911.911h0a.911.911,0,0,0-.912.911v3.357a.911.911,0,0,0,.912.911h7.2a.911.911,0,0,0,.911-.911v-3.357a.911.911,0,0,0-.911-.911h0a.911.911,0,0,1-.911-.911v-46.445a.911.911,0,0,1,.911-.911h0a.911.911,0,0,0,.911-.911v-3.358a.911.911,0,0,0-.911-.911h-7.2a.911.911,0,0,0-.912.911v3.358A.911.911,0,0,0,2152.215,1354.754Z" transform="translate(-2151.303 -1349.574)" fill="#ffe5d2"/>
            <path id="Path_80990" data-name="Path 80990" d="M2667.628,1354.754h0a.911.911,0,0,1,.911.911v46.445a.911.911,0,0,1-.911.911h0a.912.912,0,0,0-.912.911v3.357a.912.912,0,0,0,.912.911h7.2a.911.911,0,0,0,.911-.911v-3.357a.911.911,0,0,0-.911-.911h0a.911.911,0,0,1-.911-.911v-46.445a.911.911,0,0,1,.911-.911h0a.911.911,0,0,0,.911-.911v-3.358a.911.911,0,0,0-.911-.911h-7.2a.912.912,0,0,0-.912.911v3.358A.912.912,0,0,0,2667.628,1354.754Z" transform="translate(-2538.224 -1349.574)" fill="#ffe5d2"/>
            <path id="Path_80991" data-name="Path 80991" d="M2861.89,1353.843v-3.358a.911.911,0,0,0-.912-.911h-7.2a.911.911,0,0,0-.911.911v3.358a.911.911,0,0,0,.911.911h0a.911.911,0,0,1,.912.911v46.445a.912.912,0,0,1-.912.911h0a.911.911,0,0,0-.911.911v3.357a.911.911,0,0,0,.911.911h7.2a.911.911,0,0,0,.912-.911v-3.357a.911.911,0,0,0-.912-.911h0a.911.911,0,0,1-.911-.911v-46.445a.911.911,0,0,1,.911-.911h0A.912.912,0,0,0,2861.89,1353.843Z" transform="translate(-2677.968 -1349.574)" fill="#ffe5d2"/>
          </g>
          <g id="Group_166542" data-name="Group 166542" transform="translate(198.924 57.478)">
            <path id="Rectangle_3511" data-name="Rectangle 3511" d="M6.963,0h0A6.736,6.736,0,0,1,13.7,6.736V22.774a0,0,0,0,1,0,0H0a0,0,0,0,1,0,0V6.963A6.963,6.963,0,0,1,6.963,0Z" transform="translate(0.398 0.4)" fill="#d17530"/>
            <path id="Path_80992" data-name="Path 80992" d="M2760.4,1163.83h-1.047a6.838,6.838,0,0,0-6.828,6.831V1187.4h14.5v-16.95A6.631,6.631,0,0,0,2760.4,1163.83Zm-7.077,7.841h5.8V1186.6h-5.8Zm6.822,14.934v-14.934h6.078V1186.6Zm6.078-15.94h-12.9v0a6.038,6.038,0,0,1,6.03-6.033h1.047a5.829,5.829,0,0,1,5.822,5.825Z" transform="translate(-2752.527 -1163.83)" fill="#ffe5d2"/>
          </g>
          <g id="Group_166543" data-name="Group 166543" transform="translate(243.628 80.452)" opacity="0.5">
            <path id="Rectangle_3512" data-name="Rectangle 3512" d="M5.007,0h0A4.844,4.844,0,0,1,9.85,4.844V16.376a0,0,0,0,1,0,0H0a0,0,0,0,1,0,0V5.007A5.007,5.007,0,0,1,5.007,0Z" transform="translate(0.286 0.287)" fill="#d17530"/>
            <path id="Path_80993" data-name="Path 80993" d="M2937.509,1255.984h-.753a4.917,4.917,0,0,0-4.91,4.911v12.039h10.425v-12.188A4.768,4.768,0,0,0,2937.509,1255.984Zm-5.089,5.638h4.167v10.738h-4.167Zm4.906,10.738v-10.738h4.37v10.738Zm4.37-11.462h-9.276v0a4.342,4.342,0,0,1,4.337-4.338h.753a4.192,4.192,0,0,1,4.187,4.188Z" transform="translate(-2931.846 -1255.984)" fill="#ffe5d2"/>
          </g>
          <g id="Group_166544" data-name="Group 166544" transform="translate(243.628 113.481)" opacity="0.5">
            <path id="Rectangle_3513" data-name="Rectangle 3513" d="M5.007,0h0A4.844,4.844,0,0,1,9.85,4.844V16.376a0,0,0,0,1,0,0H0a0,0,0,0,1,0,0V5.007A5.007,5.007,0,0,1,5.007,0Z" transform="translate(0.286 0.287)" fill="#d17530"/>
            <path id="Path_80994" data-name="Path 80994" d="M2937.509,1388.472h-.753a4.917,4.917,0,0,0-4.91,4.912v12.038h10.425v-12.188A4.767,4.767,0,0,0,2937.509,1388.472Zm-5.089,5.638h4.167v10.738h-4.167Zm4.906,10.738V1394.11h4.37v10.738Zm4.37-11.462h-9.276v0a4.342,4.342,0,0,1,4.337-4.338h.753a4.192,4.192,0,0,1,4.187,4.189Z" transform="translate(-2931.846 -1388.472)" fill="#ffe5d2"/>
          </g>
          <g id="Group_166545" data-name="Group 166545" transform="translate(154.209 57.478)">
            <path id="Rectangle_3514" data-name="Rectangle 3514" d="M6.963,0h0A6.737,6.737,0,0,1,13.7,6.737V22.774a0,0,0,0,1,0,0H0a0,0,0,0,1,0,0V6.963A6.963,6.963,0,0,1,6.963,0Z" transform="translate(0.398 0.4)" fill="#d17530"/>
            <path id="Path_80995" data-name="Path 80995" d="M2581.037,1163.83h-1.047a6.838,6.838,0,0,0-6.828,6.831V1187.4h14.5v-16.95A6.63,6.63,0,0,0,2581.037,1163.83Zm-7.077,7.841h5.8V1186.6h-5.8Zm6.822,14.934v-14.934h6.078V1186.6Zm6.078-15.94h-12.9v0a6.038,6.038,0,0,1,6.03-6.033h1.047a5.829,5.829,0,0,1,5.822,5.825Z" transform="translate(-2573.162 -1163.83)" fill="#ffe5d2"/>
          </g>
          <g id="Group_166546" data-name="Group 166546" transform="translate(154.598 116.289)">
            <path id="Rectangle_3515" data-name="Rectangle 3515" d="M6.963,0h0A6.737,6.737,0,0,1,13.7,6.737V22.774a0,0,0,0,1,0,0H0a0,0,0,0,1,0,0V6.963A6.963,6.963,0,0,1,6.963,0Z" transform="translate(0.398 0.4)" fill="#d17530"/>
            <path id="Path_80996" data-name="Path 80996" d="M2582.6,1399.737h-1.047a6.837,6.837,0,0,0-6.828,6.831v16.742h14.5v-16.95A6.63,6.63,0,0,0,2582.6,1399.737Zm-7.077,7.841h5.8v14.934h-5.8Zm6.822,14.934v-14.934h6.078v14.934Zm6.078-15.94h-12.9v0a6.038,6.038,0,0,1,6.03-6.032h1.047a5.829,5.829,0,0,1,5.823,5.824Z" transform="translate(-2574.723 -1399.737)" fill="#ffe5d2"/>
          </g>
          <g id="Group_166547" data-name="Group 166547" transform="translate(198.269 116.289)">
            <path id="Rectangle_3516" data-name="Rectangle 3516" d="M6.963,0h0A6.737,6.737,0,0,1,13.7,6.737V22.774a0,0,0,0,1,0,0H0a0,0,0,0,1,0,0V6.963A6.963,6.963,0,0,1,6.963,0Z" transform="translate(0.398 0.4)" fill="#d17530"/>
            <path id="Path_80997" data-name="Path 80997" d="M2757.772,1399.737h-1.047a6.838,6.838,0,0,0-6.829,6.831v16.742h14.5v-16.95A6.631,6.631,0,0,0,2757.772,1399.737Zm-7.077,7.841h5.8v14.934h-5.8Zm6.821,14.934v-14.934h6.078v14.934Zm6.078-15.94h-12.9v0a6.038,6.038,0,0,1,6.03-6.032h1.047a5.829,5.829,0,0,1,5.823,5.824Z" transform="translate(-2749.897 -1399.737)" fill="#ffe5d2"/>
          </g>
          <g id="Group_166548" data-name="Group 166548" transform="translate(65.149 116.289)">
            <path id="Rectangle_3517" data-name="Rectangle 3517" d="M6.963,0h0A6.736,6.736,0,0,1,13.7,6.736V22.774a0,0,0,0,1,0,0H0a0,0,0,0,1,0,0V6.963A6.963,6.963,0,0,1,6.963,0Z" transform="translate(0.398 0.4)" fill="#d17530"/>
            <path id="Path_80998" data-name="Path 80998" d="M2223.8,1399.737h-1.046a6.837,6.837,0,0,0-6.829,6.831v16.742h14.5v-16.95A6.63,6.63,0,0,0,2223.8,1399.737Zm-7.077,7.841h5.8v14.934h-5.8Zm6.822,14.934v-14.934h6.078v14.934Zm6.078-15.94h-12.9v0a6.038,6.038,0,0,1,6.031-6.032h1.046a5.829,5.829,0,0,1,5.823,5.824Z" transform="translate(-2215.921 -1399.737)" fill="#ffe5d2"/>
          </g>
          <g id="Group_166549" data-name="Group 166549" transform="translate(20.061 116.289)">
            <path id="Rectangle_3518" data-name="Rectangle 3518" d="M6.963,0h0A6.737,6.737,0,0,1,13.7,6.737V22.774a0,0,0,0,1,0,0H0a0,0,0,0,1,0,0V6.963A6.963,6.963,0,0,1,6.963,0Z" transform="translate(0.398 0.4)" fill="#d17530"/>
            <path id="Path_80999" data-name="Path 80999" d="M2042.939,1399.737h-1.047a6.838,6.838,0,0,0-6.829,6.831v16.742h14.5v-16.95A6.631,6.631,0,0,0,2042.939,1399.737Zm-7.077,7.841h5.8v14.934h-5.8Zm6.822,14.934v-14.934h6.078v14.934Zm6.078-15.94h-12.9v0a6.038,6.038,0,0,1,6.031-6.032h1.047a5.829,5.829,0,0,1,5.823,5.824Z" transform="translate(-2035.064 -1399.737)" fill="#ffe5d2"/>
          </g>
          <g id="Group_166550" data-name="Group 166550" transform="translate(109.862 57.478)">
            <path id="Rectangle_3519" data-name="Rectangle 3519" d="M6.963,0h0A6.736,6.736,0,0,1,13.7,6.736V22.774a0,0,0,0,1,0,0H0a0,0,0,0,1,0,0V6.963A6.963,6.963,0,0,1,6.963,0Z" transform="translate(0.398 0.4)" fill="#d17530"/>
            <path id="Path_81000" data-name="Path 81000" d="M2403.15,1163.83H2402.1a6.838,6.838,0,0,0-6.829,6.831V1187.4h14.5v-16.95A6.631,6.631,0,0,0,2403.15,1163.83Zm-7.077,7.841h5.8V1186.6h-5.8Zm6.822,14.934v-14.934h6.078V1186.6Zm6.078-15.94h-12.9v0a6.038,6.038,0,0,1,6.031-6.033h1.046a5.83,5.83,0,0,1,5.823,5.825Z" transform="translate(-2395.275 -1163.83)" fill="#ffe5d2"/>
          </g>
          <g id="Group_166551" data-name="Group 166551" transform="translate(64.778 57.478)">
            <path id="Rectangle_3520" data-name="Rectangle 3520" d="M6.963,0h0A6.737,6.737,0,0,1,13.7,6.737V22.774a0,0,0,0,1,0,0H0a0,0,0,0,1,0,0V6.963A6.963,6.963,0,0,1,6.963,0Z" transform="translate(0.398 0.4)" fill="#d17530"/>
            <path id="Path_81001" data-name="Path 81001" d="M2222.308,1163.83h-1.046a6.837,6.837,0,0,0-6.828,6.831V1187.4h14.5v-16.95A6.631,6.631,0,0,0,2222.308,1163.83Zm-7.077,7.841h5.8V1186.6h-5.8Zm6.822,14.934v-14.934h6.078V1186.6Zm6.078-15.94h-12.9v0a6.039,6.039,0,0,1,6.031-6.033h1.046a5.829,5.829,0,0,1,5.823,5.825Z" transform="translate(-2214.434 -1163.83)" fill="#ffe5d2"/>
          </g>
          <g id="Group_166552" data-name="Group 166552" transform="translate(20.062 57.478)">
            <path id="Rectangle_3521" data-name="Rectangle 3521" d="M6.963,0h0A6.736,6.736,0,0,1,13.7,6.736V22.774a0,0,0,0,1,0,0H0a0,0,0,0,1,0,0V6.963A6.963,6.963,0,0,1,6.963,0Z" transform="translate(0.398 0.4)" fill="#d17530"/>
            <path id="Path_81002" data-name="Path 81002" d="M2042.944,1163.83H2041.9a6.838,6.838,0,0,0-6.829,6.831V1187.4h14.5v-16.95A6.631,6.631,0,0,0,2042.944,1163.83Zm-7.077,7.841h5.8V1186.6h-5.8Zm6.822,14.934v-14.934h6.078V1186.6Zm6.078-15.94h-12.9v0a6.038,6.038,0,0,1,6.031-6.033h1.046a5.83,5.83,0,0,1,5.823,5.825Z" transform="translate(-2035.069 -1163.83)" fill="#ffe5d2"/>
          </g>
          <g id="Group_166555" data-name="Group 166555" transform="translate(98.272 109.796)">
            <rect id="Rectangle_3522" data-name="Rectangle 3522" width="35.379" height="32.75" transform="translate(1.15 14.045)" fill="#ffe5d2"/>
            <rect id="Rectangle_3523" data-name="Rectangle 3523" width="14.472" height="8.932" transform="translate(2.76 26.747)" fill="#f1c3a1"/>
            <rect id="Rectangle_3524" data-name="Rectangle 3524" width="14.472" height="8.932" transform="translate(20.681 26.747)" fill="#f1c3a1"/>
            <path id="Path_81003" data-name="Path 81003" d="M2435.844,1492.775a.551.551,0,1,0,0,.78A.551.551,0,0,0,2435.844,1492.775Z" transform="translate(-2413.434 -1462.965)" fill="#d17530"/>
            <path id="Path_81004" data-name="Path 81004" d="M2409.325,1493.164a.551.551,0,1,1,.551.551A.551.551,0,0,1,2409.325,1493.164Z" transform="translate(-2394.233 -1462.965)" fill="#d17530"/>
            <path id="Path_81005" data-name="Path 81005" d="M2387.608,1387.509h-36.54c2.263-7.021,9.584-12.161,18.272-12.161S2385.345,1380.488,2387.608,1387.509Z" transform="translate(-2350.499 -1374.934)" fill="#d17530"/>
            <g id="Group_166553" data-name="Group 166553">
              <path id="Path_81006" data-name="Path 81006" d="M2386.289,1386.136c-2.365-7.33-10.039-12.447-18.664-12.447s-16.3,5.117-18.666,12.447l-.174.54h37.677Zm-28.883-8.91c.244-.142.493-.28.746-.411a20.686,20.686,0,0,1,18.4-.278c.255.124.509.253.757.389a16.887,16.887,0,0,1,8.01,8.924h-35.379A16.774,16.774,0,0,1,2357.406,1377.226Z" transform="translate(-2348.785 -1373.689)" fill="#ffe5d2"/>
            </g>
            <g id="Group_166554" data-name="Group 166554" transform="translate(8.344 2.439)">
              <path id="Path_81007" data-name="Path 81007" d="M2392.855,1393.61l-10.6-9.28.563-.575,10.007,8.76,9.267-9.041.594.546Z" transform="translate(-2382.254 -1383.474)" fill="#ffe5d2"/>
            </g>
            <path id="Path_81008" data-name="Path 81008" d="M2386.113,1424.534v-.4h-36.725v.4h-.558v34.486h1.138V1425.6h17.6v33.8h.375v-33.8h17.406v33.417h1.135v-34.486Z" transform="translate(-2348.819 -1411.558)" fill="#ffe5d2"/>
            <rect id="Rectangle_3525" data-name="Rectangle 3525" width="14.472" height="8.932" transform="translate(2.76 15.886)" fill="#f1c3a1"/>
            <rect id="Rectangle_3526" data-name="Rectangle 3526" width="14.472" height="8.932" transform="translate(2.76 37.542)" fill="#f1c3a1"/>
            <rect id="Rectangle_3527" data-name="Rectangle 3527" width="14.472" height="8.932" transform="translate(20.681 15.886)" fill="#f1c3a1"/>
            <rect id="Rectangle_3528" data-name="Rectangle 3528" width="14.472" height="8.932" transform="translate(20.681 37.542)" fill="#f1c3a1"/>
          </g>
          <g id="Group_166556" data-name="Group 166556" transform="translate(65.481 156.591)">
            <rect id="Rectangle_3529" data-name="Rectangle 3529" width="61.965" height="1.98" transform="translate(22.356)" fill="#ffe5d2"/>
            <rect id="Rectangle_3530" data-name="Rectangle 3530" width="87.714" height="1.98" transform="translate(9.481 1.861)" fill="#ffe5d2"/>
            <rect id="Rectangle_3531" data-name="Rectangle 3531" width="106.676" height="1.98" transform="translate(0 3.841)" fill="#ffe5d2"/>
          </g>
        </g>
        <g id="Group_166558" data-name="Group 166558" transform="translate(93.369 24.496)">
          <path id="Path_81009" data-name="Path 81009" d="M2329.118,1039.215l.923-1.1a4.019,4.019,0,0,0,2.755,1.134c.948,0,1.546-.436,1.546-1.122,0-.623-.349-.96-1.97-1.347-1.858-.436-2.905-.985-2.905-2.618,0-1.5,1.247-2.531,2.979-2.531a4.837,4.837,0,0,1,3.167,1.1l-.823,1.159a3.966,3.966,0,0,0-2.369-.9c-.9,0-1.421.461-1.421,1.06,0,.673.4.972,2.07,1.372,1.845.449,2.805,1.109,2.805,2.581,0,1.633-1.284,2.606-3.117,2.606A5.376,5.376,0,0,1,2329.118,1039.215Z" transform="translate(-2329.118 -1031.609)" fill="#ffe5d2"/>
          <path id="Path_81010" data-name="Path 81010" d="M2361.928,1036.047a4.417,4.417,0,0,1,4.5-4.514,4.55,4.55,0,0,1,3.417,1.359l-.985,1.134a3.471,3.471,0,0,0-2.444-1.085,3.113,3.113,0,0,0,0,6.209,3.42,3.42,0,0,0,2.506-1.135l.985,1a4.5,4.5,0,0,1-3.541,1.546A4.4,4.4,0,0,1,2361.928,1036.047Z" transform="translate(-2353.748 -1031.533)" fill="#ffe5d2"/>
          <path id="Path_81011" data-name="Path 81011" d="M2400.387,1032.134h1.533v3.628h4.165v-3.628h1.534v8.728h-1.534v-3.678h-4.165v3.678h-1.533Z" transform="translate(-2382.62 -1031.984)" fill="#ffe5d2"/>
          <path id="Path_81012" data-name="Path 81012" d="M2436.847,1036.047a4.564,4.564,0,1,1,4.551,4.513A4.472,4.472,0,0,1,2436.847,1036.047Zm7.518,0a2.991,2.991,0,0,0-2.967-3.1,2.956,2.956,0,0,0-2.943,3.1,2.99,2.99,0,0,0,2.968,3.1A2.956,2.956,0,0,0,2444.365,1036.047Z" transform="translate(-2409.99 -1031.533)" fill="#ffe5d2"/>
          <path id="Path_81013" data-name="Path 81013" d="M2479.357,1036.047a4.564,4.564,0,1,1,4.551,4.513A4.472,4.472,0,0,1,2479.357,1036.047Zm7.519,0a2.991,2.991,0,0,0-2.968-3.1,2.956,2.956,0,0,0-2.942,3.1,2.99,2.99,0,0,0,2.967,3.1A2.956,2.956,0,0,0,2486.875,1036.047Z" transform="translate(-2441.902 -1031.533)" fill="#ffe5d2"/>
          <path id="Path_81014" data-name="Path 81014" d="M2523.419,1032.134h1.533v7.331h4.589v1.4h-6.122Z" transform="translate(-2474.98 -1031.984)" fill="#ffe5d2"/>
        </g>
      </g>
    </g>
  </g>
</svg>
