<svg xmlns="http://www.w3.org/2000/svg" xmlns:xlink="http://www.w3.org/1999/xlink" width="108" height="108" viewBox="0 0 108 108">
  <defs>
    <filter id="Ellipse_3227" x="0" y="0" width="108" height="108" filterUnits="userSpaceOnUse">
      <feOffset dy="3" input="SourceAlpha"/>
      <feGaussianBlur stdDeviation="3" result="blur"/>
      <feFlood flood-opacity="0.161"/>
      <feComposite operator="in" in2="blur"/>
      <feComposite in="SourceGraphic"/>
    </filter>
  </defs>
  <g id="Communication" transform="translate(-746 -1738)">
    <g id="Group_163331" data-name="Group 163331" transform="translate(463 -695)">
      <g id="Group_162574" data-name="Group 162574" transform="translate(292 2439)">
        <g id="Group_162560" data-name="Group 162560">
          <g id="Group_162559" data-name="Group 162559">
            <g transform="matrix(1, 0, 0, 1, -9, -6)" filter="url(#Ellipse_3227)">
              <circle id="Ellipse_3227-2" data-name="Ellipse 3227" cx="45" cy="45" r="45" transform="translate(9 6)" fill="#fff"/>
            </g>
          </g>
        </g>
      </g>
    </g>
    <g id="chat_3_" data-name="chat (3)" transform="translate(766 1684.231)">
      <g id="Group_162279" data-name="Group 162279" transform="translate(0 82.769)">
        <path id="Path_73893" data-name="Path 73893" d="M51.726,102.874c0-12.144-12.942-20.1-25.863-20.1-12.973,0-25.863,8-25.863,20.1a17.6,17.6,0,0,0,5.711,12.612.545.545,0,0,1,.141.538,29.243,29.243,0,0,1-5.02,9.411,1.422,1.422,0,0,0-.15,1.539,1.451,1.451,0,0,0,1.3.794h.038c5.5-.136,11.877-1.672,15.819-5.5a.567.567,0,0,1,.529-.141,32.847,32.847,0,0,0,7.493.856c12.969,0,25.863-7.995,25.863-20.105Zm-32.9,17.353a2.541,2.541,0,0,0-2.364.648c-3.942,3.833-10.378,4.7-13.424,4.9a30.232,30.232,0,0,0,4.716-9.236,2.479,2.479,0,0,0-.666-2.446A15.478,15.478,0,0,1,1.97,102.874c0-10.011,10.719-18.157,23.893-18.157s23.893,8.145,23.893,18.157S39.038,121.03,25.863,121.03A30.868,30.868,0,0,1,18.825,120.227Z" transform="translate(0 -82.769)" fill="rgba(252,79,25,0.99)" stroke="#fb501b" stroke-width="0.2"/>
        <path id="Path_73894" data-name="Path 73894" d="M342.114,172.344c5.742-2.9,9.17-7.848,9.17-13.23,0-7.607-6.876-14.107-16.35-15.455a.985.985,0,0,0-.277,1.95c8.494,1.209,14.658,6.889,14.658,13.505,0,4.624-3.024,8.912-8.089,11.472a2.434,2.434,0,0,0-1.283,2.676,20.51,20.51,0,0,0,2.32,5.762c-5.816-.968-8.02-3.759-8.717-4.966a2.43,2.43,0,0,0-2.1-1.208h-.08a23.432,23.432,0,0,1-3.25-.225.985.985,0,0,0-.274,1.95,25.429,25.429,0,0,0,3.524.244h.082a.455.455,0,0,1,.4.223c2.667,4.622,8.8,5.8,11.311,6.1a1.429,1.429,0,0,0,1.37-2.192,19.56,19.56,0,0,1-2.651-6.094A.463.463,0,0,1,342.114,172.344Z" transform="translate(-284.053 -136.148)" fill="rgba(252,79,25,0.99)" stroke="#fb501b" stroke-width="0.2"/>
        <path id="Path_73895" data-name="Path 73895" d="M57.678,210.733a3.413,3.413,0,1,0,3.413,3.413A3.417,3.417,0,0,0,57.678,210.733Zm0,4.857a1.443,1.443,0,1,1,1.443-1.443A1.445,1.445,0,0,1,57.678,215.59Z" transform="translate(-47.14 -194.145)" fill="rgba(252,79,25,0.99)" stroke="#fb501b" stroke-width="0.2"/>
        <path id="Path_73896" data-name="Path 73896" d="M131.831,210.733a3.413,3.413,0,1,0,3.413,3.413A3.417,3.417,0,0,0,131.831,210.733Zm0,4.857a1.443,1.443,0,1,1,1.444-1.443A1.445,1.445,0,0,1,131.831,215.59Z" transform="translate(-111.556 -194.145)" fill="rgba(252,79,25,0.99)" stroke="#fb501b" stroke-width="0.2"/>
        <path id="Path_73897" data-name="Path 73897" d="M205.983,210.733a3.413,3.413,0,1,0,3.413,3.413A3.417,3.417,0,0,0,205.983,210.733Zm0,4.857a1.443,1.443,0,1,1,1.443-1.443A1.445,1.445,0,0,1,205.983,215.59Z" transform="translate(-175.971 -194.145)" fill="rgba(252,79,25,0.99)" stroke="#fb501b" stroke-width="0.2"/>
        <path id="Path_73898" data-name="Path 73898" d="M280.137,210.733a3.413,3.413,0,1,0,3.413,3.413A3.417,3.417,0,0,0,280.137,210.733Zm0,4.857a1.443,1.443,0,1,1,1.443-1.443A1.445,1.445,0,0,1,280.137,215.59Z" transform="translate(-240.388 -194.145)" fill="rgba(252,79,25,0.99)" stroke="#fb501b" stroke-width="0.2"/>
      </g>
    </g>
  </g>
</svg>
