<svg xmlns="http://www.w3.org/2000/svg" xmlns:xlink="http://www.w3.org/1999/xlink" width="108" height="108" viewBox="0 0 108 108">
  <defs>
    <filter id="Ellipse_3227" x="0" y="0" width="108" height="108" filterUnits="userSpaceOnUse">
      <feOffset dy="3" input="SourceAlpha"/>
      <feGaussianBlur stdDeviation="3" result="blur"/>
      <feFlood flood-opacity="0.161"/>
      <feComposite operator="in" in2="blur"/>
      <feComposite in="SourceGraphic"/>
    </filter>
  </defs>
  <g id="Core_Module" data-name="Core Module" transform="translate(-272 -1740)">
    <g id="Group_164292" data-name="Group 164292">
      <g id="Group_163330" data-name="Group 163330" transform="translate(-11 -693)">
        <g id="Group_162574" data-name="Group 162574" transform="translate(292 2439)">
          <g id="Group_162560" data-name="Group 162560">
            <g id="Group_162559" data-name="Group 162559">
              <g transform="matrix(1, 0, 0, 1, -9, -6)" filter="url(#Ellipse_3227)">
                <circle id="Ellipse_3227-2" data-name="Ellipse 3227" cx="45" cy="45" r="45" transform="translate(9 6)" fill="#fff"/>
              </g>
            </g>
          </g>
        </g>
      </g>
      <g id="settings" transform="translate(193.488 1769)">
        <g id="Group_162276" data-name="Group 162276" transform="translate(110.512)">
          <g id="Group_162275" data-name="Group 162275" transform="translate(0)">
            <path id="Path_73887" data-name="Path 73887" d="M154.262,17.5H149.77a17.393,17.393,0,0,0-1.374-3.311l3.179-3.179a1.25,1.25,0,0,0,0-1.767l-5.305-5.3a1.25,1.25,0,0,0-1.767,0l-3.179,3.179a17.337,17.337,0,0,0-3.311-1.375V1.25A1.25,1.25,0,0,0,136.762,0h-7.5a1.25,1.25,0,0,0-1.25,1.25V5.742A17.335,17.335,0,0,0,124.7,7.117l-3.179-3.179a1.25,1.25,0,0,0-1.768,0l-5.3,5.3a1.25,1.25,0,0,0,0,1.767l3.18,3.179a17.405,17.405,0,0,0-1.375,3.311h-4.493a1.25,1.25,0,0,0-1.25,1.25v7.5a1.25,1.25,0,0,0,1.25,1.25h4.493a17.39,17.39,0,0,0,1.374,3.311L114.45,33.99a1.25,1.25,0,0,0,0,1.767l5.3,5.305a1.286,1.286,0,0,0,1.768,0l3.179-3.18a17.4,17.4,0,0,0,3.311,1.375V43.75a1.25,1.25,0,0,0,1.25,1.25h7.5a1.25,1.25,0,0,0,1.25-1.25V39.257a17.415,17.415,0,0,0,3.311-1.374l3.179,3.179a1.249,1.249,0,0,0,1.767,0l5.3-5.305a1.25,1.25,0,0,0,0-1.767l-3.179-3.179a17.4,17.4,0,0,0,1.375-3.311h4.493a1.25,1.25,0,0,0,1.25-1.25v-7.5A1.25,1.25,0,0,0,154.262,17.5Zm-1.25,7.5h-4.2a1.25,1.25,0,0,0-1.216.962,14.956,14.956,0,0,1-1.825,4.4,1.25,1.25,0,0,0,.18,1.541l2.974,2.972-3.537,3.538-2.973-2.975a1.25,1.25,0,0,0-1.541-.18,14.912,14.912,0,0,1-4.4,1.826,1.25,1.25,0,0,0-.962,1.216v4.2h-5V38.3a1.25,1.25,0,0,0-.963-1.216,14.912,14.912,0,0,1-4.4-1.826,1.25,1.25,0,0,0-1.541.18l-2.972,2.975L117.1,34.875l2.974-2.975a1.25,1.25,0,0,0,.18-1.541,14.959,14.959,0,0,1-1.825-4.4A1.25,1.25,0,0,0,117.213,25h-4.2V20h4.2a1.25,1.25,0,0,0,1.216-.963,14.959,14.959,0,0,1,1.825-4.4,1.25,1.25,0,0,0-.18-1.541L117.1,10.125l3.536-3.535,2.974,2.974a1.25,1.25,0,0,0,1.541.18,14.875,14.875,0,0,1,4.4-1.825,1.25,1.25,0,0,0,.963-1.216V2.5h5V6.7a1.25,1.25,0,0,0,.964,1.216,14.875,14.875,0,0,1,4.4,1.825,1.25,1.25,0,0,0,1.541-.18l2.972-2.974,3.536,3.535L145.95,13.1a1.25,1.25,0,0,0-.18,1.541,14.96,14.96,0,0,1,1.825,4.4,1.25,1.25,0,0,0,1.216.962h4.2Z" transform="translate(-110.512)" fill="rgba(252,79,25,0.99)"/>
          </g>
        </g>
        <g id="Group_162278" data-name="Group 162278" transform="translate(125.315 14.803)">
          <g id="Group_162277" data-name="Group 162277" transform="translate(0)">
            <path id="Path_73888" data-name="Path 73888" d="M214.209,96a7.7,7.7,0,1,0,7.7,7.7A7.7,7.7,0,0,0,214.209,96Zm0,12.829a5.131,5.131,0,1,1,5.131-5.131A5.132,5.132,0,0,1,214.209,108.829Z" transform="translate(-206.512 -96)" fill="rgba(252,79,25,0.99)"/>
          </g>
        </g>
      </g>
    </g>
  </g>
</svg>
