<svg xmlns="http://www.w3.org/2000/svg" xmlns:xlink="http://www.w3.org/1999/xlink" width="108" height="108" viewBox="0 0 108 108">
  <defs>
    <filter id="Ellipse_3227" x="0" y="0" width="108" height="108" filterUnits="userSpaceOnUse">
      <feOffset dy="3" input="SourceAlpha"/>
      <feGaussianBlur stdDeviation="3" result="blur"/>
      <feFlood flood-opacity="0.161"/>
      <feComposite operator="in" in2="blur"/>
      <feComposite in="SourceGraphic"/>
    </filter>
  </defs>
  <g id="Data" transform="translate(-982 -1738)">
    <g id="Group_163332" data-name="Group 163332" transform="translate(699 -695)">
      <g id="Group_162574" data-name="Group 162574" transform="translate(292 2439)">
        <g id="Group_162560" data-name="Group 162560">
          <g id="Group_162559" data-name="Group 162559">
            <g transform="matrix(1, 0, 0, 1, -9, -6)" filter="url(#Ellipse_3227)">
              <circle id="Ellipse_3227-2" data-name="Ellipse 3227" cx="45" cy="45" r="45" transform="translate(9 6)" fill="#fff"/>
            </g>
          </g>
        </g>
      </g>
    </g>
    <g id="surface1" transform="translate(1013.75 1767)">
      <path id="Path_73899" data-name="Path 73899" d="M115.537,0H81.348a2.973,2.973,0,0,0-2.973,2.973V20.811h1.486V2.973a1.486,1.486,0,0,1,1.486-1.486h34.189a1.486,1.486,0,0,1,1.486,1.486V32.7a1.486,1.486,0,0,1-1.486,1.486H99.929v1.486h15.608A2.973,2.973,0,0,0,118.51,32.7V2.973A2.973,2.973,0,0,0,115.537,0Zm0,0" transform="translate(-74.409)" fill="rgba(252,79,25,0.99)" stroke="#fb501b" stroke-width="0.2"/>
      <path id="Path_73900" data-name="Path 73900" d="M140.875,62.5h1.486v1.486h-1.486Zm0,0" transform="translate(-133.936 -59.527)" fill="rgba(252,79,25,0.99)" stroke="#fb501b" stroke-width="0.2"/>
      <path id="Path_73901" data-name="Path 73901" d="M203.375,62.5h1.486v1.486h-1.486Zm0,0" transform="translate(-193.463 -59.527)" fill="rgba(252,79,25,0.99)" stroke="#fb501b" stroke-width="0.2"/>
      <path id="Path_73902" data-name="Path 73902" d="M265.875,62.5h1.487v1.486h-1.487Zm0,0" transform="translate(-252.99 -59.527)" fill="rgba(252,79,25,0.99)" stroke="#fb501b" stroke-width="0.2"/>
      <path id="Path_73903" data-name="Path 73903" d="M140.875,125h34.189v1.486H140.875Zm0,0" transform="translate(-133.936 -119.054)" fill="rgba(252,79,25,0.99)" stroke="#fb501b" stroke-width="0.2"/>
      <path id="Path_73904" data-name="Path 73904" d="M140.875,211.3a.743.743,0,0,0,.743.743h8.919a.743.743,0,0,0,.743-.743v-5.946a.743.743,0,0,0-.743-.743h-3.408l-1.269-1.269a.743.743,0,0,0-.525-.218h-3.716a.743.743,0,0,0-.743.743Zm1.486-6.689h2.665l1.269,1.269a.743.743,0,0,0,.526.218h2.973v4.459h-7.432Zm0,0" transform="translate(-133.936 -193.353)" fill="rgba(252,79,25,0.99)" stroke="#fb501b" stroke-width="0.2"/>
      <path id="Path_73905" data-name="Path 73905" d="M401.28,205.355a.743.743,0,0,0-.743-.743h-3.408l-1.269-1.269a.743.743,0,0,0-.525-.218h-3.716a.743.743,0,0,0-.743.743V211.3a.743.743,0,0,0,.743.743h8.919a.743.743,0,0,0,.743-.743Zm-1.487,5.2h-7.432v-5.946h2.665l1.269,1.269a.743.743,0,0,0,.525.218h2.973Zm0,0" transform="translate(-372.044 -193.353)" fill="rgba(252,79,25,0.99)" stroke="#fb501b" stroke-width="0.2"/>
      <path id="Path_73906" data-name="Path 73906" d="M651.28,205.355a.743.743,0,0,0-.743-.743h-3.409l-1.269-1.269a.743.743,0,0,0-.526-.218h-3.716a.743.743,0,0,0-.743.743V211.3a.743.743,0,0,0,.743.743h8.919a.743.743,0,0,0,.743-.743Zm-1.487,5.2h-7.432v-5.946h2.665l1.269,1.269a.743.743,0,0,0,.526.218h2.973Zm0,0" transform="translate(-610.152 -193.353)" fill="rgba(252,79,25,0.99)" stroke="#fb501b" stroke-width="0.2"/>
      <path id="Path_73907" data-name="Path 73907" d="M442.209,460.557v1.487h2.973a.743.743,0,0,0,.743-.743v-5.946a.743.743,0,0,0-.743-.743h-3.409l-1.269-1.269a.743.743,0,0,0-.525-.218h-2.23v1.487h1.922l1.269,1.269a.743.743,0,0,0,.526.218h2.973v4.459Zm0,0" transform="translate(-416.689 -431.326)" fill="rgba(252,79,25,0.99)" stroke="#fb501b" stroke-width="0.2"/>
      <path id="Path_73908" data-name="Path 73908" d="M650.537,454.611h-3.409l-1.269-1.269a.743.743,0,0,0-.526-.218h-3.716a.743.743,0,0,0-.743.743V461.3a.743.743,0,0,0,.743.743h8.919a.743.743,0,0,0,.743-.743v-5.946A.743.743,0,0,0,650.537,454.611Zm-.743,5.946h-7.432v-5.946h2.665l1.269,1.269a.743.743,0,0,0,.526.218h2.973Zm0,0" transform="translate(-610.152 -431.326)" fill="rgba(252,79,25,0.99)" stroke="#fb501b" stroke-width="0.2"/>
      <path id="Path_73909" data-name="Path 73909" d="M2.958,446.419H.993a.743.743,0,0,0-.743.743v4.459a.743.743,0,0,0,.743.743H2.958a9.62,9.62,0,0,0,.587,1.42l-1.388,1.388a.744.744,0,0,0,0,1.051l3.154,3.154a.744.744,0,0,0,1.051,0l1.388-1.388a9.611,9.611,0,0,0,1.42.587v1.964a.743.743,0,0,0,.743.743h4.459a.743.743,0,0,0,.743-.743v-1.964a9.61,9.61,0,0,0,1.42-.587l1.388,1.388a.744.744,0,0,0,1.051,0l3.154-3.154a.744.744,0,0,0,0-1.051l-1.388-1.388a9.614,9.614,0,0,0,.587-1.42h1.964a.743.743,0,0,0,.743-.743v-4.459a.743.743,0,0,0-.743-.743H21.326a9.613,9.613,0,0,0-.587-1.42l1.388-1.388a.744.744,0,0,0,0-1.051l-3.154-3.154a.744.744,0,0,0-1.051,0l-1.388,1.388a9.614,9.614,0,0,0-1.42-.587v-1.964a.743.743,0,0,0-.743-.743H9.912a.743.743,0,0,0-.743.743v1.964a9.614,9.614,0,0,0-1.42.587l-1.388-1.388a.744.744,0,0,0-1.051,0L2.156,442.56a.744.744,0,0,0,0,1.051L3.545,445c-.062.12-.121.243-.178.366A9.655,9.655,0,0,0,2.958,446.419Zm1.278.929a8.108,8.108,0,0,1,.87-2.1.744.744,0,0,0-.114-.9l-1.258-1.257,2.1-2.1,1.257,1.258a.744.744,0,0,0,.9.115,8.125,8.125,0,0,1,2.1-.87.743.743,0,0,0,.557-.719v-1.779h2.973v1.779a.743.743,0,0,0,.557.719,8.125,8.125,0,0,1,2.1.87.744.744,0,0,0,.9-.115l1.257-1.258,2.1,2.1-1.258,1.257a.744.744,0,0,0-.114.9,8.127,8.127,0,0,1,.87,2.1.743.743,0,0,0,.719.557h1.779v2.973H20.768a.743.743,0,0,0-.719.557,8.127,8.127,0,0,1-.87,2.1.744.744,0,0,0,.114.9l1.258,1.257-2.1,2.1-1.257-1.258a.744.744,0,0,0-.9-.114,8.126,8.126,0,0,1-2.1.87.743.743,0,0,0-.557.719V459.8H10.655v-1.779a.743.743,0,0,0-.557-.719,8.126,8.126,0,0,1-2.1-.87.744.744,0,0,0-.9.114L5.836,457.8l-2.1-2.1,1.258-1.257a.744.744,0,0,0,.114-.9,8.125,8.125,0,0,1-.87-2.1.743.743,0,0,0-.719-.557H1.736v-2.973H3.516A.743.743,0,0,0,4.235,447.348Zm0,0" transform="translate(0 -416.284)" fill="rgba(252,79,25,0.99)" stroke="#fb501b" stroke-width="0.2"/>
      <path id="Path_73910" data-name="Path 73910" d="M146.078,588.53a5.2,5.2,0,1,0-5.2-5.2A5.2,5.2,0,0,0,146.078,588.53Zm0-8.919a3.716,3.716,0,1,1-3.716,3.716A3.716,3.716,0,0,1,146.078,579.611Zm0,0" transform="translate(-133.936 -550.22)" fill="rgba(252,79,25,0.99)" stroke="#fb501b" stroke-width="0.2"/>
    </g>
  </g>
</svg>
