<svg xmlns="http://www.w3.org/2000/svg" width="74.102" height="75.608" viewBox="0 0 74.102 75.608">
  <g id="_6" data-name="6" transform="translate(-6.464 0.308)">
    <path id="Path_73961" data-name="Path 73961" d="M69.544,155.665h25.7a1.106,1.106,0,1,0,0-2.211h-25.7a1.106,1.106,0,1,0,0,2.211Z" transform="translate(-52.578 -130.98)" fill="rgba(252,79,25,0.99)" stroke="#fb501b" stroke-width="0.6"/>
    <path id="Path_73962" data-name="Path 73962" d="M69.544,193.329h25.7a1.106,1.106,0,1,0,0-2.211h-25.7a1.106,1.106,0,1,0,0,2.211Z" transform="translate(-52.578 -163.127)" fill="rgba(252,79,25,0.99)" stroke="#fb501b" stroke-width="0.6"/>
    <path id="Path_73963" data-name="Path 73963" d="M69.544,230.992h25.7a1.106,1.106,0,0,0,0-2.211h-25.7a1.106,1.106,0,0,0,0,2.211Z" transform="translate(-52.578 -195.274)" fill="rgba(252,79,25,0.99)" stroke="#fb501b" stroke-width="0.6"/>
    <path id="Path_73964" data-name="Path 73964" d="M69.544,268.656h25.7a1.106,1.106,0,0,0,0-2.211h-25.7a1.106,1.106,0,1,0,0,2.211Z" transform="translate(-52.578 -227.422)" fill="rgba(252,79,25,0.99)" stroke="#fb501b" stroke-width="0.6"/>
    <path id="Path_73965" data-name="Path 73965" d="M69.544,306.319H79.622a1.106,1.106,0,0,0,0-2.211H69.544a1.106,1.106,0,1,0,0,2.211Z" transform="translate(-52.578 -259.569)" fill="rgba(252,79,25,0.99)" stroke="#fb501b" stroke-width="0.6"/>
    <path id="Path_73966" data-name="Path 73966" d="M76.573,7.991l.97-1.783a3.1,3.1,0,0,0-1.266-4.213L73.261.375A3.14,3.14,0,0,0,69.02,1.633L67.141,5.09a4.127,4.127,0,0,0-1.664,1.095c-1.161,1.259-2.369,2.723-3.592,4.347a364.746,364.746,0,0,0-36.82-.333c-3.391.14-6.812.33-10.169.566A7.673,7.673,0,0,0,7.772,17.56a167.694,167.694,0,0,0,0,36.626,7.681,7.681,0,0,0,7.119,6.809c.267.019.533.037.792.053a2.6,2.6,0,0,1,1.848.958,1.11,1.11,0,0,0,1.554.17,1.094,1.094,0,0,0,.171-1.544,4.829,4.829,0,0,0-3.43-1.776c-.257-.016-.515-.033-.777-.052a5.478,5.478,0,0,1-5.078-4.856,165.5,165.5,0,0,1,0-36.148,5.47,5.47,0,0,1,5.079-4.842c3.337-.234,6.737-.423,10.107-.562,11.665-.488,23.493-.4,35.193.249q-1.109,1.578-2.211,3.3a1.1,1.1,0,0,0,.34,1.517A1.11,1.11,0,0,0,60,17.12a69.707,69.707,0,0,1,7.1-9.451,1.938,1.938,0,0,1,2.342-.388l3.1,1.666a1.91,1.91,0,0,1,.958,2.158A82.06,82.06,0,0,1,66.1,28.9c-1.418,2.608-2.9,5.093-4.406,7.385l-9.3-4.991c1.1-2.506,2.38-5.1,3.8-7.712.441-.811.88-1.595,1.3-2.331a1.1,1.1,0,0,0-.409-1.5,1.109,1.109,0,0,0-1.509.407c-.434.752-.882,1.553-1.332,2.38A85.061,85.061,0,0,0,46.7,40.626c-1.27,4.865-1.259,8.13.025,9.739l-.3.479a1.1,1.1,0,0,0,.364,1.511,1.11,1.11,0,0,0,1.521-.362l.338-.548a3.252,3.252,0,0,0,.4.025c2.024,0,4.678-1.786,7.916-5.333A85.311,85.311,0,0,0,68.046,29.945c1.071-1.97,2.062-3.933,2.963-5.86.075,1.051.137,2.1.192,3.155l-.266.4c-3.738,5.554-6.018,9.064-5.79,11.142a1.1,1.1,0,0,0,1.1.98,1.129,1.129,0,0,0,.121-.007,1.1,1.1,0,0,0,.979-1.211c-.124-1.131,1.909-4.4,4.011-7.565a165.5,165.5,0,0,1-.915,22.982,5.365,5.365,0,0,1-.413,1.553A5.466,5.466,0,0,1,65.361,58.8c-8.924.623-18,.917-26.993.87A4.8,4.8,0,0,0,34.4,61.711c-2.865,4.095-7.6,8.082-11.063,10.706a1.884,1.884,0,0,1-3.023-1.492V66.056a1.106,1.106,0,0,0-2.211,0v4.869a4.044,4.044,0,0,0,2.278,3.648,4.09,4.09,0,0,0,4.3-.409c3.592-2.72,8.51-6.87,11.54-11.2a2.587,2.587,0,0,1,2.129-1.093h.013c9.04.044,18.179-.249,27.158-.876a7.665,7.665,0,0,0,6.542-4.615,7.538,7.538,0,0,0,.58-2.182,167.767,167.767,0,0,0,.81-26.344c3.122-4.65,6.168-9.341,6.692-12.575a6.6,6.6,0,0,0-3.568-7.289ZM55.326,44.662c-3.916,4.29-6.025,4.864-6.654,4.526s-1.3-2.4.162-8.01a62.686,62.686,0,0,1,2.694-7.851l8.93,4.793a62.973,62.973,0,0,1-5.132,6.542ZM70.5,5.348a4.171,4.171,0,0,0-.808-.327l1.274-2.344a.921.921,0,0,1,1.244-.369l3.015,1.619A.911.911,0,0,1,75.6,5.163L74.323,7.507a4.174,4.174,0,0,0-.719-.493Zm7.457,9.582c-.366,2.254-2.423,5.734-4.725,9.259q-.152-2.176-.361-4.346a63.854,63.854,0,0,0,2.782-8.2,4.071,4.071,0,0,0,.082-1.61A4.37,4.37,0,0,1,77.957,14.93Z" transform="translate(0 0)" fill="rgba(252,79,25,0.99)" stroke="#fb501b" stroke-width="0.6"/>
  </g>
</svg>
