<svg xmlns="http://www.w3.org/2000/svg" xmlns:xlink="http://www.w3.org/1999/xlink" width="138" height="138" viewBox="0 0 138 138">
  <defs>
    <filter id="Ellipse_3227" x="0" y="0" width="138" height="138" filterUnits="userSpaceOnUse">
      <feOffset dy="3" input="SourceAlpha"/>
      <feGaussianBlur stdDeviation="3" result="blur"/>
      <feFlood flood-opacity="0.161"/>
      <feComposite operator="in" in2="blur"/>
      <feComposite in="SourceGraphic"/>
    </filter>
  </defs>
  <g id="_11" data-name="11" transform="translate(-882 -4559)">
    <g transform="matrix(1, 0, 0, 1, 882, 4559)" filter="url(#Ellipse_3227)">
      <circle id="Ellipse_3227-2" data-name="Ellipse 3227" cx="60" cy="60" r="60" transform="translate(9 6)" fill="#fff"/>
    </g>
    <g id="visitor" transform="translate(919 4592.998)">
      <g id="Group_162486" data-name="Group 162486" transform="translate(0 36.348)">
        <g id="Group_162485" data-name="Group 162485" transform="translate(0)">
          <path id="Path_74262" data-name="Path 74262" d="M17.235,287.307a5.806,5.806,0,0,0-2.507-.928,7.649,7.649,0,0,0,2.905-5.564c0-7.287-4.2-8.817-7.715-8.817S2.2,273.528,2.2,280.815a7.65,7.65,0,0,0,2.906,5.564A5.822,5.822,0,0,0,0,292.166v7.384a1.1,1.1,0,0,0,1.1,1.1H18.735a1.1,1.1,0,0,0,1.1-1.1v-7.384A5.831,5.831,0,0,0,17.235,287.307Zm-12.77-7.658c.3-3.694,2.037-5.446,5.453-5.446,3.128,0,4.849,1.479,5.342,4.565l-3.672-2.2a1.1,1.1,0,0,0-1.612.6C9.418,278.832,6.407,279.465,4.466,279.649Zm.1,2.211c1.887-.155,5.29-.726,6.877-2.816l3.939,2.364c-.442,2.7-3.767,4.917-5.459,4.917A6.943,6.943,0,0,1,4.561,281.859Zm6.267,10.811-.91.913-.91-.911.91-2.278Zm6.8,5.777H2.2v-6.282a3.637,3.637,0,0,1,3.637-3.637H8.288l-1.6,4a1.1,1.1,0,0,0,.245,1.188l2.2,2.2a1.1,1.1,0,0,0,1.558,0l2.2-2.2a1.1,1.1,0,0,0,.245-1.188l-1.6-4H14a3.637,3.637,0,0,1,3.637,3.637Z" transform="translate(0 -271.998)" fill="rgba(252,79,25,0.99)"/>
        </g>
      </g>
      <g id="Group_162488" data-name="Group 162488" transform="translate(22.581 36.348)">
        <g id="Group_162487" data-name="Group 162487">
          <path id="Path_74263" data-name="Path 74263" d="M185.235,287.307a5.806,5.806,0,0,0-2.507-.928,7.649,7.649,0,0,0,2.905-5.564c0-7.287-4.2-8.817-7.715-8.817s-7.715,1.53-7.715,8.817a7.65,7.65,0,0,0,2.906,5.564,5.822,5.822,0,0,0-5.11,5.787v7.384a1.1,1.1,0,0,0,1.1,1.1h17.633a1.1,1.1,0,0,0,1.1-1.1v-7.384A5.831,5.831,0,0,0,185.235,287.307Zm-12.77-7.658c.3-3.694,2.037-5.446,5.453-5.446,3.128,0,4.849,1.479,5.342,4.565l-3.672-2.2a1.1,1.1,0,0,0-1.612.6C177.418,278.832,174.407,279.465,172.466,279.649Zm.1,2.211c1.887-.155,5.29-.726,6.877-2.816l3.939,2.364c-.442,2.7-3.767,4.917-5.459,4.917A6.943,6.943,0,0,1,172.561,281.859Zm6.268,10.811-.91.913-.91-.911.91-2.278Zm6.8,5.777H170.2v-6.282a3.637,3.637,0,0,1,3.637-3.637h2.447l-1.6,4a1.1,1.1,0,0,0,.245,1.188l2.2,2.2a1.1,1.1,0,0,0,1.558,0l2.2-2.2a1.1,1.1,0,0,0,.245-1.188l-1.6-4H182a3.637,3.637,0,0,1,3.637,3.637Z" transform="translate(-168 -271.998)" fill="rgba(252,79,25,0.99)"/>
        </g>
      </g>
      <g id="Group_162490" data-name="Group 162490" transform="translate(45.163 36.348)">
        <g id="Group_162489" data-name="Group 162489">
          <path id="Path_74264" data-name="Path 74264" d="M353.235,287.307a5.806,5.806,0,0,0-2.507-.928,7.649,7.649,0,0,0,2.905-5.564c0-7.287-4.2-8.817-7.715-8.817s-7.715,1.53-7.715,8.817a7.65,7.65,0,0,0,2.906,5.564,5.822,5.822,0,0,0-5.11,5.787v7.384a1.1,1.1,0,0,0,1.1,1.1h17.633a1.1,1.1,0,0,0,1.1-1.1v-7.384A5.831,5.831,0,0,0,353.235,287.307Zm-12.77-7.658c.3-3.694,2.037-5.446,5.453-5.446,3.128,0,4.849,1.479,5.342,4.565l-3.672-2.2a1.1,1.1,0,0,0-1.612.6C345.418,278.832,342.407,279.465,340.466,279.649Zm.1,2.211c1.887-.155,5.29-.726,6.877-2.816l3.939,2.364c-.442,2.7-3.767,4.917-5.459,4.917A6.943,6.943,0,0,1,340.561,281.859Zm6.267,10.811-.91.913-.91-.911.91-2.278Zm6.8,5.777H338.2v-6.282a3.637,3.637,0,0,1,3.637-3.637h2.447l-1.6,4a1.1,1.1,0,0,0,.245,1.188l2.2,2.2a1.1,1.1,0,0,0,1.558,0l2.2-2.2a1.1,1.1,0,0,0,.245-1.188l-1.6-4H350a3.637,3.637,0,0,1,3.637,3.637Z" transform="translate(-336 -271.998)" fill="rgba(252,79,25,0.99)"/>
        </g>
      </g>
      <g id="Group_162492" data-name="Group 162492" transform="translate(14.845 8.814)">
        <g id="Group_162491" data-name="Group 162491">
          <path id="Path_74265" data-name="Path 74265" d="M147.263,88.217V73.89a1.1,1.1,0,0,0-1.1-1.1h-9.919V69.481a1.1,1.1,0,0,0-1.1-1.1h-6.7a8.8,8.8,0,0,0-7.9-4.408A9.054,9.054,0,0,0,112,73.111a15.1,15.1,0,0,0,2.365,8.122l4.444,6.983h-1.3v2.2h30.858v-2.2Zm-23.144,0h-1.3l1.3-2.04Zm-3.306-.95-4.591-7.216a12.894,12.894,0,0,1-2.021-6.939,6.833,6.833,0,0,1,6.409-6.936h.2a6.612,6.612,0,0,1,6.612,6.612v.324a12.894,12.894,0,0,1-2.021,6.943Zm13.225.95h-7.715v-5.5l.941-1.478a15.1,15.1,0,0,0,2.365-8.122v-.324a8.862,8.862,0,0,0-.287-2.2h4.695Zm7.715,0h-2.2V84.91h2.2Zm3.306-12.123h-2.2v2.2h2.2v1.1h-2.2v2.2h2.2v6.612h-1.1V83.808a1.1,1.1,0,0,0-1.1-1.1h-4.408a1.1,1.1,0,0,0-1.1,1.1v4.408h-1.1V81.6h2.2V79.4h-2.2V78.3h2.2v-2.2h-2.2v-1.1h8.817Z" transform="translate(-111.996 -63.967)" fill="rgba(252,79,25,0.99)"/>
        </g>
      </g>
      <g id="Group_162494" data-name="Group 162494" transform="translate(33.571 16.246)">
        <g id="Group_162493" data-name="Group 162493" transform="translate(0 0)">
          <rect id="Rectangle_3143" data-name="Rectangle 3143" width="2.205" height="2.205" fill="rgba(252,79,25,0.99)"/>
        </g>
      </g>
      <g id="Group_162496" data-name="Group 162496" transform="translate(42.235 20.578)">
        <g id="Group_162495" data-name="Group 162495" transform="translate(0 0)">
          <rect id="Rectangle_3144" data-name="Rectangle 3144" width="2.205" height="2.205" transform="translate(0)" fill="rgba(252,79,25,0.99)"/>
        </g>
      </g>
      <g id="Group_162498" data-name="Group 162498" transform="translate(42.235 23.827)">
        <g id="Group_162497" data-name="Group 162497" transform="translate(0 0)">
          <rect id="Rectangle_3145" data-name="Rectangle 3145" width="2.205" height="2.205" transform="translate(0)" fill="rgba(252,79,25,0.99)"/>
        </g>
      </g>
      <g id="Group_162500" data-name="Group 162500" transform="translate(33.571 19.495)">
        <g id="Group_162499" data-name="Group 162499" transform="translate(0 0)">
          <rect id="Rectangle_3146" data-name="Rectangle 3146" width="2.205" height="2.205" fill="rgba(252,79,25,0.99)"/>
        </g>
      </g>
      <g id="Group_162502" data-name="Group 162502" transform="translate(33.571 22.744)">
        <g id="Group_162501" data-name="Group 162501" transform="translate(0 0)">
          <rect id="Rectangle_3147" data-name="Rectangle 3147" width="2.205" height="2.205" fill="rgba(252,79,25,0.99)"/>
        </g>
      </g>
      <g id="Group_162504" data-name="Group 162504" transform="translate(30.322 25.993)">
        <g id="Group_162503" data-name="Group 162503" transform="translate(0 0)">
          <rect id="Rectangle_3148" data-name="Rectangle 3148" width="2.205" height="2.205" transform="translate(0)" fill="rgba(252,79,25,0.99)"/>
        </g>
      </g>
      <g id="Group_162506" data-name="Group 162506" transform="translate(33.571 25.993)">
        <g id="Group_162505" data-name="Group 162505" transform="translate(0 0)">
          <rect id="Rectangle_3149" data-name="Rectangle 3149" width="2.205" height="2.205" fill="rgba(252,79,25,0.99)"/>
        </g>
      </g>
      <g id="Group_162508" data-name="Group 162508" transform="translate(30.322 29.241)">
        <g id="Group_162507" data-name="Group 162507" transform="translate(0 0)">
          <rect id="Rectangle_3150" data-name="Rectangle 3150" width="2.205" height="2.205" transform="translate(0)" fill="rgba(252,79,25,0.99)"/>
        </g>
      </g>
      <g id="Group_162510" data-name="Group 162510" transform="translate(33.571 29.241)">
        <g id="Group_162509" data-name="Group 162509" transform="translate(0 0)">
          <rect id="Rectangle_3151" data-name="Rectangle 3151" width="2.205" height="2.205" fill="rgba(252,79,25,0.99)"/>
        </g>
      </g>
      <g id="Group_162512" data-name="Group 162512" transform="translate(57.872 22.59)">
        <g id="Group_162511" data-name="Group 162511">
          <path id="Path_74266" data-name="Path 74266" d="M430.417,166.918l-2.161.435c.136.673.246,1.362.331,2.047l2.185-.26C430.683,168.4,430.564,167.65,430.417,166.918Z" transform="translate(-428.256 -166.918)" fill="rgba(252,79,25,0.99)"/>
        </g>
      </g>
      <g id="Group_162514" data-name="Group 162514" transform="translate(4.607 22.642)">
        <g id="Group_162513" data-name="Group 162513">
          <path id="Path_74267" data-name="Path 74267" d="M33.793,167.3c-.149.736-.266,1.482-.353,2.218l2.189.258c.079-.679.19-1.369.324-2.05Z" transform="translate(-33.44 -167.302)" fill="rgba(252,79,25,0.99)"/>
        </g>
      </g>
      <g id="Group_162516" data-name="Group 162516" transform="translate(54.995 14.343)">
        <g id="Group_162515" data-name="Group 162515">
          <path id="Path_74268" data-name="Path 74268" d="M409.3,105.99l-1.92,1.082c.338.6.661,1.219.948,1.846l2-.93C410.007,107.31,409.661,106.638,409.3,105.99Z" transform="translate(-407.376 -105.99)" fill="rgba(252,79,25,0.99)"/>
        </g>
      </g>
      <g id="Group_162518" data-name="Group 162518" transform="translate(52.681 10.682)">
        <g id="Group_162517" data-name="Group 162517">
          <path id="Path_74269" data-name="Path 74269" d="M392.306,78.934l-1.73,1.369c.426.537.839,1.1,1.225,1.676l1.827-1.231C393.21,80.126,392.765,79.516,392.306,78.934Z" transform="translate(-390.576 -78.934)" fill="rgba(252,79,25,0.99)"/>
        </g>
      </g>
      <g id="Group_162520" data-name="Group 162520" transform="translate(9.241 10.718)">
        <g id="Group_162519" data-name="Group 162519">
          <path id="Path_74270" data-name="Path 74270" d="M68.4,79.2c-.464.584-.909,1.2-1.325,1.815l1.832,1.227c.382-.572.793-1.136,1.221-1.677Z" transform="translate(-67.08 -79.198)" fill="rgba(252,79,25,0.99)"/>
        </g>
      </g>
      <g id="Group_162522" data-name="Group 162522" transform="translate(50.077 7.585)">
        <g id="Group_162521" data-name="Group 162521">
          <path id="Path_74271" data-name="Path 74271" d="M371.606,55.046l-1.494,1.62c.51.472,1.005.964,1.469,1.465l1.617-1.5C372.7,56.091,372.16,55.556,371.606,55.046Z" transform="translate(-370.112 -55.046)" fill="rgba(252,79,25,0.99)"/>
        </g>
      </g>
      <g id="Group_162524" data-name="Group 162524" transform="translate(7.04 14.379)">
        <g id="Group_162523" data-name="Group 162523">
          <path id="Path_74272" data-name="Path 74272" d="M52.128,106.254c-.364.647-.709,1.321-1.024,2l2,.926c.292-.63.611-1.253.944-1.847Z" transform="translate(-51.104 -106.254)" fill="rgba(252,79,25,0.99)"/>
        </g>
      </g>
      <g id="Group_162526" data-name="Group 162526" transform="translate(5.483 18.39)">
        <g id="Group_162525" data-name="Group 162525">
          <path id="Path_74273" data-name="Path 74273" d="M40.5,135.894c-.261.705-.495,1.425-.7,2.139l2.12.6c.186-.661.4-1.322.644-1.975Z" transform="translate(-39.8 -135.894)" fill="rgba(252,79,25,0.99)"/>
        </g>
      </g>
      <g id="Group_162528" data-name="Group 162528" transform="translate(11.81 7.611)">
        <g id="Group_162527" data-name="Group 162527">
          <path id="Path_74274" data-name="Path 74274" d="M88.877,55.238c-.551.506-1.082,1.04-1.589,1.589l1.619,1.5c.463-.5.961-1,1.466-1.466Z" transform="translate(-87.288 -55.238)" fill="rgba(252,79,25,0.99)"/>
        </g>
      </g>
      <g id="Group_162530" data-name="Group 162530" transform="translate(56.741 18.346)">
        <g id="Group_162529" data-name="Group 162529">
          <path id="Path_74275" data-name="Path 74275" d="M422.114,135.566l-2.066.766c.241.649.458,1.313.646,1.973l2.12-.6C422.61,136.987,422.373,136.269,422.114,135.566Z" transform="translate(-420.048 -135.566)" fill="rgba(252,79,25,0.99)"/>
        </g>
      </g>
      <g id="Group_162532" data-name="Group 162532" transform="translate(22.721 1.076)">
        <g id="Group_162531" data-name="Group 162531">
          <path id="Path_74276" data-name="Path 74276" d="M170.048,7.8c-.723.2-1.443.441-2.136.7l.764,2.066c.64-.236,1.3-.452,1.973-.641Z" transform="translate(-167.912 -7.798)" fill="rgba(252,79,25,0.99)"/>
        </g>
      </g>
      <g id="Group_162534" data-name="Group 162534" transform="translate(26.971 0.201)">
        <g id="Group_162533" data-name="Group 162533">
          <path id="Path_74277" data-name="Path 74277" d="M201.524,1.446c-.736.087-1.483.2-2.22.349l.427,2.163c.681-.134,1.371-.245,2.051-.324Z" transform="translate(-199.304 -1.446)" fill="rgba(252,79,25,0.99)"/>
        </g>
      </g>
      <g id="Group_162536" data-name="Group 162536" transform="translate(31.354 0.002)">
        <g id="Group_162535" data-name="Group 162535" transform="translate(0 0)">
          <path id="Path_74278" data-name="Path 74278" d="M231.68.023l.084,2.2c.688-.024,1.389-.026,2.076,0l.088-2.2C233.182-.006,232.426,0,231.68.023Z" transform="translate(-231.68 -0.002)" fill="rgba(252,79,25,0.99)"/>
        </g>
      </g>
      <g id="Group_162538" data-name="Group 162538" transform="translate(18.715 2.631)">
        <g id="Group_162537" data-name="Group 162537">
          <path id="Path_74279" data-name="Path 74279" d="M140.313,19.086c-.676.312-1.35.661-2,1.023l1.08,1.922c.6-.338,1.222-.661,1.847-.944Z" transform="translate(-138.312 -19.086)" fill="rgba(252,79,25,0.99)"/>
        </g>
      </g>
      <g id="Group_162540" data-name="Group 162540" transform="translate(35.509 0.194)">
        <g id="Group_162539" data-name="Group 162539">
          <path id="Path_74280" data-name="Path 74280" d="M262.652,1.4,262.4,3.587c.678.078,1.368.186,2.051.32l.422-2.163Q263.764,1.526,262.652,1.4Z" transform="translate(-262.4 -1.398)" fill="rgba(252,79,25,0.99)"/>
        </g>
      </g>
      <g id="Group_162542" data-name="Group 162542" transform="translate(46.876 4.804)">
        <g id="Group_162541" data-name="Group 162541">
          <path id="Path_74281" data-name="Path 74281" d="M347.67,34.862,346.448,36.7c.569.379,1.133.789,1.68,1.219l1.362-1.732C348.9,35.717,348.286,35.272,347.67,34.862Z" transform="translate(-346.448 -34.862)" fill="rgba(252,79,25,0.99)"/>
        </g>
      </g>
      <g id="Group_162544" data-name="Group 162544" transform="translate(39.502 1.062)">
        <g id="Group_162543" data-name="Group 162543">
          <path id="Path_74282" data-name="Path 74282" d="M292.52,7.694l-.592,2.123c.661.185,1.323.4,1.973.637l.759-2.069C293.959,8.126,293.24,7.895,292.52,7.694Z" transform="translate(-291.928 -7.694)" fill="rgba(252,79,25,0.99)"/>
        </g>
      </g>
      <g id="Group_162546" data-name="Group 162546" transform="translate(15.05 4.831)">
        <g id="Group_162545" data-name="Group 162545">
          <path id="Path_74283" data-name="Path 74283" d="M113.047,35.054c-.624.42-1.235.864-1.815,1.322l1.364,1.73c.536-.423,1.1-.834,1.68-1.223Z" transform="translate(-111.232 -35.054)" fill="rgba(252,79,25,0.99)"/>
        </g>
      </g>
      <g id="Group_162548" data-name="Group 162548" transform="translate(43.32 2.611)">
        <g id="Group_162547" data-name="Group 162547">
          <path id="Path_74284" data-name="Path 74284" d="M321.081,18.942l-.921,2c.623.288,1.246.605,1.852.941l1.075-1.924C322.431,19.6,321.758,19.253,321.081,18.942Z" transform="translate(-320.16 -18.942)" fill="rgba(252,79,25,0.99)"/>
        </g>
      </g>
      <g id="Group_162550" data-name="Group 162550" transform="translate(19.448 12.967)">
        <g id="Group_162549" data-name="Group 162549">
          <path id="Path_74285" data-name="Path 74285" d="M148.408,96a4.408,4.408,0,1,0,4.408,4.408A4.408,4.408,0,0,0,148.408,96Zm0,6.612a2.2,2.2,0,1,1,2.2-2.2A2.2,2.2,0,0,1,148.408,102.61Z" transform="translate(-144 -95.998)" fill="rgba(252,79,25,0.99)"/>
        </g>
      </g>
    </g>
  </g>
</svg>
