<svg xmlns="http://www.w3.org/2000/svg" width="75.5" height="75.5" viewBox="0 0 75.5 75.5">
  <g id="_8" data-name="8" transform="translate(-1.759 -1.75)">
    <path id="Path_73971" data-name="Path 73971" d="M76.646,16.113,62.894,2.362A1.292,1.292,0,0,0,62.007,2H30.752A3.762,3.762,0,0,0,27,5.75v7.563a26.216,26.216,0,0,0,0,52.375V73.25A3.762,3.762,0,0,0,30.752,77H73.258a3.762,3.762,0,0,0,3.751-3.75V17A1.291,1.291,0,0,0,76.646,16.113Zm-13.39-9.85,9.489,9.488H64.507a1.25,1.25,0,0,1-1.25-1.25ZM4.5,39.5A23.78,23.78,0,0,1,27,15.788v23.2L10.624,55.363A23.6,23.6,0,0,1,4.5,39.5Zm7.889,17.625L28.764,40.75h23.2A23.708,23.708,0,0,1,12.387,57.125ZM74.509,73.25a1.25,1.25,0,0,1-1.25,1.25H30.752a1.25,1.25,0,0,1-1.25-1.25V65.688a26.269,26.269,0,0,0,25-26.187,1.25,1.25,0,0,0-1.25-1.25H29.5V5.75a1.25,1.25,0,0,1,1.25-1.25h30v10a3.762,3.762,0,0,0,3.751,3.75h10Z" fill="rgba(252,79,25,0.99)" stroke="#fb501b" stroke-width="0.5"/>
    <path id="Path_73972" data-name="Path 73972" d="M27.275,7A1.275,1.275,0,0,0,26,8.275V33.781a1.275,1.275,0,0,0,1.275,1.275H52.781a1.275,1.275,0,0,0,1.275-1.275A26.81,26.81,0,0,0,27.275,7Zm1.275,25.506V9.589A24.252,24.252,0,0,1,51.468,32.506Z" transform="translate(5.653 1.376)" fill="rgba(252,79,25,0.99)" stroke="#fb501b" stroke-width="0.5"/>
    <path id="Path_73973" data-name="Path 73973" d="M51.478,40A11.478,11.478,0,1,0,62.955,51.478,11.478,11.478,0,0,0,51.478,40Zm0,20.4A8.927,8.927,0,1,1,60.4,51.478,8.927,8.927,0,0,1,51.478,60.4Z" transform="translate(8.952 8.944)" fill="rgba(252,79,25,0.99)" stroke="#fb501b" stroke-width="0.5"/>
    <path id="Path_73974" data-name="Path 73974" d="M48.021,52.043,45.1,49.119l-1.8,1.8,3.826,3.826a1.275,1.275,0,0,0,1.8,0L56.574,47.1l-1.8-1.8Z" transform="translate(9.859 10.662)" fill="rgba(252,79,25,0.99)" stroke="#fb501b" stroke-width="0.5"/>
    <path id="Path_73975" data-name="Path 73975" d="M50,19H60.2v2.551H50Z" transform="translate(11.705 4.235)" fill="rgba(252,79,25,0.99)" stroke="#fb501b" stroke-width="0.5"/>
    <path id="Path_73976" data-name="Path 73976" d="M50,25H60.2v2.551H50Z" transform="translate(11.705 5.73)" fill="rgba(252,79,25,0.99)" stroke="#fb501b" stroke-width="0.5"/>
    <path id="Path_73977" data-name="Path 73977" d="M50,31H60.2v2.551H50Z" transform="translate(11.705 7.225)" fill="rgba(252,79,25,0.99)" stroke="#fb501b" stroke-width="0.5"/>
  </g>
</svg>
