<svg xmlns="http://www.w3.org/2000/svg" xmlns:xlink="http://www.w3.org/1999/xlink" width="138" height="138" viewBox="0 0 138 138">
  <defs>
    <filter id="Ellipse_3227" x="0" y="0" width="138" height="138" filterUnits="userSpaceOnUse">
      <feOffset dy="3" input="SourceAlpha"/>
      <feGaussianBlur stdDeviation="3" result="blur"/>
      <feFlood flood-opacity="0.161"/>
      <feComposite operator="in" in2="blur"/>
      <feComposite in="SourceGraphic"/>
    </filter>
  </defs>
  <g id="_3" data-name="3" transform="translate(-880 -2328)">
    <g transform="matrix(1, 0, 0, 1, 880, 2328)" filter="url(#Ellipse_3227)">
      <circle id="Ellipse_3227-2" data-name="Ellipse 3227" cx="60" cy="60" r="60" transform="translate(9 6)" fill="#fff"/>
    </g>
    <g id="voice-message" transform="translate(917 2362)">
      <path id="Path_74103" data-name="Path 74103" d="M88.707,235.142v19.172a.947.947,0,1,0,1.895,0V235.142a.947.947,0,1,0-1.895,0Z" transform="translate(-77.444 -204.392)" fill="rgba(252,79,25,0.99)" stroke="#fb501b" stroke-width="0.5"/>
      <path id="Path_74104" data-name="Path 74104" d="M130.376,378.294a.951.951,0,0,0-.955.947v9.185a4.886,4.886,0,0,1-4.9,4.864H95.514a4.886,4.886,0,0,1-4.9-4.864v-3.743a.955.955,0,0,0-1.909,0v3.743a6.791,6.791,0,0,0,6.807,6.759h29.009a6.791,6.791,0,0,0,6.807-6.759v-9.185A.951.951,0,0,0,130.376,378.294Z" transform="translate(-77.501 -330.185)" fill="rgba(252,79,25,0.99)" stroke="#fb501b" stroke-width="0.5"/>
      <path id="Path_74105" data-name="Path 74105" d="M89.662,10.457a.951.951,0,0,0,.955-.947V6.758a4.886,4.886,0,0,1,4.9-4.864h29.009a4.886,4.886,0,0,1,4.9,4.864v5.249a.955.955,0,0,0,1.909,0V6.758A6.791,6.791,0,0,0,124.524,0H95.514a6.791,6.791,0,0,0-6.807,6.758V9.509A.951.951,0,0,0,89.662,10.457Z" transform="translate(-77.501)" fill="rgba(252,79,25,0.99)" stroke="#fb501b" stroke-width="0.5"/>
      <path id="Path_74106" data-name="Path 74106" d="M152.786,37.855a.952.952,0,0,0,.956-.947V31.5a3.018,3.018,0,0,0-3.028-3h-3.026a.955.955,0,0,0-.91.657l-.75,2.3a1.387,1.387,0,0,1-1.325.956H127.733a1.387,1.387,0,0,1-1.325-.956l-.75-2.3a.955.955,0,0,0-.91-.657h-3.026a3.018,3.018,0,0,0-3.028,3v2.908a.956.956,0,0,0,1.912,0V31.5a1.112,1.112,0,0,1,1.115-1.106h2.33l.536,1.646a3.292,3.292,0,0,0,3.145,2.27H144.7a3.292,3.292,0,0,0,3.145-2.27l.536-1.646h2.33A1.112,1.112,0,0,1,151.83,31.5v5.407a.952.952,0,0,0,.956.947Z" transform="translate(-103.7 -24.9)" fill="rgba(252,79,25,0.99)" stroke="#fb501b" stroke-width="0.5"/>
      <path id="Path_74107" data-name="Path 74107" d="M120.607,262.781V235.248a.956.956,0,0,0-1.912,0v27.533a3.018,3.018,0,0,0,3.028,3h28.991a3.018,3.018,0,0,0,3.028-3v-7.315a.956.956,0,0,0-1.912,0v7.315a1.112,1.112,0,0,1-1.115,1.106H121.723A1.112,1.112,0,0,1,120.607,262.781Z" transform="translate(-103.7 -204.383)" fill="rgba(252,79,25,0.99)" stroke="#fb501b" stroke-width="0.5"/>
      <path id="Path_74108" data-name="Path 74108" d="M219.205,31.88a.947.947,0,0,0,0-1.895H208.932a.947.947,0,0,0,0,1.895Z" transform="translate(-181.551 -26.197)" fill="rgba(252,79,25,0.99)" stroke="#fb501b" stroke-width="0.5"/>
      <path id="Path_74109" data-name="Path 74109" d="M219.205,435.617a.947.947,0,0,0,0-1.895H208.932a.947.947,0,0,0,0,1.895Z" transform="translate(-181.551 -378.611)" fill="rgba(252,79,25,0.99)" stroke="#fb501b" stroke-width="0.5"/>
      <path id="Path_74110" data-name="Path 74110" d="M21.719,110.221v-9.553a2.9,2.9,0,0,0-2.9-2.9H9.306a.947.947,0,0,0,0,1.895h9.517a1,1,0,0,1,1,1v9.553a1,1,0,0,1-1,1H6.2a.947.947,0,0,0-.573.193l-3.735,2.838V100.669a1,1,0,0,1,1-1H4.947a.947.947,0,0,0,0-1.895H2.9a2.9,2.9,0,0,0-2.9,2.9v15.5a.947.947,0,0,0,1.521.754l5-3.8h12.3A2.9,2.9,0,0,0,21.719,110.221Z" transform="translate(0 -85.334)" fill="rgba(252,79,25,0.99)" stroke="#fb501b" stroke-width="0.5"/>
      <path id="Path_74111" data-name="Path 74111" d="M50.473,134.391a.947.947,0,0,0-.947-.947h-10.1a.947.947,0,1,0,0,1.895h10.1A.947.947,0,0,0,50.473,134.391Z" transform="translate(-33.615 -116.5)" fill="rgba(252,79,25,0.99)" stroke="#fb501b" stroke-width="0.5"/>
      <path id="Path_74112" data-name="Path 74112" d="M39.423,167.444a.947.947,0,1,0,0,1.895h8.84a.947.947,0,1,0,0-1.895Z" transform="translate(-33.615 -146.183)" fill="rgba(252,79,25,0.99)" stroke="#fb501b" stroke-width="0.5"/>
      <path id="Path_74113" data-name="Path 74113" d="M319.638,117.772H296.069a.947.947,0,0,0,0,1.895h23.568a.987.987,0,0,1,.987.985v17.687a.947.947,0,1,0,1.895,0V120.652a2.884,2.884,0,0,0-2.882-2.88Z" transform="translate(-257.52 -102.784)" fill="rgba(252,79,25,0.99)" stroke="#fb501b" stroke-width="0.5"/>
      <path id="Path_74114" data-name="Path 74114" d="M231.652,141.991a.952.952,0,0,0-.947.956v3.2a.992.992,0,0,1-.987.994H216.263a.944.944,0,0,0-.742.361L212.4,151.47l-3.122-3.964a.945.945,0,0,0-.742-.361H195.081a.992.992,0,0,1-.987-.994V120.678a.992.992,0,0,1,.987-.994h6.632a.956.956,0,0,0,0-1.912h-6.632a2.9,2.9,0,0,0-2.882,2.906V146.15a2.9,2.9,0,0,0,2.882,2.906h13l3.58,4.545a.942.942,0,0,0,1.484,0l3.58-4.545h13a2.9,2.9,0,0,0,2.882-2.906v-3.2A.952.952,0,0,0,231.652,141.991Z" transform="translate(-167.599 -102.894)" fill="rgba(252,79,25,0.99)" stroke="#fb501b" stroke-width="0.5"/>
      <path id="Path_74115" data-name="Path 74115" d="M268.073,177.22a3.474,3.474,0,1,0,0,6.948h15.16a3.475,3.475,0,1,0-3.094-1.895h-8.972a3.473,3.473,0,0,0-3.094-5.053Zm-1.579,3.474a1.579,1.579,0,1,1,1.579,1.579A1.581,1.581,0,0,1,266.494,180.694Zm15.16,0a1.579,1.579,0,1,1,1.579,1.579A1.581,1.581,0,0,1,281.654,180.694Z" transform="translate(-230.853 -154.708)" fill="rgba(252,79,25,0.99)" stroke="#fb501b" stroke-width="0.5"/>
      <path id="Path_74116" data-name="Path 74116" d="M257.1,268.693V270.7a.947.947,0,1,0,1.895,0v-2.009a.947.947,0,1,0-1.895,0Z" transform="translate(-224.455 -233.744)" fill="rgba(252,79,25,0.99)" stroke="#fb501b" stroke-width="0.5"/>
      <path id="Path_74117" data-name="Path 74117" d="M292.1,256.643V261.7a.947.947,0,0,0,1.895,0v-5.053a.947.947,0,1,0-1.895,0Z" transform="translate(-255.011 -223.215)" fill="rgba(252,79,25,0.99)" stroke="#fb501b" stroke-width="0.5"/>
      <path id="Path_74118" data-name="Path 74118" d="M432.1,268.693V270.7a.947.947,0,0,0,1.895,0v-2.009a.947.947,0,1,0-1.895,0Z" transform="translate(-377.193 -233.744)" fill="rgba(252,79,25,0.99)" stroke="#fb501b" stroke-width="0.5"/>
      <path id="Path_74119" data-name="Path 74119" d="M327.1,261.643v3.79a.947.947,0,0,0,1.895,0v-3.79a.947.947,0,1,0-1.895,0Z" transform="translate(-285.567 -227.584)" fill="rgba(252,79,25,0.99)" stroke="#fb501b" stroke-width="0.5"/>
      <path id="Path_74120" data-name="Path 74120" d="M397.1,256.643V261.7a.947.947,0,0,0,1.895,0v-5.053a.947.947,0,1,0-1.895,0Z" transform="translate(-346.679 -223.215)" fill="rgba(252,79,25,0.99)" stroke="#fb501b" stroke-width="0.5"/>
      <path id="Path_74121" data-name="Path 74121" d="M362.1,266.643v2.527a.947.947,0,0,0,1.895,0v-2.527a.947.947,0,1,0-1.895,0Z" transform="translate(-316.123 -231.953)" fill="rgba(252,79,25,0.99)" stroke="#fb501b" stroke-width="0.5"/>
    </g>
  </g>
</svg>
