<svg xmlns="http://www.w3.org/2000/svg" width="120" height="120" viewBox="0 0 120 120">
  <g id="_1" data-name="1" transform="translate(-293 -2334)">
    <circle id="Ellipse_3227" data-name="Ellipse 3227" cx="60" cy="60" r="60" transform="translate(293 2334)" fill="#fff"/>
    <g id="team_1_" data-name="team (1)" transform="translate(320.993 2361.999)">
      <path id="Path_74094" data-name="Path 74094" d="M59.112,53.116a5.213,5.213,0,0,0,1.7-3.84v-2.1A5.242,5.242,0,0,0,50.436,46.13H46.992a3.127,3.127,0,0,0-5.9,0H37.643a5.258,5.258,0,0,0-4.088-4.087V39.691A4.188,4.188,0,0,0,36.7,35.647h1.048A1.047,1.047,0,0,0,38.8,34.6V31.453h2.1v-2.1H38.8v-.011a7.206,7.206,0,0,1,2.608-5.4A13.622,13.622,0,0,0,31.945.014,13.8,13.8,0,0,0,18.881,13.383a13.593,13.593,0,0,0,4.64,10.482,7.646,7.646,0,0,1,2.686,5.492H24.12v2.1h2.1V34.6a1.047,1.047,0,0,0,1.048,1.048h1.048a4.187,4.187,0,0,0,3.145,4.044v2.352a5.259,5.259,0,0,0-4.088,4.087H23.927a3.127,3.127,0,0,0-5.9,0H14.579A5.242,5.242,0,0,0,4.2,47.179v2.1a5.213,5.213,0,0,0,1.7,3.84,9.445,9.445,0,0,0-5.895,8.74v2.1A1.047,1.047,0,0,0,1.056,65H17.83a1.047,1.047,0,0,0,1.048-1.048v-2.1a9.446,9.446,0,0,0-5.9-8.74,5.213,5.213,0,0,0,1.7-3.84V48.227h3.338a3.127,3.127,0,0,0,5.9,0h3.338v1.048a5.213,5.213,0,0,0,1.7,3.84,9.445,9.445,0,0,0-5.895,8.74v2.1A1.047,1.047,0,0,0,24.12,65H40.895a1.047,1.047,0,0,0,1.048-1.048v-2.1a9.446,9.446,0,0,0-5.9-8.74,5.213,5.213,0,0,0,1.7-3.84V48.227h3.338a3.127,3.127,0,0,0,5.9,0H50.33v1.048a5.213,5.213,0,0,0,1.7,3.84,9.445,9.445,0,0,0-5.895,8.74v2.1A1.047,1.047,0,0,0,47.185,65H63.959a1.047,1.047,0,0,0,1.048-1.048v-2.1a9.446,9.446,0,0,0-5.9-8.74Zm-42.331,8.74V62.9h-2.1v-2.1h-2.1v2.1H6.3v-2.1H4.2v2.1H2.1V61.856a7.339,7.339,0,0,1,14.677,0ZM6.3,49.275v-2.1a3.145,3.145,0,0,1,6.29,0v2.1a3.145,3.145,0,0,1-6.29,0Zm14.677-1.048a1.048,1.048,0,1,1,1.048-1.048A1.048,1.048,0,0,1,20.975,48.227ZM24.9,22.287a11.5,11.5,0,0,1-3.925-8.868A11.677,11.677,0,0,1,32.029,2.108a11.522,11.522,0,0,1,8.007,20.243A9.3,9.3,0,0,0,36.7,29.345v.011H28.3a9.737,9.737,0,0,0-3.4-7.069Zm11.8,9.166v2.1H28.314v-2.1Zm-6.29,4.193H34.6a2.1,2.1,0,0,1-4.194,0Zm9.435,26.209V62.9h-2.1v-2.1h-2.1v2.1h-6.29v-2.1h-2.1v2.1h-2.1V61.856a7.339,7.339,0,0,1,14.677,0ZM29.362,49.275v-2.1a3.145,3.145,0,0,1,6.29,0v2.1a3.145,3.145,0,0,1-6.29,0ZM44.04,48.227a1.048,1.048,0,1,1,1.048-1.048A1.048,1.048,0,0,1,44.04,48.227Zm8.387,1.048v-2.1a3.145,3.145,0,0,1,6.29,0v2.1a3.145,3.145,0,0,1-6.29,0ZM62.911,62.9h-2.1v-2.1h-2.1v2.1h-6.29v-2.1h-2.1v2.1h-2.1V61.856a7.339,7.339,0,0,1,14.677,0Zm0,0" transform="translate(0)" fill="rgba(252,79,25,0.99)" stroke="rgba(252,79,25,0.99)" stroke-width="0.5"/>
      <path id="Path_74095" data-name="Path 74095" d="M232.008,192.012h4.174V194.1h-4.174Zm0,0" transform="translate(-201.587 -166.845)" fill="rgba(252,79,25,0.99)" stroke="rgba(252,79,25,0.99)" stroke-width="0.5"/>
      <path id="Path_74096" data-name="Path 74096" d="M198.268,60.427v2.192h2.087V60.427a5.173,5.173,0,0,0,1.829-.764l1.607,1.607,1.475-1.475-1.606-1.607a5.188,5.188,0,0,0,.764-1.829h2.192V54.272h-2.192a5.187,5.187,0,0,0-.764-1.829l1.606-1.607-1.475-1.475-1.607,1.607a5.173,5.173,0,0,0-1.829-.764V48.012h-2.087V50.2a5.175,5.175,0,0,0-1.83.764l-1.607-1.607-1.475,1.475,1.607,1.607a5.179,5.179,0,0,0-.764,1.829h-2.192v2.087H194.2a5.179,5.179,0,0,0,.764,1.829l-1.607,1.607,1.475,1.475,1.607-1.607A5.175,5.175,0,0,0,198.268,60.427Zm1.043-8.242a3.13,3.13,0,1,1-3.13,3.13,3.134,3.134,0,0,1,3.13-3.13Zm0,0" transform="translate(-166.804 -41.749)" fill="rgba(252,79,25,0.99)" stroke="rgba(252,79,25,0.99)" stroke-width="0.5"/>
    </g>
  </g>
</svg>
