<svg xmlns="http://www.w3.org/2000/svg" width="75.5" height="75.5" viewBox="0 0 75.5 75.5">
  <g id="_3" data-name="3" transform="translate(-1.759 -1.75)">
    <path id="Path_73971" data-name="Path 73971" d="M76.646,16.113,62.894,2.363A1.292,1.292,0,0,0,62.007,2H30.752A3.762,3.762,0,0,0,27,5.75v7.563a26.216,26.216,0,0,0,0,52.375V73.25A3.762,3.762,0,0,0,30.752,77H73.258a3.762,3.762,0,0,0,3.751-3.75V17a1.291,1.291,0,0,0-.363-.887ZM63.257,6.263l9.489,9.488H64.507a1.25,1.25,0,0,1-1.25-1.25ZM4.5,39.5A23.78,23.78,0,0,1,27,15.788v23.2L10.624,55.363A23.6,23.6,0,0,1,4.5,39.5Zm7.889,17.625L28.764,40.75h23.2A23.708,23.708,0,0,1,12.387,57.125ZM74.509,73.25a1.25,1.25,0,0,1-1.25,1.25H30.752a1.25,1.25,0,0,1-1.25-1.25V65.688a26.269,26.269,0,0,0,25-26.188,1.25,1.25,0,0,0-1.25-1.25H29.5V5.75a1.25,1.25,0,0,1,1.25-1.25h30v10a3.762,3.762,0,0,0,3.751,3.75h10Z" fill="rgba(252,79,25,0.99)" stroke="#fc511c" stroke-width="0.5"/>
    <path id="Path_73972" data-name="Path 73972" d="M27.25,7A1.25,1.25,0,0,0,26,8.25V33.256a1.25,1.25,0,0,0,1.25,1.25H52.256a1.25,1.25,0,0,0,1.25-1.25A26.285,26.285,0,0,0,27.25,7ZM28.5,32.006V9.538A23.777,23.777,0,0,1,50.968,32.006Z" transform="translate(6.001 1.251)" fill="rgba(252,79,25,0.99)" stroke="#fc511c" stroke-width="0.5"/>
    <path id="Path_73973" data-name="Path 73973" d="M51.253,40A11.253,11.253,0,1,0,62.505,51.253,11.253,11.253,0,0,0,51.253,40Zm0,20A8.752,8.752,0,1,1,60,51.253,8.752,8.752,0,0,1,51.253,60Z" transform="translate(9.503 9.494)" fill="rgba(252,79,25,0.99)" stroke="#fc511c" stroke-width="0.5"/>
    <path id="Path_73974" data-name="Path 73974" d="M47.928,51.911l-2.867-2.867-1.768,1.768,3.751,3.751a1.25,1.25,0,0,0,1.768,0l7.5-7.5-1.768-1.768Z" transform="translate(10.327 10.821)" fill="rgba(252,79,25,0.99)" stroke="#fc511c" stroke-width="0.5"/>
    <path id="Path_73975" data-name="Path 73975" d="M50,19H60v2.5H50Z" transform="translate(12.006 4.25)" fill="rgba(252,79,25,0.99)" stroke="#fc511c" stroke-width="0.5"/>
    <path id="Path_73976" data-name="Path 73976" d="M50,25H60v2.5H50Z" transform="translate(12.006 5.75)" fill="rgba(252,79,25,0.99)" stroke="#fc511c" stroke-width="0.5"/>
    <path id="Path_73977" data-name="Path 73977" d="M50,31H60v2.5H50Z" transform="translate(12.006 7.25)" fill="rgba(252,79,25,0.99)" stroke="#fc511c" stroke-width="0.5"/>
  </g>
</svg>
