<svg xmlns="http://www.w3.org/2000/svg" xmlns:xlink="http://www.w3.org/1999/xlink" width="138" height="138" viewBox="0 0 138 138">
  <defs>
    <filter id="Ellipse_3227" x="0" y="0" width="138" height="138" filterUnits="userSpaceOnUse">
      <feOffset dy="3" input="SourceAlpha"/>
      <feGaussianBlur stdDeviation="3" result="blur"/>
      <feFlood flood-opacity="0.161"/>
      <feComposite operator="in" in2="blur"/>
      <feComposite in="SourceGraphic"/>
    </filter>
  </defs>
  <g id="_5" data-name="5" transform="translate(-288 -4248)">
    <g transform="matrix(1, 0, 0, 1, 288, 4248)" filter="url(#Ellipse_3227)">
      <circle id="Ellipse_3227-2" data-name="Ellipse 3227" cx="60" cy="60" r="60" transform="translate(9 6)" fill="#fff"/>
    </g>
    <g id="innovation_1_" data-name="innovation (1)" transform="translate(318.519 4278.077)">
      <g id="Group_162458" data-name="Group 162458" transform="translate(14.482 3.923)">
        <g id="Group_162457" data-name="Group 162457" transform="translate(0 0)">
          <path id="Path_74192" data-name="Path 74192" d="M111.713,32.258a3.263,3.263,0,0,0-6.142.012H98.838V27.936h4.355a1.086,1.086,0,0,0,1.089-1.083h0V22.32a3.271,3.271,0,1,0-2.177,0v3.45H98.838V23.6A1.086,1.086,0,0,0,97.75,22.52H95.572V16.9a3.271,3.271,0,1,0-2.177,0V22.52H89.04V5.224a1.086,1.086,0,0,0-1.088-1.083h0C74.521,4.141,64,13.817,64,26.168c0,5.867,2.341,13.636,6.109,20.272.677,1.191,1.56,2.444,2.494,3.771,1.976,2.8,4.175,5.955,4.414,8.7a3.074,3.074,0,0,0-1.308,2.571,3.208,3.208,0,0,0,.721,2.011,3.332,3.332,0,0,0-1,2.4,3.262,3.262,0,0,0,3.266,3.25H97.2a3.279,3.279,0,0,0,3.266-3.291v-.035a3.227,3.227,0,0,0-1-2.333,3.335,3.335,0,0,0,.723-2.076,3.115,3.115,0,0,0-3.128-3.1l-.138,0H89.04V37.686h2.177v3.25a1.086,1.086,0,0,0,1.088,1.083h3.267V43.3a3.271,3.271,0,1,0,2.177,0V40.936a1.086,1.086,0,0,0-1.088-1.083H93.395V37.686h4.355A1.086,1.086,0,0,0,98.838,36.6h0V34.436h6.733a3.259,3.259,0,0,0,6.142-2.178Zm-8.52-14.072a1.083,1.083,0,1,1-1.089,1.083A1.086,1.086,0,0,1,103.193,18.186ZM74.386,48.967c-.9-1.282-1.757-2.492-2.381-3.593-3.54-6.234-5.827-13.773-5.827-19.206,0-10.8,9-19.337,20.685-19.837V13.9c-.289.022-.584.048-.9.086a1.086,1.086,0,0,0-.933.852l-.332,1.57q-.41.1-.818.219l-1.085-1.2a1.091,1.091,0,0,0-1.238-.274,16.4,16.4,0,0,0-3.425,1.99,1.08,1.08,0,0,0-.379,1.2l.5,1.515c-.206.193-.406.392-.6.6l-1.521-.5a1.1,1.1,0,0,0-1.209.377,16.241,16.241,0,0,0-2,3.41,1.079,1.079,0,0,0,.275,1.231l1.21,1.079q-.122.4-.218.805l-1.693.336a1.084,1.084,0,0,0-.875,1.062V31.95a1.084,1.084,0,0,0,.876,1.062l1.693.336q.1.4.218.805L73.2,35.233a1.081,1.081,0,0,0-.275,1.231,16.251,16.251,0,0,0,2,3.41,1.1,1.1,0,0,0,1.209.377l1.521-.5c.195.2.394.4.6.6l-.5,1.513a1.081,1.081,0,0,0,.378,1.2,16.364,16.364,0,0,0,3.426,1.992,1.094,1.094,0,0,0,1.238-.274l1.085-1.2q.407.122.818.219l.331,1.569a1.086,1.086,0,0,0,.933.853c.316.038.611.065.9.086v12H79.148C78.7,55.115,76.43,51.867,74.386,48.967ZM78.153,30.1a9.779,9.779,0,0,0,8.709,9.686v3.725l-.18-.853a1.086,1.086,0,0,0-.872-.844,11.842,11.842,0,0,1-1.9-.509,1.112,1.112,0,0,0-.368-.064,1.09,1.09,0,0,0-.811.361L81.71,42.742a14.132,14.132,0,0,1-1.639-.957l.473-1.431a1.081,1.081,0,0,0-.331-1.166A11.888,11.888,0,0,1,78.82,37.8a1.1,1.1,0,0,0-1.17-.328l-1.438.471a14.035,14.035,0,0,1-.963-1.631l1.143-1.019a1.082,1.082,0,0,0,.3-1.173,11.758,11.758,0,0,1-.511-1.887,1.086,1.086,0,0,0-.859-.87l-1.522-.3V29.144l1.522-.3a1.086,1.086,0,0,0,.859-.87,11.784,11.784,0,0,1,.511-1.889,1.08,1.08,0,0,0-.3-1.173l-1.142-1.018a14.215,14.215,0,0,1,.962-1.631l1.438.471a1.1,1.1,0,0,0,1.17-.328,12.15,12.15,0,0,1,1.394-1.389,1.079,1.079,0,0,0,.33-1.163l-.472-1.431a14.214,14.214,0,0,1,1.638-.957L82.734,18.6a1.1,1.1,0,0,0,1.179.3,11.814,11.814,0,0,1,1.9-.509,1.085,1.085,0,0,0,.872-.843l.18-.853v3.724A9.779,9.779,0,0,0,78.153,30.1Zm8.709-7.5V37.6a7.568,7.568,0,0,1,0-14.994ZM98.294,65.891A1.087,1.087,0,0,1,97.2,66.974H78.7a1.106,1.106,0,0,1-1.09-1.122q0-.019,0-.038A1.087,1.087,0,0,1,78.7,64.731H97.2a1.106,1.106,0,0,1,1.09,1.122Q98.295,65.872,98.294,65.891Zm-1.367-5.417a.993.993,0,0,1,1.089,1.007,1.087,1.087,0,0,1-1.089,1.083H78.976a1.106,1.106,0,0,1-1.09-1.122q0-.019,0-.038a.981.981,0,0,1,1.025-.936l.064,0H96.926Zm-.266-15.2a1.083,1.083,0,1,1-1.089,1.083A1.086,1.086,0,0,1,96.661,45.269Zm-2.177-32.5a1.083,1.083,0,1,1-1.089,1.083A1.086,1.086,0,0,1,94.483,12.769Zm2.177,22.75H89.04V24.686h7.621Zm11.976-1.083a1.083,1.083,0,1,1,1.089-1.083A1.086,1.086,0,0,1,108.636,34.436Z" transform="translate(-64 -4.141)" fill="rgba(252,79,25,0.99)" stroke="#fc511c" stroke-width="0.3"/>
        </g>
      </g>
      <g id="Group_162460" data-name="Group 162460" transform="translate(47.915 53.431)">
        <g id="Group_162459" data-name="Group 162459">
          <path id="Path_74193" data-name="Path 74193" d="M310.7,369.828a18.451,18.451,0,0,0-1.017,2.126l2.024.8a16.291,16.291,0,0,1,.9-1.875Z" transform="translate(-309.68 -369.828)" fill="rgba(252,79,25,0.99)" stroke="#fc511c" stroke-width="0.3"/>
        </g>
      </g>
      <g id="Group_162462" data-name="Group 162462" transform="translate(50.118 49.616)">
        <g id="Group_162461" data-name="Group 162461">
          <path id="Path_74194" data-name="Path 74194" d="M327.13,341.648c-.428.615-.855,1.24-1.263,1.871l1.828,1.182c.4-.61.808-1.214,1.223-1.81Z" transform="translate(-325.867 -341.648)" fill="rgba(252,79,25,0.99)" stroke="#fc511c" stroke-width="0.3"/>
        </g>
      </g>
      <g id="Group_162464" data-name="Group 162464" transform="translate(52.652 46.012)">
        <g id="Group_162463" data-name="Group 162463">
          <path id="Path_74195" data-name="Path 74195" d="M345.695,315.031c-.367.583-.777,1.185-1.206,1.8l1.788,1.242c.449-.646.877-1.277,1.26-1.887Z" transform="translate(-344.489 -315.031)" fill="rgba(252,79,25,0.99)" stroke="#fc511c" stroke-width="0.3"/>
        </g>
      </g>
      <g id="Group_162466" data-name="Group 162466" transform="translate(54.922 42.238)">
        <g id="Group_162465" data-name="Group 162465">
          <path id="Path_74196" data-name="Path 74196" d="M362.147,287.148q-.468.979-.979,1.936l1.92,1.027q.534-1,1.023-2.025Z" transform="translate(-361.168 -287.148)" fill="rgba(252,79,25,0.99)" stroke="#fc511c" stroke-width="0.3"/>
        </g>
      </g>
      <g id="Group_162468" data-name="Group 162468" transform="translate(56.794 38.263)">
        <g id="Group_162467" data-name="Group 162467">
          <path id="Path_74197" data-name="Path 74197" d="M375.729,257.789c-.253.673-.523,1.347-.807,2.016l2,.853q.445-1.048.842-2.1Z" transform="translate(-374.921 -257.789)" fill="rgba(252,79,25,0.99)" stroke="#fc511c" stroke-width="0.3"/>
        </g>
      </g>
      <g id="Group_162470" data-name="Group 162470" transform="translate(60.122 25.73)">
        <g id="Group_162469" data-name="Group 162469">
          <path id="Path_74198" data-name="Path 74198" d="M401.64,165.211l-2.177.017v.2c0,.607-.028,1.252-.085,1.916l2.17.183c.061-.724.092-1.43.092-2.1Z" transform="translate(-399.379 -165.211)" fill="rgba(252,79,25,0.99)" stroke="#fc511c" stroke-width="0.3"/>
        </g>
      </g>
      <g id="Group_162472" data-name="Group 162472" transform="translate(59.709 21.119)">
        <g id="Group_162471" data-name="Group 162471" transform="translate(0 0)">
          <path id="Path_74199" data-name="Path 74199" d="M398.46,131.156l-2.12.5a18.829,18.829,0,0,1,.363,2.064l2.163-.257A21.119,21.119,0,0,0,398.46,131.156Z" transform="translate(-396.34 -131.156)" fill="rgba(252,79,25,0.99)" stroke="#fc511c" stroke-width="0.3"/>
        </g>
      </g>
      <g id="Group_162474" data-name="Group 162474" transform="translate(58.306 16.742)">
        <g id="Group_162473" data-name="Group 162473">
          <path id="Path_74200" data-name="Path 74200" d="M387.992,98.828l-1.957.953a19.032,19.032,0,0,1,.812,1.933l2.051-.729A20.962,20.962,0,0,0,387.992,98.828Z" transform="translate(-386.035 -98.828)" fill="rgba(252,79,25,0.99)" stroke="#fc511c" stroke-width="0.3"/>
        </g>
      </g>
      <g id="Group_162476" data-name="Group 162476" transform="translate(56.068 12.866)">
        <g id="Group_162475" data-name="Group 162475">
          <path id="Path_74201" data-name="Path 74201" d="M371.291,69.859l-1.705,1.354a19.821,19.821,0,0,1,1.217,1.712l1.84-1.163A21.944,21.944,0,0,0,371.291,69.859Z" transform="translate(-369.586 -69.859)" fill="rgba(252,79,25,0.99)" stroke="#fc511c" stroke-width="0.3"/>
        </g>
      </g>
      <g id="Group_162478" data-name="Group 162478" transform="translate(53.123 9.544)">
        <g id="Group_162477" data-name="Group 162477">
          <path id="Path_74202" data-name="Path 74202" d="M349.333,45.445l-1.387,1.678a20.561,20.561,0,0,1,1.552,1.424l1.552-1.527A22.846,22.846,0,0,0,349.333,45.445Z" transform="translate(-347.946 -45.445)" fill="rgba(252,79,25,0.99)" stroke="#fc511c" stroke-width="0.3"/>
        </g>
      </g>
      <g id="Group_162480" data-name="Group 162480" transform="translate(49.623 6.949)">
        <g id="Group_162479" data-name="Group 162479" transform="translate(0 0)">
          <path id="Path_74203" data-name="Path 74203" d="M323.262,26.375l-1.035,1.916c.622.336,1.231.7,1.809,1.093l1.215-1.807C324.615,27.149,323.946,26.745,323.262,26.375Z" transform="translate(-322.227 -26.375)" fill="rgba(252,79,25,0.99)" stroke="#fc511c" stroke-width="0.3"/>
        </g>
      </g>
      <g id="Group_162482" data-name="Group 162482" transform="translate(45.732 5.142)">
        <g id="Group_162481" data-name="Group 162481">
          <path id="Path_74204" data-name="Path 74204" d="M294.292,13.1l-.659,2.075c.678.215,1.345.461,1.984.733l.852-2C295.767,13.608,295.035,13.338,294.292,13.1Z" transform="translate(-293.633 -13.102)" fill="rgba(252,79,25,0.99)" stroke="#fc511c" stroke-width="0.3"/>
        </g>
      </g>
      <g id="Group_162484" data-name="Group 162484" transform="translate(41.595 4.143)">
        <g id="Group_162483" data-name="Group 162483">
          <path id="Path_74205" data-name="Path 74205" d="M263.517,5.758l-.279,2.16c.7.09,1.4.213,2.089.365l.471-2.126C265.051,5.992,264.283,5.858,263.517,5.758Z" transform="translate(-263.238 -5.758)" fill="rgba(252,79,25,0.99)" stroke="#fc511c" stroke-width="0.3"/>
        </g>
      </g>
    </g>
  </g>
</svg>
