<svg xmlns="http://www.w3.org/2000/svg" width="76.5" height="75.5" viewBox="0 0 76.5 75.5">
  <g id="_2" data-name="2" transform="translate(-598.75 -2078.75)">
    <g id="conversation" transform="translate(599 2079)">
      <path id="Path_73918" data-name="Path 73918" d="M4.065,54.456a4.987,4.987,0,0,0,1.14,1.81,4.8,4.8,0,0,0,6.909,0,5.023,5.023,0,0,0,1.439-3.521V49.969a5.514,5.514,0,0,1-2.642-.438,9.431,9.431,0,0,1-.227.918,5.984,5.984,0,0,1-1.86,2.972A5.357,5.357,0,0,1,4.99,54.554a8.194,8.194,0,0,1-.926-.1ZM32.9,47.022h9.787V43.887H35.155a2.229,2.229,0,0,0-1.59.678,2.3,2.3,0,0,0-.661,1.617Zm9.787,2.269H32.9v3.453a5.023,5.023,0,0,0,1.439,3.521,4.8,4.8,0,0,0,6.909,0,5.023,5.023,0,0,0,1.439-3.521V49.291ZM73.2,56.866a5.322,5.322,0,0,1,1.557,1.278A5.377,5.377,0,0,1,76,61.593v7.652a1.113,1.113,0,1,1-2.226,0V61.593a3.1,3.1,0,0,0-.715-1.986,3.051,3.051,0,0,0-1.54-1,6.976,6.976,0,0,1-8.474-.09,2.1,2.1,0,0,0-.656.189,2.045,2.045,0,0,0-.757.63l-5.979,8.072a1.111,1.111,0,0,1-.888.455H47.1a2.025,2.025,0,0,0-1.452.609,2.12,2.12,0,0,0,0,2.96,2.029,2.029,0,0,0,1.452.613h9.152a1.968,1.968,0,0,0,1-.219,6.68,6.68,0,0,0,1.7-1.934l3.96-5.34a1.1,1.1,0,0,1,1.557-.223,1.149,1.149,0,0,1,.215,1.587l-3.766,5.087V80.9H73.774V74.383a1.113,1.113,0,1,1,2.226,0v7.652a1.121,1.121,0,0,1-1.111,1.132H1.115A1.124,1.124,0,0,1,0,82.035V74.383a1.124,1.124,0,0,1,1.115-1.132,1.121,1.121,0,0,1,1.111,1.132V80.9H15.093V71.007l-3.77-5.087a1.146,1.146,0,0,1,.219-1.587,1.1,1.1,0,0,1,1.557.223l3.871,5.224q.53.714,1.06,1.437a2.057,2.057,0,0,0,.724.613,1.917,1.917,0,0,0,.93.219H28.9a2.043,2.043,0,0,0,1.452-.613,2.131,2.131,0,0,0,0-2.96,2.039,2.039,0,0,0-1.452-.609H21.236a1.1,1.1,0,0,1-.888-.455L14.37,59.341a2.05,2.05,0,0,0-1.414-.819,6.985,6.985,0,0,1-8.474.094,3.044,3.044,0,0,0-1.523.969,3.107,3.107,0,0,0-.732,2.007v7.652a1.121,1.121,0,0,1-1.111,1.132A1.124,1.124,0,0,1,0,69.245V61.593a5.368,5.368,0,0,1,2.806-4.727A7.294,7.294,0,0,1,1.54,52.744V46.182a4.592,4.592,0,0,1,1.313-3.225,4.428,4.428,0,0,1,3.16-1.338H11.3a4.437,4.437,0,0,1,3.164,1.338,4.592,4.592,0,0,1,1.313,3.225v6.562a7.31,7.31,0,0,1-1.153,3.95,4.329,4.329,0,0,1,1.519,1.283l5.643,7.617h4.456v-4.6a4.764,4.764,0,0,1,1.776-3.483,11.661,11.661,0,0,1,3.206-1.977,7.326,7.326,0,0,1-.547-2.788V46.182a4.61,4.61,0,0,1,1.313-3.225,4.438,4.438,0,0,1,3.164-1.338h8.651a1.128,1.128,0,0,1,1.115,1.137v9.989a7.383,7.383,0,0,1-.492,2.646,12.062,12.062,0,0,1,3.442,2.016,4.836,4.836,0,0,1,1.885,3.586v4.6h4.456l5.643-7.617A4.281,4.281,0,0,1,61.378,56.7a7.3,7.3,0,0,1-1.157-3.955V46.182a4.61,4.61,0,0,1,1.313-3.225A4.438,4.438,0,0,1,64.7,41.618h5.289a4.437,4.437,0,0,1,3.164,1.338,4.612,4.612,0,0,1,1.313,3.225v6.562A7.328,7.328,0,0,1,73.2,56.866Zm-1.262-2.411a8.094,8.094,0,0,1-.926.1,5.355,5.355,0,0,1-3.829-1.132,5.961,5.961,0,0,1-1.864-2.972,9.417,9.417,0,0,1-.223-.918,5.534,5.534,0,0,1-2.646.438v2.775a5.023,5.023,0,0,0,1.439,3.521,4.806,4.806,0,0,0,6.913,0,5.031,5.031,0,0,0,1.136-1.81ZM62.447,47.7a3.585,3.585,0,0,0,2.764-.836,1.108,1.108,0,0,1,1.885.759,9.2,9.2,0,0,0,.345,2.166,3.769,3.769,0,0,0,1.128,1.874,3.293,3.293,0,0,0,2.335.635,7.871,7.871,0,0,0,1.334-.2V46.181a2.305,2.305,0,0,0-.665-1.617,2.219,2.219,0,0,0-1.586-.678H64.7a2.219,2.219,0,0,0-1.586.678,2.3,2.3,0,0,0-.665,1.617Zm-48.894,0V46.182a2.3,2.3,0,0,0-.661-1.617,2.229,2.229,0,0,0-1.591-.678H6.013a2.227,2.227,0,0,0-1.586.678,2.3,2.3,0,0,0-.661,1.617V52.1a7.782,7.782,0,0,0,1.33.2,3.293,3.293,0,0,0,2.335-.635,3.806,3.806,0,0,0,1.132-1.874A8.983,8.983,0,0,0,8.9,47.619a1.118,1.118,0,0,1,1.161-1.077,1.094,1.094,0,0,1,.715.309,3.588,3.588,0,0,0,2.773.845Zm18.863,9.788A9.626,9.626,0,0,0,29.5,59.2a2.6,2.6,0,0,0-1.027,1.8v4.6H28.9a4.231,4.231,0,0,1,3.025,1.278,4.423,4.423,0,0,1,.728,5.177H43.344a4.435,4.435,0,0,1,.732-5.177A4.224,4.224,0,0,1,47.1,65.594h.429v-4.6a2.683,2.683,0,0,0-1.1-1.866,10.3,10.3,0,0,0-3.147-1.763c-.143.176-.295.347-.45.506a7,7,0,0,1-10.06,0q-.183-.187-.353-.386ZM9.278,16.569a1.135,1.135,0,0,1,0-2.269H29.887a1.135,1.135,0,0,1,0,2.269H9.278Zm0,11.941a1.137,1.137,0,0,1,0-2.273h10.3a1.137,1.137,0,0,1,0,2.273Zm0-5.97a1.135,1.135,0,0,1,0-2.269H29.887a1.135,1.135,0,0,1,0,2.269Zm21.75,12.1a3.146,3.146,0,0,0,.72,1.158,3.082,3.082,0,0,0,2.217.939h6.543a1.135,1.135,0,0,1,0,2.269H33.965a5.268,5.268,0,0,1-3.791-1.613,5.548,5.548,0,0,1-1.456-2.754H13.2L8.155,39.778a1.1,1.1,0,0,1-.791.335A1.124,1.124,0,0,1,6.249,38.98V34.545A6.666,6.666,0,0,1,2.6,32.619,6.91,6.91,0,0,1,.614,27.76V15.047A6.925,6.925,0,0,1,2.6,10.187a6.666,6.666,0,0,1,4.767-2.02H31.8a6.667,6.667,0,0,1,4.767,2.02,6.924,6.924,0,0,1,1.982,4.86v2.1h18.91a5.29,5.29,0,0,1,3.787,1.6,5.5,5.5,0,0,1,1.574,3.86V33.542a5.5,5.5,0,0,1-1.574,3.86,5.338,5.338,0,0,1-2.676,1.484v4.461a1.142,1.142,0,0,1-.324.8,1.1,1.1,0,0,1-1.574,0l-5.045-5.143h-6.08a1.135,1.135,0,0,1,0-2.269h6.543a1.089,1.089,0,0,1,.791.339l3.463,3.53V37.874a1.125,1.125,0,0,1,1.115-1.137,3.1,3.1,0,0,0,2.213-.939,3.215,3.215,0,0,0,.922-2.256V22.613a3.215,3.215,0,0,0-.922-2.256,3.1,3.1,0,0,0-2.213-.939H38.551V27.76a6.91,6.91,0,0,1-1.982,4.86A6.65,6.65,0,0,1,31.8,34.64h-.774Zm-18.3-2.269H31.8A4.462,4.462,0,0,0,35,31.015a4.644,4.644,0,0,0,1.33-3.256V15.047A4.644,4.644,0,0,0,35,11.791,4.461,4.461,0,0,0,31.8,10.436H7.363A4.462,4.462,0,0,0,4.17,11.791a4.643,4.643,0,0,0-1.33,3.255V27.76a4.645,4.645,0,0,0,1.33,3.256,4.462,4.462,0,0,0,3.194,1.355,1.124,1.124,0,0,1,1.111,1.137V36.24l3.471-3.534a1.1,1.1,0,0,1,.787-.335ZM58.685,74.319H17.319V80.9H58.685v-6.58Z" transform="translate(0 -8.167)" fill="rgba(252,79,25,0.99)" stroke="#fb501b" stroke-width="0.5"/>
    </g>
    <line id="Line_50" data-name="Line 50" x2="23" transform="translate(607 2086)" fill="none"/>
    <line id="Line_51" data-name="Line 51" x2="19" transform="translate(609 2092)" fill="none"/>
    <line id="Line_52" data-name="Line 52" x2="11" transform="translate(609 2097.349)" fill="none"/>
  </g>
</svg>
