<svg xmlns="http://www.w3.org/2000/svg" width="84.543" height="75.5" viewBox="0 0 84.543 75.5">
  <g id="_1" data-name="1" transform="translate(0.25 0.25)">
    <path id="Path_74013" data-name="Path 74013" d="M149.283,41.641A1.641,1.641,0,1,1,147.641,40,1.641,1.641,0,0,1,149.283,41.641Zm0,0" transform="translate(-122.035 -33.434)" fill="rgba(252,79,25,0.99)" stroke="rgba(252,79,25,0.99)" stroke-width="0.5"/>
    <path id="Path_74014" data-name="Path 74014" d="M109.283,41.641A1.641,1.641,0,1,1,107.641,40,1.641,1.641,0,0,1,109.283,41.641Zm0,0" transform="translate(-88.601 -33.434)" fill="rgba(252,79,25,0.99)" stroke="rgba(252,79,25,0.99)" stroke-width="0.5"/>
    <path id="Path_74015" data-name="Path 74015" d="M69.283,41.641A1.641,1.641,0,1,1,67.641,40,1.641,1.641,0,0,1,69.283,41.641Zm0,0" transform="translate(-55.166 -33.434)" fill="rgba(252,79,25,0.99)" stroke="rgba(252,79,25,0.99)" stroke-width="0.5"/>
    <path id="Path_74016" data-name="Path 74016" d="M126.734,140H67.641A1.641,1.641,0,0,0,66,141.641v9.849a1.641,1.641,0,0,0,1.641,1.641h59.092a1.641,1.641,0,0,0,1.641-1.641v-9.849A1.641,1.641,0,0,0,126.734,140Zm-1.641,9.849H69.283v-6.566h55.81Zm0,0" transform="translate(-55.166 -117.206)" fill="rgba(252,79,25,0.99)" stroke="rgba(252,79,25,0.99)" stroke-width="0.5"/>
    <path id="Path_74017" data-name="Path 74017" d="M97.188,260H67.641A1.641,1.641,0,0,0,66,261.641v19.7a1.641,1.641,0,0,0,1.641,1.641H97.188a1.641,1.641,0,0,0,1.641-1.641v-19.7A1.641,1.641,0,0,0,97.188,260Zm-1.641,19.7H69.283V263.283H95.546Zm0,0" transform="translate(-55.166 -217.829)" fill="rgba(252,79,25,0.99)" stroke="rgba(252,79,25,0.99)" stroke-width="0.5"/>
    <path id="Path_74018" data-name="Path 74018" d="M327.339,260h-19.7A1.641,1.641,0,0,0,306,261.641v19.7a1.641,1.641,0,0,0,1.641,1.641h19.7a1.641,1.641,0,0,0,1.641-1.641v-19.7A1.641,1.641,0,0,0,327.339,260ZM325.7,279.7H309.283V263.283H325.7Zm0,0" transform="translate(-255.771 -217.829)" fill="rgba(252,79,25,0.99)" stroke="rgba(252,79,25,0.99)" stroke-width="0.5"/>
    <path id="Path_74019" data-name="Path 74019" d="M249.283,1.641A1.641,1.641,0,1,1,247.641,0,1.641,1.641,0,0,1,249.283,1.641Zm0,0" transform="translate(-205.62 0)" fill="rgba(252,79,25,0.99)" stroke="rgba(252,79,25,0.99)" stroke-width="0.5"/>
    <path id="Path_74020" data-name="Path 74020" d="M79.118,0H49.408a1.63,1.63,0,1,0,0,3.261h29.71a1.637,1.637,0,0,1,1.641,1.63v8.152H3.283V4.891a1.637,1.637,0,0,1,1.641-1.63h29.71a1.63,1.63,0,1,0,0-3.261H4.924A4.913,4.913,0,0,0,0,4.891V70.109A4.913,4.913,0,0,0,4.924,75H79.118a4.913,4.913,0,0,0,4.924-4.891V4.891A4.913,4.913,0,0,0,79.118,0Zm0,71.739H4.924a1.637,1.637,0,0,1-1.641-1.63V16.3H80.76v53.8A1.637,1.637,0,0,1,79.118,71.739Zm0,0" transform="translate(0 0)" fill="rgba(252,79,25,0.99)" stroke="rgba(252,79,25,0.99)" stroke-width="0.5"/>
  </g>
</svg>
