<svg xmlns="http://www.w3.org/2000/svg" width="100" height="75" viewBox="0 0 100 75">
  <g id="_6" data-name="6" transform="translate(0 -3)">
    <path id="Path_74048" data-name="Path 74048" d="M97.917,24.167H2.083a2.083,2.083,0,1,1,0-4.167H97.917a2.083,2.083,0,0,1,0,4.167Z" transform="translate(0 53.833)" fill="rgba(252,79,25,0.99)"/>
    <path id="Path_74049" data-name="Path 74049" d="M23.083,52.667A2.084,2.084,0,0,1,21,50.583v-37.5a2.083,2.083,0,1,1,4.167,0v37.5A2.084,2.084,0,0,1,23.083,52.667Z" transform="translate(66.5 25.333)" fill="rgba(252,79,25,0.99)"/>
    <path id="Path_74050" data-name="Path 74050" d="M4.083,65.333A2.084,2.084,0,0,1,2,63.25V15.333A8.342,8.342,0,0,1,10.333,7H20.75a2.083,2.083,0,1,1,0,4.167H10.333a4.174,4.174,0,0,0-4.167,4.167V63.25A2.084,2.084,0,0,1,4.083,65.333Z" transform="translate(6.333 12.667)" fill="rgba(252,79,25,0.99)"/>
    <path id="Path_74051" data-name="Path 74051" d="M29.834,44.667a2.1,2.1,0,0,1-1.475-.608L9.609,25.308a2.085,2.085,0,0,1,0-2.946l18.75-18.75a2.086,2.086,0,0,1,3.558,1.471V15.5h25A10.431,10.431,0,0,0,67.334,5.083a2.083,2.083,0,0,1,4.167,0V9.25A22.941,22.941,0,0,1,48.584,32.167H31.917V42.583a2.083,2.083,0,0,1-1.288,1.925A2.054,2.054,0,0,1,29.834,44.667ZM14.03,23.833,27.751,37.554V30.083A2.084,2.084,0,0,1,29.834,28h18.75A18.774,18.774,0,0,0,65.822,16.625a14.49,14.49,0,0,1-8.9,3.042H29.834a2.084,2.084,0,0,1-2.083-2.083V10.113Z" transform="translate(28.499 0)" fill="rgba(252,79,25,0.99)"/>
  </g>
</svg>
