<svg xmlns="http://www.w3.org/2000/svg" width="75" height="75" viewBox="0 0 75 75">
  <g id="_7" data-name="7" transform="translate(0 -0.001)">
    <g id="Group_162307" data-name="Group 162307" transform="translate(14.769 25.141)">
      <g id="Group_162306" data-name="Group 162306">
        <path id="Path_73967" data-name="Path 73967" d="M103.134,171.836a1.423,1.423,0,1,0,0,2.012A1.424,1.424,0,0,0,103.134,171.836Z" transform="translate(-100.704 -171.42)" fill="rgba(252,79,25,0.99)"/>
      </g>
    </g>
    <g id="Group_162309" data-name="Group 162309" transform="translate(0 57.924)">
      <g id="Group_162308" data-name="Group 162308">
        <path id="Path_73968" data-name="Path 73968" d="M36.028,399.917a4.981,4.981,0,0,0-4.014-7.93H7.826a4.977,4.977,0,0,0-4.01,7.928A7.12,7.12,0,0,0,0,406.216v1.423a1.423,1.423,0,0,0,1.423,1.423H38.418a1.423,1.423,0,0,0,1.423-1.423v-1.423A7.12,7.12,0,0,0,36.028,399.917Zm-29.712-4.46a2.12,2.12,0,0,1,1.509-.625H32.015a2.134,2.134,0,1,1,0,4.269H7.826a2.135,2.135,0,0,1-1.509-3.644ZM2.846,406.216a4.274,4.274,0,0,1,4.269-4.269H32.726a4.274,4.274,0,0,1,4.269,4.269Z" transform="translate(0 -391.987)" fill="rgba(252,79,25,0.99)"/>
      </g>
    </g>
    <g id="Group_162311" data-name="Group 162311" transform="translate(0.003 0.001)">
      <g id="Group_162310" data-name="Group 162310" transform="translate(0 0)">
        <path id="Path_73969" data-name="Path 73969" d="M73.655,61.543a9.224,9.224,0,0,0-1.764-2.026l-6.845-5.97a1.454,1.454,0,0,0-.583-.508l-4.139-3.61L41.165,32.716a4.386,4.386,0,0,0-1.287-7l1.772-1.772a5.863,5.863,0,0,0,5.656-1.514,5.858,5.858,0,0,0,0-8.287L34.878,1.718a5.857,5.857,0,0,0-9.8,5.657L7.394,25.059a5.9,5.9,0,0,0-1.517-.2,5.859,5.859,0,0,0-4.143,10L14.163,47.291a5.857,5.857,0,0,0,9.8-5.657l1.769-1.769a4.4,4.4,0,0,0,7,1.284L53.138,64.6a1.472,1.472,0,0,0,.2.248c.026.026.054.05.082.074L59.5,71.9c.151.178.313.354.48.522A8.713,8.713,0,0,0,66.171,75a8.992,8.992,0,0,0,1.233-.085,8.864,8.864,0,0,0,6.54-4.528A8.668,8.668,0,0,0,73.655,61.543ZM28.664,3.789a2.929,2.929,0,0,1,4.143,0L45.236,16.218a2.929,2.929,0,0,1-4.142,4.143L28.664,7.932h0A2.932,2.932,0,0,1,28.664,3.789Zm-8.285,41.43a2.933,2.933,0,0,1-4.144,0L3.806,32.79a2.929,2.929,0,0,1,4.141-4.144L20.378,41.077A2.932,2.932,0,0,1,20.378,45.219Zm6.167-10.31-4.1,4.1L10.02,26.576,26.592,10l12.43,12.43-4.1,4.1-.04.039L26.6,34.858Zm5.23,3.056-.009.009-1.032,1.032a1.465,1.465,0,0,1-2.09-2.054l8.32-8.321a1.465,1.465,0,0,1,2.485,1.052,1.451,1.451,0,0,1-.429,1.036L38,31.745l-.021.021Zm3.033,1.11,4.281-4.281L57.217,50.6,50.6,57.219ZM52.53,59.435l6.9-6.9,2.213,1.93L54.458,61.65Zm18.857,9.522A5.958,5.958,0,0,1,67,72.014a5.82,5.82,0,0,1-4.952-1.66c-.113-.113-.22-.23-.321-.349l-.014-.017-5.329-6.123,7.469-7.47,6.116,5.335.014.012a6.306,6.306,0,0,1,1.209,1.391A5.784,5.784,0,0,1,71.388,68.957Z" transform="translate(-0.021 -0.001)" fill="rgba(252,79,25,0.99)"/>
      </g>
    </g>
    <g id="Group_162313" data-name="Group 162313" transform="translate(18.969 14.812)">
      <g id="Group_162312" data-name="Group 162312">
        <path id="Path_73970" data-name="Path 73970" d="M137.452,101.124a1.423,1.423,0,0,0-2.012,0l-6.037,6.037a1.423,1.423,0,0,0,2.012,2.012l6.037-6.037A1.423,1.423,0,0,0,137.452,101.124Z" transform="translate(-128.985 -100.707)" fill="rgba(252,79,25,0.99)"/>
      </g>
    </g>
  </g>
</svg>
