<svg xmlns="http://www.w3.org/2000/svg" width="75.53" height="75.53" viewBox="0 0 75.53 75.53">
  <g id="_5" data-name="5" transform="translate(0.279 0.199)">
    <g id="Group_162328" data-name="Group 162328" transform="translate(5.019 5.075)">
      <g id="Group_162327" data-name="Group 162327">
        <path id="Path_74046" data-name="Path 74046" d="M58.383,32.106a26.2,26.2,0,1,0,26.2,26.2A26.2,26.2,0,0,0,58.383,32.106Zm0,2.5A23.68,23.68,0,0,1,77.742,44.67l-3.119,3.119a4.924,4.924,0,0,0-2.515-.711,4.991,4.991,0,0,0-4.991,4.991,4.924,4.924,0,0,0,.707,2.519l-8.17,8.17a4.839,4.839,0,0,0-5.038,0l-5.674-5.674a4.924,4.924,0,0,0,.707-2.519,4.981,4.981,0,0,0-9.8-1.248H35.216A23.739,23.739,0,0,1,58.383,34.6ZM74.6,52.069a2.5,2.5,0,1,1-2.5-2.5A2.5,2.5,0,0,1,74.6,52.069ZM59.631,67.04a2.5,2.5,0,1,1-2.5-2.5A2.5,2.5,0,0,1,59.631,67.04ZM47.154,54.564a2.5,2.5,0,1,1-2.5-2.5A2.5,2.5,0,0,1,47.154,54.564ZM69.9,79.035a23.7,23.7,0,0,1-35.09-23.223h5.034a4.991,4.991,0,0,0,4.813,3.743,4.924,4.924,0,0,0,2.519-.707l5.674,5.674a4.924,4.924,0,0,0-.707,2.519,4.991,4.991,0,1,0,9.981,0,4.924,4.924,0,0,0-.707-2.519l8.17-8.17a4.924,4.924,0,0,0,2.519.707A4.991,4.991,0,0,0,77.1,52.068a4.924,4.924,0,0,0-.707-2.519l2.72-2.719A23.684,23.684,0,0,1,69.9,79.035Z" transform="translate(-32.182 -32.106)" fill="rgba(252,79,25,0.99)" stroke="#fc511c" stroke-width="0.5"/>
      </g>
    </g>
    <g id="Group_162330" data-name="Group 162330" transform="translate(0 0.08)">
      <g id="Group_162329" data-name="Group 162329" transform="translate(0)">
        <path id="Path_74047" data-name="Path 74047" d="M62.505,12.584a5,5,0,0,0,4.821-3.75H75v-2.5H67.326a4.987,4.987,0,0,0-9.819,1.25,4.934,4.934,0,0,0,.708,2.524l-2.2,2.2a31.242,31.242,0,1,0-7.8,45.255l3.771,3.772L53.758,63.1,63.817,73.161a6.552,6.552,0,0,0,9.264-9.267L63.022,53.832l-1.767-1.767-3.771-3.772a31.154,31.154,0,0,0,0-33.918l2.5-2.5A4.931,4.931,0,0,0,62.505,12.584Zm0-7.5a2.5,2.5,0,1,1-2.5,2.5A2.5,2.5,0,0,1,62.505,5.084Zm8.809,60.577a4.053,4.053,0,0,1-5.665,5.8l-.065-.065L55.525,61.332l5.73-5.732ZM59.489,53.832l-5.73,5.732L50.3,56.1c.176-.135.341-.284.515-.422s.375-.3.561-.461c.274-.23.544-.462.808-.7.136-.125.266-.25.4-.375q.768-.72,1.488-1.489c.125-.134.25-.264.375-.4.239-.265.471-.535.7-.809q.235-.277.461-.561c.137-.172.286-.337.421-.514Zm-4.846-5.806c-.394.55-.8,1.089-1.228,1.607-.125.151-.259.3-.387.446q-.574.667-1.185,1.295-.266.275-.541.541-.625.611-1.295,1.185c-.149.125-.295.261-.446.387-.519.429-1.057.835-1.607,1.229a28.8,28.8,0,1,1,6.689-6.691Z" transform="translate(0 -0.08)" fill="rgba(252,79,25,0.99)" stroke="#fc511c" stroke-width="0.5"/>
      </g>
    </g>
  </g>
</svg>
