<svg xmlns="http://www.w3.org/2000/svg" width="75.5" height="75.622" viewBox="0 0 75.5 75.622">
  <g id="_11" data-name="11" transform="translate(-0.75 -0.642)">
    <g id="Group_162325" data-name="Group 162325" transform="translate(1 1.014)">
      <path id="Path_73992" data-name="Path 73992" d="M76,18.516,52.282,1.909a5.128,5.128,0,0,0-5.788,0L22.774,18.516v20.3A41.886,41.886,0,0,1,9.69,40.926H9.468A8.464,8.464,0,0,0,8.125,57.748l1.343,2.835V71.175a4.839,4.839,0,1,0,9.677,0V58.947A41.906,41.906,0,0,1,32.99,64.922l.3.2H39.71V51.815H76ZM57.66,34.006,73.581,21.621V47.939ZM47.88,3.892a2.669,2.669,0,0,1,3.015,0L72.753,19.2,55.138,32.9a9.366,9.366,0,0,1-11.5,0L26.02,19.2ZM25.194,21.621,41.114,34.006l-1.4,1.229V33.666H33.295l-.3.2a42.113,42.113,0,0,1-7.8,4.08Zm7.258,40.133A44.215,44.215,0,0,0,13.1,55.581V43.21a44.215,44.215,0,0,0,19.355-6.173ZM3.419,49.4a6.056,6.056,0,0,1,6.048-6.05H9.69c.33,0,.657-.028.987-.036V55.481c-.33-.008-.657-.036-.987-.036H9.468A6.056,6.056,0,0,1,3.419,49.4ZM16.726,71.175a2.419,2.419,0,1,1-4.839,0V60.039l-1.01-2.131a42.048,42.048,0,0,1,5.849.57ZM37.29,62.7H34.871V36.086H37.29ZM39.71,38.449l3.4-2.974a11.737,11.737,0,0,0,12.559,0L71.571,49.4H39.71Z" transform="translate(-1 -1.014)" fill="rgba(252,79,25,0.99)" stroke="#fb501b" stroke-width="0.5"/>
      <path id="Path_73993" data-name="Path 73993" d="M36,33H47.993v2.4H36Z" transform="translate(6.409 5.713)" fill="rgba(252,79,25,0.99)" stroke="#fb501b" stroke-width="0.5"/>
      <path id="Path_73994" data-name="Path 73994" d="M40,37h2.4v2.4H40Z" transform="translate(7.191 6.554)" fill="rgba(252,79,25,0.99)" stroke="#fb501b" stroke-width="0.5"/>
      <path id="Path_73995" data-name="Path 73995" d="M44,37h2.4v2.4H44Z" transform="translate(8.031 6.554)" fill="rgba(252,79,25,0.99)" stroke="#fb501b" stroke-width="0.5"/>
      <path id="Path_73996" data-name="Path 73996" d="M36,37h2.4v2.4H36Z" transform="translate(6.351 6.554)" fill="rgba(252,79,25,0.99)" stroke="#fb501b" stroke-width="0.5"/>
      <path id="Path_73997" data-name="Path 73997" d="M13,38h2.4v2.4H13Z" transform="translate(1.52 6.764)" fill="rgba(252,79,25,0.99)" stroke="#fb501b" stroke-width="0.5"/>
      <path id="Path_73998" data-name="Path 73998" d="M13,42h2.4v2.4H13Z" transform="translate(1.52 7.605)" fill="rgba(252,79,25,0.99)" stroke="#fb501b" stroke-width="0.5"/>
    </g>
  </g>
</svg>
