<svg xmlns="http://www.w3.org/2000/svg" xmlns:xlink="http://www.w3.org/1999/xlink" width="138" height="138" viewBox="0 0 138 138">
  <defs>
    <filter id="Ellipse_3227" x="0" y="0" width="138" height="138" filterUnits="userSpaceOnUse">
      <feOffset dy="3" input="SourceAlpha"/>
      <feGaussianBlur stdDeviation="3" result="blur"/>
      <feFlood flood-opacity="0.161"/>
      <feComposite operator="in" in2="blur"/>
      <feComposite in="SourceGraphic"/>
    </filter>
  </defs>
  <g id="_10" data-name="10" transform="translate(-581 -2919)">
    <g transform="matrix(1, 0, 0, 1, 581, 2919)" filter="url(#Ellipse_3227)">
      <circle id="Ellipse_3227-2" data-name="Ellipse 3227" cx="60" cy="60" r="60" transform="translate(9 6)" fill="#fff"/>
    </g>
    <g id="development" transform="translate(609 2899)">
      <g id="Group_162388" data-name="Group 162388" transform="translate(3.192 94.676)">
        <g id="Group_162387" data-name="Group 162387">
          <path id="Path_74162" data-name="Path 74162" d="M22.725,307.178a1.595,1.595,0,1,0,.468,1.128A1.607,1.607,0,0,0,22.725,307.178Z" transform="translate(-20.001 -306.71)" fill="rgba(252,79,25,0.99)"/>
        </g>
      </g>
      <g id="Group_162390" data-name="Group 162390" transform="translate(0 54)">
        <g id="Group_162389" data-name="Group 162389" transform="translate(0 0)">
          <path id="Path_74163" data-name="Path 74163" d="M9.107,57.659,5.916,54.467a1.6,1.6,0,0,0-2.257,0L.468,57.659a1.6,1.6,0,1,0,2.257,2.257l.467-.467V89.487a1.6,1.6,0,0,0,3.191,0V59.448l.467.467a1.6,1.6,0,0,0,2.257-2.257Z" transform="translate(0 -54)" fill="rgba(252,79,25,0.99)"/>
        </g>
      </g>
      <g id="Group_162392" data-name="Group 162392" transform="translate(3.192 85.414)">
        <g id="Group_162391" data-name="Group 162391">
          <path id="Path_74164" data-name="Path 74164" d="M98.043,275.2,94.852,272a1.6,1.6,0,1,0-2.257,2.257l.467.467H87.336V252.335a1.6,1.6,0,1,0-3.191,0v22.393H66.852V264.515a1.6,1.6,0,1,0-3.191,0v10.213H50.4V249.121a1.6,1.6,0,0,0-3.191,0v25.607H34.392v-9.973a1.6,1.6,0,1,0-3.191,0v9.973H23.192v-9.184a1.6,1.6,0,0,0-3.191,0v10.78a1.6,1.6,0,0,0,1.6,1.6H93.062l-.467.467a1.6,1.6,0,1,0,2.257,2.257l3.191-3.191A1.6,1.6,0,0,0,98.043,275.2Z" transform="translate(-20.001 -247.525)" fill="rgba(252,79,25,0.99)"/>
        </g>
      </g>
      <g id="Group_162394" data-name="Group 162394" transform="translate(10.225 66.563)">
        <g id="Group_162393" data-name="Group 162393" transform="translate(0 0)">
          <path id="Path_74165" data-name="Path 74165" d="M122.782,131.476a5.759,5.759,0,0,0-5.17,8.3l-12.5,12.5a5.747,5.747,0,0,0-5.581-.032l-8.451-8.451a5.762,5.762,0,1,0-10.324.327l-8.142,8.143a5.767,5.767,0,1,0,2.259,2.254l8.109-8.109A5.742,5.742,0,0,0,89,146.219l8.269,8.269a5.761,5.761,0,1,0,10.09.056l12.4-12.4a5.761,5.761,0,1,0,3.021-10.666Zm-52.943,28.4a2.57,2.57,0,1,1,1.787-4.414l.023.025.03.027a2.568,2.568,0,0,1-1.839,4.362Zm16-15.9a2.57,2.57,0,1,1,2.57-2.57A2.573,2.573,0,0,1,85.842,143.974ZM102.3,159.866a2.57,2.57,0,1,1,2.57-2.57A2.573,2.573,0,0,1,102.3,159.866Zm20.483-20.058a2.57,2.57,0,1,1,2.57-2.57A2.573,2.573,0,0,1,122.783,139.808Z" transform="translate(-64.077 -131.476)" fill="rgba(252,79,25,0.99)"/>
        </g>
      </g>
      <g id="Group_162396" data-name="Group 162396" transform="translate(67.335 81.685)">
        <g id="Group_162395" data-name="Group 162395" transform="translate(0 0)">
          <path id="Path_74166" data-name="Path 74166" d="M424.695,226.468a1.595,1.595,0,1,0,.468,1.128A1.608,1.608,0,0,0,424.695,226.468Z" transform="translate(-421.971 -226)" fill="rgba(252,79,25,0.99)"/>
        </g>
      </g>
    </g>
  </g>
</svg>
