<svg xmlns="http://www.w3.org/2000/svg" xmlns:xlink="http://www.w3.org/1999/xlink" width="138" height="138" viewBox="0 0 138 138">
  <defs>
    <filter id="Ellipse_3227" x="0" y="0" width="138" height="138" filterUnits="userSpaceOnUse">
      <feOffset dy="3" input="SourceAlpha"/>
      <feGaussianBlur stdDeviation="3" result="blur"/>
      <feFlood flood-opacity="0.161"/>
      <feComposite operator="in" in2="blur"/>
      <feComposite in="SourceGraphic"/>
    </filter>
  </defs>
  <g id="_9" data-name="9" transform="translate(-284 -2919)">
    <g transform="matrix(1, 0, 0, 1, 284, 2919)" filter="url(#Ellipse_3227)">
      <circle id="Ellipse_3227-2" data-name="Ellipse 3227" cx="60" cy="60" r="60" transform="translate(9 6)" fill="#fff"/>
    </g>
    <g id="settings_1_" data-name="settings (1)" transform="translate(321 2953)">
      <g id="Group_162380" data-name="Group 162380" transform="translate(0 23.733)">
        <g id="Group_162379" data-name="Group 162379">
          <path id="Path_74158" data-name="Path 74158" d="M38.172,175.475H37.037a1.015,1.015,0,0,1-.955-.666c-.126-.33-.261-.653-.406-.973a1.017,1.017,0,0,1,.206-1.151l.809-.81a3.1,3.1,0,0,0-.005-4.373l-2.916-2.915a3.1,3.1,0,0,0-4.374,0l-.809.808a1.022,1.022,0,0,1-1.151.206c-.32-.145-.643-.281-.974-.413a1.014,1.014,0,0,1-.67-.957V163.1a3.1,3.1,0,0,0-3.1-3.1H18.57a3.1,3.1,0,0,0-3.1,3.1v1.135a1.015,1.015,0,0,1-.666.955c-.33.126-.653.261-.973.406a1.02,1.02,0,0,1-1.151-.206l-.81-.809a3.1,3.1,0,0,0-4.373,0L4.586,167.5a3.1,3.1,0,0,0,0,4.374l.808.809a1.017,1.017,0,0,1,.206,1.151c-.145.32-.281.643-.408.974a1.014,1.014,0,0,1-.963.665H3.1a3.1,3.1,0,0,0-3.1,3.1V182.7a3.1,3.1,0,0,0,3.1,3.1H4.23a1.015,1.015,0,0,1,.955.666c.126.33.261.653.406.973a1.017,1.017,0,0,1-.206,1.151l-.809.81a3.1,3.1,0,0,0,0,4.373l2.916,2.916a3.1,3.1,0,0,0,4.374,0l.809-.808a1.022,1.022,0,0,1,1.151-.206c.32.145.643.281.974.413a1.014,1.014,0,0,1,.675.957v1.135a3.1,3.1,0,0,0,3.1,3.1H22.7a3.1,3.1,0,0,0,3.1-3.1v-1.135a1.015,1.015,0,0,1,.666-.955c.33-.126.653-.261.973-.406a1.02,1.02,0,0,1,1.151.206l.81.809a3.1,3.1,0,0,0,4.373-.005l2.916-2.915a3.1,3.1,0,0,0,0-4.374l-.808-.809a1.017,1.017,0,0,1-.206-1.151c.145-.32.281-.643.413-.974a1.014,1.014,0,0,1,.957-.67h1.135a3.1,3.1,0,0,0,3.1-3.1V178.57A3.1,3.1,0,0,0,38.172,175.475ZM39.2,182.7a1.032,1.032,0,0,1-1.032,1.032H37.037a3.105,3.105,0,0,0-2.889,2q-.164.433-.355.853a3.1,3.1,0,0,0,.619,3.462l.807.808a1.032,1.032,0,0,1,0,1.459h0L32.3,195.222a1.032,1.032,0,0,1-1.459,0l-.809-.808a3.1,3.1,0,0,0-3.462-.619c-.28.127-.564.246-.851.355a3.1,3.1,0,0,0-1.994,2.887v1.135A1.032,1.032,0,0,1,22.7,199.2H18.57a1.032,1.032,0,0,1-1.032-1.032v-1.135a3.105,3.105,0,0,0-2-2.889q-.433-.164-.853-.355a3.105,3.105,0,0,0-3.462.619l-.808.807a1.032,1.032,0,0,1-1.459,0h0l-2.916-2.912a1.032,1.032,0,0,1,0-1.459l.808-.809a3.1,3.1,0,0,0,.619-3.462c-.127-.28-.246-.564-.355-.851a3.1,3.1,0,0,0-2.887-2H3.1A1.032,1.032,0,0,1,2.063,182.7V178.57A1.032,1.032,0,0,1,3.1,177.538H4.23a3.105,3.105,0,0,0,2.889-2q.164-.433.355-.853a3.1,3.1,0,0,0-.619-3.462l-.811-.808a1.032,1.032,0,0,1,0-1.459h0l2.916-2.916a1.032,1.032,0,0,1,1.459,0l.809.808a3.1,3.1,0,0,0,3.462.619c.28-.127.564-.246.851-.355a3.1,3.1,0,0,0,2-2.887V163.1a1.032,1.032,0,0,1,1.032-1.032H22.7a1.032,1.032,0,0,1,1.032,1.032v1.135a3.105,3.105,0,0,0,2,2.889q.433.164.853.355a3.1,3.1,0,0,0,3.462-.619l.808-.807a1.038,1.038,0,0,1,1.46,0l2.916,2.915a1.032,1.032,0,0,1,0,1.459l-.808.809a3.1,3.1,0,0,0-.619,3.462c.127.28.246.564.355.851a3.1,3.1,0,0,0,2.887,1.994h1.135A1.032,1.032,0,0,1,39.2,178.57Z" transform="translate(0 -160)" fill="rgba(252,79,25,0.99)" stroke="#fc511c" stroke-width="1"/>
        </g>
      </g>
      <g id="Group_162382" data-name="Group 162382" transform="translate(12.155 34.27)">
        <g id="Group_162381" data-name="Group 162381">
          <path id="Path_74159" data-name="Path 74159" d="M106.513,256.872c-.01-.248-.028-.494-.058-.74-.033-.264-.072-.526-.127-.783-.036-.168-.084-.334-.129-.5q-.087-.319-.195-.628c-.051-.143-.1-.286-.157-.427a9.19,9.19,0,0,0-.455-.966c-.013-.024-.022-.049-.035-.073a9.153,9.153,0,0,0-.929-1.353c-.03-.037-.064-.072-.095-.108-.142-.168-.289-.331-.443-.487-.08-.084-.165-.162-.25-.242-.1-.1-.206-.191-.309-.282q-.188-.163-.383-.316l-.169-.126A9.22,9.22,0,0,0,97.249,248c-.1,0-.206.015-.309.02-.22.006-.441.019-.662.041-.117.012-.234.026-.351.042a9.457,9.457,0,0,0-1,.187,9.29,9.29,0,0,0,.007,17.991.237.237,0,0,1,.052.009,9.845,9.845,0,0,0,1.081.206c.24.03.481.036.722.047.161.008.31.032.478.032.294,0,.6-.02.911-.051a1.007,1.007,0,0,0,.1-.013c.251-.028.5-.065.763-.117.1-.02.2-.045.3-.068.182-.042.362-.087.548-.141.144-.043.285-.094.426-.143s.288-.1.434-.159.269-.12.4-.182c.173-.079.346-.158.516-.251h.006a12.212,12.212,0,0,0,2.644-1.91,3.247,3.247,0,0,0,.553-.677,11.013,11.013,0,0,0,1.554-4.24c.029-.2.055-.4.07-.6.014-.187.025-.372.029-.558,0-.059.008-.115.008-.173C106.534,257.147,106.52,257.013,106.513,256.872Zm-2.056.676c0,.086-.007.171-.012.256-.019.25-.051.5-.093.75a7.237,7.237,0,0,1-3.625,5.055c-.128.067-.254.13-.38.188l-.086.041a7.45,7.45,0,0,1-1.882.569c-.045.007-.092.015-.138.022-.129.019-.256.034-.382.045-.166.014-.333.023-.5.026h-.216a7.248,7.248,0,0,1-.73-.045l-.124-.014a7.629,7.629,0,0,1-.843-.159,7.222,7.222,0,0,1-.007-13.991h0a7.47,7.47,0,0,1,1.813-.227,7.124,7.124,0,0,1,.882.06c.078.009.156.024.233.035.223.035.444.079.661.135.071.019.142.035.213.055a7.286,7.286,0,0,1,1.573.662c.079.046.157.095.235.143.163.1.321.206.477.324.084.061.168.121.249.186a7.442,7.442,0,0,1,.581.516c.073.074.14.156.211.233.119.129.234.261.345.4.076.1.15.195.222.3.1.149.206.3.3.46l.156.257a7.082,7.082,0,0,1,.355.756c.041.1.076.206.113.31.067.19.125.382.175.576.026.1.055.195.076.3a7.271,7.271,0,0,1,.131.845c.006.075.006.152.011.227C104.462,257.07,104.467,257.309,104.457,257.548Z" transform="translate(-87.959 -248)" fill="rgba(252,79,25,0.99)" stroke="#fc511c" stroke-width="1"/>
        </g>
      </g>
      <g id="Group_162384" data-name="Group 162384" transform="translate(14.353)">
        <g id="Group_162383" data-name="Group 162383">
          <path id="Path_74160" data-name="Path 74160" d="M134.813,21.665h-3.245a1.007,1.007,0,0,1-.962-.677,21.488,21.488,0,0,0-1.159-2.8,1.01,1.01,0,0,1,.2-1.165l2.3-2.3a3.1,3.1,0,0,0,0-4.375l-4.387-4.379a3.1,3.1,0,0,0-4.375,0l-2.3,2.3a1.01,1.01,0,0,1-1.164.2,21.433,21.433,0,0,0-2.8-1.165,1.007,1.007,0,0,1-.681-.962V3.1a3.1,3.1,0,0,0-3.1-3.1h-6.19a3.1,3.1,0,0,0-3.1,3.1V6.34a1.007,1.007,0,0,1-.677.962,21.5,21.5,0,0,0-2.8,1.164,1.008,1.008,0,0,1-1.165-.2l-2.3-2.3a3.1,3.1,0,0,0-4.375,0l-4.378,4.378a3.1,3.1,0,0,0,0,4.376L91.55,18.11a1.032,1.032,0,0,0,1.461-1.457l-3.385-3.388a1.032,1.032,0,0,1,0-1.459L94,7.428a1.032,1.032,0,0,1,1.459,0l2.3,2.3a3.067,3.067,0,0,0,3.545.582,19.519,19.519,0,0,1,2.529-1.051,3.069,3.069,0,0,0,2.085-2.92V3.1a1.032,1.032,0,0,1,1.032-1.032h6.19A1.032,1.032,0,0,1,114.18,3.1V6.34a3.068,3.068,0,0,0,2.085,2.919,19.458,19.458,0,0,1,2.53,1.052,3.075,3.075,0,0,0,3.544-.583l2.3-2.3a1.032,1.032,0,0,1,1.459,0l4.378,4.379a1.032,1.032,0,0,1,0,1.458l-2.3,2.3a3.07,3.07,0,0,0-.582,3.545,19.519,19.519,0,0,1,1.051,2.529,3.068,3.068,0,0,0,2.92,2.085h3.245a1.032,1.032,0,0,1,1.032,1.032v6.19a1.032,1.032,0,0,1-1.032,1.032h-3.245a3.068,3.068,0,0,0-2.919,2.085A19.443,19.443,0,0,1,127.6,36.6a3.071,3.071,0,0,0,.583,3.544l2.3,2.3a1.032,1.032,0,0,1,0,1.459L126.1,48.282a1.032,1.032,0,0,1-1.458,0l-3.39-3.383a1.032,1.032,0,0,0-1.482,1.436l.025.025,3.389,3.383a3.1,3.1,0,0,0,4.375,0l4.378-4.377a3.1,3.1,0,0,0,0-4.376l-2.3-2.3a1.011,1.011,0,0,1-.2-1.164,21.436,21.436,0,0,0,1.165-2.8,1.007,1.007,0,0,1,.962-.681h3.245a3.1,3.1,0,0,0,3.1-3.1V24.76A3.1,3.1,0,0,0,134.813,21.665Z" transform="translate(-87.261 0)" fill="rgba(252,79,25,0.99)" stroke="#fc511c" stroke-width="1"/>
        </g>
      </g>
      <g id="Group_162386" data-name="Group 162386" transform="translate(26.215 15.607)">
        <g id="Group_162385" data-name="Group 162385">
          <path id="Path_74161" data-name="Path 74161" d="M207.475,115.972a13.425,13.425,0,0,0-18.966,0,1.032,1.032,0,0,0,1.459,1.459,11.348,11.348,0,1,1,16.156,15.941l-.108.108a1.032,1.032,0,0,0,1.434,1.484l.025-.025A13.425,13.425,0,0,0,207.475,115.972Z" transform="translate(-188.219 -112.049)" fill="rgba(252,79,25,0.99)" stroke="#fc511c" stroke-width="1"/>
        </g>
      </g>
    </g>
  </g>
</svg>
