<svg xmlns="http://www.w3.org/2000/svg" width="82.083" height="75" viewBox="0 0 82.083 75">
  <g id="_10" data-name="10" transform="translate(0 -2)">
    <g id="Group_162316" data-name="Group 162316" transform="translate(0 28.096)">
      <path id="Path_73985" data-name="Path 73985" d="M59.69,58.6a6.822,6.822,0,0,1-1.744-.226L5.061,44.217A6.9,6.9,0,0,1,.225,35.837L6.9,10.966a1.71,1.71,0,1,1,3.3.882L3.532,36.713a3.471,3.471,0,0,0,2.428,4.2L58.825,55.072a3.4,3.4,0,0,0,4.162-2.408l2.671-9.9a1.711,1.711,0,1,1,3.3.889L66.294,53.54a6.831,6.831,0,0,1-6.6,5.065Z" transform="translate(0 -9.701)" fill="rgba(252,79,25,0.99)"/>
    </g>
    <g id="Group_162317" data-name="Group 162317" transform="translate(13.679 2)">
      <path id="Path_73986" data-name="Path 73986" d="M65.562,56.722H10.84A6.847,6.847,0,0,1,4,49.881V8.84A6.847,6.847,0,0,1,10.84,2H65.562A6.847,6.847,0,0,1,72.4,8.84V49.881A6.847,6.847,0,0,1,65.562,56.722ZM10.84,5.42A3.426,3.426,0,0,0,7.42,8.84V49.881a3.426,3.426,0,0,0,3.42,3.42H65.562a3.426,3.426,0,0,0,3.42-3.42V8.84a3.426,3.426,0,0,0-3.42-3.42Z" transform="translate(-4 -2)" fill="rgba(252,79,25,0.99)"/>
    </g>
    <g id="Group_162318" data-name="Group 162318" transform="translate(23.94 12.26)">
      <path id="Path_73987" data-name="Path 73987" d="M13.84,18.68a6.84,6.84,0,1,1,6.84-6.84A6.847,6.847,0,0,1,13.84,18.68Zm0-10.26a3.42,3.42,0,1,0,3.42,3.42A3.426,3.426,0,0,0,13.84,8.42Z" transform="translate(-7 -5)" fill="rgba(252,79,25,0.99)"/>
    </g>
    <g id="Group_162319" data-name="Group 162319" transform="translate(13.918 20.875)">
      <path id="Path_73988" data-name="Path 73988" d="M5.781,39.631A1.708,1.708,0,0,1,4.57,36.713L20.723,20.56a5.256,5.256,0,0,1,7.254,0l4.809,4.809L46.1,9.4A5.138,5.138,0,0,1,50,7.55h.038a5.127,5.127,0,0,1,3.9,1.789L71.823,30.208a1.71,1.71,0,1,1-2.6,2.226L51.34,11.565a1.692,1.692,0,0,0-1.3-.6,1.816,1.816,0,0,0-1.313.616L34.215,29a1.7,1.7,0,0,1-1.238.612,1.646,1.646,0,0,1-1.286-.5l-6.132-6.132a1.757,1.757,0,0,0-2.418,0L6.988,39.131a1.7,1.7,0,0,1-1.207.5Z" transform="translate(-4.07 -7.55)" fill="rgba(252,79,25,0.99)"/>
    </g>
  </g>
</svg>
