<svg xmlns="http://www.w3.org/2000/svg" xmlns:xlink="http://www.w3.org/1999/xlink" width="138" height="138" viewBox="0 0 138 138">
  <defs>
    <filter id="Ellipse_3227" x="0" y="0" width="138" height="138" filterUnits="userSpaceOnUse">
      <feOffset dy="3" input="SourceAlpha"/>
      <feGaussianBlur stdDeviation="3" result="blur"/>
      <feFlood flood-opacity="0.161"/>
      <feComposite operator="in" in2="blur"/>
      <feComposite in="SourceGraphic"/>
    </filter>
  </defs>
  <g id="_6" data-name="6" transform="translate(-582 -4248)">
    <g transform="matrix(1, 0, 0, 1, 582, 4248)" filter="url(#Ellipse_3227)">
      <circle id="Ellipse_3227-2" data-name="Ellipse 3227" cx="60" cy="60" r="60" transform="translate(9 6)" fill="#fff"/>
    </g>
    <g id="email_1_" data-name="email (1)" transform="translate(616 4265.57)">
      <path id="Path_74206" data-name="Path 74206" d="M68.95,43.355h0l-8.87-5.933V17.591a1.156,1.156,0,0,0-1.15-1.161h-48.4a1.156,1.156,0,0,0-1.15,1.161V37.423L.515,43.355h0A1.162,1.162,0,0,0,0,44.323V80.269a1.156,1.156,0,0,0,1.15,1.161H68.314a1.156,1.156,0,0,0,1.15-1.161V44.323a1.162,1.162,0,0,0-.515-.967ZM9.383,47.415,5.775,45.483H9.383ZM2.3,46.252l26.457,14.16L2.3,78.106ZM34.732,59.2,64.5,79.108H4.967L34.732,59.2Zm5.974,1.21,26.458-14.16V78.107L40.706,60.412ZM60.08,45.483h3.61l-3.61,1.932ZM64.5,43.162H60.08V40.207Zm-6.718-24.41v29.9L38.523,58.952l-3.156-2.111a1.142,1.142,0,0,0-1.271,0l-3.155,2.11L11.684,48.646V18.752H57.779Zm-48.4,24.41H4.968l4.415-2.953Z" transform="translate(0)" fill="rgba(252,79,25,0.99)" stroke="#fb501b" stroke-width="0.5"/>
      <path id="Path_74207" data-name="Path 74207" d="M169.478,97.922h9.166a1.15,1.15,0,0,0,0-2.3h-9.166a8.025,8.025,0,0,1-8.016-8.016v-.339a8.016,8.016,0,1,1,16.031,0v.849a1.735,1.735,0,0,1-3.47,0V86.5a4.978,4.978,0,1,0-1.7,3.734,4.035,4.035,0,0,0,7.468-2.122v-.849a10.317,10.317,0,1,0-20.633,0v.339a10.328,10.328,0,0,0,10.317,10.317Zm-.424-8.751a2.669,2.669,0,1,1,2.669-2.669A2.672,2.672,0,0,1,169.053,89.171Z" transform="translate(-134.746 -51.236)" fill="rgba(252,79,25,0.99)" stroke="#fb501b" stroke-width="0.5"/>
    </g>
  </g>
</svg>
