<svg xmlns="http://www.w3.org/2000/svg" xmlns:xlink="http://www.w3.org/1999/xlink" width="138" height="138" viewBox="0 0 138 138">
  <defs>
    <filter id="Ellipse_3227" x="0" y="0" width="138" height="138" filterUnits="userSpaceOnUse">
      <feOffset dy="3" input="SourceAlpha"/>
      <feGaussianBlur stdDeviation="3" result="blur"/>
      <feFlood flood-opacity="0.161"/>
      <feComposite operator="in" in2="blur"/>
      <feComposite in="SourceGraphic"/>
    </filter>
  </defs>
  <g id="_10" data-name="10" transform="translate(-582 -4559)">
    <g transform="matrix(1, 0, 0, 1, 582, 4559)" filter="url(#Ellipse_3227)">
      <circle id="Ellipse_3227-2" data-name="Ellipse 3227" cx="60" cy="60" r="60" transform="translate(9 6)" fill="#fff"/>
    </g>
    <g id="XMLID_806_" transform="translate(617 4582.738)">
      <g id="XMLID_386_" transform="translate(0 10.262)">
        <path id="XMLID_389_" d="M68.038,45.89a26.765,26.765,0,0,0-20.9-23.407v-3.36a4.493,4.493,0,0,0-1.093-8.86H36.462a4.494,4.494,0,0,0-1.093,8.86v3.37A26.876,26.876,0,0,0,20,32.2c-.033,0-.067-.005-.1-.005H10.408a1.323,1.323,0,1,0,0,2.645h7.777a26.43,26.43,0,0,0-2.363,5.083H1.331a1.323,1.323,0,1,0,0,2.645H15.07a26.721,26.721,0,0,0-.661,5.084H8.521a1.323,1.323,0,1,0,0,2.645h5.93a26.686,26.686,0,0,0,.831,5.084H6.657a1.323,1.323,0,1,0,0,2.645h9.475a26.542,26.542,0,0,0,6.125,9.408,27.02,27.02,0,0,0,16.359,7.695q1.319.129,2.639.129a27.092,27.092,0,0,0,14.678-4.309,1.317,1.317,0,0,0,.389-1.83,1.337,1.337,0,0,0-1.842-.387,24.455,24.455,0,0,1-30.34-3.168,23.984,23.984,0,0,1,0-34.041,24.376,24.376,0,0,1,34.27,0,24.054,24.054,0,0,1,3.207,30.111,1.317,1.317,0,0,0,.391,1.829,1.337,1.337,0,0,0,1.842-.389A26.661,26.661,0,0,0,68.038,45.89ZM34.6,14.759a1.86,1.86,0,0,1,1.864-1.852h9.587a1.852,1.852,0,1,1,0,3.7H36.462A1.86,1.86,0,0,1,34.6,14.759Zm3.434,7.278V19.256h6.446v2.777A27.311,27.311,0,0,0,38.032,22.037Z" transform="translate(0 -10.262)" fill="rgba(252,79,25,0.99)"/>
        <path id="XMLID_391_" d="M437.1,425.5a1.332,1.332,0,1,0,.941.39A1.339,1.339,0,0,0,437.1,425.5Z" transform="translate(-377.749 -370.65)" fill="rgba(252,79,25,0.99)"/>
        <path id="XMLID_394_" d="M175.527,144.609a20.655,20.655,0,1,0,20.655,20.655A20.678,20.678,0,0,0,175.527,144.609Zm0,38.647a17.992,17.992,0,1,1,17.992-17.992A18.012,18.012,0,0,1,175.527,183.256Z" transform="translate(-134.251 -127.159)" fill="rgba(252,79,25,0.99)"/>
        <path id="XMLID_397_" d="M272.511,219.8l-6.595,6.595a4.127,4.127,0,0,0-3.655,0l-2.951-2.951a1.332,1.332,0,1,0-1.883,1.883l2.951,2.951a4.137,4.137,0,1,0,7.421,0l6.4-6.4h0l.193-.193a1.331,1.331,0,1,0-1.883-1.883Zm-8.422,11.78a1.474,1.474,0,1,1,1.474-1.474A1.476,1.476,0,0,1,264.088,231.581Z" transform="translate(-222.813 -191.805)" fill="rgba(252,79,25,0.99)"/>
        <path id="XMLID_398_" d="M400.22,289.86h-1.234a1.331,1.331,0,0,0,0,2.663h1.234a1.331,1.331,0,0,0,0-2.663Z" transform="translate(-344.709 -252.892)" fill="rgba(252,79,25,0.99)"/>
        <path id="XMLID_399_" d="M195.647,289.616h-1.233a1.331,1.331,0,0,0,0,2.663h1.233a1.331,1.331,0,1,0,0-2.663Z" transform="translate(-167.374 -252.68)" fill="rgba(252,79,25,0.99)"/>
        <path id="XMLID_400_" d="M301.454,186.715a1.332,1.332,0,0,0,1.331-1.331V184.15a1.331,1.331,0,1,0-2.663,0v1.233A1.332,1.332,0,0,0,301.454,186.715Z" transform="translate(-260.163 -160.007)" fill="rgba(252,79,25,0.99)"/>
        <path id="XMLID_424_" d="M301.21,387.393a1.332,1.332,0,0,0-1.331,1.331v1.233a1.331,1.331,0,0,0,2.663,0v-1.233A1.332,1.332,0,0,0,301.21,387.393Z" transform="translate(-259.951 -337.536)" fill="rgba(252,79,25,0.99)"/>
        <path id="XMLID_425_" d="M1.331,351.44a1.331,1.331,0,1,0,.941,2.273,1.331,1.331,0,0,0-.941-2.273Z" transform="translate(0 -306.33)" fill="rgba(252,79,25,0.99)"/>
      </g>
    </g>
  </g>
</svg>
