<svg xmlns="http://www.w3.org/2000/svg" width="83.225" height="75.1" viewBox="0 0 83.225 75.1">
  <g id="_4" data-name="4" transform="translate(0.05 0.05)">
    <path id="Path_74021" data-name="Path 74021" d="M249.5,346.6a1.3,1.3,0,0,1-.014-2.6h.014a1.3,1.3,0,1,1,0,2.6Zm0,0" transform="translate(-207.903 -288.405)" fill="rgba(252,79,25,0.99)" stroke="#fb501b" stroke-width="0.1"/>
    <path id="Path_74022" data-name="Path 74022" d="M82.14,330.6H1.674a1.3,1.3,0,1,1,0-2.6H82.14a1.3,1.3,0,1,1,0,2.6Zm0,0" transform="translate(-0.314 -274.991)" fill="rgba(252,79,25,0.99)" stroke="#fb501b" stroke-width="0.1"/>
    <path id="Path_74023" data-name="Path 74023" d="M79.228,60.713H3.9A3.891,3.891,0,0,1,0,56.838V3.875A3.891,3.891,0,0,1,3.9,0H79.228a3.891,3.891,0,0,1,3.9,3.875V56.838A3.891,3.891,0,0,1,79.228,60.713ZM3.9,2.584A1.3,1.3,0,0,0,2.6,3.875V56.838a1.3,1.3,0,0,0,1.3,1.292H79.228a1.3,1.3,0,0,0,1.3-1.292V3.875a1.3,1.3,0,0,0-1.3-1.292Zm0,0" fill="rgba(252,79,25,0.99)" stroke="#fb501b" stroke-width="0.1"/>
    <path id="Path_74024" data-name="Path 74024" d="M177.3,372.984a1.323,1.323,0,0,1-.316-.039,1.3,1.3,0,0,1-.946-1.575l2.6-10.391a1.3,1.3,0,1,1,2.52.629L178.558,372A1.3,1.3,0,0,1,177.3,372.984Zm0,0" transform="translate(-147.425 -301.881)" fill="rgba(252,79,25,0.99)" stroke="#fb501b" stroke-width="0.1"/>
    <path id="Path_74025" data-name="Path 74025" d="M307.891,372.984a1.3,1.3,0,0,1-1.259-.984l-2.6-10.391a1.3,1.3,0,0,1,2.52-.629l2.6,10.391a1.3,1.3,0,0,1-.946,1.575A1.317,1.317,0,0,1,307.891,372.984Zm0,0" transform="translate(-254.641 -301.88)" fill="rgba(252,79,25,0.99)" stroke="#fb501b" stroke-width="0.1"/>
    <path id="Path_74026" data-name="Path 74026" d="M145.3,429.2a1.3,1.3,0,0,1-1.3-1.3,3.9,3.9,0,0,1,3.9-3.9,1.3,1.3,0,1,1,0,2.6,1.3,1.3,0,0,0-1.3,1.3A1.3,1.3,0,0,1,145.3,429.2Zm0,0" transform="translate(-120.621 -355.494)" fill="rgba(252,79,25,0.99)" stroke="#fb501b" stroke-width="0.1"/>
    <path id="Path_74027" data-name="Path 74027" d="M339.9,429.2a1.3,1.3,0,0,1-1.3-1.3,1.3,1.3,0,0,0-1.3-1.3,1.3,1.3,0,1,1,0-2.6,3.9,3.9,0,0,1,3.9,3.9A1.3,1.3,0,0,1,339.9,429.2Zm0,0" transform="translate(-281.449 -355.494)" fill="rgba(252,79,25,0.99)" stroke="#fb501b" stroke-width="0.1"/>
    <path id="Path_74028" data-name="Path 74028" d="M189.873,426.6H161.3a1.3,1.3,0,1,1,0-2.6h28.574a1.3,1.3,0,1,1,0,2.6Zm0,0" transform="translate(-134.024 -355.494)" fill="rgba(252,79,25,0.99)" stroke="#fb501b" stroke-width="0.1"/>
    <path id="Path_74029" data-name="Path 74029" d="M145.3,443.9a1.3,1.3,0,0,1-1.3-1.3v-1.3a1.3,1.3,0,1,1,2.6,0v1.3A1.3,1.3,0,0,1,145.3,443.9Zm0,0" transform="translate(-120.621 -368.896)" fill="rgba(252,79,25,0.99)" stroke="#fb501b" stroke-width="0.1"/>
    <path id="Path_74030" data-name="Path 74030" d="M179.068,450.6H145.3a1.3,1.3,0,1,1,0-2.6h33.769a1.3,1.3,0,1,1,0,2.6Zm0,0" transform="translate(-120.621 -375.598)" fill="rgba(252,79,25,0.99)" stroke="#fb501b" stroke-width="0.1"/>
    <path id="Path_74031" data-name="Path 74031" d="M353.3,443.9a1.3,1.3,0,0,1-1.3-1.3v-1.3a1.3,1.3,0,1,1,2.6,0v1.3A1.3,1.3,0,0,1,353.3,443.9Zm0,0" transform="translate(-294.852 -368.896)" fill="rgba(252,79,25,0.99)" stroke="#fb501b" stroke-width="0.1"/>
    <path id="Path_74032" data-name="Path 74032" d="M307.291,218.6H281.315a1.3,1.3,0,1,1,0-2.6h25.976a1.3,1.3,0,1,1,0,2.6Zm0,0" transform="translate(-234.555 -181.092)" fill="rgba(252,79,25,0.99)" stroke="#fb501b" stroke-width="0.1"/>
    <path id="Path_74033" data-name="Path 74033" d="M281.315,84.574a1.3,1.3,0,0,1-1.3-1.3V57.3a1.3,1.3,0,1,1,2.6,0V83.275A1.3,1.3,0,0,1,281.315,84.574Zm0,0" transform="translate(-234.555 -46.908)" fill="rgba(252,79,25,0.99)" stroke="#fb501b" stroke-width="0.1"/>
    <path id="Path_74034" data-name="Path 74034" d="M313.283,171.689a1.3,1.3,0,0,1-1.3-1.3V161.3a1.3,1.3,0,1,1,2.6,0v9.092A1.3,1.3,0,0,1,313.283,171.689Zm0,0" transform="translate(-261.332 -134.159)" fill="rgba(252,79,25,0.99)" stroke="#fb501b" stroke-width="0.1"/>
    <path id="Path_74035" data-name="Path 74035" d="M345.315,131.482a1.3,1.3,0,0,1-1.3-1.3V113.3a1.3,1.3,0,1,1,2.6,0v16.885A1.3,1.3,0,0,1,345.315,131.482Zm0,0" transform="translate(-288.164 -93.925)" fill="rgba(252,79,25,0.99)" stroke="#fb501b" stroke-width="0.1"/>
    <path id="Path_74036" data-name="Path 74036" d="M409.283,151.586a1.3,1.3,0,0,1-1.3-1.3V137.3a1.3,1.3,0,0,1,2.6,0v12.988A1.3,1.3,0,0,1,409.283,151.586Zm0,0" transform="translate(-341.747 -114.043)" fill="rgba(252,79,25,0.99)" stroke="#fb501b" stroke-width="0.1"/>
    <path id="Path_74037" data-name="Path 74037" d="M377.283,185.092a1.3,1.3,0,0,1-1.3-1.3V177.3a1.3,1.3,0,1,1,2.6,0v6.494A1.3,1.3,0,0,1,377.283,185.092Zm0,0" transform="translate(-314.942 -147.569)" fill="rgba(252,79,25,0.99)" stroke="#fb501b" stroke-width="0.1"/>
    <path id="Path_74042" data-name="Path 74042" d="M307.285,250.6H281.314a1.3,1.3,0,1,1,0-2.6h25.971a1.3,1.3,0,1,1,0,2.6Zm0,0" transform="translate(-234.554 -207.92)" fill="rgba(252,79,25,0.99)" stroke="#fb501b" stroke-width="0.1"/>
    <path id="Path_74043" data-name="Path 74043" d="M339.673,274.6H329.283a1.3,1.3,0,1,1,0-2.6h10.391a1.3,1.3,0,0,1,0,2.6Zm0,0" transform="translate(-274.735 -228.041)" fill="rgba(252,79,25,0.99)" stroke="#fb501b" stroke-width="0.1"/>
    <g id="Group_164296" data-name="Group 164296" transform="translate(9.089 9.092)">
      <path id="Path_74038" data-name="Path 74038" d="M70.271,84.574A14.287,14.287,0,1,1,84.558,70.287,14.3,14.3,0,0,1,70.271,84.574Zm0-25.976A11.689,11.689,0,1,0,81.96,70.287,11.7,11.7,0,0,0,70.271,58.6Zm0,0" transform="translate(-55.984 -56)" fill="rgba(252,79,25,0.99)" stroke="#fb501b" stroke-width="0.1"/>
      <path id="Path_74039" data-name="Path 74039" d="M123.88,127.793a3.9,3.9,0,1,1,3.9-3.9A3.9,3.9,0,0,1,123.88,127.793Zm0-5.2a1.3,1.3,0,1,0,1.3,1.3A1.3,1.3,0,0,0,123.88,122.6Zm0,0" transform="translate(-109.593 -109.609)" fill="rgba(252,79,25,0.99)" stroke="#fb501b" stroke-width="0.1"/>
      <path id="Path_74040" data-name="Path 74040" d="M137.283,68.988a1.3,1.3,0,0,1-1.3-1.3V57.3a1.3,1.3,0,1,1,2.6,0V67.689A1.3,1.3,0,0,1,137.283,68.988Zm0,0" transform="translate(-122.996 -56)" fill="rgba(252,79,25,0.99)" stroke="#fb501b" stroke-width="0.1"/>
      <path id="Path_74041" data-name="Path 74041" d="M80.722,157.254a1.3,1.3,0,0,1-.918-2.217l7.346-7.346a1.3,1.3,0,0,1,1.837,1.837l-7.346,7.346A1.289,1.289,0,0,1,80.722,157.254Zm0,0" transform="translate(-75.617 -132.486)" fill="rgba(252,79,25,0.99)" stroke="#fb501b" stroke-width="0.1"/>
      <path id="Path_74044" data-name="Path 74044" d="M89.971,250.6H65.3a1.3,1.3,0,0,1,0-2.6H89.971a1.3,1.3,0,0,1,0,2.6Zm0,0" transform="translate(-62.699 -216.828)" fill="rgba(252,79,25,0.99)" stroke="#fb501b" stroke-width="0.1"/>
      <path id="Path_74045" data-name="Path 74045" d="M123.658,274.6H113.268a1.3,1.3,0,1,1,0-2.6h10.391a1.3,1.3,0,1,1,0,2.6Zm0,0" transform="translate(-102.88 -236.932)" fill="rgba(252,79,25,0.99)" stroke="#fb501b" stroke-width="0.1"/>
    </g>
  </g>
</svg>
