<svg xmlns="http://www.w3.org/2000/svg" width="82.02" height="75.5" viewBox="0 0 82.02 75.5">
  <g id="_1" data-name="1" transform="translate(0.251 0.25)">
    <path id="Path_74002" data-name="Path 74002" d="M77.4,0H17.761A4.107,4.107,0,0,0,13.647,4.09V10.3H4.114A4.108,4.108,0,0,0,0,14.391V67.029A8,8,0,0,0,7.96,75h.016l.042,0H50.259a1.187,1.187,0,1,0,0-2.374H13.721a7.922,7.922,0,0,0,2.314-5.6V39.267a1.194,1.194,0,0,0-2.388,0V67.029a5.619,5.619,0,0,1-5.6,5.6h-.03a5.62,5.62,0,0,1-5.63-5.595V14.391a1.724,1.724,0,0,1,1.727-1.716h9.533v22.16a1.194,1.194,0,0,0,2.388,0V4.09a1.723,1.723,0,0,1,1.726-1.716H77.4A1.723,1.723,0,0,1,79.131,4.09V67.029a5.62,5.62,0,0,1-5.63,5.6H54.717a1.187,1.187,0,1,0,0,2.374H73.5a8,8,0,0,0,8.018-7.971V4.09A4.108,4.108,0,0,0,77.4,0Zm0,0" transform="translate(0 0)" fill="rgba(252,79,25,0.99)" stroke="rgba(252,79,25,0.99)" stroke-width="0.5"/>
    <path id="Path_74003" data-name="Path 74003" d="M149.4,182.935h16.378a2.829,2.829,0,0,0,2.825-2.825V163.732a2.829,2.829,0,0,0-2.825-2.825H149.4a2.829,2.829,0,0,0-2.825,2.825V180.11A2.829,2.829,0,0,0,149.4,182.935Zm-.437-19.2a.437.437,0,0,1,.437-.437h16.378a.438.438,0,0,1,.437.437V180.11a.438.438,0,0,1-.437.437H149.4a.438.438,0,0,1-.437-.437Zm0,0" transform="translate(-123.237 -135.499)" fill="rgba(252,79,25,0.99)" stroke="rgba(252,79,25,0.99)" stroke-width="0.5"/>
    <path id="Path_74004" data-name="Path 74004" d="M305.885,163.294h22.163a1.194,1.194,0,0,0,0-2.388H305.885a1.194,1.194,0,0,0,0,2.388Zm0,0" transform="translate(-256.179 -135.441)" fill="rgba(252,79,25,0.99)" stroke="rgba(252,79,25,0.99)" stroke-width="0.5"/>
    <path id="Path_74005" data-name="Path 74005" d="M305.885,224.974h22.163a1.194,1.194,0,1,0,0-2.388H305.885a1.194,1.194,0,0,0,0,2.388Zm0,0" transform="translate(-256.179 -187.36)" fill="rgba(252,79,25,0.99)" stroke="rgba(252,79,25,0.99)" stroke-width="0.5"/>
    <path id="Path_74006" data-name="Path 74006" d="M305.885,286.65h22.163a1.194,1.194,0,0,0,0-2.388H305.885a1.194,1.194,0,0,0,0,2.388Zm0,0" transform="translate(-256.179 -239.275)" fill="rgba(252,79,25,0.99)" stroke="rgba(252,79,25,0.99)" stroke-width="0.5"/>
    <path id="Path_74007" data-name="Path 74007" d="M147.768,348.326h47.338a1.194,1.194,0,0,0,0-2.388H147.768a1.194,1.194,0,1,0,0,2.388Zm0,0" transform="translate(-123.237 -291.19)" fill="rgba(252,79,25,0.99)" stroke="rgba(252,79,25,0.99)" stroke-width="0.5"/>
    <path id="Path_74008" data-name="Path 74008" d="M147.768,410.005h47.338a1.194,1.194,0,0,0,0-2.388H147.768a1.194,1.194,0,0,0,0,2.388Zm0,0" transform="translate(-123.237 -343.157)" fill="rgba(252,79,25,0.99)" stroke="rgba(252,79,25,0.99)" stroke-width="0.5"/>
    <path id="Path_74009" data-name="Path 74009" d="M146.766,51.684V39.067a.644.644,0,0,1,.369-.593,1.825,1.825,0,0,1,.894-.2,1.891,1.891,0,0,1,1.07.253,3.161,3.161,0,0,1,.817,1.088l3.752,7.252V39.047a.625.625,0,0,1,.369-.583,2.152,2.152,0,0,1,1.789,0,.625.625,0,0,1,.369.583V51.684a.65.65,0,0,1-.379.583,1.764,1.764,0,0,1-.884.214,1.518,1.518,0,0,1-1.458-.8l-4.18-7.816v7.816a.649.649,0,0,1-.379.583,1.956,1.956,0,0,1-1.779,0,.65.65,0,0,1-.37-.583Zm0,0" transform="translate(-123.399 -32.176)" fill="rgba(252,79,25,0.99)" stroke="rgba(252,79,25,0.99)" stroke-width="0.5"/>
    <path id="Path_74010" data-name="Path 74010" d="M220.645,51.684V39.067a.662.662,0,0,1,.331-.583,1.4,1.4,0,0,1,.777-.214h6.922a.656.656,0,0,1,.593.331,1.413,1.413,0,0,1,.2.758,1.438,1.438,0,0,1-.214.8.663.663,0,0,1-.583.33h-5.5v3.888h2.955a.68.68,0,0,1,.583.3,1.2,1.2,0,0,1,.214.71,1.171,1.171,0,0,1-.2.671.671.671,0,0,1-.593.3h-2.955v3.908h5.5a.664.664,0,0,1,.583.33,1.439,1.439,0,0,1,.214.8,1.413,1.413,0,0,1-.2.758.654.654,0,0,1-.593.33h-6.922a1.4,1.4,0,0,1-.777-.213.663.663,0,0,1-.331-.584Zm0,0" transform="translate(-185.515 -32.176)" fill="rgba(252,79,25,0.99)" stroke="rgba(252,79,25,0.99)" stroke-width="0.5"/>
    <path id="Path_74011" data-name="Path 74011" d="M284.023,39.281a.851.851,0,0,1,.525-.71,2.156,2.156,0,0,1,1.088-.3q.7,0,.836.506l3.072,10.538,1.653-6.766q.174-.7,1.244-.7,1.05,0,1.225.7l1.652,6.766,3.072-10.538q.136-.506.837-.506a2.158,2.158,0,0,1,1.088.3.851.851,0,0,1,.525.71.747.747,0,0,1-.039.233l-3.85,12.229q-.292.856-1.652.856a2.4,2.4,0,0,1-1.05-.224.945.945,0,0,1-.564-.632l-1.244-5.249-1.264,5.249a.947.947,0,0,1-.564.632,2.4,2.4,0,0,1-1.05.224,2.442,2.442,0,0,1-1.069-.224,1.009,1.009,0,0,1-.583-.632l-3.85-12.229A.728.728,0,0,1,284.023,39.281Zm0,0" transform="translate(-238.802 -32.177)" fill="rgba(252,79,25,0.99)" stroke="rgba(252,79,25,0.99)" stroke-width="0.5"/>
    <path id="Path_74012" data-name="Path 74012" d="M393.68,49.731a1.515,1.515,0,0,1,.34-.9.961.961,0,0,1,.768-.457,1,1,0,0,1,.573.243,6.587,6.587,0,0,1,.622.535,2.856,2.856,0,0,0,.866.535,3.115,3.115,0,0,0,1.244.242,2.68,2.68,0,0,0,1.556-.428,1.433,1.433,0,0,0,.622-1.263,1.7,1.7,0,0,0-.34-1.04,2.7,2.7,0,0,0-.894-.758q-.553-.3-1.215-.583t-1.332-.632a7.762,7.762,0,0,1-1.225-.787,3.145,3.145,0,0,1-.894-1.167,3.881,3.881,0,0,1-.34-1.662,3.925,3.925,0,0,1,.418-1.845,3.18,3.18,0,0,1,1.118-1.243,5.227,5.227,0,0,1,1.5-.651,6.7,6.7,0,0,1,1.692-.208,8.709,8.709,0,0,1,1.069.07,9.89,9.89,0,0,1,1.2.23,2.515,2.515,0,0,1,1.03.5,1.022,1.022,0,0,1,.4.8,1.77,1.77,0,0,1-.272.9.827.827,0,0,1-.739.462,3.658,3.658,0,0,1-.953-.369,3.982,3.982,0,0,0-1.73-.369,2.82,2.82,0,0,0-1.623.4,1.3,1.3,0,0,0-.107,2.08,3.66,3.66,0,0,0,1.157.68q.69.262,1.5.661a12.8,12.8,0,0,1,1.5.865,3.633,3.633,0,0,1,1.157,1.351,4.382,4.382,0,0,1,.466,2.071,3.82,3.82,0,0,1-1.273,3.077,5,5,0,0,1-3.354,1.083A6.265,6.265,0,0,1,395,51.382Q393.679,50.626,393.68,49.731Zm0,0" transform="translate(-331 -31.661)" fill="rgba(252,79,25,0.99)" stroke="rgba(252,79,25,0.99)" stroke-width="0.5"/>
  </g>
</svg>
