<svg xmlns="http://www.w3.org/2000/svg" width="63.922" height="75.5" viewBox="0 0 63.922 75.5">
  <g id="_5" data-name="5" transform="translate(-0.25 0.25)">
    <path id="Path_73947" data-name="Path 73947" d="M126.354,0H81.5a1.141,1.141,0,0,0,0,2.282h44.854a3.476,3.476,0,0,1,3.473,3.473V60.172a1.141,1.141,0,1,0,2.282,0V5.754A5.761,5.761,0,0,0,126.354,0Zm0,0" transform="translate(-68.186 0)" fill="rgba(252,79,25,0.99)" stroke="#fc511c" stroke-width="0.5"/>
    <path id="Path_73948" data-name="Path 73948" d="M62.781,63.96A1.142,1.142,0,0,0,61.641,65.1v4.131a3.48,3.48,0,0,1-3.473,3.48H6.254a3.481,3.481,0,0,1-3.473-3.48V5.766a3.48,3.48,0,0,1,3.473-3.48H8.409A1.143,1.143,0,0,0,8.409,0H6.254A5.767,5.767,0,0,0,.5,5.766V69.234A5.767,5.767,0,0,0,6.254,75H58.168a5.766,5.766,0,0,0,5.754-5.766V65.1a1.142,1.142,0,0,0-1.14-1.143Zm0,0" transform="translate(0 0)" fill="rgba(252,79,25,0.99)" stroke="#fc511c" stroke-width="0.5"/>
    <path id="Path_73949" data-name="Path 73949" d="M58.543,50.363A8.657,8.657,0,1,0,67.2,59.02a8.667,8.667,0,0,0-8.658-8.657Zm0,15.033a6.376,6.376,0,1,1,6.376-6.375A6.383,6.383,0,0,1,58.543,65.4Zm0,0" transform="translate(-42.167 -43.002)" fill="rgba(252,79,25,0.99)" stroke="#fc511c" stroke-width="0.5"/>
    <path id="Path_73950" data-name="Path 73950" d="M198.066,67.2h24.865a1.141,1.141,0,1,0,0-2.282H198.066a1.141,1.141,0,0,0,0,2.282Zm0,0" transform="translate(-167.715 -55.429)" fill="rgba(252,79,25,0.99)" stroke="#fc511c" stroke-width="0.5"/>
    <path id="Path_73951" data-name="Path 73951" d="M198.066,104.067h18a1.141,1.141,0,1,0,0-2.282h-18a1.141,1.141,0,0,0,0,2.282Zm0,0" transform="translate(-167.715 -86.875)" fill="rgba(252,79,25,0.99)" stroke="#fc511c" stroke-width="0.5"/>
    <path id="Path_73952" data-name="Path 73952" d="M198.066,140.938h21.7a1.141,1.141,0,0,0,0-2.282h-21.7a1.141,1.141,0,0,0,0,2.282Zm0,0" transform="translate(-167.715 -118.344)" fill="rgba(252,79,25,0.99)" stroke="#fc511c" stroke-width="0.5"/>
    <path id="Path_73953" data-name="Path 73953" d="M198.066,213.727h24.865a1.141,1.141,0,1,0,0-2.282H198.066a1.141,1.141,0,0,0,0,2.282Zm0,0" transform="translate(-167.715 -180.47)" fill="rgba(252,79,25,0.99)" stroke="#fc511c" stroke-width="0.5"/>
    <path id="Path_73954" data-name="Path 73954" d="M198.066,250.594h18a1.141,1.141,0,0,0,0-2.282h-18a1.141,1.141,0,0,0,0,2.282Zm0,0" transform="translate(-167.715 -211.937)" fill="rgba(252,79,25,0.99)" stroke="#fc511c" stroke-width="0.5"/>
    <path id="Path_73955" data-name="Path 73955" d="M198.066,287.465h21.7a1.141,1.141,0,0,0,0-2.282h-21.7a1.141,1.141,0,0,0,0,2.282Zm0,0" transform="translate(-167.715 -243.406)" fill="rgba(252,79,25,0.99)" stroke="#fc511c" stroke-width="0.5"/>
    <path id="Path_73956" data-name="Path 73956" d="M58.543,343.418a8.657,8.657,0,1,0,8.658,8.657,8.667,8.667,0,0,0-8.658-8.657Zm0,15.033a6.376,6.376,0,1,1,6.376-6.376A6.383,6.383,0,0,1,58.543,358.451Zm0,0" transform="translate(-42.167 -293.06)" fill="rgba(252,79,25,0.99)" stroke="#fc511c" stroke-width="0.5"/>
    <path id="Path_73957" data-name="Path 73957" d="M198.066,360.254h24.865a1.141,1.141,0,1,0,0-2.282H198.066a1.141,1.141,0,0,0,0,2.282Zm0,0" transform="translate(-167.715 -305.532)" fill="rgba(252,79,25,0.99)" stroke="#fc511c" stroke-width="0.5"/>
    <path id="Path_73958" data-name="Path 73958" d="M198.066,397.125h18a1.141,1.141,0,1,0,0-2.281h-18a1.141,1.141,0,0,0,0,2.281Zm0,0" transform="translate(-167.715 -337.002)" fill="rgba(252,79,25,0.99)" stroke="#fc511c" stroke-width="0.5"/>
    <path id="Path_73959" data-name="Path 73959" d="M198.066,433.992h21.7a1.141,1.141,0,0,0,0-2.282h-21.7a1.141,1.141,0,0,0,0,2.282Zm0,0" transform="translate(-167.715 -368.447)" fill="rgba(252,79,25,0.99)" stroke="#fc511c" stroke-width="0.5"/>
    <path id="Path_73960" data-name="Path 73960" d="M56.972,201.264a1.141,1.141,0,0,0-1.614,1.613l2.814,2.814a1.141,1.141,0,0,0,1.614,0l5.886-5.886.017-.017,3.908-3.908a1.141,1.141,0,1,0-1.614-1.613L65,197.252a8.658,8.658,0,1,0,2.2,5.771,1.141,1.141,0,0,0-2.282,0,6.379,6.379,0,1,1-1.54-4.153l-4.4,4.4Zm0,0" transform="translate(-42.168 -165.507)" fill="rgba(252,79,25,0.99)" stroke="#fc511c" stroke-width="0.5"/>
  </g>
</svg>
