<svg xmlns="http://www.w3.org/2000/svg" width="75.5" height="75.5" viewBox="0 0 75.5 75.5">
  <g id="_4" data-name="4" transform="translate(-0.75 -0.75)">
    <path id="Path_73927" data-name="Path 73927" d="M55.453,26.048a7.452,7.452,0,1,0-9.819-.009A11.119,11.119,0,0,0,42.6,27.655l1.492,1.987A8.608,8.608,0,0,1,49.307,27.9h2.484A8.707,8.707,0,0,1,60.4,35.355H46.644v2.484H62.968V36.6a11.187,11.187,0,0,0-7.515-10.549Zm-4.9-10.564a4.968,4.968,0,1,1-4.968,4.968,4.973,4.973,0,0,1,4.968-4.968Z" transform="translate(8.064 2.332)" fill="rgba(252,79,25,0.99)" stroke="#fc511c" stroke-width="0.5"/>
    <path id="Path_73928" data-name="Path 73928" d="M16.177,27.9h2.484a8.616,8.616,0,0,1,5.216,1.739l1.492-1.987a11.114,11.114,0,0,0-3.037-1.617,7.45,7.45,0,1,0-9.817.01A11.187,11.187,0,0,0,5,36.6v1.242H21.324V35.355H7.572A8.707,8.707,0,0,1,16.177,27.9Zm1.242-12.419a4.968,4.968,0,1,1-4.968,4.968A4.973,4.973,0,0,1,17.419,15.484Z" transform="translate(0.968 2.332)" fill="rgba(252,79,25,0.99)" stroke="#fc511c" stroke-width="0.5"/>
    <path id="Path_73930" data-name="Path 73930" d="M1,1V56.645H13.806L5.276,65.175a6.342,6.342,0,0,0,8.969,8.969L28.114,60.274,26.3,58.46l3.047-3.047-1.71-1.71-3.047,3.047L22.67,54.831l3.047-3.047-1.71-1.71L20.96,53.12l-1.815-1.815-2.92,2.92H3.419V3.419H73.581V54.226H47.227v2.419H76V1ZM24.693,60.274,12.534,72.433a3.923,3.923,0,0,1-5.548-5.548L19.145,54.727Z" fill="rgba(252,79,25,0.99)" stroke="#fc511c" stroke-width="0.5"/>
    <path id="Path_73931" data-name="Path 73931" d="M5,5H7.484V7.484H5Z" transform="translate(0.968 0.968)" fill="rgba(252,79,25,0.99)" stroke="#fc511c" stroke-width="0.5"/>
    <path id="Path_73932" data-name="Path 73932" d="M9,5h2.484V7.484H9Z" transform="translate(1.935 0.968)" fill="rgba(252,79,25,0.99)" stroke="#fc511c" stroke-width="0.5"/>
    <path id="Path_73933" data-name="Path 73933" d="M13,5h2.484V7.484H13Z" transform="translate(2.503 0.968)" fill="rgba(252,79,25,0.99)" stroke="#fc511c" stroke-width="0.5"/>
    <path id="Path_73935" data-name="Path 73935" d="M37.223,55.446A16.223,16.223,0,1,1,53.446,39.223,16.242,16.242,0,0,1,37.223,55.446Zm0-29.5A13.273,13.273,0,1,0,50.5,39.223,13.288,13.288,0,0,0,37.223,25.95Z" transform="translate(0.222 3.396)" fill="rgba(252,79,25,0.99)" stroke="#fc511c" stroke-width="0.5"/>
    <path id="Path_73937" data-name="Path 73937" d="M27,33H39.419v2.484H27Z" transform="translate(3.869 8.103)" fill="rgba(252,79,25,0.99)" stroke="#fc511c" stroke-width="0.5"/>
    <path id="Path_73938" data-name="Path 73938" d="M27,29H39.419v2.484H27Z" transform="translate(3.869 7.268)" fill="rgba(252,79,25,0.99)" stroke="#fc511c" stroke-width="0.5"/>
    <path id="Path_73939" data-name="Path 73939" d="M27,37H39.419v2.484H27Z" transform="translate(3.869 8.937)" fill="rgba(252,79,25,0.99)" stroke="#fc511c" stroke-width="0.5"/>
    <path id="Path_73940" data-name="Path 73940" d="M49,35H61.419v2.484H49Z" transform="translate(9.613 7.092)" fill="rgba(252,79,25,0.99)" stroke="#fc511c" stroke-width="0.5"/>
    <path id="Path_73941" data-name="Path 73941" d="M49,39H61.419v2.484H49Z" transform="translate(9.613 7.927)" fill="rgba(252,79,25,0.99)" stroke="#fc511c" stroke-width="0.5"/>
    <path id="Path_73942" data-name="Path 73942" d="M5,35H17.419v2.484H5Z" transform="translate(0.968 7.092)" fill="rgba(252,79,25,0.99)" stroke="#fc511c" stroke-width="0.5"/>
    <path id="Path_73943" data-name="Path 73943" d="M5,39H17.419v2.484H5Z" transform="translate(0.968 7.927)" fill="rgba(252,79,25,0.99)" stroke="#fc511c" stroke-width="0.5"/>
    <path id="Path_73944" data-name="Path 73944" d="M27,13h2.484v2.484H27Z" transform="translate(5.424 2.503)" fill="rgba(252,79,25,0.99)" stroke="#fc511c" stroke-width="0.5"/>
    <path id="Path_73945" data-name="Path 73945" d="M31,13h2.484v2.484H31Z" transform="translate(6.258 2.503)" fill="rgba(252,79,25,0.99)" stroke="#fc511c" stroke-width="0.5"/>
    <path id="Path_73946" data-name="Path 73946" d="M35,13h2.484v2.484H35Z" transform="translate(7.092 2.503)" fill="rgba(252,79,25,0.99)" stroke="#fc511c" stroke-width="0.5"/>
  </g>
</svg>
