<svg xmlns="http://www.w3.org/2000/svg" width="75.5" height="75.5" viewBox="0 0 75.5 75.5">
  <g id="_3" data-name="3" transform="translate(-885.75 -2072.482)">
    <g id="positive-review" transform="translate(886 2072.732)">
      <path id="Path_73919" data-name="Path 73919" d="M124.274,135.667H106.761a1.095,1.095,0,1,0,0,2.189h17.513a1.095,1.095,0,1,0,0-2.189Z" transform="translate(-90.167 -115.792)" fill="rgba(252,79,25,0.99)" stroke="#fb501b" stroke-width="0.5"/>
      <path id="Path_73920" data-name="Path 73920" d="M21.1,47.976a22.877,22.877,0,0,1-7.153-2.588,1.094,1.094,0,0,0-1.282.15,10.546,10.546,0,0,1-7.189,2.818,10.688,10.688,0,0,1-1.461-.1A12.81,12.81,0,0,0,8.689,42.22a1.1,1.1,0,0,0-.229-1.131A23.084,23.084,0,1,1,47.978,21.1a1.095,1.095,0,0,0,2.154-.393A25.274,25.274,0,1,0,6.389,42.067a10.616,10.616,0,0,1-5.7,5.519,1.095,1.095,0,0,0,0,2.029,12.781,12.781,0,0,0,12.866-1.95A25.047,25.047,0,0,0,20.7,50.129a1.094,1.094,0,1,0,.393-2.153Z" transform="translate(0)" fill="rgba(252,79,25,0.99)" stroke="#fb501b" stroke-width="0.5"/>
      <path id="Path_73921" data-name="Path 73921" d="M106.761,195.667a1.095,1.095,0,0,0,0,2.189h12.378a1.095,1.095,0,0,0,0-2.189Z" transform="translate(-90.174 -167.002)" fill="rgba(252,79,25,0.99)" stroke="#fb501b" stroke-width="0.5"/>
      <path id="Path_73922" data-name="Path 73922" d="M125.368,166.762a1.1,1.1,0,0,0-1.095-1.095H106.761a1.095,1.095,0,1,0,0,2.189h17.513A1.1,1.1,0,0,0,125.368,166.762Z" transform="translate(-90.167 -141.397)" fill="rgba(252,79,25,0.99)" stroke="#fb501b" stroke-width="0.5"/>
      <path id="Path_73924" data-name="Path 73924" d="M215.528,213.253a10.617,10.617,0,0,1-5.7-5.519,25.232,25.232,0,1,0-7.161,5.6,12.78,12.78,0,0,0,12.866,1.95,1.094,1.094,0,0,0,0-2.029Zm-4.789.77a10.547,10.547,0,0,1-7.189-2.818,1.094,1.094,0,0,0-1.282-.15,23.111,23.111,0,1,1,5.483-4.3,1.094,1.094,0,0,0-.229,1.131,12.809,12.809,0,0,0,4.678,6.037A10.663,10.663,0,0,1,210.739,214.022Z" transform="translate(-141.212 -141.211)" fill="rgba(252,79,25,0.99)" stroke="#fb501b" stroke-width="0.5"/>
    </g>
    <text id="_" data-name="?" transform="translate(929.089 2131.405)" fill="rgba(252,79,25,0.99)" stroke="#fb501b" stroke-width="0.5" font-size="24" font-family="Poppins-SemiBold, Poppins" font-weight="600"><tspan x="0" y="0">?</tspan></text>
  </g>
</svg>
