<svg xmlns="http://www.w3.org/2000/svg" width="93.241" height="75.526" viewBox="0 0 93.241 75.526">
  <g id="_12" data-name="12" transform="translate(0.25 3.762)">
    <path id="Path_73999" data-name="Path 73999" d="M401.509,122.72h.021l14.783-.222a1.328,1.328,0,0,0-.039-2.655l-14.783.222a1.328,1.328,0,1,0,.018,2.655Zm0,0" transform="translate(-339.333 -104.679)" fill="rgba(252,79,25,0.99)" stroke="#fb501b" stroke-width="0.5"/>
    <path id="Path_74000" data-name="Path 74000" d="M409.406,179h-.02l-7.028.105a1.328,1.328,0,1,0,.018,2.655h.021l7.028-.105a1.328,1.328,0,1,0-.019-2.655Zm0,0" transform="translate(-340.068 -154.893)" fill="rgba(252,79,25,0.99)" stroke="#fb501b" stroke-width="0.5"/>
    <path id="Path_74001" data-name="Path 74001" d="M2.3,68.637a1.248,1.248,0,0,0,.194.155,8.9,8.9,0,0,0,6.416,2.722H62.024a8.91,8.91,0,0,0,6.41-2.714,1.3,1.3,0,0,0,.444-.491,8.794,8.794,0,0,0,2.061-5.664V42.52a23.151,23.151,0,0,0,6.688-1.4l12.349,1.96a1.329,1.329,0,0,0,1.261-.5,1.315,1.315,0,0,0,.162-1.341l-3.434-7.71a22.92,22.92,0,0,0,.8-26.9A23.158,23.158,0,0,0,46.5,18.4H8.914A8.911,8.911,0,0,0,.075,26.14a1.325,1.325,0,0,0-.06.627c-.01.168-.015.337-.015.506v35.37a8.8,8.8,0,0,0,2.058,5.661,1.3,1.3,0,0,0,.247.331Zm6.609.235a6.249,6.249,0,0,1-3.755-1.248l16.019-16.3a1.319,1.319,0,0,0-.616-2.212,1.331,1.331,0,0,0-1.283.366L3.416,65.618a6.171,6.171,0,0,1-.761-2.974V29.425L30.208,52.636a8.163,8.163,0,0,0,10.547,0L56.907,39a1.122,1.122,0,0,0,.106-.1l.027-.029a22.987,22.987,0,0,0,11.243,3.647V62.644a6.154,6.154,0,0,1-.766,2.983L51.56,49.473a1.33,1.33,0,0,0-2.238.567,1.317,1.317,0,0,0,.344,1.285L65.772,67.63a6.249,6.249,0,0,1-3.748,1.242Zm46-63.53A20.552,20.552,0,0,1,83.306,4.306,20.3,20.3,0,0,1,85.4,32.5a1.314,1.314,0,0,0-.189,1.377l2.769,6.219L77.7,38.459a1.339,1.339,0,0,0-.689.073,20.538,20.538,0,0,1-19.316-2.416,1.162,1.162,0,0,0-.1-.07,20.684,20.684,0,0,1-2.251-1.885,20.308,20.308,0,0,1-.434-28.82Zm-46,15.7H46.521A22.81,22.81,0,0,0,53.5,36.057q.659.635,1.359,1.213L39.037,50.617a5.506,5.506,0,0,1-7.113,0L2.774,26.064a6.263,6.263,0,0,1,6.14-5.018Zm0,0" transform="translate(0 0)" fill="rgba(252,79,25,0.99)" stroke="#fb501b" stroke-width="0.5"/>
  </g>
</svg>
