<svg xmlns="http://www.w3.org/2000/svg" xmlns:xlink="http://www.w3.org/1999/xlink" width="138" height="138" viewBox="0 0 138 138">
  <defs>
    <filter id="Ellipse_3227" x="0" y="0" width="138" height="138" filterUnits="userSpaceOnUse">
      <feOffset dy="3" input="SourceAlpha"/>
      <feGaussianBlur stdDeviation="3" result="blur"/>
      <feFlood flood-opacity="0.161"/>
      <feComposite operator="in" in2="blur"/>
      <feComposite in="SourceGraphic"/>
    </filter>
  </defs>
  <g id="ic_SIAD" transform="translate(-582 -2328)">
    <g transform="matrix(1, 0, 0, 1, 582, 2328)" filter="url(#Ellipse_3227)">
      <circle id="Ellipse_3227-2" data-name="Ellipse 3227" cx="60" cy="60" r="60" transform="translate(9 6)" fill="#fff"/>
    </g>
    <g id="technical-support" transform="translate(619 2362)">
      <path id="Path_74097" data-name="Path 74097" d="M11.435,50.266a5.3,5.3,0,0,0-2.562.654,29.978,29.978,0,0,1,29.6-47.787,1.27,1.27,0,1,0,.5-2.489A32.758,32.758,0,0,0,32.508,0,32.5,32.5,0,0,0,7,52.64a5.336,5.336,0,1,0,4.439-2.374Zm1.975,7.307a2.792,2.792,0,1,1,.818-1.975A2.775,2.775,0,0,1,13.41,57.572Zm0,0" transform="translate(0 0)" fill="rgba(252,79,25,0.99)" stroke="#fb501b" stroke-width="0.8"/>
      <path id="Path_74098" data-name="Path 74098" d="M230.426,40.339a5.323,5.323,0,1,0-1.877,1.722A29.978,29.978,0,0,1,199,89.859a1.27,1.27,0,1,0-.5,2.49,32.781,32.781,0,0,0,6.41.632,32.5,32.5,0,0,0,25.512-52.642Zm-6.414-.981a2.795,2.795,0,1,1,1.975.818A2.774,2.774,0,0,1,224.012,39.358Zm0,0" transform="translate(-172.423 -27.981)" fill="rgba(252,79,25,0.99)" stroke="#fb501b" stroke-width="0.8"/>
      <path id="Path_74099" data-name="Path 74099" d="M91.851,118.937a1.27,1.27,0,0,0,1.269,1.269h7.937a1.269,1.269,0,0,0,1.269-1.269v-2.461a19.878,19.878,0,0,0,4.764-1.975l1.737,1.738a1.269,1.269,0,0,0,1.8,0l5.61-5.614a1.27,1.27,0,0,0,0-1.8l-1.736-1.736a19.878,19.878,0,0,0,1.975-4.764h2.452a1.269,1.269,0,0,0,1.269-1.269V93.123a1.269,1.269,0,0,0-1.269-1.269h-2.452A19.881,19.881,0,0,0,114.5,87.09l1.726-1.726a1.27,1.27,0,0,0,0-1.8l-5.615-5.61a1.269,1.269,0,0,0-1.795,0l-1.724,1.724a19.879,19.879,0,0,0-4.764-1.975V75.269A1.269,1.269,0,0,0,101.058,74H93.12a1.27,1.27,0,0,0-1.269,1.269v2.439a19.862,19.862,0,0,0-4.764,1.974l-1.724-1.724a1.27,1.27,0,0,0-1.8,0l-5.614,5.611a1.269,1.269,0,0,0,0,1.8L79.68,87.09a19.875,19.875,0,0,0-1.975,4.764H75.258a1.269,1.269,0,0,0-1.269,1.269l0,7.937a1.269,1.269,0,0,0,1.269,1.27h2.452a19.878,19.878,0,0,0,1.975,4.764l-1.736,1.736a1.269,1.269,0,0,0,0,1.8l5.61,5.614a1.27,1.27,0,0,0,.9.372h0a1.269,1.269,0,0,0,.9-.372l1.737-1.738a19.9,19.9,0,0,0,4.764,1.975Zm-4.266-7.105A1.27,1.27,0,0,0,86,112l-1.546,1.546-3.816-3.819,1.544-1.545a1.269,1.269,0,0,0,.169-1.586,17.375,17.375,0,0,1-2.4-5.8,1.27,1.27,0,0,0-1.241-1h-2.18l0-5.4H78.7a1.269,1.269,0,0,0,1.241-1,17.376,17.376,0,0,1,2.4-5.8A1.269,1.269,0,0,0,82.181,86l-1.534-1.535,3.819-3.816L86,82.184a1.27,1.27,0,0,0,1.587.169,17.368,17.368,0,0,1,5.8-2.4,1.27,1.27,0,0,0,1-1.241V76.539h5.4v2.167a1.269,1.269,0,0,0,1,1.241,17.383,17.383,0,0,1,5.8,2.4,1.268,1.268,0,0,0,1.586-.169l1.533-1.533,3.819,3.816L112,86a1.269,1.269,0,0,0-.169,1.587,17.387,17.387,0,0,1,2.4,5.8,1.269,1.269,0,0,0,1.241,1h2.181v5.4h-2.181a1.27,1.27,0,0,0-1.241,1,17.372,17.372,0,0,1-2.4,5.8,1.27,1.27,0,0,0,.169,1.587l1.544,1.544-3.816,3.819L108.18,112a1.269,1.269,0,0,0-1.587-.169,17.387,17.387,0,0,1-5.8,2.4,1.269,1.269,0,0,0-1,1.241v2.19h-5.4v-2.19a1.27,1.27,0,0,0-1-1.241A17.377,17.377,0,0,1,87.585,111.832Zm0,0" transform="translate(-64.59 -64.604)" fill="rgba(252,79,25,0.99)" stroke="#fb501b" stroke-width="0.8"/>
      <path id="Path_74100" data-name="Path 74100" d="M194.356,183.864a10.493,10.493,0,1,0-10.493,10.493A10.5,10.5,0,0,0,194.356,183.864Zm-18.446,0a7.953,7.953,0,1,1,7.953,7.953A7.962,7.962,0,0,1,175.911,183.864Zm0,0" transform="translate(-151.364 -151.364)" fill="rgba(252,79,25,0.99)" stroke="#fb501b" stroke-width="0.8"/>
      <path id="Path_74101" data-name="Path 74101" d="M339.348,20.35a1.271,1.271,0,1,0-.9-.372A1.279,1.279,0,0,0,339.348,20.35Zm0,0" transform="translate(-295.159 -15.548)" fill="rgba(252,79,25,0.99)" stroke="#fb501b" stroke-width="0.8"/>
      <path id="Path_74102" data-name="Path 74102" d="M155.629,474.359a1.27,1.27,0,1,0,.9.372A1.28,1.28,0,0,0,155.629,474.359Zm0,0" transform="translate(-134.763 -414.139)" fill="rgba(252,79,25,0.99)" stroke="#fb501b" stroke-width="0.8"/>
    </g>
  </g>
</svg>
