<svg xmlns="http://www.w3.org/2000/svg" width="62.987" height="75" viewBox="0 0 62.987 75">
  <g id="_2" data-name="2" transform="translate(-2)">
    <path id="Path_73795" data-name="Path 73795" d="M57.113,75H9.873A7.854,7.854,0,0,1,2,67.188V7.813A7.854,7.854,0,0,1,9.873,0h47.24a7.854,7.854,0,0,1,7.873,7.813V67.188A7.854,7.854,0,0,1,57.113,75ZM9.873,3.125A4.712,4.712,0,0,0,5.149,7.813V67.188a4.712,4.712,0,0,0,4.724,4.687h47.24a4.712,4.712,0,0,0,4.724-4.687V7.813a4.712,4.712,0,0,0-4.724-4.687Z" fill="rgba(252,79,25,0.99)"/>
    <path id="Path_73796" data-name="Path 73796" d="M23.873,14.149h-6.3a1.575,1.575,0,1,1,0-3.149h6.3a1.575,1.575,0,1,1,0,3.149Z" transform="translate(30.091 23.363)" fill="rgba(252,79,25,0.99)"/>
    <path id="Path_73797" data-name="Path 73797" d="M23.873,11.149h-6.3a1.575,1.575,0,1,1,0-3.149h6.3a1.575,1.575,0,1,1,0,3.149Z" transform="translate(30.091 16.992)" fill="rgba(252,79,25,0.99)"/>
    <path id="Path_73798" data-name="Path 73798" d="M23.873,17.149h-6.3a1.575,1.575,0,1,1,0-3.149h6.3a1.575,1.575,0,0,1,0,3.149Z" transform="translate(30.091 29.735)" fill="rgba(252,79,25,0.99)"/>
    <path id="Path_73799" data-name="Path 73799" d="M23.873,20.149h-6.3a1.575,1.575,0,1,1,0-3.149h6.3a1.575,1.575,0,1,1,0,3.149Z" transform="translate(30.091 36.107)" fill="rgba(252,79,25,0.99)"/>
    <path id="Path_73800" data-name="Path 73800" d="M47.516,23.149H6.575a1.575,1.575,0,1,1,0-3.149H47.516a1.575,1.575,0,1,1,0,3.149Z" transform="translate(6.448 42.403)" fill="rgba(252,79,25,0.99)"/>
    <path id="Path_73801" data-name="Path 73801" d="M20.747,39.493A15.747,15.747,0,1,1,36.493,23.747,15.765,15.765,0,0,1,20.747,39.493Zm0-28.344a12.6,12.6,0,1,0,12.6,12.6A12.61,12.61,0,0,0,20.747,11.149Z" transform="translate(6.448 16.861)" fill="rgba(252,79,25,0.99)"/>
    <path id="Path_73802" data-name="Path 73802" d="M7.893,35.342a1.573,1.573,0,0,1-1.115-2.686l9.561-9.561V9.575a1.575,1.575,0,0,1,3.149,0V23.747a1.586,1.586,0,0,1-.46,1.115L9.008,34.883A1.582,1.582,0,0,1,7.893,35.342Z" transform="translate(9.28 16.89)" fill="rgba(252,79,25,0.99)"/>
  </g>
</svg>
