<svg xmlns="http://www.w3.org/2000/svg" xmlns:xlink="http://www.w3.org/1999/xlink" width="138" height="138" viewBox="0 0 138 138">
  <defs>
    <filter id="Ellipse_3227" x="0" y="0" width="138" height="138" filterUnits="userSpaceOnUse">
      <feOffset dy="3" input="SourceAlpha"/>
      <feGaussianBlur stdDeviation="3" result="blur"/>
      <feFlood flood-opacity="0.161"/>
      <feComposite operator="in" in2="blur"/>
      <feComposite in="SourceGraphic"/>
    </filter>
  </defs>
  <g id="_3" data-name="3" transform="translate(-882 -3958)">
    <g transform="matrix(1, 0, 0, 1, 882, 3958)" filter="url(#Ellipse_3227)">
      <circle id="Ellipse_3227-2" data-name="Ellipse 3227" cx="60" cy="60" r="60" transform="translate(9 6)" fill="#fff"/>
    </g>
    <g id="business-and-finance" transform="translate(853 3970.5)">
      <path id="Path_74186" data-name="Path 74186" d="M72,27.875V66.958a6.454,6.454,0,0,0,6.516,6.375H102.6v8.454a4.77,4.77,0,0,0,4.816,4.712h11.9a4.77,4.77,0,0,0,4.816-4.712V54.624a4.77,4.77,0,0,0-4.816-4.712h-5.949V27.875a6.454,6.454,0,0,0-6.516-6.375H78.516A6.454,6.454,0,0,0,72,27.875Zm6.516,43.8A4.77,4.77,0,0,1,73.7,66.958V64.187h28.9v7.484Zm43.913-15.536V77.076H104.3V56.134Zm-3.116,28.7h-11.9a3.087,3.087,0,0,1-3.116-3.049V78.739h18.132v3.049A3.087,3.087,0,0,1,119.312,84.837Zm3.112-30.366H104.3a3.091,3.091,0,0,1,3.112-2.9h11.9A3.091,3.091,0,0,1,122.425,54.471Zm-15.011-4.56a4.77,4.77,0,0,0-4.816,4.712v7.9H73.7V28.707h37.963v21.2Zm4.173-22.868H73.776a4.8,4.8,0,0,1,4.74-3.881h28.331A4.8,4.8,0,0,1,111.586,27.044Z" transform="translate(0 0)" fill="rgba(252,79,25,0.99)" stroke="#fc511c" stroke-width="0.5"/>
      <path id="Path_74187" data-name="Path 74187" d="M203.569,355.5H199.9a.85.85,0,1,0,0,1.7h3.669a.85.85,0,0,0,0-1.7Z" transform="translate(-109.053 -287.737)" fill="rgba(252,79,25,0.99)" stroke="#fc511c" stroke-width="0.5"/>
      <path id="Path_74188" data-name="Path 74188" d="M349.569,450.5H345.9a.85.85,0,0,0,0,1.7h3.669a.85.85,0,0,0,0-1.7Z" transform="translate(-234.372 -369.666)" fill="rgba(252,79,25,0.99)" stroke="#fc511c" stroke-width="0.5"/>
    </g>
  </g>
</svg>
