<svg xmlns="http://www.w3.org/2000/svg" width="58.604" height="75" viewBox="0 0 58.604 75">
  <g id="_9" data-name="9" transform="translate(-47.037 0)">
    <g id="Group_162315" data-name="Group 162315" transform="translate(47.037 0)">
      <g id="Group_162314" data-name="Group 162314" transform="translate(0 0)">
        <path id="Path_73978" data-name="Path 73978" d="M98.182,9.827H91.434V6.791c0-.982-1.065-1.428-2.042-1.428H84.153A7.943,7.943,0,0,0,76.25.006a8.081,8.081,0,0,0-7.9,5.357H63.2c-.977,0-1.953.446-1.953,1.428V9.827H54.5a7.566,7.566,0,0,0-7.459,7.232V68.215C47.037,72.143,50.589,75,54.5,75H98.182c3.907,0,7.459-2.857,7.459-6.785V17.058A7.566,7.566,0,0,0,98.182,9.827ZM64.8,8.934h4.884a1.958,1.958,0,0,0,1.687-1.607A5.157,5.157,0,0,1,76.25,3.309a5.068,5.068,0,0,1,4.795,4.018,1.957,1.957,0,0,0,1.776,1.607h5.061v7.142H64.8Zm37.293,59.281c0,1.964-1.953,3.214-3.907,3.214H54.5c-1.953,0-3.907-1.25-3.907-3.214V17.058A4,4,0,0,1,54.5,13.4h6.748v4.553a1.868,1.868,0,0,0,1.953,1.7H89.391a1.956,1.956,0,0,0,2.042-1.7V13.4h6.748a4,4,0,0,1,3.907,3.66V68.215Z" transform="translate(-47.037 0)" fill="rgba(252,79,25,0.99)"/>
        <path id="Path_73979" data-name="Path 73979" d="M112.949,230.865a1.776,1.776,0,0,0-2.486-.089l-5.683,5.416-2.4-2.486a1.776,1.776,0,0,0-2.486-.089,1.865,1.865,0,0,0,0,2.575l3.64,3.729a1.6,1.6,0,0,0,1.243.533,1.775,1.775,0,0,0,1.243-.533l6.926-6.571a1.687,1.687,0,0,0,.1-2.384C113.019,230.932,112.985,230.9,112.949,230.865Z" transform="translate(-90.485 -190.921)" fill="rgba(252,79,25,0.99)"/>
        <path id="Path_73980" data-name="Path 73980" d="M220.746,256.034H200.324a1.776,1.776,0,0,0,0,3.552h20.422a1.776,1.776,0,0,0,0-3.552Z" transform="translate(-172.798 -212.27)" fill="rgba(252,79,25,0.99)"/>
        <path id="Path_73981" data-name="Path 73981" d="M112.949,147.273a1.776,1.776,0,0,0-2.486-.089L104.78,152.6l-2.4-2.486a1.776,1.776,0,0,0-2.486-.089,1.865,1.865,0,0,0,0,2.575l3.64,3.729a1.6,1.6,0,0,0,1.243.533,1.775,1.775,0,0,0,1.243-.533l6.926-6.571a1.687,1.687,0,0,0,.1-2.384C113.019,147.34,112.985,147.306,112.949,147.273Z" transform="translate(-90.485 -121.626)" fill="rgba(252,79,25,0.99)"/>
        <path id="Path_73982" data-name="Path 73982" d="M220.746,172.442H200.324a1.776,1.776,0,0,0,0,3.552h20.422a1.776,1.776,0,0,0,0-3.552Z" transform="translate(-172.798 -142.966)" fill="rgba(252,79,25,0.99)"/>
        <path id="Path_73983" data-name="Path 73983" d="M112.949,314.456a1.776,1.776,0,0,0-2.486-.089l-5.683,5.416-2.4-2.486a1.776,1.776,0,0,0-2.486-.089,1.865,1.865,0,0,0,0,2.575l3.64,3.729a1.6,1.6,0,0,0,1.243.533,1.775,1.775,0,0,0,1.243-.533l6.926-6.571a1.687,1.687,0,0,0,.1-2.384C113.019,314.523,112.985,314.489,112.949,314.456Z" transform="translate(-90.485 -260.145)" fill="rgba(252,79,25,0.99)"/>
        <path id="Path_73984" data-name="Path 73984" d="M220.746,339.626H200.324a1.776,1.776,0,0,0,0,3.552h20.422a1.776,1.776,0,0,0,0-3.552Z" transform="translate(-172.798 -281.573)" fill="rgba(252,79,25,0.99)"/>
      </g>
    </g>
  </g>
</svg>
