<svg xmlns="http://www.w3.org/2000/svg" xmlns:xlink="http://www.w3.org/1999/xlink" width="138" height="138" viewBox="0 0 138 138">
  <defs>
    <filter id="Ellipse_3227" x="0" y="0" width="138" height="138" filterUnits="userSpaceOnUse">
      <feOffset dy="3" input="SourceAlpha"/>
      <feGaussianBlur stdDeviation="3" result="blur"/>
      <feFlood flood-opacity="0.161"/>
      <feComposite operator="in" in2="blur"/>
      <feComposite in="SourceGraphic"/>
    </filter>
  </defs>
  <g id="_4" data-name="4" transform="translate(-1182 -3958)">
    <g transform="matrix(1, 0, 0, 1, 1182, 3958)" filter="url(#Ellipse_3227)">
      <circle id="Ellipse_3227-2" data-name="Ellipse 3227" cx="60" cy="60" r="60" transform="translate(9 6)" fill="#fff"/>
    </g>
    <g id="surface1" transform="translate(1225.5 3992)">
      <path id="Path_74189" data-name="Path 74189" d="M34.989.5A1.538,1.538,0,0,0,33.876,0H8.91A8.512,8.512,0,0,0,.5,8.525V56.474A8.512,8.512,0,0,0,8.91,65H42.8a8.512,8.512,0,0,0,8.41-8.526V18.4a1.7,1.7,0,0,0-.448-1.1Zm.448,5.04L46,16.8H39.132a3.71,3.71,0,0,1-3.695-3.737ZM42.8,61.86H8.91a5.4,5.4,0,0,1-5.318-5.386V8.525A5.4,5.4,0,0,1,8.91,3.14H32.345v9.923a6.816,6.816,0,0,0,6.787,6.877h8.981V56.474A5.386,5.386,0,0,1,42.8,61.86Zm0,0" transform="translate(0)" fill="rgba(252,79,25,0.99)"/>
      <path id="Path_74190" data-name="Path 74190" d="M116.163,401.934H90.718a1.546,1.546,0,1,0,0,3.092h25.461a1.546,1.546,0,1,0-.016-3.092Zm0,0" transform="translate(-77.588 -350.867)" fill="rgba(252,79,25,0.99)"/>
      <path id="Path_74191" data-name="Path 74191" d="M121.084,182.618l6.369-6.849V192.65a1.546,1.546,0,0,0,3.092,0V175.769l6.369,6.849a1.542,1.542,0,0,0,2.257-2.1l-9.059-9.724a1.535,1.535,0,0,0-2.257,0l-9.059,9.724a1.541,1.541,0,0,0,.077,2.18A1.577,1.577,0,0,0,121.084,182.618Zm0,0" transform="translate(-103.146 -148.479)" fill="rgba(252,79,25,0.99)"/>
    </g>
  </g>
</svg>
