<svg xmlns="http://www.w3.org/2000/svg" xmlns:xlink="http://www.w3.org/1999/xlink" width="138" height="138" viewBox="0 0 138 138">
  <defs>
    <filter id="Ellipse_3227" x="0" y="0" width="138" height="138" filterUnits="userSpaceOnUse">
      <feOffset dy="3" input="SourceAlpha"/>
      <feGaussianBlur stdDeviation="3" result="blur"/>
      <feFlood flood-opacity="0.161"/>
      <feComposite operator="in" in2="blur"/>
      <feComposite in="SourceGraphic"/>
    </filter>
  </defs>
  <g id="_7" data-name="7" transform="translate(-882 -4248)">
    <g transform="matrix(1, 0, 0, 1, 882, 4248)" filter="url(#Ellipse_3227)">
      <circle id="Ellipse_3227-2" data-name="Ellipse 3227" cx="60" cy="60" r="60" transform="translate(9 6)" fill="#fff"/>
    </g>
    <g id="dependable" transform="translate(917.969 4281)">
      <path id="Path_74208" data-name="Path 74208" d="M26.176,19.1a1.049,1.049,0,0,1,1.048,1.048h2.1a3.145,3.145,0,1,0-6.29,0h2.1A1.049,1.049,0,0,1,26.176,19.1Z" transform="translate(1.065 0.774)" fill="rgba(252,79,25,0.99)" stroke="#fc511c" stroke-width="0.3"/>
      <path id="Path_74209" data-name="Path 74209" d="M18.176,19.1a1.049,1.049,0,0,1,1.048,1.048h2.1a3.145,3.145,0,1,0-6.29,0h2.1A1.049,1.049,0,0,1,18.176,19.1Z" transform="translate(0.677 0.774)" fill="rgba(252,79,25,0.99)" stroke="#fc511c" stroke-width="0.3"/>
      <path id="Path_74210" data-name="Path 74210" d="M27.4,24.511l.055-.161-1.988-.669-.055.165a3.317,3.317,0,0,1-6.291,0l-.053-.161-1.99.657.055.164a5.412,5.412,0,0,0,10.268,0Z" transform="translate(0.777 1.097)" fill="rgba(252,79,25,0.99)" stroke="#fc511c" stroke-width="0.3"/>
      <path id="Path_74211" data-name="Path 74211" d="M62.026,17.774a23.841,23.841,0,0,1-13.268-4.017l-.582-.388-.582.388a24.025,24.025,0,0,1-9.227,3.67l.012-.046A13.182,13.182,0,0,0,25.589,1h-.606a13.185,13.185,0,0,0-4.169.676L18.3,2.514A5.219,5.219,0,0,0,14.628,1h-2.1A7.331,7.331,0,0,0,7.289,13.464V15.43a11.019,11.019,0,0,0,.819,4.112,4.179,4.179,0,0,0,3.407,6.62h.8a11.592,11.592,0,0,0,5.32,5.984l-.719,3.6L9.494,37.091A10.305,10.305,0,0,0,1.031,47.233V66h44V54.408l3.145,1.179L53.753,53.5A18.959,18.959,0,0,0,66,35.826V17.774Zm-14.9,3.748V48.761l-2.1-.786v-.743A10.294,10.294,0,0,0,36.72,37.125a12.347,12.347,0,0,1-.077-1.3V25.6a4.2,4.2,0,0,0,1.667-1.753A28.764,28.764,0,0,0,47.128,21.522Zm2.1.03a30.035,30.035,0,0,0,10.484,2.456V35.826a13.016,13.016,0,0,1-8.163,12.065l-2.321.87ZM30.359,35.962l-1.213-.22L28.43,32.16a11.592,11.592,0,0,0,1.925-1.277v4.944C30.353,35.871,30.359,35.917,30.359,35.962Zm-1.876,1.791,1.24.225L27.869,42.3,24.88,39.913Zm3.987-1.407c-.005-.173-.02-.345-.02-.519v-7.2a11.494,11.494,0,0,0,1.328-2.46h.768v9.665c0,.3.018.6.037.9Zm2.109-14.378v-2.1a2.1,2.1,0,1,1,0,4.194h-.2A11.521,11.521,0,0,0,34.579,21.968ZM12.531,3.1h2.1a3.145,3.145,0,1,1,0,6.29,1.048,1.048,0,1,1,0-2.1h1.048v-2.1H14.628a3.145,3.145,0,1,0,0,6.29A5.217,5.217,0,0,0,19.5,4.327l1.981-.662A11.116,11.116,0,0,1,24.983,3.1h.606A11.089,11.089,0,0,1,36.346,16.872l-.3,1.183a4.155,4.155,0,0,0-1.471-.28V17.6A6.323,6.323,0,0,0,31.525,12.2l-1.192-.715a4.627,4.627,0,0,0,.052-.515A4.7,4.7,0,0,0,27.169,6.51L26.525,6.3l-.664,1.989.645.215a2.607,2.607,0,0,1-.824,5.08H12.531a5.241,5.241,0,1,1,0-10.483ZM9.82,18.139a8.956,8.956,0,0,1-.434-2.709v-.471a7.267,7.267,0,0,0,2.129.64v2.175a4.167,4.167,0,0,0-1.7.365Zm1.7,5.925a2.1,2.1,0,1,1,0-4.194v2.1a11.521,11.521,0,0,0,.2,2.1Zm2.1-2.1v-6.29h12.07a4.7,4.7,0,0,0,3.949-2.166l.816.49a4.216,4.216,0,0,1,2.036,3.6v4.371a9.435,9.435,0,1,1-18.871,0ZM23.047,33.5a11.483,11.483,0,0,0,3.408-.515l.631,3.159-4.039,2.424-4.069-2.442.63-3.15a11.5,11.5,0,0,0,3.439.524ZM17.6,37.747l3.611,2.166L18.227,42.3l-1.858-4.333ZM4.927,42.1a8.205,8.205,0,0,1,4.942-2.949l4.384-.8,3.132,7.306,5.662-4.53,5.662,4.53,3.128-7.3,4.353.792a8.215,8.215,0,0,1,6.743,8.078v8.284h-6.28l-.01-4.2-2.1.005.03,12.577H11.513l-.03-12.583-2.1.005.01,4.19H3.128V47.232a8.244,8.244,0,0,1,1.8-5.129Zm-1.8,15.51H9.4l.015,6.29H3.128ZM36.674,63.9l-.015-6.29h6.275V63.9ZM63.9,35.826A16.85,16.85,0,0,1,53.016,51.532l-4.84,1.816-3.145-1.179V50.214l3.145,1.179,4.105-1.539A15.151,15.151,0,0,0,61.8,35.826V22.012l-1-.044a27.51,27.51,0,0,1-12.127-3.02l-.5-.268-.5.269a25.41,25.41,0,0,1-8.934,2.721,4.163,4.163,0,0,0-.711-2.074,26.126,26.126,0,0,0,10.144-3.718,25.925,25.925,0,0,0,13.85,3.993H63.9Z" fill="rgba(252,79,25,0.99)" stroke="#fc511c" stroke-width="0.3"/>
    </g>
  </g>
</svg>
