<svg xmlns="http://www.w3.org/2000/svg" xmlns:xlink="http://www.w3.org/1999/xlink" width="108" height="108" viewBox="0 0 108 108">
  <defs>
    <filter id="Ellipse_3227" x="0" y="0" width="108" height="108" filterUnits="userSpaceOnUse">
      <feOffset dy="3" input="SourceAlpha"/>
      <feGaussianBlur stdDeviation="3" result="blur"/>
      <feFlood flood-opacity="0.161"/>
      <feComposite operator="in" in2="blur"/>
      <feComposite in="SourceGraphic"/>
    </filter>
  </defs>
  <g id="Resource" transform="translate(-506 -1592)">
    <g id="Group_163278" data-name="Group 163278" transform="translate(223 -841)">
      <g id="Group_162574" data-name="Group 162574" transform="translate(292 2439)">
        <g id="Group_162560" data-name="Group 162560">
          <g id="Group_162559" data-name="Group 162559">
            <g transform="matrix(1, 0, 0, 1, -9, -6)" filter="url(#Ellipse_3227)">
              <circle id="Ellipse_3227-2" data-name="Ellipse 3227" cx="45" cy="45" r="45" transform="translate(9 6)" fill="#fff"/>
            </g>
          </g>
        </g>
      </g>
    </g>
    <g id="management" transform="translate(536 1622)">
      <path id="Path_73889" data-name="Path 73889" d="M53.419,11.715V7.7l-1.905-.521c-.062-.167-.132-.333-.208-.5l.981-1.717L49.451,2.133l-1.718.98c-.165-.075-.33-.145-.5-.208L46.716,1H42.7l-.521,1.905c-.166.062-.332.131-.5.208l-1.717-.98L37.133,4.969l.981,1.717c-.075.164-.145.33-.208.5L36,7.7v4.011l1.905.521c.062.167.132.333.208.5l-.981,1.717,2.836,2.836,1.709-.974a10.2,10.2,0,0,0,1.367.623l.214,0v-3.6a1.462,1.462,0,0,1,.029-.29,3.63,3.63,0,1,1,2.845,0,1.469,1.469,0,0,1,.029.29v3.629l.214-.032a10.188,10.188,0,0,0,1.367-.623l1.709.974,2.836-2.836-.981-1.717c.075-.164.145-.33.208-.5Z" transform="translate(-9.597)" fill="none" stroke="rgba(252,79,25,0.99)" stroke-width="1.5"/>
      <path id="Path_73891" data-name="Path 73891" d="M44.984,35.984A5.108,5.108,0,0,0,46,32.935V23.5a2.17,2.17,0,0,0-2.987-2.018,2.158,2.158,0,0,0-3.545-1.045A2.11,2.11,0,0,0,37.29,20v-6.53a4.355,4.355,0,1,0-4.355,0V27.139a2.177,2.177,0,0,1-.222.957L32.1,25.052a4.639,4.639,0,0,0-.621-1.552h0V19.145a3.633,3.633,0,0,0-3.629-3.629H24.573a6.559,6.559,0,0,0-3.25-2.522V11.161a.727.727,0,0,1,.726-.726H26.4V8.984H22.048a2.18,2.18,0,0,0-2.177,2.177v1.494a6.172,6.172,0,0,0-1.452,0V8.984a2.18,2.18,0,0,0-2.177-2.177h-2.22a6.532,6.532,0,1,0,0,1.452h2.22a.727.727,0,0,1,.726.726v4.01a6.559,6.559,0,0,0-3.25,2.522H4.629A3.633,3.633,0,0,0,1,19.145V33.661A3.633,3.633,0,0,0,4.629,37.29h5.806v1.452H9.71a2.906,2.906,0,0,0-2.9,2.9A1.453,1.453,0,0,0,8.258,43.1H24.226a1.453,1.453,0,0,0,1.452-1.452,2.906,2.906,0,0,0-2.9-2.9h-.726V37.29h5.806a3.594,3.594,0,0,0,2.378-.912l.525,1.079v1.285H29.306V46H45.274V38.742H43.823v-1.21ZM4.4,11.521a3.622,3.622,0,0,1,6.274,0,5.053,5.053,0,0,1-6.274,0ZM6.081,6.806A1.452,1.452,0,1,1,7.532,8.258,1.453,1.453,0,0,1,6.081,6.806Zm5.61,3.636A5.039,5.039,0,0,0,9.685,8.736a2.9,2.9,0,1,0-4.305,0,5.039,5.039,0,0,0-2.005,1.706,5.081,5.081,0,1,1,8.316,0ZM35.113,6.806a2.9,2.9,0,0,1,1.731,5.227,2.155,2.155,0,0,0-3.462,0,2.9,2.9,0,0,1,1.731-5.226ZM19.145,14.065A5.074,5.074,0,0,1,23.3,22.056,5.039,5.039,0,0,0,21.3,20.349a2.9,2.9,0,1,0-4.305,0,5.039,5.039,0,0,0-2.005,1.706,5.074,5.074,0,0,1,4.158-7.991Zm-1.452,4.355a1.452,1.452,0,1,1,1.452,1.452A1.453,1.453,0,0,1,17.694,18.419Zm1.452,2.9a3.61,3.61,0,0,1,3.137,1.812,5.053,5.053,0,0,1-6.274,0,3.61,3.61,0,0,1,3.137-1.812Zm5.081,20.323H8.258A1.453,1.453,0,0,1,9.71,40.194H22.774A1.453,1.453,0,0,1,24.226,41.645Zm-3.629-2.9h-8.71V37.29H20.6Zm7.258-2.9H4.629a2.18,2.18,0,0,1-2.177-2.177V19.145a2.18,2.18,0,0,1,2.177-2.177h8.365a6.532,6.532,0,1,0,12.3,0h2.558a2.18,2.18,0,0,1,2.177,2.177v2.9a4.642,4.642,0,0,0-2.515-.754,1.84,1.84,0,0,0-1.531,2.86l.747,1.121a3.238,3.238,0,0,1,.517,1.389l.5,4.016a4.93,4.93,0,0,0,.608,1.849l1.191,2.449A2.149,2.149,0,0,1,27.855,35.839Zm15.968,8.71H30.758V40.194H43.823ZM32.21,38.742V37.123l-2.566-5.274a3.584,3.584,0,0,1-.45-1.349l-.5-4.017a4.688,4.688,0,0,0-.749-2.014l-.748-1.121a.388.388,0,0,1,.323-.6,3.236,3.236,0,0,1,3.164,2.593L31.615,30h1.77l.62-1.24a3.649,3.649,0,0,0,.383-1.622v-13.8a.726.726,0,0,1,1.452,0V24.952H37.29v-2.9a.726.726,0,0,1,1.452,0v2.9h1.452v-2.9a.726.726,0,1,1,1.452,0v2.9H43.1V23.5a.726.726,0,1,1,1.452,0v9.435a3.649,3.649,0,0,1-.726,2.177l-1.452,1.936v1.693Z" transform="translate(0 0)" fill="rgba(252,79,25,0.99)" stroke="#fc511c" stroke-width="0.2"/>
      <path id="Path_73892" data-name="Path 73892" d="M24.968,34.806H23.516v2.9H22.065V36.258H20.613V37.71H19.161v-2.9H17.71v2.9H16.258V31.9H14.806V37.71H13.355V30.452H11.9V37.71H10.452V29H9V39.161H26.419V37.71H24.968Z" transform="translate(-2.194 -7.677)" fill="rgba(252,79,25,0.99)"/>
    </g>
  </g>
</svg>
