<svg xmlns="http://www.w3.org/2000/svg" xmlns:xlink="http://www.w3.org/1999/xlink" width="570" height="395.094" viewBox="0 0 570 395.094">
  <defs>
    <filter id="Rectangle_4462" x="242.786" y="246.119" width="175.588" height="91.94" filterUnits="userSpaceOnUse">
      <feOffset dy="3" input="SourceAlpha"/>
      <feGaussianBlur stdDeviation="3" result="blur"/>
      <feFlood flood-opacity="0.161"/>
      <feComposite operator="in" in2="blur"/>
      <feComposite in="SourceGraphic"/>
    </filter>
  </defs>
  <g id="_1" data-name="1" transform="translate(-813 -1156)">
    <path id="Path_80166" data-name="Path 80166" d="M678.293,316.953c-4.821,39.089-32.637,32.585-37.029,78.035-1.567,16.222,10.289,26.42,16.18,40.465,6.524,15.524,4.213,29.474-4.6,40.113H169.362c-10.688-4.886-20.887-10.083-29.764-16.325-12.221-8.576-21.893-19.147-26.825-33.64-4.452-13.1-7.882-25.729,3.813-35.662,6.349-5.4,12.958-9.567,18.7-14.574a45.294,45.294,0,0,0,11.033-13.6c21.076-41.036-5.96-77.2-15.889-118.263-.958-3.99-1.835-8.02-2.534-12.064-1.821-10.3-2.668-20.748-1.588-30.926a67.954,67.954,0,0,1,8.478-27.018c7.373-12.864,26.472-31.862,46.995-28.239,15.421,2.728,25.125,17.736,39.049,23.164,17.547,6.839,37.014,1.37,50.159-8.684,25.566-19.554,41.949-56.723,85.645-53.316,14.816,1.153,24.818,13.027,37.809,18.469,17.859,7.49,35.476,7.436,52.543.149,19.628-8.386,33.095-23.964,52.368-32.88a130.749,130.749,0,0,1,20.349-7.423c15.5-4.261,32.458-5.768,48.448-2.484a94.55,94.55,0,0,1,9.65,2.484c53.458,16.7,55.974,71.418,53.458,111.342-1.154,18.292-15.58,49.838-4.923,68.738S682.955,279.154,678.293,316.953Z" transform="translate(704.376 1075.528)" fill="rgba(252,79,25,0.99)" opacity="0.1"/>
    <g id="Group_167793" data-name="Group 167793" transform="translate(904.5 1228.11)">
      <g id="Group_167792" data-name="Group 167792">
        <g id="Group_167791" data-name="Group 167791">
          <path id="Path_82709" data-name="Path 82709" d="M331.173,347.7h-6.228V341.47h-3.886V347.7h-6.228v3.886h6.228v6.228h3.886v-6.228h6.228Z" transform="translate(-314.831 -92.287)" fill="#ff836d"/>
          <path id="Path_82710" data-name="Path 82710" d="M334.949,337.439a3.849,3.849,0,1,1-3.849-3.851A3.849,3.849,0,0,1,334.949,337.439Z" transform="translate(-312.937 -93.489)" fill="#ff836d"/>
          <rect id="Rectangle_4434" data-name="Rectangle 4434" width="335.643" height="269.05" rx="18.482" transform="translate(29.151 24.741)" fill="#f99746"/>
          <rect id="Rectangle_4435" data-name="Rectangle 4435" width="249.887" height="315.354" rx="12.013" transform="translate(354.65 34.322) rotate(90)" fill="#f99746"/>
          <rect id="Rectangle_4436" data-name="Rectangle 4436" width="298.824" height="235.437" rx="7.76" transform="translate(47.56 41.547)" fill="#fff"/>
          <path id="Path_82711" data-name="Path 82711" d="M322.64,365.139a38.413,38.413,0,0,0,32.8,18.56H665.78a38.413,38.413,0,0,0,32.8-18.56Z" transform="translate(-313.64 -88.677)" fill="#f99746"/>
          <path id="Path_82712" data-name="Path 82712" d="M326.652,370.586H694.573a38.688,38.688,0,0,0,4.012-5.447H322.64A38.688,38.688,0,0,0,326.652,370.586Z" transform="translate(-313.64 -88.677)" fill="#e57721"/>
          <path id="Path_82758" data-name="Path 82758" d="M0,0H83.551V46.758H0Z" transform="translate(71.053 181.495)" fill="#e57721"/>
          <g id="Group_167775" data-name="Group 167775" transform="translate(68.325 61.803)">
            <rect id="Rectangle_4438" data-name="Rectangle 4438" width="31.43" height="4.33" transform="translate(84.453)" fill="#839dc2"/>
            <rect id="Rectangle_4439" data-name="Rectangle 4439" width="19.187" height="4.33" transform="translate(43.812)" fill="#839dc2"/>
            <rect id="Rectangle_4440" data-name="Rectangle 4440" width="38.015" height="4.33" fill="#839dc2"/>
            <rect id="Rectangle_4441" data-name="Rectangle 4441" width="8.244" height="4.33" transform="translate(69.006)" fill="#839dc2"/>
            <rect id="Rectangle_4442" data-name="Rectangle 4442" width="19.121" height="4.33" transform="translate(123.881)" fill="#839dc2"/>
          </g>
          <g id="Group_167776" data-name="Group 167776" transform="translate(68.325 74.451)">
            <rect id="Rectangle_4443" data-name="Rectangle 4443" width="11.791" height="4.33" transform="translate(84.453)" fill="#839dc2"/>
            <rect id="Rectangle_4444" data-name="Rectangle 4444" width="11.791" height="4.33" transform="translate(100.933)" fill="#839dc2"/>
            <rect id="Rectangle_4445" data-name="Rectangle 4445" width="19.187" height="4.33" transform="translate(24.266)" fill="#839dc2"/>
            <rect id="Rectangle_4446" data-name="Rectangle 4446" width="18.825" height="4.33" fill="#839dc2"/>
            <rect id="Rectangle_4447" data-name="Rectangle 4447" width="31.597" height="4.33" transform="translate(48.719)" fill="#839dc2"/>
          </g>
          <g id="Group_167779" data-name="Group 167779" transform="translate(57.752 182.132)">
            <path id="Path_82713" data-name="Path 82713" d="M429.255,405.6c-1.987-6.377-5.843-33.355-6.707-43.922-.182-2.238-24.769-11.842-24.769-11.842-14.392-.364-21.8,5.28-21.8,5.28l34.557,11.673c0,15.586,13.286,39.092,13.286,39.092Z" transform="translate(-363.255 -273.146)" fill="#184992"/>
            <path id="Path_82714" data-name="Path 82714" d="M400.4,370.143l-10.262,35.741L396,407.162c2.555-8.432,17.325-37.325,17.726-40.76.171-1.464.065-2.594-.482-3.053s-17.114-10.359-21.926-11.441c-6.445-1.448-16.016-3.768-16.016-3.768a19.3,19.3,0,0,0-4.343,14.819C372.008,372.136,400.4,370.143,400.4,370.143Z" transform="translate(-364.043 -273.402)" fill="#184992"/>
            <path id="Path_82715" data-name="Path 82715" d="M386.068,312.7s-11.247,1-11.758,4.064,5.366,22.471,5.366,22.471l-5.714,15.249s16.222,3.992,24.126,1.014c.751.345,2.028-16.009,2.028-16.009l2.816-8.034,3.572,12.123,8.177,11.5,5.365-4.344-5.957-10.473s-9.223-21.046-11.673-23.5C397.817,312.169,386.068,312.7,386.068,312.7Z" transform="translate(-363.564 -278.81)" fill="#ff8526"/>
            <path id="Path_82716" data-name="Path 82716" d="M393.466,314.936l-.871-11.567h-8.432v10.8c-1.067.119,1.15,8.743,7.944,8.743C392.107,322.916,395.278,321.766,393.466,314.936Z" transform="translate(-362.047 -280.231)" fill="#e67750"/>
            <path id="Path_82717" data-name="Path 82717" d="M377.892,330.4c.983,3.488,1.784,6.131,1.784,6.131l-5.714,15.249s12.344,3.037,20.742,1.836c-.75-.55-10.708-7.261-11.2-10.187C382.486,337.3,377.892,330.4,377.892,330.4Z" transform="translate(-363.564 -276.107)" fill="#ff8526"/>
            <path id="Path_82718" data-name="Path 82718" d="M401.618,293.672c-.713-2.961-5.333-3.818-12.634-2.96-4.966.583-6.082,5.153-6.221,8.551-.074.018-.149.027-.224.05a4.038,4.038,0,0,0-2.841,4.006,3.944,3.944,0,0,0,.984,2.46,4.124,4.124,0,0,0,3,1.918,3.812,3.812,0,0,0,1.038-.022c2.068,4.3,5.861,9.666,11.182,9.027C403.709,311.245,401.618,293.672,401.618,293.672Z" transform="translate(-362.69 -282.21)" fill="#fd9e71"/>
            <path id="Path_82719" data-name="Path 82719" d="M384.885,301.908a5.66,5.66,0,0,1,2.025-6.6c3.639-2.731,3.884,1.3,7.72,1.8s7.619.182,7.208,2.716c2.321-5.727-1.035-9-4.788-10.8s-9.628-2.569-13.71.838-3.53,11.588-3.53,11.588C382.5,300.147,383.223,301.2,384.885,301.908Z" transform="translate(-362.676 -282.653)" fill="#201251"/>
            <path id="Path_82720" data-name="Path 82720" d="M385.6,290.5s-3.388-9.1-9.808-6.849-3.524,15.191-4.233,20.82-4.742,5.874-6.189,3.372c-2.684,5.1,7.833,10.289,11.257,5.385s1.451-17.331,3.641-18.6a4.261,4.261,0,0,1,4.395.379Z" transform="translate(-364.94 -283.293)" fill="#201251"/>
            <path id="Path_82721" data-name="Path 82721" d="M375.5,315.448c-2.7,1.558-7.665,20.172-7.665,23.237s23.936,18.332,23.936,18.332,1.1-3.768,3.659-4.534c-.512-.256-17.886-16.864-17.886-16.864l4.6-13.018S382.144,311.615,375.5,315.448Z" transform="translate(-364.498 -278.512)" fill="#ff8526"/>
            <path id="Path_82722" data-name="Path 82722" d="M387.014,353.543l24.4-.748,15.841,5.877-26.817,1.423Z" transform="translate(-361.573 -272.692)" fill="#30c5cc"/>
            <path id="Path_82723" data-name="Path 82723" d="M400.437,360l-13.422-5.2v-1.352l14.483,5.225Z" transform="translate(-361.573 -272.593)" fill="#0b9b9b"/>
            <path id="Path_82724" data-name="Path 82724" d="M398.66,362.042l8.064-22.017,26.673,1.431-7.921,19.674Z" transform="translate(-359.796 -274.64)" fill="#0b9b9b"/>
            <path id="Path_82725" data-name="Path 82725" d="M412.936,348.747c-.793,1.586-.553,3.314.536,3.857s2.614-.3,3.407-1.884.554-3.314-.535-3.858S413.73,347.161,412.936,348.747Z" transform="translate(-357.69 -273.622)" fill="#30c5cc"/>
            <path id="Path_82726" data-name="Path 82726" d="M392.262,347.475s9.709,7.664,8.687,8.176-5.365.511-7.664-.766-4.682-2.876-4.682-2.876S389.451,347.73,392.262,347.475Z" transform="translate(-361.331 -273.503)" fill="#fd9e71"/>
            <g id="Group_167777" data-name="Group 167777" transform="translate(23.553 131.843)">
              <path id="Path_82727" data-name="Path 82727" d="M394.032,397.816c1.724,1.746,7.587,4.395,10.477,5.11,3.1.766,2.555,3.368.292,3.368-4.444,0-14.328-.557-19.2-.557-.766-2.3.554-5.374,2.106-7.446C388.177,397.659,393.785,397.567,394.032,397.816Z" transform="translate(-385.375 -397.688)" fill="#201251"/>
            </g>
            <g id="Group_167778" data-name="Group 167778" transform="translate(58.557 131.843)">
              <path id="Path_82728" data-name="Path 82728" d="M424.4,397.816c1.724,1.746,7.587,4.395,10.476,5.11,3.1.766,2.555,3.368.292,3.368-4.444,0-14.328-.557-19.2-.557-.766-2.3.554-5.374,2.106-7.446C418.549,397.659,424.157,397.567,424.4,397.816Z" transform="translate(-415.747 -397.688)" fill="#201251"/>
            </g>
          </g>
          <g id="Group_167780" data-name="Group 167780" transform="translate(71.505 163.32)">
            <rect id="Rectangle_4448" data-name="Rectangle 4448" width="23.43" height="6.456" fill="#839dc2"/>
            <rect id="Rectangle_4449" data-name="Rectangle 4449" width="23.43" height="6.456" transform="translate(59.67)" fill="#839dc2"/>
            <rect id="Rectangle_4450" data-name="Rectangle 4450" width="23.43" height="6.456" transform="translate(29.835)" fill="#839dc2"/>
          </g>
          <g id="Group_167781" data-name="Group 167781" transform="translate(150.224 38.801)">
            <rect id="Rectangle_4451" data-name="Rectangle 4451" width="76.442" height="28.477" transform="translate(0 18.204) rotate(-13.777)" fill="#feba40"/>
            <rect id="Rectangle_4452" data-name="Rectangle 4452" width="56.305" height="3.937" transform="translate(4.843 20.993) rotate(-13.777)" fill="#fedb9b"/>
            <rect id="Rectangle_4453" data-name="Rectangle 4453" width="47.048" height="3.937" transform="translate(6.51 27.789) rotate(-13.777)" fill="#fedb9b"/>
            <rect id="Rectangle_4454" data-name="Rectangle 4454" width="22.323" height="3.937" transform="matrix(0.971, -0.238, 0.238, 0.971, 8.335, 35.234)" fill="#fedb9b"/>
            <rect id="Rectangle_4455" data-name="Rectangle 4455" width="11.956" height="3.935" transform="translate(54.481 16.131) rotate(-13.777)" fill="#fff"/>
          </g>
          <rect id="Rectangle_4456" data-name="Rectangle 4456" width="83.383" height="68.041" transform="translate(70.622 88.162)" fill="#fff"/>
          <g id="Group_167782" data-name="Group 167782" transform="translate(160.248 127.406)">
            <rect id="Rectangle_4457" data-name="Rectangle 4457" width="163.984" height="30.685" fill="#839dc2"/>
            <rect id="Rectangle_4458" data-name="Rectangle 4458" width="44.377" height="21.804" transform="translate(114.7 4.441)" fill="#3e6193"/>
            <rect id="Rectangle_4459" data-name="Rectangle 4459" width="102.571" height="4.205" transform="translate(5.996 5.763)" fill="#3e6193"/>
            <rect id="Rectangle_4460" data-name="Rectangle 4460" width="102.571" height="4.205" transform="translate(5.996 13.24)" fill="#3e6193"/>
            <rect id="Rectangle_4461" data-name="Rectangle 4461" width="69.055" height="4.205" transform="translate(5.996 20.717)" fill="#3e6193"/>
          </g>
          <g id="Group_167786" data-name="Group 167786" transform="translate(160.286 180.009)">
            <g id="Group_167783" data-name="Group 167783">
              <g transform="matrix(1, 0, 0, 1, -251.79, -252.12)" filter="url(#Rectangle_4462)">
                <rect id="Rectangle_4462-2" data-name="Rectangle 4462" width="157.588" height="73.94" transform="translate(251.79 252.12)" fill="#fff"/>
              </g>
              <rect id="Rectangle_4463" data-name="Rectangle 4463" width="157.588" height="12.26" fill="#ff9a88"/>
              <rect id="Rectangle_4464" data-name="Rectangle 4464" width="90.997" height="6.241" transform="translate(3.822 29.692)" fill="#839dc2"/>
              <rect id="Rectangle_4465" data-name="Rectangle 4465" width="81.604" height="6.241" transform="translate(3.822 40.788)" fill="#839dc2"/>
              <rect id="Rectangle_4466" data-name="Rectangle 4466" width="55.037" height="6.241" transform="translate(3.822 51.883)" fill="#839dc2"/>
              <rect id="Rectangle_4467" data-name="Rectangle 4467" width="32.801" height="6.241" transform="translate(3.822 19.47)" fill="#839dc2"/>
            </g>
            <g id="Group_167784" data-name="Group 167784" transform="translate(103.682 19.165)">
              <rect id="Rectangle_4468" data-name="Rectangle 4468" width="47.596" height="47.596" fill="#3e6193"/>
              <path id="Path_82729" data-name="Path 82729" d="M571.272,320.219a6.026,6.026,0,0,0,1.2-3.6v-3.636a6.061,6.061,0,1,0-12.122,0v3.636a6.031,6.031,0,0,0,1.312,3.76,14.3,14.3,0,0,0-9.549,13.487h29.976S580.923,323.016,571.272,320.219Z" transform="translate(-542.608 -296.732)" fill="#f6fffa"/>
            </g>
            <g id="Group_167785" data-name="Group 167785" transform="translate(5.05 3.345)">
              <circle id="Ellipse_3363" data-name="Ellipse 3363" cx="3.093" cy="3.093" r="3.093" fill="#db5a28"/>
              <circle id="Ellipse_3364" data-name="Ellipse 3364" cx="3.093" cy="3.093" r="3.093" transform="translate(9.911)" fill="#ffe780"/>
              <circle id="Ellipse_3365" data-name="Ellipse 3365" cx="3.093" cy="3.093" r="3.093" transform="translate(21.409)" fill="#1fb288"/>
            </g>
          </g>
          <rect id="Rectangle_4469" data-name="Rectangle 4469" width="55.19" height="55.19" transform="translate(264.217 58.851)" fill="#e57721"/>
          <g id="Group_167789" data-name="Group 167789" transform="translate(304.172 123.424)">
            <path id="Path_82730" data-name="Path 82730" d="M613.207,389.087s.476,1.452-3.976,3.483-9.152,1.315-10.306,3.021a9.343,9.343,0,0,0-1.422,3.323h25.331s-.191-6.995-3.06-10.1C620.14,389.482,613.207,389.087,613.207,389.087Z" transform="translate(-576.888 -199.49)" fill="#9e472d"/>
            <path id="Path_82731" data-name="Path 82731" d="M637.065,389.077s.458,1.4-3.824,3.349-8.8,1.263-9.908,2.9a8.978,8.978,0,0,0-1.368,3.195h24.356s-.184-6.725-2.942-9.711C643.73,389.456,637.065,389.077,637.065,389.077Z" transform="translate(-573.157 -199.49)" fill="#9e472d"/>
            <g id="Group_167787" data-name="Group 167787" transform="translate(0 30.324)">
              <path id="Path_82732" data-name="Path 82732" d="M610.943,276.929l-18.392,3.234-12.935-27.689,19.807-1.617Z" transform="translate(-579.616 -250.856)" fill="#fee8de"/>
            </g>
            <g id="Group_167788" data-name="Group 167788" transform="translate(8.325 53.595)">
              <path id="Path_82733" data-name="Path 82733" d="M586.878,271.049a.032.032,0,0,1,.015,0C586.83,271.076,586.82,271.079,586.878,271.049Z" transform="translate(-586.84 -271.048)" fill="#262845"/>
            </g>
            <path id="Path_82734" data-name="Path 82734" d="M618.166,228.682s-2.425,4.85-2.425,9.3c0,3.108.4,7.6.633,10.021a1.4,1.4,0,0,0,1.8,1.2l3.628-1.116-.2,5.254,10.12-.175,2.209-21.248S625.442,222.618,618.166,228.682Z" transform="translate(-574.106 -224.228)" fill="#fd9e71"/>
            <path id="Path_82735" data-name="Path 82735" d="M619,240.155s.568-4.207,3.742-3.337-.463,5.116-.463,5.116l3.031,5.457a9.314,9.314,0,0,0,7.074-.2s3.368-10.24,3.368-13.473S632.8,228.3,632.8,228.3s-7.9-3.947-12.143-3.745S616.011,229,616.011,229s-1.617,3.234,0,4.648S619,240.155,619,240.155Z" transform="translate(-574.174 -224.545)" fill="#201251"/>
            <path id="Path_82736" data-name="Path 82736" d="M631.448,247.117l-.458,2.924-10.457.04S622.556,246.847,631.448,247.117Z" transform="translate(-573.375 -221.105)" fill="#f81e1e"/>
            <path id="Path_82737" data-name="Path 82737" d="M592.267,270.948s.732-2.292-2.223-3.639a8.544,8.544,0,0,0-1.213-3.84c-.621-.619-1.011,2.829-1.011,2.829s-2.894-5.154-3.639-3.84,6.536,11.454,6.738,11.857S592.267,270.948,592.267,270.948Z" transform="translate(-578.928 -218.795)" fill="#fd9e71"/>
            <path id="Path_82738" data-name="Path 82738" d="M615.733,298.726l-7.007,59.286,1.422,45.956,8.818-.63s2.493-24.171,2.7-30.234-1.617-15.361-1.617-15.361l8.893-36.649,1.479.27.407,36.111,8.1,45.864,7.413.357s.183-23.652-.423-29.514-3.772-17.583-3.772-17.583l3.234-37.391a28.858,28.858,0,0,0-2.561-20.885C642.074,298.389,615.733,298.726,615.733,298.726Z" transform="translate(-575.176 -213.293)" fill="#184992"/>
            <path id="Path_82739" data-name="Path 82739" d="M625.384,249.692s-12.53,4.042-14.821,6.333-8.858,25.9-8.858,25.9l-9.9-9.92-3.068,7.2s11.587,17.248,15.226,17.786,11.857-21.828,11.857-21.828.746,12.217,2.155,18.325a38.227,38.227,0,0,1,.809,12.665c11.213,2.035,20.75,1.617,27.082-.4L649,282.205s4.272.5,5.62-.983-4.85-25.871-6.2-27.756-12.584-3.814-12.584-3.814Z" transform="translate(-578.225 -220.716)" fill="#f44"/>
            <path id="Path_82740" data-name="Path 82740" d="M631.439,263.77c-.067-.478-.857-.362-.839.114a153.516,153.516,0,0,1-1.558,30.035c-.106.673.894.981,1.044.288A87.39,87.39,0,0,0,631.439,263.77Z" transform="translate(-572.079 -218.609)" fill="#f81e1e"/>
            <path id="Path_82741" data-name="Path 82741" d="M641.654,270.269c-.067-.339-.581-.25-.588.08a100.285,100.285,0,0,1-1.963,17.389c-1,5.164-1.91,10.335-1.576,15.616.047.739,1.191.75,1.159,0-.256-6.1.984-11.987,2.094-17.949C641.7,280.453,642.655,275.278,641.654,270.269Z" transform="translate(-570.794 -217.604)" fill="#f81e1e"/>
            <path id="Path_82742" data-name="Path 82742" d="M615,270.09c-3.364,2.138-4.627,6.324-5.916,9.885-1.743,4.818-3.484,9.551-7.278,13.166-.566.538.278,1.369.852.853,7.006-6.307,6.673-16.616,12.648-23.509C615.483,270.28,615.255,269.927,615,270.09Z" transform="translate(-576.26 -217.605)" fill="#f81e1e"/>
            <path id="Path_82743" data-name="Path 82743" d="M642.023,296.945s-16.977,2.155-27.217-1.079c.269,0,0,3.234,0,3.234a51.443,51.443,0,0,0,28.026,1.078C642.712,300.13,642.023,296.945,642.023,296.945Z" transform="translate(-574.249 -213.667)" fill="#184992"/>
          </g>
          <g id="Group_167790" data-name="Group 167790" transform="translate(169 58.722)">
            <path id="Path_82744" data-name="Path 82744" d="M487.942,356.675s-1.406,3.066-3.833,3.577-8.815,1.916-9.837,2.81-1.022,3.194-1.022,3.194h20.276s-.037-6.138-1.214-9.329C492.8,356.931,487.942,356.675,487.942,356.675Z" transform="translate(-459.668 -148.69)" fill="#1a133a"/>
            <path id="Path_82745" data-name="Path 82745" d="M521.861,356.675s-1.4,3.066-3.832,3.577-8.816,1.916-9.838,2.81-1.021,3.194-1.021,3.194h20.275s-.037-6.138-1.214-9.329C526.716,356.931,521.861,356.675,521.861,356.675Z" transform="translate(-454.494 -148.69)" fill="#1a133a"/>
            <path id="Path_82746" data-name="Path 82746" d="M518.554,184.929s-5.647-1.442-5.989-.542,8.73,3.582,8.73,3.582l8.168,22.648-3.058,7.246L532.027,224s6.131-8.3,6.643-10.732-14.564-26.827-14.564-26.827-2.992-9.508-3.45-9.965-5.858-.171-7.081-.15,3.56,4.864,3.56,4.864Z" transform="translate(-453.673 -176.214)" fill="#e79673"/>
            <path id="Path_82747" data-name="Path 82747" d="M499.158,198.836a20.71,20.71,0,0,0-3.266,7.8,26.29,26.29,0,0,0,.191,7.857l4.939-.164v4.62h9.817a51.562,51.562,0,0,1,.575-5.416c.384-1.917,3.066-5.557,3.066-5.557l-4.407-12.455-6.324-.575Z" transform="translate(-456.247 -173.357)" fill="#e79673"/>
            <path id="Path_82748" data-name="Path 82748" d="M501.236,205.382s1.725-4.025,3.833-2.492-.575,4.791-.575,4.791,1.342,5.557,3.641,6.324l2.3.766s5.941-5.557,6.9-7.09-1.533-10.349-3.258-12.264-9.2-1.725-9.772-2.683-2.492-2.683-4.408-1.917-1.533,7.09-1.533,7.09,2.37,2.04,2.526,3.512a7.212,7.212,0,0,1-.94,3.42Z" transform="translate(-455.843 -174.016)" fill="#201251"/>
            <path id="Path_82749" data-name="Path 82749" d="M494.846,216.789s9.8-1.43,15.416-1.558,14.563,2.81,14.563,2.81l6.51-6.968,8.29,7.792s-7.057,10.414-9.331,12.844-3.935,13.8-4.446,17.249-1.789,23.635-1.789,23.635-6,7.154-30.661-.639c-.256-.256,1.022-14.819.894-18.4s-3.322-15.714-3.96-18.652-10.826-8.818-10.826-8.818-1.259-7.158,3.443-10.6C483.562,215.869,494.846,216.789,494.846,216.789Z" transform="translate(-458.737 -170.898)" fill="#f8c25a"/>
            <path id="Path_82750" data-name="Path 82750" d="M474.793,191.932s-3.705,3.449-3.961,4.854,5.1,17.412,5.1,17.412l9.749,5.707-3.443,10.6s-10.638-7.406-12.171-9.579-4.216-23.89-4.216-23.89-3.449-4.344-3.7-5.494-1.059-4.91-.466-5.649,4.546-4.829,5.124-3.614,2.706,10.064,2.706,10.064S473.9,190.4,474.793,191.932Z" transform="translate(-461.465 -175.323)" fill="#e79673"/>
            <path id="Path_82751" data-name="Path 82751" d="M492.656,263.951,487.1,316.33,484.224,371.9l9.582.383s5.941-36.872,6.037-42.486-.1-12.32-.1-12.32l6.133-27.979h3.45l7.09,36.411,7.282,45.225,7.665.383s1.149-28.17,0-33.919-2.874-11.306-2.874-11.306l-3.45-37.751s3.066-13.414-1.725-23.954C522.359,262.673,492.656,263.951,492.656,263.951Z" transform="translate(-457.994 -162.896)" fill="#184992"/>
          </g>
          <path id="Path_82752" data-name="Path 82752" d="M442.907,213.019h-6.228v-6.228h-3.886v6.228h-6.228v3.886h6.228v6.228h3.886v-6.228h6.228Z" transform="translate(-297.789 -112.829)" fill="#fdbe44"/>
          <path id="Path_82753" data-name="Path 82753" d="M391.737,256.472a9.737,9.737,0,1,1,9.737-9.738A9.75,9.75,0,0,1,391.737,256.472Zm0-14.393a4.656,4.656,0,1,0,4.655,4.655A4.662,4.662,0,0,0,391.737,242.079Z" transform="translate(-304.587 -108.222)" fill="#ff836d"/>
          <path id="Path_82754" data-name="Path 82754" d="M652.408,177.1H646.18v-6.228h-3.886V177.1h-6.228v3.886h6.228v6.228h3.886v-6.228h6.228Z" transform="translate(-265.834 -118.307)" fill="#ff836d"/>
          <path id="Path_82755" data-name="Path 82755" d="M624.26,139.91a3.849,3.849,0,1,1-3.849-3.852A3.85,3.85,0,0,1,624.26,139.91Z" transform="translate(-268.809 -123.618)" fill="#ff836d"/>
          <path id="Path_82756" data-name="Path 82756" d="M559.337,200.605a9.737,9.737,0,1,1,9.738-9.738A9.75,9.75,0,0,1,559.337,200.605Zm0-14.393a4.656,4.656,0,1,0,4.656,4.655A4.661,4.661,0,0,0,559.337,186.212Z" transform="translate(-279.023 -116.743)" fill="#feba40"/>
          <path id="Path_82757" data-name="Path 82757" d="M604.23,144.738A9.737,9.737,0,1,1,613.968,135,9.75,9.75,0,0,1,604.23,144.738Zm0-14.393A4.656,4.656,0,1,0,608.886,135,4.661,4.661,0,0,0,604.23,130.345Z" transform="translate(-272.176 -125.264)" fill="#feba40"/>
        </g>
      </g>
    </g>
  </g>
</svg>
